<svg id="visual" viewBox="0 0 900 600" width="900" height="600" xmlns="http://www.w3.org/2000/svg" xmlns:xlink="http://www.w3.org/1999/xlink" version="1.1"><path d="M0 181L9.3 173C18.7 165 37.3 149 56.2 143C75 137 94 141 112.8 141C131.7 141 150.3 137 169 150C187.7 163 206.3 193 225 195C243.7 197 262.3 171 281.2 154C300 137 319 129 337.8 129C356.7 129 375.3 137 394 138C412.7 139 431.3 133 450 134C468.7 135 487.3 143 506.2 135C525 127 544 103 562.8 89C581.7 75 600.3 71 619 88C637.7 105 656.3 143 675 152C693.7 161 712.3 141 731.2 133C750 125 769 129 787.8 128C806.7 127 825.3 121 844 133C862.7 145 881.3 175 890.7 190L900 205L900 0L890.7 0C881.3 0 862.7 0 844 0C825.3 0 806.7 0 787.8 0C769 0 750 0 731.2 0C712.3 0 693.7 0 675 0C656.3 0 637.7 0 619 0C600.3 0 581.7 0 562.8 0C544 0 525 0 506.2 0C487.3 0 468.7 0 450 0C431.3 0 412.7 0 394 0C375.3 0 356.7 0 337.8 0C319 0 300 0 281.2 0C262.3 0 243.7 0 225 0C206.3 0 187.7 0 169 0C150.3 0 131.7 0 112.8 0C94 0 75 0 56.2 0C37.3 0 18.7 0 9.3 0L0 0Z" fill="#00193e"></path><path d="M0 265L9.3 264C18.7 263 37.3 261 56.2 252C75 243 94 227 112.8 226C131.7 225 150.3 239 169 254C187.7 269 206.3 285 225 283C243.7 281 262.3 261 281.2 250C300 239 319 237 337.8 242C356.7 247 375.3 259 394 258C412.7 257 431.3 243 450 245C468.7 247 487.3 265 506.2 261C525 257 544 231 562.8 213C581.7 195 600.3 185 619 203C637.7 221 656.3 267 675 278C693.7 289 712.3 265 731.2 251C750 237 769 233 787.8 220C806.7 207 825.3 185 844 197C862.7 209 881.3 255 890.7 278L900 301L900 203L890.7 188C881.3 173 862.7 143 844 131C825.3 119 806.7 125 787.8 126C769 127 750 123 731.2 131C712.3 139 693.7 159 675 150C656.3 141 637.7 103 619 86C600.3 69 581.7 73 562.8 87C544 101 525 125 506.2 133C487.3 141 468.7 133 450 132C431.3 131 412.7 137 394 136C375.3 135 356.7 127 337.8 127C319 127 300 135 281.2 152C262.3 169 243.7 195 225 193C206.3 191 187.7 161 169 148C150.3 135 131.7 139 112.8 139C94 139 75 135 56.2 141C37.3 147 18.7 163 9.3 171L0 179Z" fill="#022144"></path><path d="M0 313L9.3 311C18.7 309 37.3 305 56.2 298C75 291 94 281 112.8 285C131.7 289 150.3 307 169 318C187.7 329 206.3 333 225 326C243.7 319 262.3 301 281.2 290C300 279 319 275 337.8 286C356.7 297 375.3 323 394 326C412.7 329 431.3 309 450 305C468.7 301 487.3 313 506.2 307C525 301 544 277 562.8 258C581.7 239 600.3 225 619 241C637.7 257 656.3 303 675 314C693.7 325 712.3 301 731.2 293C750 285 769 293 787.8 287C806.7 281 825.3 261 844 273C862.7 285 881.3 329 890.7 351L900 373L900 299L890.7 276C881.3 253 862.7 207 844 195C825.3 183 806.7 205 787.8 218C769 231 750 235 731.2 249C712.3 263 693.7 287 675 276C656.3 265 637.7 219 619 201C600.3 183 581.7 193 562.8 211C544 229 525 255 506.2 259C487.3 263 468.7 245 450 243C431.3 241 412.7 255 394 256C375.3 257 356.7 245 337.8 240C319 235 300 237 281.2 248C262.3 259 243.7 279 225 281C206.3 283 187.7 267 169 252C150.3 237 131.7 223 112.8 224C94 225 75 241 56.2 250C37.3 259 18.7 261 9.3 262L0 263Z" fill="#07284a"></path><path d="M0 409L9.3 406C18.7 403 37.3 397 56.2 383C75 369 94 347 112.8 349C131.7 351 150.3 377 169 387C187.7 397 206.3 391 225 382C243.7 373 262.3 361 281.2 347C300 333 319 317 337.8 323C356.7 329 375.3 357 394 367C412.7 377 431.3 369 450 374C468.7 379 487.3 397 506.2 394C525 391 544 367 562.8 348C581.7 329 600.3 315 619 329C637.7 343 656.3 385 675 393C693.7 401 712.3 375 731.2 366C750 357 769 365 787.8 360C806.7 355 825.3 337 844 344C862.7 351 881.3 383 890.7 399L900 415L900 371L890.7 349C881.3 327 862.7 283 844 271C825.3 259 806.7 279 787.8 285C769 291 750 283 731.2 291C712.3 299 693.7 323 675 312C656.3 301 637.7 255 619 239C600.3 223 581.7 237 562.8 256C544 275 525 299 506.2 305C487.3 311 468.7 299 450 303C431.3 307 412.7 327 394 324C375.3 321 356.7 295 337.8 284C319 273 300 277 281.2 288C262.3 299 243.7 317 225 324C206.3 331 187.7 327 169 316C150.3 305 131.7 287 112.8 283C94 279 75 289 56.2 296C37.3 303 18.7 307 9.3 309L0 311Z" fill="#0e3050"></path><path d="M0 517L9.3 525C18.7 533 37.3 549 56.2 546C75 543 94 521 112.8 510C131.7 499 150.3 499 169 503C187.7 507 206.3 515 225 523C243.7 531 262.3 539 281.2 540C300 541 319 535 337.8 533C356.7 531 375.3 533 394 530C412.7 527 431.3 519 450 521C468.7 523 487.3 535 506.2 533C525 531 544 515 562.8 510C581.7 505 600.3 511 619 521C637.7 531 656.3 545 675 543C693.7 541 712.3 523 731.2 512C750 501 769 497 787.8 506C806.7 515 825.3 537 844 537C862.7 537 881.3 515 890.7 504L900 493L900 413L890.7 397C881.3 381 862.7 349 844 342C825.3 335 806.7 353 787.8 358C769 363 750 355 731.2 364C712.3 373 693.7 399 675 391C656.3 383 637.7 341 619 327C600.3 313 581.7 327 562.8 346C544 365 525 389 506.2 392C487.3 395 468.7 377 450 372C431.3 367 412.7 375 394 365C375.3 355 356.7 327 337.8 321C319 315 300 331 281.2 345C262.3 359 243.7 371 225 380C206.3 389 187.7 395 169 385C150.3 375 131.7 349 112.8 347C94 345 75 367 56.2 381C37.3 395 18.7 401 9.3 404L0 407Z" fill="#153755"></path><path d="M0 601L9.3 601C18.7 601 37.3 601 56.2 601C75 601 94 601 112.8 601C131.7 601 150.3 601 169 601C187.7 601 206.3 601 225 601C243.7 601 262.3 601 281.2 601C300 601 319 601 337.8 601C356.7 601 375.3 601 394 601C412.7 601 431.3 601 450 601C468.7 601 487.3 601 506.2 601C525 601 544 601 562.8 601C581.7 601 600.3 601 619 601C637.7 601 656.3 601 675 601C693.7 601 712.3 601 731.2 601C750 601 769 601 787.8 601C806.7 601 825.3 601 844 601C862.7 601 881.3 601 890.7 601L900 601L900 491L890.7 502C881.3 513 862.7 535 844 535C825.3 535 806.7 513 787.8 504C769 495 750 499 731.2 510C712.3 521 693.7 539 675 541C656.3 543 637.7 529 619 519C600.3 509 581.7 503 562.8 508C544 513 525 529 506.2 531C487.3 533 468.7 521 450 519C431.3 517 412.7 525 394 528C375.3 531 356.7 529 337.8 531C319 533 300 539 281.2 538C262.3 537 243.7 529 225 521C206.3 513 187.7 505 169 501C150.3 497 131.7 497 112.8 508C94 519 75 541 56.2 544C37.3 547 18.7 531 9.3 523L0 515Z" fill="#1d3f5a"></path></svg>