<svg xmlns="http://www.w3.org/2000/svg" width="1440" height="900"><path d="M859,585L595,647L847,904Z" fill="#dadada" stroke="#dadada" stroke-width="1.51"/><path d="M595,647L545,923L847,904Z" fill="#d7d7d7" stroke="#d7d7d7" stroke-width="1.51"/><path d="M847,904L1187,635L859,585Z" fill="#d5d5d5" stroke="#d5d5d5" stroke-width="1.51"/><path d="M859,585L525,276L595,647Z" fill="#e1e1e1" stroke="#e1e1e1" stroke-width="1.51"/><path d="M1185,277L905,273L859,585Z" fill="#dddddd" stroke="#dddddd" stroke-width="1.51"/><path d="M847,904L1219,954L1187,635Z" fill="#cdcdcd" stroke="#cdcdcd" stroke-width="1.51"/><path d="M904,1240L1219,954L847,904Z" fill="#c4c4c4" stroke="#c4c4c4" stroke-width="1.51"/><path d="M905,273L525,276L859,585Z" fill="#e2e2e2" stroke="#e2e2e2" stroke-width="1.51"/><path d="M595,647L221,597L545,923Z" fill="#dadada" stroke="#dadada" stroke-width="1.51"/><path d="M545,923L904,1240L847,904Z" fill="#cbcbcb" stroke="#cbcbcb" stroke-width="1.51"/><path d="M525,276L221,597L595,647Z" fill="#e0e0e0" stroke="#e0e0e0" stroke-width="1.51"/><path d="M545,923L527,1293L904,1240Z" fill="#c1c1c1" stroke="#c1c1c1" stroke-width="1.51"/><path d="M221,597L238,954L545,923Z" fill="#d5d5d5" stroke="#d5d5d5" stroke-width="1.51"/><path d="M238,954L527,1293L545,923Z" fill="#c8c8c8" stroke="#c8c8c8" stroke-width="1.51"/><path d="M1547,591L1185,277L1187,635Z" fill="#d3d3d3" stroke="#d3d3d3" stroke-width="1.51"/><path d="M1187,635L1185,277L859,585Z" fill="#d9d9d9" stroke="#d9d9d9" stroke-width="1.51"/><path d="M527,1293L1196,1270L904,1240Z" fill="#b4b4b4" stroke="#b4b4b4" stroke-width="1.51"/><path d="M904,1240L1196,1270L1219,954Z" fill="#b7b7b7" stroke="#b7b7b7" stroke-width="1.51"/><path d="M-71,1269L210,1266L238,954Z" fill="#bebebe" stroke="#bebebe" stroke-width="1.51"/><path d="M525,276L204,306L221,597Z" fill="#e1e1e1" stroke="#e1e1e1" stroke-width="1.51"/><path d="M238,954L210,1266L527,1293Z" fill="#bdbdbd" stroke="#bdbdbd" stroke-width="1.51"/><path d="M-116,636L238,954L221,597Z" fill="#d7d7d7" stroke="#d7d7d7" stroke-width="1.51"/><path d="M1196,1270L1503,946L1219,954Z" fill="#bababa" stroke="#bababa" stroke-width="1.51"/><path d="M1219,954L1503,946L1187,635Z" fill="#c8c8c8" stroke="#c8c8c8" stroke-width="1.51"/><path d="M525,276L225,-45L204,306Z" fill="#e0e0e0" stroke="#e0e0e0" stroke-width="1.51"/><path d="M905,273L539,-32L525,276Z" fill="#e2e2e2" stroke="#e2e2e2" stroke-width="1.51"/><path d="M877,-79L539,-32L905,273Z" fill="#e0e0e0" stroke="#e0e0e0" stroke-width="1.51"/><path d="M1503,946L1547,591L1187,635Z" fill="#c7c7c7" stroke="#c7c7c7" stroke-width="1.51"/><path d="M1228,-43L905,273L1185,277Z" fill="#d8d8d8" stroke="#d8d8d8" stroke-width="1.51"/><path d="M1228,-43L877,-79L905,273Z" fill="#dadada" stroke="#dadada" stroke-width="1.51"/><path d="M-80,300L-116,636L221,597Z" fill="#e0e0e0" stroke="#e0e0e0" stroke-width="1.51"/><path d="M-116,636L-131,912L238,954Z" fill="#d5d5d5" stroke="#d5d5d5" stroke-width="1.51"/><path d="M1573,317L1228,-43L1185,277Z" fill="#d3d3d3" stroke="#d3d3d3" stroke-width="1.51"/><path d="M1547,591L1573,317L1185,277Z" fill="#cfcfcf" stroke="#cfcfcf" stroke-width="1.51"/><path d="M225,-45L-80,300L204,306Z" fill="#dfdfdf" stroke="#dfdfdf" stroke-width="1.51"/><path d="M204,306L-80,300L221,597Z" fill="#e0e0e0" stroke="#e0e0e0" stroke-width="1.51"/><path d="M539,-32L225,-45L525,276Z" fill="#e0e0e0" stroke="#e0e0e0" stroke-width="1.51"/><path d="M517,-400L225,-45L539,-32Z" fill="#e2e2e2" stroke="#e2e2e2" stroke-width="1.51"/><path d="M1196,1270L1570,1234L1503,946Z" fill="#aeaeae" stroke="#aeaeae" stroke-width="1.51"/><path d="M1503,946L1849,903L1547,591Z" fill="#b6b6b6" stroke="#b6b6b6" stroke-width="1.51"/><path d="M1547,591L1862,623L1573,317Z" fill="#bfbfbf" stroke="#bfbfbf" stroke-width="1.51"/><path d="M-131,912L-71,1269L238,954Z" fill="#c8c8c8" stroke="#c8c8c8" stroke-width="1.51"/><path d="M210,1266L-71,1269L527,1293Z" fill="#b4b4b4" stroke="#b4b4b4" stroke-width="1.51"/><path d="M1570,1234L1849,903L1503,946Z" fill="#aaaaaa" stroke="#aaaaaa" stroke-width="1.51"/><path d="M1849,903L1862,623L1547,591Z" fill="#b3b3b3" stroke="#b3b3b3" stroke-width="1.51"/><path d="M1573,317L1559,-60L1228,-43Z" fill="#cccccc" stroke="#cccccc" stroke-width="1.51"/><path d="M1233,-357L923,-396L877,-79Z" fill="#dedede" stroke="#dedede" stroke-width="1.51"/><path d="M1864,-59L1559,-60L1573,317Z" fill="#bebebe" stroke="#bebebe" stroke-width="1.51"/><path d="M877,-79L517,-400L539,-32Z" fill="#e3e3e3" stroke="#e3e3e3" stroke-width="1.51"/><path d="M1233,-357L877,-79L1228,-43Z" fill="#d9d9d9" stroke="#d9d9d9" stroke-width="1.51"/><path d="M-80,300L-415,585L-116,636Z" fill="#e3e3e3" stroke="#e3e3e3" stroke-width="1.51"/><path d="M-116,636L-415,585L-131,912Z" fill="#dcdcdc" stroke="#dcdcdc" stroke-width="1.51"/><path d="M225,-45L-114,-28L-80,300Z" fill="#dfdfdf" stroke="#dfdfdf" stroke-width="1.51"/><path d="M-65,-343L-114,-28L225,-45Z" fill="#e0e0e0" stroke="#e0e0e0" stroke-width="1.51"/><path d="M923,-396L517,-400L877,-79Z" fill="#e4e4e4" stroke="#e4e4e4" stroke-width="1.51"/><path d="M-449,321L-415,585L-80,300Z" fill="#e6e6e6" stroke="#e6e6e6" stroke-width="1.51"/><path d="M-131,912L-409,972L-71,1269Z" fill="#cbcbcb" stroke="#cbcbcb" stroke-width="1.51"/><path d="M-415,585L-409,972L-131,912Z" fill="#dadada" stroke="#dadada" stroke-width="1.51"/><path d="M1559,-60L1233,-357L1228,-43Z" fill="#d3d3d3" stroke="#d3d3d3" stroke-width="1.51"/><path d="M1570,1234L1844,1247L1849,903Z" fill="#9c9c9c" stroke="#9c9c9c" stroke-width="1.51"/><path d="M1849,903L1900,306L1862,623Z" fill="#afafaf" stroke="#afafaf" stroke-width="1.51"/><path d="M1196,1270L1844,1247L1570,1234Z" fill="#9f9f9f" stroke="#9f9f9f" stroke-width="1.51"/><path d="M1862,623L1900,306L1573,317Z" fill="#bababa" stroke="#bababa" stroke-width="1.51"/><path d="M1844,1247L1900,306L1849,903Z" fill="#a8a8a8" stroke="#a8a8a8" stroke-width="1.51"/><path d="M517,-400L193,-361L225,-45Z" fill="#e3e3e3" stroke="#e3e3e3" stroke-width="1.51"/><path d="M-409,972L-405,1267L-71,1269Z" fill="#c2c2c2" stroke="#c2c2c2" stroke-width="1.51"/><path d="M-71,1269L-405,1267L527,1293Z" fill="#b4b4b4" stroke="#b4b4b4" stroke-width="1.51"/><path d="M-449,321L-405,1267L-409,972Z" fill="#dadada" stroke="#dadada" stroke-width="1.51"/><path d="M-415,585L-449,321L-409,972Z" fill="#e2e2e2" stroke="#e2e2e2" stroke-width="1.51"/><path d="M-413,-40L-449,321L-80,300Z" fill="#e5e5e5" stroke="#e5e5e5" stroke-width="1.51"/><path d="M-413,-40L-80,300L-114,-28Z" fill="#e2e2e2" stroke="#e2e2e2" stroke-width="1.51"/><path d="M-451,-344L-65,-343L193,-361Z" fill="#e6e6e6" stroke="#e6e6e6" stroke-width="1.51"/><path d="M193,-361L-65,-343L225,-45Z" fill="#e2e2e2" stroke="#e2e2e2" stroke-width="1.51"/><path d="M1559,-60L1568,-367L1233,-357Z" fill="#d0d0d0" stroke="#d0d0d0" stroke-width="1.51"/><path d="M1900,306L1864,-59L1573,317Z" fill="#b8b8b8" stroke="#b8b8b8" stroke-width="1.51"/><path d="M1864,-59L1568,-367L1559,-60Z" fill="#c0c0c0" stroke="#c0c0c0" stroke-width="1.51"/><path d="M1233,-357L1568,-367L923,-396Z" fill="#dadada" stroke="#dadada" stroke-width="1.51"/><path d="M-65,-343L-413,-40L-114,-28Z" fill="#e4e4e4" stroke="#e4e4e4" stroke-width="1.51"/><path d="M1864,-59L1892,-358L1568,-367Z" fill="#bbbbbb" stroke="#bbbbbb" stroke-width="1.51"/><path d="M1568,-367L1892,-358L923,-396Z" fill="#d1d1d1" stroke="#d1d1d1" stroke-width="1.51"/><path d="M1900,306L1892,-358L1864,-59Z" fill="#b0b0b0" stroke="#b0b0b0" stroke-width="1.51"/><path d="M-65,-343L-451,-344L-413,-40Z" fill="#e7e7e7" stroke="#e7e7e7" stroke-width="1.51"/><path d="M-413,-40L-451,-344L-449,321Z" fill="#e5e5e5" stroke="#e5e5e5" stroke-width="1.51"/><path d="M517,-400L-451,-344L193,-361Z" fill="#e4e4e4" stroke="#e4e4e4" stroke-width="1.51"/></svg>