<?xml version="1.0" encoding="UTF-8"?>
<svg width="176.13" height="52.515" version="1.1" viewBox="0 0 176.13187 52.514531" xml:space="preserve" xmlns="http://www.w3.org/2000/svg" xmlns:cc="http://creativecommons.org/ns#" xmlns:dc="http://purl.org/dc/elements/1.1/" xmlns:rdf="http://www.w3.org/1999/02/22-rdf-syntax-ns#"><metadata><rdf:RDF><cc:Work rdf:about=""><dc:format>image/svg+xml</dc:format><dc:type rdf:resource="http://purl.org/dc/dcmitype/StillImage"/><dc:title/></cc:Work></rdf:RDF></metadata><defs><clipPath id="a"><path d="m0 0h2645.5v1036h-2645.5z"/></clipPath></defs><g transform="matrix(.95825 0 0 -.95825 -38.687 75.901)"><g transform="scale(.1)"><g clip-path="url(#a)"><path d="m1019.2 411.32c-58.97 0-106.76 47.793-106.76 106.74 0 58.964 47.793 106.76 106.76 106.76 58.96 0 106.75-47.793 106.75-106.76 0-58.946-47.79-106.74-106.75-106.74zm0 287.77c-99.986 0-181.02-81.055-181.02-181.04 0-99.961 81.035-181.02 181.02-181.02 99.97 0 181.03 81.055 181.03 181.02 0 99.98-81.06 181.04-181.03 181.04" fill="#393536"/><path d="m1393.5 411.32c-58.95 0-106.75 47.793-106.75 106.74 0 58.964 47.8 106.76 106.75 106.76 58.97 0 106.76-47.793 106.76-106.76 0-58.946-47.79-106.74-106.76-106.74zm0 287.77c-99.97 0-181.02-81.055-181.02-181.04 0-99.961 81.05-181.02 181.02-181.02 99.98 0 181.04 81.055 181.04 181.02 0 99.98-81.06 181.04-181.04 181.04" fill="#393536"/><path d="m1720.7 420.75h-58.73v0.488h-57.35l57.35 9.649v174.9l-57.35 9.648h105.97l0.01-0.078h10.1c63.45 0 95.55-48.925 95.55-97.5 0-48.554-32.1-97.109-95.55-97.109zm-5.61 275.98h-99.46c-15.94 0-28.85-12.929-28.85-28.867v-299.61c0-15.918 12.91-28.848 28.85-28.848h99.46c117.05 0 175.84 88.946 175.84 178.42 0 89.434-58.79 178.91-175.84 178.91" fill="#393536"/><path d="m825.91 713.22c0 0.254-0.019 0.508-0.039 0.762-0.031 0.351-0.051 0.703-0.09 1.035-0.019 0.351-0.066 0.683-0.105 1.015-0.039 0.274-0.071 0.528-0.11 0.801-0.058 0.352-0.117 0.723-0.175 1.074-0.04 0.254-0.086 0.469-0.137 0.703-0.067 0.372-0.156 0.743-0.235 1.094-0.046 0.235-0.105 0.469-0.156 0.684-0.097 0.351-0.183 0.703-0.281 1.035-0.07 0.254-0.148 0.508-0.207 0.742-0.098 0.313-0.203 0.625-0.313 0.938-0.078 0.273-0.175 0.547-0.273 0.82-0.086 0.273-0.195 0.547-0.301 0.801-0.129 0.312-0.234 0.625-0.363 0.918-0.098 0.234-0.203 0.468-0.293 0.683-0.145 0.352-0.301 0.684-0.457 1.016-0.078 0.176-0.188 0.371-0.274 0.547-0.187 0.371-0.371 0.742-0.566 1.094-0.078 0.156-0.156 0.293-0.246 0.449-0.215 0.371-0.43 0.762-0.664 1.152-0.059 0.117-0.145 0.235-0.223 0.352-0.246 0.39-0.488 0.781-0.754 1.172-0.066 0.117-0.144 0.214-0.214 0.312-0.262 0.391-0.536 0.781-0.829 1.172-0.078 0.117-0.156 0.195-0.234 0.312-0.285 0.372-0.578 0.743-0.879 1.114-0.098 0.117-0.187 0.215-0.285 0.332-0.301 0.351-0.586 0.703-0.906 1.035-0.071 0.078-0.137 0.156-0.215 0.234-0.332 0.352-0.664 0.723-1.027 1.075-0.352 0.371-0.731 0.722-1.114 1.074-0.058 0.039-0.105 0.097-0.164 0.156-0.363 0.332-0.734 0.625-1.086 0.937-0.097 0.079-0.195 0.176-0.301 0.254-0.371 0.313-0.761 0.606-1.144 0.899-0.098 0.058-0.184 0.137-0.274 0.215-0.39 0.293-0.781 0.566-1.191 0.84-0.098 0.078-0.184 0.136-0.281 0.195-0.41 0.273-0.801 0.527-1.211 0.781-0.098 0.078-0.207 0.137-0.324 0.195-0.379 0.235-0.801 0.469-1.211 0.704-0.117 0.058-0.242 0.136-0.379 0.214-0.383 0.196-0.762 0.391-1.145 0.567-0.164 0.097-0.332 0.176-0.496 0.254-0.351 0.175-0.715 0.332-1.074 0.488-0.195 0.098-0.41 0.176-0.617 0.273-0.321 0.137-0.645 0.254-0.977 0.391-0.254 0.098-0.496 0.195-0.75 0.273-0.293 0.118-0.586 0.215-0.879 0.293-0.304 0.098-0.586 0.196-0.879 0.293-0.265 0.079-0.539 0.157-0.8 0.215-0.325 0.098-0.645 0.196-0.969 0.274-0.262 0.058-0.516 0.117-0.77 0.175-0.332 0.079-0.664 0.157-1.007 0.215-0.274 0.059-0.547 0.098-0.801 0.157-0.34 0.058-0.664 0.117-0.977 0.156-0.312 0.039-0.644 0.078-0.957 0.117-0.273 0.039-0.555 0.078-0.847 0.117-0.442 0.039-0.879 0.059-1.309 0.098-0.168 0-0.344 0.019-0.5 0.019-1.25 0.078-2.5 0.078-3.75 0-0.176 0-0.34-0.019-0.527-0.039-0.43-0.019-0.86-0.058-1.278-0.078-0.304-0.039-0.586-0.078-0.89-0.117-0.293-0.039-0.606-0.078-0.918-0.117-0.332-0.039-0.664-0.117-0.996-0.176-0.262-0.039-0.528-0.078-0.77-0.137-0.363-0.058-0.703-0.136-1.055-0.215-0.246-0.058-0.488-0.117-0.722-0.175-0.344-0.078-0.684-0.176-1.016-0.274-0.246-0.078-0.508-0.136-0.742-0.215-0.313-0.097-0.625-0.195-0.949-0.293-0.262-0.097-0.536-0.175-0.809-0.273-0.285-0.117-0.547-0.215-0.82-0.313-0.313-0.117-0.606-0.234-0.91-0.351-0.235-0.117-0.457-0.215-0.704-0.313-0.312-0.156-0.664-0.293-0.984-0.449-0.195-0.097-0.391-0.195-0.578-0.293-0.352-0.176-0.723-0.351-1.063-0.527-0.168-0.098-0.332-0.195-0.488-0.274-0.371-0.214-0.742-0.429-1.094-0.644-0.156-0.078-0.285-0.176-0.441-0.274-0.371-0.234-0.73-0.449-1.102-0.703-0.136-0.097-0.285-0.195-0.421-0.293-0.352-0.234-0.704-0.488-1.043-0.742-0.168-0.117-0.332-0.254-0.489-0.371-0.304-0.254-0.625-0.488-0.937-0.742-0.215-0.176-0.422-0.352-0.617-0.527-0.254-0.215-0.516-0.43-0.75-0.664-0.411-0.352-0.793-0.743-1.172-1.114-0.059-0.058-0.11-0.078-0.168-0.136l-147.58-147.6-147.59 147.6c-0.207 0.195-0.403 0.39-0.606 0.566-0.226 0.234-0.468 0.469-0.703 0.684-0.285 0.253-0.586 0.507-0.879 0.761-0.168 0.137-0.324 0.293-0.5 0.43-0.32 0.254-0.664 0.527-1.004 0.781-0.129 0.098-0.273 0.215-0.422 0.332-0.351 0.254-0.71 0.508-1.082 0.762-0.128 0.098-0.253 0.176-0.39 0.273-0.371 0.254-0.735 0.489-1.106 0.703-0.144 0.098-0.281 0.196-0.429 0.274-0.36 0.215-0.723 0.43-1.094 0.644-0.164 0.079-0.32 0.176-0.508 0.274-0.34 0.176-0.684 0.351-1.035 0.527-0.215 0.098-0.391 0.196-0.606 0.293-0.32 0.156-0.644 0.293-0.964 0.43-0.235 0.117-0.489 0.215-0.723 0.332-0.285 0.117-0.578 0.234-0.871 0.332-0.281 0.117-0.574 0.215-0.86 0.332-0.242 0.078-0.507 0.176-0.769 0.254-0.324 0.117-0.656 0.215-0.977 0.312-0.234 0.079-0.468 0.137-0.695 0.196-0.351 0.097-0.711 0.195-1.074 0.293-0.215 0.058-0.438 0.117-0.652 0.156-0.364 0.098-0.743 0.176-1.125 0.234-0.215 0.059-0.45 0.078-0.672 0.137-0.371 0.059-0.735 0.117-1.106 0.176-0.262 0.039-0.527 0.078-0.769 0.097-0.352 0.059-0.684 0.098-1.028 0.137-0.351 0.02-0.691 0.039-1.035 0.078-0.262 0.02-0.515 0.039-0.789 0.039-1.23 0.078-2.461 0.078-3.691 0-0.254 0-0.508-0.019-0.782-0.039-0.343-0.039-0.695-0.058-1.027-0.078-0.351-0.039-0.691-0.078-1.023-0.137-0.266-0.019-0.528-0.058-0.774-0.097-0.371-0.059-0.75-0.117-1.121-0.176-0.226-0.059-0.441-0.078-0.664-0.137-0.371-0.058-0.754-0.136-1.125-0.234-0.215-0.039-0.437-0.098-0.652-0.156-0.364-0.098-0.715-0.196-1.075-0.293-0.234-0.059-0.46-0.117-0.695-0.196-0.332-0.097-0.652-0.195-0.984-0.312-0.246-0.078-0.508-0.176-0.762-0.254-0.293-0.117-0.586-0.215-0.871-0.332-0.281-0.098-0.566-0.215-0.859-0.332-0.243-0.117-0.489-0.215-0.731-0.332-0.324-0.137-0.644-0.274-0.957-0.43-0.207-0.097-0.402-0.195-0.605-0.293-0.364-0.176-0.703-0.351-1.047-0.527-0.156-0.098-0.332-0.195-0.508-0.274-0.352-0.214-0.723-0.429-1.082-0.644-0.137-0.078-0.285-0.176-0.422-0.274-0.379-0.214-0.742-0.449-1.113-0.703-0.137-0.097-0.274-0.175-0.399-0.273-0.363-0.254-0.715-0.508-1.074-0.762-0.148-0.117-0.285-0.234-0.43-0.332-0.332-0.254-0.664-0.527-0.996-0.781-0.168-0.137-0.324-0.293-0.507-0.43-0.286-0.254-0.579-0.508-0.879-0.761-0.227-0.215-0.461-0.45-0.696-0.684-0.215-0.176-0.41-0.371-0.605-0.566-0.215-0.215-0.391-0.411-0.594-0.606-0.215-0.234-0.441-0.469-0.664-0.723-0.254-0.273-0.52-0.566-0.754-0.879-0.156-0.175-0.293-0.312-0.437-0.488-0.266-0.332-0.528-0.664-0.774-0.996-0.105-0.156-0.222-0.293-0.332-0.43-0.262-0.351-0.515-0.703-0.762-1.074-0.097-0.137-0.195-0.254-0.281-0.39-0.254-0.372-0.488-0.743-0.715-1.114-0.078-0.136-0.175-0.273-0.273-0.429-0.215-0.371-0.41-0.723-0.613-1.094-0.098-0.176-0.196-0.332-0.286-0.508-0.183-0.332-0.359-0.684-0.527-1.035-0.105-0.195-0.203-0.41-0.301-0.606-0.148-0.312-0.293-0.644-0.441-0.957-0.106-0.234-0.215-0.488-0.32-0.742-0.118-0.273-0.227-0.566-0.332-0.84-0.11-0.293-0.227-0.586-0.325-0.879-0.086-0.253-0.175-0.507-0.261-0.761-0.098-0.332-0.227-0.664-0.313-0.996-0.078-0.215-0.137-0.45-0.195-0.664-0.11-0.372-0.215-0.743-0.293-1.094-0.07-0.215-0.098-0.43-0.149-0.625-0.097-0.391-0.175-0.781-0.253-1.153-0.047-0.214-0.079-0.429-0.118-0.644-0.066-0.371-0.144-0.762-0.183-1.152-0.051-0.235-0.059-0.469-0.098-0.723-0.051-0.352-0.098-0.703-0.137-1.074-0.031-0.313-0.039-0.625-0.07-0.957-8e-3 -0.274-0.047-0.567-0.059-0.86-0.039-0.605-0.046-1.211-0.046-1.836v-386.58c0-20.566 16.66-37.226 37.214-37.226 20.567 0 37.227 16.66 37.227 37.226v277.7l-46.18 64.863 46.18-46.172v0.332l104.9-104.9c1.387-2.129 3.02-4.141 4.895-6.016 14.539-14.551 38.094-14.531 52.637 0l14.668 14.668 96.257 96.25 45.84 45.84-45.84-64.395v-278.16c0-20.566 16.68-37.226 37.219-37.226 20.567 0 37.227 16.66 37.227 37.226v386.56c0 0.625-0.02 1.25-0.059 1.875" fill="#393536"/><path d="m1925.2 244.06h10v548.03h-10z" fill="#bdbcbc"/><path d="m2239.2 474.54-0.04 0.234-0.06 0.235c-6.58 27.285-23.95 47.871-51.65 61.211-23.33 11.269-50.1 15.722-73.19 18.613l-0.18 0.019-0.21 0.02c-18.27 1.699-34.35 3.496-46.31 8.379-11.42 4.668-16.6 11.074-17.33 21.504l-0.01 0.078v0.078c-0.51 6.152 0 14.961 5.41 21.914 11.13 14.317 33.27 19.805 50.26 20.156 0.38 0 0.82 0.02 1.28 0.02 19.01 0 38.3-6.426 47.3-18.867 5.58 12.578 18.16 19.179 32.29 19.179 5.36 0 10.4-1.328 14.85-3.632-2.45 0.488-5 0.761-7.62 0.761-21.32 0-38.6-17.285-38.6-38.593 0-3.164 0.42-6.211 1.14-9.161 0.02-0.097 0.05-0.175 0.07-0.273 4.21-16.758 19.33-29.18 37.39-29.18 20.61 0 37.4 16.153 38.5 36.504 0.6 5.117 0.62 10.508 0.13 15.84-3.27 35.195-20.08 58.867-45.46 76.27-21.59 14.824-49.71 22.968-79.17 22.968-44.65 0-86.79-18.691-109.97-48.769-15.44-20.078-22.72-45.449-20.51-71.485l0.05 0.02c2.78-34.785 18.79-60.371 47.64-76.094 24.03-13.105 52.93-17.5 80.59-20.273 30.47-3.047 58.09-7.09 61.65-22.832 0.73-3.282 1.11-6.172 1.11-8.555 0-19.824-23.53-41.211-61.5-41.211-13.79 0-28.58 3.809-39.59 10.156-3.57 2.071-7.09 5.469-10.34 9.981-6.84-12.774-20.31-21.465-35.82-21.465-5 0-9.76 0.957-14.18 2.598 2.08-0.332 4.2-0.567 6.38-0.567 18.33 0 33.63 12.793 37.58 29.903v0.019c0.32 1.348 0.56 2.715 0.73 4.102 0 0.078 0.02 0.136 0.03 0.195 0.16 1.445 0.26 2.91 0.26 4.395 0 21.308-17.28 38.593-38.6 38.593-1.11 0-2.23-0.078-3.32-0.176-1.03-0.097-2.07-0.234-3.06-0.41v0.02c-18.27-3.047-32.21-18.906-32.21-38.027 0-0.801 0.07-1.583 0.11-2.364-0.81-11.191 1.34-43.613 44.66-81.386 21.33-18.594 57.66-27.872 86.9-27.872 66.45 0 135.22 42.286 135.22 113.05 0 7.09-0.94 15.918-2.6 24.18" fill="#bdbcbc"/></g></g></g></svg>
