<?xml version="1.0" encoding="UTF-8" standalone="no"?>
<svg
   xmlns:dc="http://purl.org/dc/elements/1.1/"
   xmlns:cc="http://creativecommons.org/ns#"
   xmlns:rdf="http://www.w3.org/1999/02/22-rdf-syntax-ns#"
   xmlns:svg="http://www.w3.org/2000/svg"
   xmlns="http://www.w3.org/2000/svg"
   xmlns:sodipodi="http://sodipodi.sourceforge.net/DTD/sodipodi-0.dtd"
   xmlns:inkscape="http://www.inkscape.org/namespaces/inkscape"
   width="25"
   height="25"
   viewBox="0 0 1792 1792"
   version="1.1"
   id="svg4"
   sodipodi:docname="bars.svg"
   inkscape:version="0.92.2 5c3e80d, 2017-08-06">
  <metadata
     id="metadata10">
    <rdf:RDF>
      <cc:Work
         rdf:about="">
        <dc:format>image/svg+xml</dc:format>
        <dc:type
           rdf:resource="http://purl.org/dc/dcmitype/StillImage" />
      </cc:Work>
    </rdf:RDF>
  </metadata>
  <defs
     id="defs8" />
  <sodipodi:namedview
     pagecolor="#ffffff"
     bordercolor="#666666"
     borderopacity="1"
     objecttolerance="10"
     gridtolerance="10"
     guidetolerance="10"
     inkscape:pageopacity="0"
     inkscape:pageshadow="2"
     inkscape:window-width="1370"
     inkscape:window-height="623"
     id="namedview6"
     showgrid="false"
     inkscape:zoom="9.44"
     inkscape:cx="12.394068"
     inkscape:cy="12.5"
     inkscape:window-x="0"
     inkscape:window-y="0"
     inkscape:window-maximized="0"
     inkscape:current-layer="svg4" />
  <path
     d="m 1664,1344 v 128 q 0,26 -19,45 -19,19 -45,19 H 192 q -26,0 -45,-19 -19,-19 -19,-45 v -128 q 0,-26 19,-45 19,-19 45,-19 h 1408 q 26,0 45,19 19,19 19,45 z m 0,-512 v 128 q 0,26 -19,45 -19,19 -45,19 H 192 q -26,0 -45,-19 -19,-19 -19,-45 V 832 q 0,-26 19,-45 19,-19 45,-19 h 1408 q 26,0 45,19 19,19 19,45 z m 0,-512 v 128 q 0,26 -19,45 -19,19 -45,19 H 192 q -26,0 -45,-19 -19,-19 -19,-45 V 320 q 0,-26 19,-45 19,-19 45,-19 h 1408 q 26,0 45,19 19,19 19,45 z"
     id="path2"
     style="fill:#ffffff;fill-opacity:1"
     inkscape:connector-curvature="0" />
</svg>
