<?xml version="1.0" encoding="UTF-8" standalone="no"?>
<svg
   xmlns:dc="http://purl.org/dc/elements/1.1/"
   xmlns:cc="http://creativecommons.org/ns#"
   xmlns:rdf="http://www.w3.org/1999/02/22-rdf-syntax-ns#"
   xmlns:svg="http://www.w3.org/2000/svg"
   xmlns="http://www.w3.org/2000/svg"
   viewBox="0 0 336 322.49332"
   height="322.49332"
   width="336"
   xml:space="preserve"
   id="svg2"
   version="1.1"><metadata
     id="metadata8"><rdf:RDF><cc:Work
         rdf:about=""><dc:format>image/svg+xml</dc:format><dc:type
           rdf:resource="http://purl.org/dc/dcmitype/StillImage" /></cc:Work></rdf:RDF></metadata><defs
     id="defs6"><clipPath
       id="clipPath20"
       clipPathUnits="userSpaceOnUse"><path
         id="path18"
         d="M 0,2418.73 V 0 h 2520 v 2418.73 z" /></clipPath></defs><g
     transform="matrix(1.3333333,0,0,-1.3333333,0,322.49333)"
     id="g10"><g
       transform="scale(0.1)"
       id="g12"><g
         id="g14"><g
           clip-path="url(#clipPath20)"
           id="g16"><path
             id="path22"
             style="fill:#393536;fill-opacity:1;fill-rule:nonzero;stroke:none"
             d="M 1671.1,962.859 2214.24,1601.38 1799.31,324.34 Z M 1296.12,777.148 1768.29,326.27 823.961,830.488 Z M 694.176,1178.28 785.863,863.969 321.762,1492.58 Z m 1.492,512.52 -367.715,-147.34 735.437,534.32 z m 971.972,0.59 -526.89,401.31 1053.78,-460.19 z m -3.14,-720.839 -547.04,287.579 1094.09,355.52 z m 1.22,-6.289 z M 1121.26,1244.84 1661.28,960.941 1788.76,326.09 Z m 181.32,-460.051 -177.9,438.331 636.92,-876.651 z m -199.2,464.221 187.17,-461.158 -482.921,54.546 z m -10.24,2.91 -292.66,-402.35 -95.593,327.68 z m -8.49,8.56 -384.705,-74 -384.711,324.69 z M 697.262,1680.67 1087.4,1270.1 307.113,1524.34 Z m 402.368,-408.92 -394.181,414.82 394.181,414.84 z m 10,-2.43 v 834.52 l 547.84,-417.27 z m 557.51,412.06 536.1,-59.92 -1072.19,-348.39 z m 564.42,-59.06 -4.76,1.55 2,4.58 -1122.16,490.05 -2.01,-4.57 -2.94,4.04 -812.163,-590.08 2.938,-4.04 -4.024,-2.97 506.067,-685.45 4.023,2.968 -2.355,-4.418 999.644,-533.761 2.35,4.422 4.75,-1.539 428.64,1319.218" /></g></g></g></g></svg>