<?xml version="1.0" encoding="UTF-8" standalone="no"?>
<svg
   xmlns:dc="http://purl.org/dc/elements/1.1/"
   xmlns:cc="http://creativecommons.org/ns#"
   xmlns:rdf="http://www.w3.org/1999/02/22-rdf-syntax-ns#"
   xmlns:svg="http://www.w3.org/2000/svg"
   xmlns="http://www.w3.org/2000/svg"
   viewBox="0 0 336 322.49332"
   height="322.49332"
   width="336"
   xml:space="preserve"
   id="svg2"
   version="1.1"><metadata
     id="metadata8"><rdf:RDF><cc:Work
         rdf:about=""><dc:format>image/svg+xml</dc:format><dc:type
           rdf:resource="http://purl.org/dc/dcmitype/StillImage" /></cc:Work></rdf:RDF></metadata><defs
     id="defs6"><clipPath
       id="clipPath20"
       clipPathUnits="userSpaceOnUse"><path
         id="path18"
         d="M 0,2418.73 V 0 h 2520 v 2418.73 z" /></clipPath></defs><g
     transform="matrix(1.3333333,0,0,-1.3333333,0,322.49333)"
     id="g10"><g
       transform="scale(0.1)"
       id="g12"><g
         id="g14"><g
           clip-path="url(#clipPath20)"
           id="g16"><path
             id="path22"
             style="fill:#393536;fill-opacity:1;fill-rule:nonzero;stroke:none"
             d="m 1589.86,1105.11 717.3,843.22 L 1759.2,261.879 Z M 1100.88,862.82 1728.17,263.82 473.594,933.66 Z M 519.387,1321.65 447.02,961.281 212.844,1682.02 Z m 2.5,517.09 -286.125,-114.63 572.258,415.77 z m 1063.263,0.97 -703.404,326.72 1406.794,-196.3 z m -1.88,-726.91 -721.192,379.14 1442.382,468.67 z M 865.891,1478.64 1580.05,1103.19 1748.64,263.641 Z M 1107.34,870.461 869.309,1456.94 1721.48,284.012 Z M 848.008,1482.82 1095.31,873.52 457.266,945.578 Z M 529.199,1319.72 832.637,1478.68 457.566,963 Z M 836.418,1491.96 525.984,1329.35 215.559,1694.29 Z M 523.477,1828.63 832.02,1503.92 214.934,1705.01 Z m 320.781,-323.08 -312.598,328.97 312.598,328.96 z m 10,-4.68 v 667.3 L 1572.63,1834.52 Z M 1586.02,1829.71 2245.63,1952 926.418,1523.37 Z m 738.45,139.58 -4.75,1.54 v 0 l 0.69,4.94 -1470.461,205.19 -0.691,-4.96 -2.942,4.05 -648.972,-471.49 2.937,-4.04 -4.754,-1.54 247.879,-762.949 4.758,1.539 -2.351,-4.41 1309.887,-699.398 2.36,4.418 4.75,-1.551 561.66,1728.661" /></g></g></g></g></svg>