<svg xmlns="http://www.w3.org/2000/svg" width="1440" height="900"><path d="M579,622L885,982L848,677Z" fill="#1d336f" stroke="#1d336f" stroke-width="1.51"/><path d="M579,622L490,1026L885,982Z" fill="#1f3573" stroke="#1f3573" stroke-width="1.51"/><path d="M230,606L188,954L490,1026Z" fill="#1e326b" stroke="#1e326b" stroke-width="1.51"/><path d="M579,622L230,606L490,1026Z" fill="#1c3068" stroke="#1c3068" stroke-width="1.51"/><path d="M490,1343L846,1344L490,1026Z" fill="#223478" stroke="#223478" stroke-width="1.51"/><path d="M490,1026L846,1344L885,982Z" fill="#22377b" stroke="#22377b" stroke-width="1.51"/><path d="M171,1309L490,1343L490,1026Z" fill="#223273" stroke="#223273" stroke-width="1.51"/><path d="M1253,1024L1216,669L885,982Z" fill="#263f86" stroke="#263f86" stroke-width="1.51"/><path d="M885,982L1216,669L848,677Z" fill="#213879" stroke="#213879" stroke-width="1.51"/><path d="M937,241L490,293L579,622Z" fill="#172959" stroke="#172959" stroke-width="1.51"/><path d="M579,622L490,293L230,606Z" fill="#18295a" stroke="#18295a" stroke-width="1.51"/><path d="M937,241L579,622L848,677Z" fill="#192d62" stroke="#192d62" stroke-width="1.51"/><path d="M1211,1331L1253,1024L885,982Z" fill="#283f8b" stroke="#283f8b" stroke-width="1.51"/><path d="M1216,669L937,241L848,677Z" fill="#1c326c" stroke="#1c326c" stroke-width="1.51"/><path d="M188,954L171,1309L490,1026Z" fill="#213472" stroke="#213472" stroke-width="1.51"/><path d="M846,1344L1211,1331L885,982Z" fill="#273b85" stroke="#273b85" stroke-width="1.51"/><path d="M1662,577L1218,299L1216,669Z" fill="#223a7b" stroke="#223a7b" stroke-width="1.51"/><path d="M1216,669L1218,299L937,241Z" fill="#1d326c" stroke="#1d326c" stroke-width="1.51"/><path d="M-175,678L-148,992L188,954Z" fill="#1e3065" stroke="#1e3065" stroke-width="1.51"/><path d="M188,954L-148,992L171,1309Z" fill="#20336e" stroke="#20336e" stroke-width="1.51"/><path d="M490,293L175,226L230,606Z" fill="#162652" stroke="#162652" stroke-width="1.51"/><path d="M206,-90L175,226L490,293Z" fill="#15244d" stroke="#15244d" stroke-width="1.51"/><path d="M-175,678L188,954L230,606Z" fill="#1c2e61" stroke="#1c2e61" stroke-width="1.51"/><path d="M-129,221L-175,678L230,606Z" fill="#172652" stroke="#172652" stroke-width="1.51"/><path d="M937,241L857,-53L490,293Z" fill="#172856" stroke="#172856" stroke-width="1.51"/><path d="M1220,-79L857,-53L937,241Z" fill="#1a2c5e" stroke="#1a2c5e" stroke-width="1.51"/><path d="M1253,1024L1615,943L1216,669Z" fill="#294390" stroke="#294390" stroke-width="1.51"/><path d="M1661,1340L1615,943L1253,1024Z" fill="#2d469a" stroke="#2d469a" stroke-width="1.51"/><path d="M857,-53L526,-98L490,293Z" fill="#162651" stroke="#162651" stroke-width="1.51"/><path d="M-148,992L-168,1363L171,1309Z" fill="#202f6b" stroke="#202f6b" stroke-width="1.51"/><path d="M171,1309L-168,1363L490,1343Z" fill="#222f70" stroke="#222f70" stroke-width="1.51"/><path d="M490,1343L-168,1363L846,1344Z" fill="#223073" stroke="#223073" stroke-width="1.51"/><path d="M-501,1304L-168,1363L-148,992Z" fill="#202e66" stroke="#202e66" stroke-width="1.51"/><path d="M206,-90L-129,221L175,226Z" fill="#152249" stroke="#152249" stroke-width="1.51"/><path d="M175,226L-129,221L230,606Z" fill="#16244e" stroke="#16244e" stroke-width="1.51"/><path d="M1615,943L1662,577L1216,669Z" fill="#27408a" stroke="#27408a" stroke-width="1.51"/><path d="M1218,299L1220,-79L937,241Z" fill="#1c2f66" stroke="#1c2f66" stroke-width="1.51"/><path d="M526,-98L206,-90L490,293Z" fill="#16244d" stroke="#16244d" stroke-width="1.51"/><path d="M857,-53L520,-420L526,-98Z" fill="#15234b" stroke="#15234b" stroke-width="1.51"/><path d="M1623,-67L1220,-79L1218,299Z" fill="#1f346c" stroke="#1f346c" stroke-width="1.51"/><path d="M1662,577L1630,318L1218,299Z" fill="#223879" stroke="#223879" stroke-width="1.51"/><path d="M1211,1331L1661,1340L1253,1024Z" fill="#2d4397" stroke="#2d4397" stroke-width="1.51"/><path d="M1615,943L1998,652L1662,577Z" fill="#283d8a" stroke="#283d8a" stroke-width="1.51"/><path d="M846,1344L1661,1340L1211,1331Z" fill="#2b3e90" stroke="#2b3e90" stroke-width="1.51"/><path d="M1960,1351L1661,1340L846,1344Z" fill="#2e429a" stroke="#2e429a" stroke-width="1.51"/><path d="M-570,643L-516,944L-175,678Z" fill="#192956" stroke="#192956" stroke-width="1.51"/><path d="M-175,678L-516,944L-148,992Z" fill="#1d2e60" stroke="#1d2e60" stroke-width="1.51"/><path d="M-516,944L-501,1304L-148,992Z" fill="#1f2f64" stroke="#1f2f64" stroke-width="1.51"/><path d="M-553,274L-570,643L-175,678Z" fill="#15244a" stroke="#15244a" stroke-width="1.51"/><path d="M-516,944L-570,643L-501,1304Z" fill="#1d2e5f" stroke="#1d2e5f" stroke-width="1.51"/><path d="M-129,221L-553,274L-175,678Z" fill="#142248" stroke="#142248" stroke-width="1.51"/><path d="M206,-90L-167,-98L-129,221Z" fill="#152145" stroke="#152145" stroke-width="1.51"/><path d="M-150,-398L-167,-98L206,-90Z" fill="#141f3f" stroke="#141f3f" stroke-width="1.51"/><path d="M526,-98L520,-420L206,-90Z" fill="#142247" stroke="#142247" stroke-width="1.51"/><path d="M956,-491L520,-420L857,-53Z" fill="#15234b" stroke="#15234b" stroke-width="1.51"/><path d="M1662,577L1952,260L1630,318Z" fill="#223478" stroke="#223478" stroke-width="1.51"/><path d="M1661,1340L1974,1001L1615,943Z" fill="#2e439a" stroke="#2e439a" stroke-width="1.51"/><path d="M1220,-79L956,-491L857,-53Z" fill="#192957" stroke="#192957" stroke-width="1.51"/><path d="M1630,318L1623,-67L1218,299Z" fill="#213673" stroke="#213673" stroke-width="1.51"/><path d="M1952,260L1623,-67L1630,318Z" fill="#223373" stroke="#223373" stroke-width="1.51"/><path d="M1974,1001L1998,652L1615,943Z" fill="#2b4092" stroke="#2b4092" stroke-width="1.51"/><path d="M-167,-98L-553,274L-129,221Z" fill="#131f42" stroke="#131f42" stroke-width="1.51"/><path d="M1254,-491L956,-491L1220,-79Z" fill="#1a2a59" stroke="#1a2a59" stroke-width="1.51"/><path d="M1974,1001L1960,1351L1998,652Z" fill="#2d429a" stroke="#2d429a" stroke-width="1.51"/><path d="M1661,1340L1960,1351L1974,1001Z" fill="#2e3f99" stroke="#2e3f99" stroke-width="1.51"/><path d="M-168,1363L1960,1351L846,1344Z" fill="#253681" stroke="#253681" stroke-width="1.51"/><path d="M1998,652L1952,260L1662,577Z" fill="#24357c" stroke="#24357c" stroke-width="1.51"/><path d="M520,-420L155,-470L206,-90Z" fill="#131f41" stroke="#131f41" stroke-width="1.51"/><path d="M-167,-98L-564,-140L-553,274Z" fill="#121d3c" stroke="#121d3c" stroke-width="1.51"/><path d="M956,-491L155,-470L520,-420Z" fill="#132042" stroke="#132042" stroke-width="1.51"/><path d="M1670,-462L1254,-491L1623,-67Z" fill="#1f3065" stroke="#1f3065" stroke-width="1.51"/><path d="M1623,-67L1254,-491L1220,-79Z" fill="#1e3166" stroke="#1e3166" stroke-width="1.51"/><path d="M155,-470L-150,-398L206,-90Z" fill="#131e3d" stroke="#131e3d" stroke-width="1.51"/><path d="M-150,-398L-564,-140L-167,-98Z" fill="#121c39" stroke="#121c39" stroke-width="1.51"/><path d="M-553,274L-564,-140L-570,643Z" fill="#121e3e" stroke="#121e3e" stroke-width="1.51"/><path d="M1952,260L2007,-40L1623,-67Z" fill="#223070" stroke="#223070" stroke-width="1.51"/><path d="M1998,652L2007,-40L1952,260Z" fill="#223076" stroke="#223076" stroke-width="1.51"/><path d="M1944,-410L1670,-462L1623,-67Z" fill="#202d65" stroke="#202d65" stroke-width="1.51"/><path d="M155,-470L-552,-430L-150,-398Z" fill="#111b35" stroke="#111b35" stroke-width="1.51"/><path d="M-150,-398L-552,-430L-564,-140Z" fill="#101a33" stroke="#101a33" stroke-width="1.51"/><path d="M2007,-40L1944,-410L1623,-67Z" fill="#212d6a" stroke="#212d6a" stroke-width="1.51"/></svg>