<svg xmlns="http://www.w3.org/2000/svg" width="1440" height="900"><path d="M676,541L1113,536L665,328Z" fill="#282828" stroke="#282828" stroke-width="1.51"/><path d="M676,541L891,674L1113,536Z" fill="#2a2a2a" stroke="#2a2a2a" stroke-width="1.51"/><path d="M1113,536L930,127L665,328Z" fill="#262626" stroke="#262626" stroke-width="1.51"/><path d="M930,127L740,158L665,328Z" fill="#232323" stroke="#232323" stroke-width="1.51"/><path d="M1113,536L1125,220L930,127Z" fill="#272727" stroke="#272727" stroke-width="1.51"/><path d="M1239,909L1369,649L1113,536Z" fill="#2e2e2e" stroke="#2e2e2e" stroke-width="1.51"/><path d="M676,541L802,787L891,674Z" fill="#2a2a2a" stroke="#2a2a2a" stroke-width="1.51"/><path d="M1125,220L1138,54L930,127Z" fill="#242424" stroke="#242424" stroke-width="1.51"/><path d="M697,-168L460,135L740,158Z" fill="#1f1f1f" stroke="#1f1f1f" stroke-width="1.51"/><path d="M1387,222L1138,54L1125,220Z" fill="#262626" stroke="#262626" stroke-width="1.51"/><path d="M665,328L231,634L676,541Z" fill="#252525" stroke="#252525" stroke-width="1.51"/><path d="M676,541L634,884L802,787Z" fill="#2a2a2a" stroke="#2a2a2a" stroke-width="1.51"/><path d="M740,158L460,135L665,328Z" fill="#212121" stroke="#212121" stroke-width="1.51"/><path d="M697,-168L740,158L930,127Z" fill="#202020" stroke="#202020" stroke-width="1.51"/><path d="M1113,536L1387,222L1125,220Z" fill="#292929" stroke="#292929" stroke-width="1.51"/><path d="M1239,909L1113,536L891,674Z" fill="#2d2d2d" stroke="#2d2d2d" stroke-width="1.51"/><path d="M802,787L1239,909L891,674Z" fill="#2c2c2c" stroke="#2c2c2c" stroke-width="1.51"/><path d="M231,634L634,884L676,541Z" fill="#272727" stroke="#272727" stroke-width="1.51"/><path d="M1369,649L1387,222L1113,536Z" fill="#2b2b2b" stroke="#2b2b2b" stroke-width="1.51"/><path d="M914,1068L1239,909L802,787Z" fill="#2e2e2e" stroke="#2e2e2e" stroke-width="1.51"/><path d="M1138,54L697,-168L930,127Z" fill="#212121" stroke="#212121" stroke-width="1.51"/><path d="M634,884L914,1068L802,787Z" fill="#2c2c2c" stroke="#2c2c2c" stroke-width="1.51"/><path d="M217,219L231,634L665,328Z" fill="#212121" stroke="#212121" stroke-width="1.51"/><path d="M634,884L507,1165L914,1068Z" fill="#2c2c2c" stroke="#2c2c2c" stroke-width="1.51"/><path d="M460,135L217,219L665,328Z" fill="#202020" stroke="#202020" stroke-width="1.51"/><path d="M248,-80L217,219L460,135Z" fill="#1c1c1c" stroke="#1c1c1c" stroke-width="1.51"/><path d="M1138,54L1003,-399L697,-168Z" fill="#202020" stroke="#202020" stroke-width="1.51"/><path d="M1387,222L1484,12L1138,54Z" fill="#262626" stroke="#262626" stroke-width="1.51"/><path d="M1699,-4L1484,12L1387,222Z" fill="#272727" stroke="#272727" stroke-width="1.51"/><path d="M343,-236L248,-80L460,135Z" fill="#1a1a1a" stroke="#1a1a1a" stroke-width="1.51"/><path d="M697,-168L343,-236L460,135Z" fill="#1b1b1b" stroke="#1b1b1b" stroke-width="1.51"/><path d="M1250,-356L1003,-399L1138,54Z" fill="#202020" stroke="#202020" stroke-width="1.51"/><path d="M1369,649L1747,404L1387,222Z" fill="#2c2c2c" stroke="#2c2c2c" stroke-width="1.51"/><path d="M1239,909L1569,904L1369,649Z" fill="#303030" stroke="#303030" stroke-width="1.51"/><path d="M1583,1326L1569,904L1239,909Z" fill="#323232" stroke="#323232" stroke-width="1.51"/><path d="M208,946L507,1165L634,884Z" fill="#292929" stroke="#292929" stroke-width="1.51"/><path d="M1569,904L1684,698L1369,649Z" fill="#303030" stroke="#303030" stroke-width="1.51"/><path d="M1684,698L1747,404L1369,649Z" fill="#2f2f2f" stroke="#2f2f2f" stroke-width="1.51"/><path d="M1484,12L1250,-356L1138,54Z" fill="#232323" stroke="#232323" stroke-width="1.51"/><path d="M1576,-230L1250,-356L1484,12Z" fill="#232323" stroke="#232323" stroke-width="1.51"/><path d="M1003,-399L343,-236L697,-168Z" fill="#1d1d1d" stroke="#1d1d1d" stroke-width="1.51"/><path d="M231,634L208,946L634,884Z" fill="#262626" stroke="#262626" stroke-width="1.51"/><path d="M-90,1013L208,946L231,634Z" fill="#242424" stroke="#242424" stroke-width="1.51"/><path d="M217,219L7,351L231,634Z" fill="#1f1f1f" stroke="#1f1f1f" stroke-width="1.51"/><path d="M-118,67L7,351L217,219Z" fill="#1b1b1b" stroke="#1b1b1b" stroke-width="1.51"/><path d="M507,1165L1098,1296L914,1068Z" fill="#2f2f2f" stroke="#2f2f2f" stroke-width="1.51"/><path d="M914,1068L1098,1296L1239,909Z" fill="#303030" stroke="#303030" stroke-width="1.51"/><path d="M1747,404L1699,-4L1387,222Z" fill="#292929" stroke="#292929" stroke-width="1.51"/><path d="M1699,-4L1576,-230L1484,12Z" fill="#252525" stroke="#252525" stroke-width="1.51"/><path d="M208,946L190,1064L507,1165Z" fill="#282828" stroke="#282828" stroke-width="1.51"/><path d="M87,1205L190,1064L-90,1013Z" fill="#252525" stroke="#252525" stroke-width="1.51"/><path d="M-118,67L217,219L248,-80Z" fill="#191919" stroke="#191919" stroke-width="1.51"/><path d="M-403,393L-119,503L7,351Z" fill="#1d1d1d" stroke="#1d1d1d" stroke-width="1.51"/><path d="M7,351L-119,503L231,634Z" fill="#1f1f1f" stroke="#1f1f1f" stroke-width="1.51"/><path d="M1747,404L1913,-294L1699,-4Z" fill="#272727" stroke="#272727" stroke-width="1.51"/><path d="M1684,698L1860,801L1747,404Z" fill="#303030" stroke="#303030" stroke-width="1.51"/><path d="M1569,904L1860,801L1684,698Z" fill="#323232" stroke="#323232" stroke-width="1.51"/><path d="M1702,1313L1860,801L1569,904Z" fill="#333333" stroke="#333333" stroke-width="1.51"/><path d="M-112,-340L-118,67L248,-80Z" fill="#161616" stroke="#161616" stroke-width="1.51"/><path d="M-90,1013L190,1064L208,946Z" fill="#252525" stroke="#252525" stroke-width="1.51"/><path d="M190,1064L87,1205L507,1165Z" fill="#282828" stroke="#282828" stroke-width="1.51"/><path d="M507,1165L87,1205L1098,1296Z" fill="#2c2c2c" stroke="#2c2c2c" stroke-width="1.51"/><path d="M1098,1296L1583,1326L1239,909Z" fill="#333333" stroke="#333333" stroke-width="1.51"/><path d="M-119,503L-90,1013L231,634Z" fill="#212121" stroke="#212121" stroke-width="1.51"/><path d="M1583,1326L1702,1313L1569,904Z" fill="#343434" stroke="#343434" stroke-width="1.51"/><path d="M1699,-4L1913,-294L1576,-230Z" fill="#252525" stroke="#252525" stroke-width="1.51"/><path d="M1576,-230L1913,-294L1250,-356Z" fill="#232323" stroke="#232323" stroke-width="1.51"/><path d="M1250,-356L1913,-294L1003,-399Z" fill="#212121" stroke="#212121" stroke-width="1.51"/><path d="M1860,801L1913,-294L1747,404Z" fill="#2c2c2c" stroke="#2c2c2c" stroke-width="1.51"/><path d="M343,-236L-112,-340L248,-80Z" fill="#171717" stroke="#171717" stroke-width="1.51"/><path d="M1003,-399L-112,-340L343,-236Z" fill="#181818" stroke="#181818" stroke-width="1.51"/><path d="M-311,-108L-403,393L-118,67Z" fill="#171717" stroke="#171717" stroke-width="1.51"/><path d="M-118,67L-403,393L7,351Z" fill="#1b1b1b" stroke="#1b1b1b" stroke-width="1.51"/><path d="M-119,503L-416,645L-90,1013Z" fill="#202020" stroke="#202020" stroke-width="1.51"/><path d="M-112,-340L-311,-108L-118,67Z" fill="#151515" stroke="#151515" stroke-width="1.51"/><path d="M-403,393L-416,645L-119,503Z" fill="#1d1d1d" stroke="#1d1d1d" stroke-width="1.51"/><path d="M-416,645L-454,840L-90,1013Z" fill="#202020" stroke="#202020" stroke-width="1.51"/><path d="M-90,1013L-373,1161L87,1205Z" fill="#242424" stroke="#242424" stroke-width="1.51"/><path d="M-403,393L-454,840L-416,645Z" fill="#1d1d1d" stroke="#1d1d1d" stroke-width="1.51"/><path d="M-454,840L-373,1161L-90,1013Z" fill="#222222" stroke="#222222" stroke-width="1.51"/><path d="M-403,393L-409,-400L-454,840Z" fill="#191919" stroke="#191919" stroke-width="1.51"/><path d="M-311,-108L-409,-400L-403,393Z" fill="#141414" stroke="#141414" stroke-width="1.51"/><path d="M-112,-340L-409,-400L-311,-108Z" fill="#121212" stroke="#121212" stroke-width="1.51"/><path d="M1003,-399L-409,-400L-112,-340Z" fill="#151515" stroke="#151515" stroke-width="1.51"/></svg>