<svg class="ldp-trianglify" width="1000px"  height="200px"  xmlns="http://www.w3.org/2000/svg" xmlns:xlink="http://www.w3.org/1999/xlink" preserveAspectRatio="xMidYMid" style="background: none;"><defs>
  <pattern id="ldp-96378d490daba8" x="0" y="0" width="1000" height="200" patternUnits="userSpaceOnUse">
    <defs><pattern id="ldp-96378d490daba8123" x="0" y="0" width="1000" height="200" patternUnits="userSpaceOnUse"></pattern></defs><g class="polygons"><path d="M -138.01385849473053 -79.56119307618451 L -139.12641782313045 90.51916437237145 L -116.21920911792566 -17.04978591431665 Z" fill="rgb(115, 156, 42)" stroke="rgb(115, 156, 42)" stroke-width="0.8" stroke-opacity="0.8"></path><path d="M -138.01385849473053 -79.56119307618451 L -116.21920911792566 -17.04978591431665 L -74.6108783100761 -58.384279342075345 Z" fill="rgb(113, 156, 42)" stroke="rgb(113, 156, 42)" stroke-width="0.8" stroke-opacity="0.8"></path><path d="M -138.01385849473053 -79.56119307618451 L -74.6108783100761 -58.384279342075345 L -72.8860330623657 -92.72518674137679 Z" fill="rgb(112, 156, 42)" stroke="rgb(112, 156, 42)" stroke-width="0.8" stroke-opacity="0.8"></path><path d="M -72.8860330623657 -92.72518674137679 L -74.6108783100761 -58.384279342075345 L -10.667498104254712 -78.12731784241566 Z" fill="rgb(115, 156, 42)" stroke="rgb(115, 156, 42)" stroke-width="0.8" stroke-opacity="0.8"></path><path d="M -10.667498104254712 -78.12731784241566 L -74.6108783100761 -58.384279342075345 L -5.486640626052772 -34.2260506865796 Z" fill="rgb(104, 156, 43)" stroke="rgb(104, 156, 43)" stroke-width="0.8" stroke-opacity="0.8"></path><path d="M -10.667498104254712 -78.12731784241566 L -5.486640626052772 -34.2260506865796 L 65.69474662266063 -63.62851531286983 Z" fill="rgb(102, 156, 44)" stroke="rgb(102, 156, 44)" stroke-width="0.8" stroke-opacity="0.8"></path><path d="M 65.69474662266063 -63.62851531286983 L -5.486640626052772 -34.2260506865796 L 68.77781358968569 -29.778988210394267 Z" fill="rgb(110, 156, 42)" stroke="rgb(110, 156, 42)" stroke-width="0.8" stroke-opacity="0.8"></path><path d="M 65.69474662266063 -63.62851531286983 L 68.77781358968569 -29.778988210394267 L 110.14019714195865 -34.791387917756694 Z" fill="rgb(100, 156, 44)" stroke="rgb(100, 156, 44)" stroke-width="0.8" stroke-opacity="0.8"></path><path d="M 65.69474662266063 -63.62851531286983 L 110.14019714195865 -34.791387917756694 L 142.72230961990203 -80.44650076262364 Z" fill="rgb(105, 156, 43)" stroke="rgb(105, 156, 43)" stroke-width="0.8" stroke-opacity="0.8"></path><path d="M 142.72230961990203 -80.44650076262364 L 110.14019714195865 -34.791387917756694 L 172.51357943982805 -59.556898612544785 Z" fill="rgb(94, 156, 45)" stroke="rgb(94, 156, 45)" stroke-width="0.8" stroke-opacity="0.8"></path><path d="M 142.72230961990203 -80.44650076262364 L 172.51357943982805 -59.556898612544785 L 181.38389881907608 -95.18546167720294 Z" fill="rgb(90, 156, 46)" stroke="rgb(90, 156, 46)" stroke-width="0.8" stroke-opacity="0.8"></path><path d="M 181.38389881907608 -95.18546167720294 L 172.51357943982805 -59.556898612544785 L 247.19770707673382 -50.21262225545666 Z" fill="rgb(82, 156, 47)" stroke="rgb(82, 156, 47)" stroke-width="0.8" stroke-opacity="0.8"></path><path d="M 181.38389881907608 -95.18546167720294 L 247.19770707673382 -50.21262225545666 L 251.45666525220167 -90.26067626563409 Z" fill="rgb(78, 155, 48)" stroke="rgb(78, 155, 48)" stroke-width="0.8" stroke-opacity="0.8"></path><path d="M 251.45666525220167 -90.26067626563409 L 247.19770707673382 -50.21262225545666 L 291.38630331555566 -42.941628768113006 Z" fill="rgb(83, 156, 47)" stroke="rgb(83, 156, 47)" stroke-width="0.8" stroke-opacity="0.8"></path><path d="M 251.45666525220167 -90.26067626563409 L 291.38630331555566 -42.941628768113006 L 299.1991367853509 -85.2149640444803 Z" fill="rgb(72, 155, 50)" stroke="rgb(72, 155, 50)" stroke-width="0.8" stroke-opacity="0.8"></path><path d="M 299.1991367853509 -85.2149640444803 L 291.38630331555566 -42.941628768113006 L 364.8132090963743 -86.15426386643956 Z" fill="rgb(59, 156, 53)" stroke="rgb(59, 156, 53)" stroke-width="0.8" stroke-opacity="0.8"></path><path d="M 364.8132090963743 -86.15426386643956 L 291.38630331555566 -42.941628768113006 L 366.8485313751969 -18.641235816715877 Z" fill="rgb(67, 155, 51)" stroke="rgb(67, 155, 51)" stroke-width="0.8" stroke-opacity="0.8"></path><path d="M 364.8132090963743 -86.15426386643956 L 366.8485313751969 -18.641235816715877 L 369.11745319567024 -18.3140525249758 Z" fill="rgb(70, 155, 50)" stroke="rgb(70, 155, 50)" stroke-width="0.8" stroke-opacity="0.8"></path><path d="M 364.8132090963743 -86.15426386643956 L 369.11745319567024 -18.3140525249758 L 419.02671778004196 -43.521208880456456 Z" fill="rgb(70, 155, 50)" stroke="rgb(70, 155, 50)" stroke-width="0.8" stroke-opacity="0.8"></path><path d="M 364.8132090963743 -86.15426386643956 L 419.02671778004196 -43.521208880456456 L 451.79956045122594 -57.247433360912076 Z" fill="rgb(63, 158, 52)" stroke="rgb(63, 158, 52)" stroke-width="0.8" stroke-opacity="0.8"></path><path d="M 364.8132090963743 -86.15426386643956 L 451.79956045122594 -57.247433360912076 L 500.4796832440312 -81.8631452404664 Z" fill="rgb(61, 157, 52)" stroke="rgb(61, 157, 52)" stroke-width="0.8" stroke-opacity="0.8"></path><path d="M 451.79956045122594 -57.247433360912076 L 419.02671778004196 -43.521208880456456 L 414.15839247320304 5.683456615578578 Z" fill="rgb(66, 155, 51)" stroke="rgb(66, 155, 51)" stroke-width="0.8" stroke-opacity="0.8"></path><path d="M 451.79956045122594 -57.247433360912076 L 414.15839247320304 5.683456615578578 L 475.6437921604265 25.65203530813401 Z" fill="rgb(79, 167, 49)" stroke="rgb(79, 167, 49)" stroke-width="0.8" stroke-opacity="0.8"></path><path d="M 451.79956045122594 -57.247433360912076 L 475.6437921604265 25.65203530813401 L 491.6794872227462 15.716956950213685 Z" fill="rgb(86, 170, 48)" stroke="rgb(86, 170, 48)" stroke-width="0.8" stroke-opacity="0.8"></path><path d="M 451.79956045122594 -57.247433360912076 L 491.6794872227462 15.716956950213685 L 490.50295547346315 -53.46257615045501 Z" fill="rgb(83, 169, 48)" stroke="rgb(83, 169, 48)" stroke-width="0.8" stroke-opacity="0.8"></path><path d="M 451.79956045122594 -57.247433360912076 L 490.50295547346315 -53.46257615045501 L 500.4796832440312 -81.8631452404664 Z" fill="rgb(59, 155, 53)" stroke="rgb(59, 155, 53)" stroke-width="0.8" stroke-opacity="0.8"></path><path d="M 500.4796832440312 -81.8631452404664 L 490.50295547346315 -53.46257615045501 L 546.1596795491324 -59.30048917006553 Z" fill="rgb(83, 169, 48)" stroke="rgb(83, 169, 48)" stroke-width="0.8" stroke-opacity="0.8"></path><path d="M 500.4796832440312 -81.8631452404664 L 546.1596795491324 -59.30048917006553 L 606.7755302431818 -74.54261768001906 Z" fill="rgb(88, 171, 47)" stroke="rgb(88, 171, 47)" stroke-width="0.8" stroke-opacity="0.8"></path><path d="M 546.1596795491324 -59.30048917006553 L 490.50295547346315 -53.46257615045501 L 491.6794872227462 15.716956950213685 Z" fill="rgb(87, 171, 48)" stroke="rgb(87, 171, 48)" stroke-width="0.8" stroke-opacity="0.8"></path><path d="M 546.1596795491324 -59.30048917006553 L 491.6794872227462 15.716956950213685 L 576.1492425691581 -2.3968309689611615 Z" fill="rgb(82, 168, 49)" stroke="rgb(82, 168, 49)" stroke-width="0.8" stroke-opacity="0.8"></path><path d="M 546.1596795491324 -59.30048917006553 L 576.1492425691581 -2.3968309689611615 L 570.9876298923822 -53.46451357478966 Z" fill="rgb(81, 168, 49)" stroke="rgb(81, 168, 49)" stroke-width="0.8" stroke-opacity="0.8"></path><path d="M 546.1596795491324 -59.30048917006553 L 570.9876298923822 -53.46451357478966 L 606.7755302431818 -74.54261768001906 Z" fill="rgb(83, 169, 48)" stroke="rgb(83, 169, 48)" stroke-width="0.8" stroke-opacity="0.8"></path><path d="M 606.7755302431818 -74.54261768001906 L 570.9876298923822 -53.46451357478966 L 628.3915112723462 -63.395984430499034 Z" fill="rgb(84, 169, 48)" stroke="rgb(84, 169, 48)" stroke-width="0.8" stroke-opacity="0.8"></path><path d="M 606.7755302431818 -74.54261768001906 L 628.3915112723462 -63.395984430499034 L 670.003905135589 -75.61672322785506 Z" fill="rgb(101, 178, 44)" stroke="rgb(101, 178, 44)" stroke-width="0.8" stroke-opacity="0.8"></path><path d="M 670.003905135589 -75.61672322785506 L 628.3915112723462 -63.395984430499034 L 667.6674011145152 -43.67882087740557 Z" fill="rgb(91, 173, 47)" stroke="rgb(91, 173, 47)" stroke-width="0.8" stroke-opacity="0.8"></path><path d="M 670.003905135589 -75.61672322785506 L 667.6674011145152 -43.67882087740557 L 705.4723175968624 -22.70596912254653 Z" fill="rgb(110, 183, 42)" stroke="rgb(110, 183, 42)" stroke-width="0.8" stroke-opacity="0.8"></path><path d="M 670.003905135589 -75.61672322785506 L 705.4723175968624 -22.70596912254653 L 741.7665999092586 -34.3196499482643 Z" fill="rgb(119, 187, 39)" stroke="rgb(119, 187, 39)" stroke-width="0.8" stroke-opacity="0.8"></path><path d="M 670.003905135589 -75.61672322785506 L 741.7665999092586 -34.3196499482643 L 772.634673962065 -68.4778308350752 Z" fill="rgb(114, 185, 40)" stroke="rgb(114, 185, 40)" stroke-width="0.8" stroke-opacity="0.8"></path><path d="M 670.003905135589 -75.61672322785506 L 772.634673962065 -68.4778308350752 L 813.0167664111335 -98.85941009681963 Z" fill="rgb(123, 190, 37)" stroke="rgb(123, 190, 37)" stroke-width="0.8" stroke-opacity="0.8"></path><path d="M 772.634673962065 -68.4778308350752 L 741.7665999092586 -34.3196499482643 L 752.8563026767223 -7.592827027892074 Z" fill="rgb(118, 187, 39)" stroke="rgb(118, 187, 39)" stroke-width="0.8" stroke-opacity="0.8"></path><path d="M 772.634673962065 -68.4778308350752 L 752.8563026767223 -7.592827027892074 L 827.2096543124414 -32.71444000776491 Z" fill="rgb(130, 193, 36)" stroke="rgb(130, 193, 36)" stroke-width="0.8" stroke-opacity="0.8"></path><path d="M 772.634673962065 -68.4778308350752 L 827.2096543124414 -32.71444000776491 L 813.0167664111335 -98.85941009681963 Z" fill="rgb(119, 187, 39)" stroke="rgb(119, 187, 39)" stroke-width="0.8" stroke-opacity="0.8"></path><path d="M 813.0167664111335 -98.85941009681963 L 827.2096543124414 -32.71444000776491 L 872.2640817890428 -66.01207189260111 Z" fill="rgb(125, 191, 37)" stroke="rgb(125, 191, 37)" stroke-width="0.8" stroke-opacity="0.8"></path><path d="M 813.0167664111335 -98.85941009681963 L 872.2640817890428 -66.01207189260111 L 961.5447487342004 -84.8097379536745 Z" fill="rgb(127, 191, 36)" stroke="rgb(127, 191, 36)" stroke-width="0.8" stroke-opacity="0.8"></path><path d="M 872.2640817890428 -66.01207189260111 L 827.2096543124414 -32.71444000776491 L 861.8919502982418 -17.477677344992543 Z" fill="rgb(134, 194, 35)" stroke="rgb(134, 194, 35)" stroke-width="0.8" stroke-opacity="0.8"></path><path d="M 872.2640817890428 -66.01207189260111 L 861.8919502982418 -17.477677344992543 L 890.0962608965842 -17.776624189839026 Z" fill="rgb(141, 197, 33)" stroke="rgb(141, 197, 33)" stroke-width="0.8" stroke-opacity="0.8"></path><path d="M 872.2640817890428 -66.01207189260111 L 890.0962608965842 -17.776624189839026 L 928.969768230045 -28.435263357989342 Z" fill="rgb(133, 194, 35)" stroke="rgb(133, 194, 35)" stroke-width="0.8" stroke-opacity="0.8"></path><path d="M 872.2640817890428 -66.01207189260111 L 928.969768230045 -28.435263357989342 L 961.5447487342004 -84.8097379536745 Z" fill="rgb(144, 198, 33)" stroke="rgb(144, 198, 33)" stroke-width="0.8" stroke-opacity="0.8"></path><path d="M 961.5447487342004 -84.8097379536745 L 928.969768230045 -28.435263357989342 L 980.3062485979403 -53.66569433358182 Z" fill="rgb(140, 197, 34)" stroke="rgb(140, 197, 34)" stroke-width="0.8" stroke-opacity="0.8"></path><path d="M 961.5447487342004 -84.8097379536745 L 980.3062485979403 -53.66569433358182 L 1015.9272154162518 -63.56180832063335 Z" fill="rgb(141, 197, 33)" stroke="rgb(141, 197, 33)" stroke-width="0.8" stroke-opacity="0.8"></path><path d="M 961.5447487342004 -84.8097379536745 L 1015.9272154162518 -63.56180832063335 L 1038.8738673670202 -69.7466667159636 Z" fill="rgb(158, 204, 30)" stroke="rgb(158, 204, 30)" stroke-width="0.8" stroke-opacity="0.8"></path><path d="M 1015.9272154162518 -63.56180832063335 L 980.3062485979403 -53.66569433358182 L 1039.2441096573825 -28.33060414708953 Z" fill="rgb(157, 204, 30)" stroke="rgb(157, 204, 30)" stroke-width="0.8" stroke-opacity="0.8"></path><path d="M 1015.9272154162518 -63.56180832063335 L 1039.2441096573825 -28.33060414708953 L 1038.8738673670202 -69.7466667159636 Z" fill="rgb(138, 196, 34)" stroke="rgb(138, 196, 34)" stroke-width="0.8" stroke-opacity="0.8"></path><path d="M 1038.8738673670202 -69.7466667159636 L 1039.2441096573825 -28.33060414708953 L 1074.6530929880475 3.4257254132100314 Z" fill="rgb(154, 203, 31)" stroke="rgb(154, 203, 31)" stroke-width="0.8" stroke-opacity="0.8"></path><path d="M -116.21920911792566 -17.04978591431665 L -139.12641782313045 90.51916437237145 L -116.42225234497793 48.3542622712801 Z" fill="rgb(115, 156, 42)" stroke="rgb(115, 156, 42)" stroke-width="0.8" stroke-opacity="0.8"></path><path d="M -116.21920911792566 -17.04978591431665 L -116.42225234497793 48.3542622712801 L -109.92931030738254 -8.303993463570247 Z" fill="rgb(105, 156, 43)" stroke="rgb(105, 156, 43)" stroke-width="0.8" stroke-opacity="0.8"></path><path d="M -116.21920911792566 -17.04978591431665 L -109.92931030738254 -8.303993463570247 L -74.6108783100761 -58.384279342075345 Z" fill="rgb(115, 156, 42)" stroke="rgb(115, 156, 42)" stroke-width="0.8" stroke-opacity="0.8"></path><path d="M -74.6108783100761 -58.384279342075345 L -109.92931030738254 -8.303993463570247 L -78.58105177397671 -0.48099618503109554 Z" fill="rgb(106, 156, 43)" stroke="rgb(106, 156, 43)" stroke-width="0.8" stroke-opacity="0.8"></path><path d="M -74.6108783100761 -58.384279342075345 L -78.58105177397671 -0.48099618503109554 L -5.486640626052772 -34.2260506865796 Z" fill="rgb(104, 156, 43)" stroke="rgb(104, 156, 43)" stroke-width="0.8" stroke-opacity="0.8"></path><path d="M -5.486640626052772 -34.2260506865796 L -78.58105177397671 -0.48099618503109554 L 6.436727870678261 16.66191808835618 Z" fill="rgb(110, 156, 42)" stroke="rgb(110, 156, 42)" stroke-width="0.8" stroke-opacity="0.8"></path><path d="M -5.486640626052772 -34.2260506865796 L 6.436727870678261 16.66191808835618 L 68.77781358968569 -29.778988210394267 Z" fill="rgb(101, 156, 44)" stroke="rgb(101, 156, 44)" stroke-width="0.8" stroke-opacity="0.8"></path><path d="M 68.77781358968569 -29.778988210394267 L 6.436727870678261 16.66191808835618 L 52.59419775471957 25.29385571550149 Z" fill="rgb(98, 156, 44)" stroke="rgb(98, 156, 44)" stroke-width="0.8" stroke-opacity="0.8"></path><path d="M 68.77781358968569 -29.778988210394267 L 52.59419775471957 25.29385571550149 L 86.54669108943912 -17.35313717719331 Z" fill="rgb(105, 156, 43)" stroke="rgb(105, 156, 43)" stroke-width="0.8" stroke-opacity="0.8"></path><path d="M 68.77781358968569 -29.778988210394267 L 86.54669108943912 -17.35313717719331 L 110.14019714195865 -34.791387917756694 Z" fill="rgb(101, 156, 44)" stroke="rgb(101, 156, 44)" stroke-width="0.8" stroke-opacity="0.8"></path><path d="M 110.14019714195865 -34.791387917756694 L 86.54669108943912 -17.35313717719331 L 115.17043198876723 12.014062215858765 Z" fill="rgb(105, 156, 43)" stroke="rgb(105, 156, 43)" stroke-width="0.8" stroke-opacity="0.8"></path><path d="M 110.14019714195865 -34.791387917756694 L 115.17043198876723 12.014062215858765 L 172.6357894833842 21.83939991765096 Z" fill="rgb(90, 156, 46)" stroke="rgb(90, 156, 46)" stroke-width="0.8" stroke-opacity="0.8"></path><path d="M 110.14019714195865 -34.791387917756694 L 172.6357894833842 21.83939991765096 L 172.51357943982805 -59.556898612544785 Z" fill="rgb(105, 156, 43)" stroke="rgb(105, 156, 43)" stroke-width="0.8" stroke-opacity="0.8"></path><path d="M 172.51357943982805 -59.556898612544785 L 172.6357894833842 21.83939991765096 L 206.3078880165806 -22.961880165345715 Z" fill="rgb(79, 156, 48)" stroke="rgb(79, 156, 48)" stroke-width="0.8" stroke-opacity="0.8"></path><path d="M 172.51357943982805 -59.556898612544785 L 206.3078880165806 -22.961880165345715 L 247.19770707673382 -50.21262225545666 Z" fill="rgb(91, 156, 46)" stroke="rgb(91, 156, 46)" stroke-width="0.8" stroke-opacity="0.8"></path><path d="M 247.19770707673382 -50.21262225545666 L 206.3078880165806 -22.961880165345715 L 231.71361795778773 20.27170432997898 Z" fill="rgb(91, 156, 46)" stroke="rgb(91, 156, 46)" stroke-width="0.8" stroke-opacity="0.8"></path><path d="M 247.19770707673382 -50.21262225545666 L 231.71361795778773 20.27170432997898 L 267.6495281036608 17.039832223557426 Z" fill="rgb(72, 155, 50)" stroke="rgb(72, 155, 50)" stroke-width="0.8" stroke-opacity="0.8"></path><path d="M 247.19770707673382 -50.21262225545666 L 267.6495281036608 17.039832223557426 L 291.38630331555566 -42.941628768113006 Z" fill="rgb(93, 156, 45)" stroke="rgb(93, 156, 45)" stroke-width="0.8" stroke-opacity="0.8"></path><path d="M 291.38630331555566 -42.941628768113006 L 267.6495281036608 17.039832223557426 L 303.08604412773917 1.6397878465535598 Z" fill="rgb(85, 156, 47)" stroke="rgb(85, 156, 47)" stroke-width="0.8" stroke-opacity="0.8"></path><path d="M 291.38630331555566 -42.941628768113006 L 303.08604412773917 1.6397878465535598 L 366.8485313751969 -18.641235816715877 Z" fill="rgb(75, 155, 49)" stroke="rgb(75, 155, 49)" stroke-width="0.8" stroke-opacity="0.8"></path><path d="M 366.8485313751969 -18.641235816715877 L 303.08604412773917 1.6397878465535598 L 370.34032131165065 45.18256192208894 Z" fill="rgb(79, 155, 48)" stroke="rgb(79, 155, 48)" stroke-width="0.8" stroke-opacity="0.8"></path><path d="M 366.8485313751969 -18.641235816715877 L 370.34032131165065 45.18256192208894 L 369.11745319567024 -18.3140525249758 Z" fill="rgb(57, 155, 53)" stroke="rgb(57, 155, 53)" stroke-width="0.8" stroke-opacity="0.8"></path><path d="M 419.02671778004196 -43.521208880456456 L 369.11745319567024 -18.3140525249758 L 414.15839247320304 5.683456615578578 Z" fill="rgb(69, 155, 50)" stroke="rgb(69, 155, 50)" stroke-width="0.8" stroke-opacity="0.8"></path><path d="M 570.9876298923822 -53.46451357478966 L 576.1492425691581 -2.3968309689611615 L 628.3915112723462 -63.395984430499034 Z" fill="rgb(77, 165, 50)" stroke="rgb(77, 165, 50)" stroke-width="0.8" stroke-opacity="0.8"></path><path d="M 628.3915112723462 -63.395984430499034 L 576.1492425691581 -2.3968309689611615 L 634.8149225365684 9.843141034878478 Z" fill="rgb(88, 172, 47)" stroke="rgb(88, 172, 47)" stroke-width="0.8" stroke-opacity="0.8"></path><path d="M 628.3915112723462 -63.395984430499034 L 634.8149225365684 9.843141034878478 L 667.6674011145152 -43.67882087740557 Z" fill="rgb(109, 182, 42)" stroke="rgb(109, 182, 42)" stroke-width="0.8" stroke-opacity="0.8"></path><path d="M 667.6674011145152 -43.67882087740557 L 634.8149225365684 9.843141034878478 L 705.4723175968624 -22.70596912254653 Z" fill="rgb(116, 186, 40)" stroke="rgb(116, 186, 40)" stroke-width="0.8" stroke-opacity="0.8"></path><path d="M 741.7665999092586 -34.3196499482643 L 705.4723175968624 -22.70596912254653 L 752.8563026767223 -7.592827027892074 Z" fill="rgb(121, 188, 38)" stroke="rgb(121, 188, 38)" stroke-width="0.8" stroke-opacity="0.8"></path><path d="M 827.2096543124414 -32.71444000776491 L 752.8563026767223 -7.592827027892074 L 799.5026068655048 12.954005106883521 Z" fill="rgb(108, 182, 42)" stroke="rgb(108, 182, 42)" stroke-width="0.8" stroke-opacity="0.8"></path><path d="M 827.2096543124414 -32.71444000776491 L 799.5026068655048 12.954005106883521 L 861.8919502982418 -17.477677344992543 Z" fill="rgb(115, 185, 40)" stroke="rgb(115, 185, 40)" stroke-width="0.8" stroke-opacity="0.8"></path><path d="M 861.8919502982418 -17.477677344992543 L 799.5026068655048 12.954005106883521 L 830.1127987503303 61.04288608007112 Z" fill="rgb(126, 191, 36)" stroke="rgb(126, 191, 36)" stroke-width="0.8" stroke-opacity="0.8"></path><path d="M 861.8919502982418 -17.477677344992543 L 830.1127987503303 61.04288608007112 L 890.2692116560552 62.90643930347028 Z" fill="rgb(141, 197, 34)" stroke="rgb(141, 197, 34)" stroke-width="0.8" stroke-opacity="0.8"></path><path d="M 861.8919502982418 -17.477677344992543 L 890.2692116560552 62.90643930347028 L 890.0962608965842 -17.776624189839026 Z" fill="rgb(144, 199, 33)" stroke="rgb(144, 199, 33)" stroke-width="0.8" stroke-opacity="0.8"></path><path d="M 928.969768230045 -28.435263357989342 L 890.0962608965842 -17.776624189839026 L 950.8762054371568 4.517348838745306 Z" fill="rgb(130, 192, 36)" stroke="rgb(130, 192, 36)" stroke-width="0.8" stroke-opacity="0.8"></path><path d="M 928.969768230045 -28.435263357989342 L 950.8762054371568 4.517348838745306 L 980.3062485979403 -53.66569433358182 Z" fill="rgb(146, 199, 32)" stroke="rgb(146, 199, 32)" stroke-width="0.8" stroke-opacity="0.8"></path><path d="M 980.3062485979403 -53.66569433358182 L 950.8762054371568 4.517348838745306 L 1002.4018680831401 2.653346134996383 Z" fill="rgb(138, 196, 34)" stroke="rgb(138, 196, 34)" stroke-width="0.8" stroke-opacity="0.8"></path><path d="M 980.3062485979403 -53.66569433358182 L 1002.4018680831401 2.653346134996383 L 1039.2441096573825 -28.33060414708953 Z" fill="rgb(138, 196, 34)" stroke="rgb(138, 196, 34)" stroke-width="0.8" stroke-opacity="0.8"></path><path d="M 1039.2441096573825 -28.33060414708953 L 1002.4018680831401 2.653346134996383 L 1074.6530929880475 3.4257254132100314 Z" fill="rgb(155, 203, 30)" stroke="rgb(155, 203, 30)" stroke-width="0.8" stroke-opacity="0.8"></path><path d="M -109.92931030738254 -8.303993463570247 L -116.42225234497793 48.3542622712801 L -78.58105177397671 -0.48099618503109554 Z" fill="rgb(109, 156, 43)" stroke="rgb(109, 156, 43)" stroke-width="0.8" stroke-opacity="0.8"></path><path d="M -78.58105177397671 -0.48099618503109554 L -116.42225234497793 48.3542622712801 L -78.80915165453028 52.36204947928826 Z" fill="rgb(105, 156, 43)" stroke="rgb(105, 156, 43)" stroke-width="0.8" stroke-opacity="0.8"></path><path d="M -78.58105177397671 -0.48099618503109554 L -78.80915165453028 52.36204947928826 L -9.527640394380354 38.342841574954896 Z" fill="rgb(115, 156, 42)" stroke="rgb(115, 156, 42)" stroke-width="0.8" stroke-opacity="0.8"></path><path d="M -78.58105177397671 -0.48099618503109554 L -9.527640394380354 38.342841574954896 L 6.436727870678261 16.66191808835618 Z" fill="rgb(115, 156, 42)" stroke="rgb(115, 156, 42)" stroke-width="0.8" stroke-opacity="0.8"></path><path d="M 6.436727870678261 16.66191808835618 L -9.527640394380354 38.342841574954896 L 52.59419775471957 25.29385571550149 Z" fill="rgb(115, 156, 42)" stroke="rgb(115, 156, 42)" stroke-width="0.8" stroke-opacity="0.8"></path><path d="M 86.54669108943912 -17.35313717719331 L 52.59419775471957 25.29385571550149 L 115.17043198876723 12.014062215858765 Z" fill="rgb(109, 156, 43)" stroke="rgb(109, 156, 43)" stroke-width="0.8" stroke-opacity="0.8"></path><path d="M 115.17043198876723 12.014062215858765 L 52.59419775471957 25.29385571550149 L 67.87650319522001 75.42657989198071 Z" fill="rgb(96, 156, 45)" stroke="rgb(96, 156, 45)" stroke-width="0.8" stroke-opacity="0.8"></path><path d="M 115.17043198876723 12.014062215858765 L 67.87650319522001 75.42657989198071 L 146.26465135343196 40.28693198175489 Z" fill="rgb(94, 156, 45)" stroke="rgb(94, 156, 45)" stroke-width="0.8" stroke-opacity="0.8"></path><path d="M 115.17043198876723 12.014062215858765 L 146.26465135343196 40.28693198175489 L 172.6357894833842 21.83939991765096 Z" fill="rgb(86, 156, 47)" stroke="rgb(86, 156, 47)" stroke-width="0.8" stroke-opacity="0.8"></path><path d="M 206.3078880165806 -22.961880165345715 L 172.6357894833842 21.83939991765096 L 231.71361795778773 20.27170432997898 Z" fill="rgb(95, 156, 45)" stroke="rgb(95, 156, 45)" stroke-width="0.8" stroke-opacity="0.8"></path><path d="M 267.6495281036608 17.039832223557426 L 231.71361795778773 20.27170432997898 L 233.89866936474368 62.5567249139257 Z" fill="rgb(62, 155, 52)" stroke="rgb(62, 155, 52)" stroke-width="0.8" stroke-opacity="0.8"></path><path d="M 267.6495281036608 17.039832223557426 L 233.89866936474368 62.5567249139257 L 306.15216857823714 38.33558153625116 Z" fill="rgb(69, 155, 50)" stroke="rgb(69, 155, 50)" stroke-width="0.8" stroke-opacity="0.8"></path><path d="M 267.6495281036608 17.039832223557426 L 306.15216857823714 38.33558153625116 L 303.08604412773917 1.6397878465535598 Z" fill="rgb(76, 155, 49)" stroke="rgb(76, 155, 49)" stroke-width="0.8" stroke-opacity="0.8"></path><path d="M 303.08604412773917 1.6397878465535598 L 306.15216857823714 38.33558153625116 L 370.34032131165065 45.18256192208894 Z" fill="rgb(61, 157, 52)" stroke="rgb(61, 157, 52)" stroke-width="0.8" stroke-opacity="0.8"></path><path d="M 369.11745319567024 -18.3140525249758 L 370.34032131165065 45.18256192208894 L 414.15839247320304 5.683456615578578 Z" fill="rgb(61, 157, 52)" stroke="rgb(61, 157, 52)" stroke-width="0.8" stroke-opacity="0.8"></path><path d="M 414.15839247320304 5.683456615578578 L 370.34032131165065 45.18256192208894 L 423.1611091731988 19.443048136270605 Z" fill="rgb(77, 165, 50)" stroke="rgb(77, 165, 50)" stroke-width="0.8" stroke-opacity="0.8"></path><path d="M 414.15839247320304 5.683456615578578 L 423.1611091731988 19.443048136270605 L 475.6437921604265 25.65203530813401 Z" fill="rgb(66, 160, 52)" stroke="rgb(66, 160, 52)" stroke-width="0.8" stroke-opacity="0.8"></path><path d="M 491.6794872227462 15.716956950213685 L 475.6437921604265 25.65203530813401 L 494.7637757987719 103.43661178193182 Z" fill="rgb(70, 162, 51)" stroke="rgb(70, 162, 51)" stroke-width="0.8" stroke-opacity="0.8"></path><path d="M 491.6794872227462 15.716956950213685 L 494.7637757987719 103.43661178193182 L 515.7434286599783 106.0927407009376 Z" fill="rgb(94, 174, 46)" stroke="rgb(94, 174, 46)" stroke-width="0.8" stroke-opacity="0.8"></path><path d="M 491.6794872227462 15.716956950213685 L 515.7434286599783 106.0927407009376 L 570.8604625776528 47.664652233378945 Z" fill="rgb(79, 166, 49)" stroke="rgb(79, 166, 49)" stroke-width="0.8" stroke-opacity="0.8"></path><path d="M 491.6794872227462 15.716956950213685 L 570.8604625776528 47.664652233378945 L 576.1492425691581 -2.3968309689611615 Z" fill="rgb(83, 169, 48)" stroke="rgb(83, 169, 48)" stroke-width="0.8" stroke-opacity="0.8"></path><path d="M 576.1492425691581 -2.3968309689611615 L 570.8604625776528 47.664652233378945 L 603.0779642908063 36.31278240710179 Z" fill="rgb(82, 168, 49)" stroke="rgb(82, 168, 49)" stroke-width="0.8" stroke-opacity="0.8"></path><path d="M 576.1492425691581 -2.3968309689611615 L 603.0779642908063 36.31278240710179 L 634.8149225365684 9.843141034878478 Z" fill="rgb(103, 179, 43)" stroke="rgb(103, 179, 43)" stroke-width="0.8" stroke-opacity="0.8"></path><path d="M 634.8149225365684 9.843141034878478 L 603.0779642908063 36.31278240710179 L 678.0659737258362 48.4031515386473 Z" fill="rgb(90, 173, 47)" stroke="rgb(90, 173, 47)" stroke-width="0.8" stroke-opacity="0.8"></path><path d="M 634.8149225365684 9.843141034878478 L 678.0659737258362 48.4031515386473 L 705.4723175968624 -22.70596912254653 Z" fill="rgb(114, 185, 40)" stroke="rgb(114, 185, 40)" stroke-width="0.8" stroke-opacity="0.8"></path><path d="M 705.4723175968624 -22.70596912254653 L 678.0659737258362 48.4031515386473 L 752.8563026767223 -7.592827027892074 Z" fill="rgb(115, 186, 40)" stroke="rgb(115, 186, 40)" stroke-width="0.8" stroke-opacity="0.8"></path><path d="M 752.8563026767223 -7.592827027892074 L 678.0659737258362 48.4031515386473 L 735.4875411577792 66.4445015690778 Z" fill="rgb(121, 188, 38)" stroke="rgb(121, 188, 38)" stroke-width="0.8" stroke-opacity="0.8"></path><path d="M 752.8563026767223 -7.592827027892074 L 735.4875411577792 66.4445015690778 L 764.225100332826 42.15879051049835 Z" fill="rgb(131, 193, 36)" stroke="rgb(131, 193, 36)" stroke-width="0.8" stroke-opacity="0.8"></path><path d="M 752.8563026767223 -7.592827027892074 L 764.225100332826 42.15879051049835 L 799.5026068655048 12.954005106883521 Z" fill="rgb(125, 191, 37)" stroke="rgb(125, 191, 37)" stroke-width="0.8" stroke-opacity="0.8"></path><path d="M 799.5026068655048 12.954005106883521 L 764.225100332826 42.15879051049835 L 796.6360869931422 57.081898710646335 Z" fill="rgb(137, 195, 34)" stroke="rgb(137, 195, 34)" stroke-width="0.8" stroke-opacity="0.8"></path><path d="M 799.5026068655048 12.954005106883521 L 796.6360869931422 57.081898710646335 L 830.1127987503303 61.04288608007112 Z" fill="rgb(132, 194, 35)" stroke="rgb(132, 194, 35)" stroke-width="0.8" stroke-opacity="0.8"></path><path d="M 890.0962608965842 -17.776624189839026 L 890.2692116560552 62.90643930347028 L 917.7489027784046 57.33800093528419 Z" fill="rgb(133, 194, 35)" stroke="rgb(133, 194, 35)" stroke-width="0.8" stroke-opacity="0.8"></path><path d="M 890.0962608965842 -17.776624189839026 L 917.7489027784046 57.33800093528419 L 950.8762054371568 4.517348838745306 Z" fill="rgb(151, 202, 31)" stroke="rgb(151, 202, 31)" stroke-width="0.8" stroke-opacity="0.8"></path><path d="M 950.8762054371568 4.517348838745306 L 917.7489027784046 57.33800093528419 L 989.6263716798655 35.94882186909956 Z" fill="rgb(150, 201, 32)" stroke="rgb(150, 201, 32)" stroke-width="0.8" stroke-opacity="0.8"></path><path d="M 950.8762054371568 4.517348838745306 L 989.6263716798655 35.94882186909956 L 1002.4018680831401 2.653346134996383 Z" fill="rgb(156, 204, 30)" stroke="rgb(156, 204, 30)" stroke-width="0.8" stroke-opacity="0.8"></path><path d="M 1002.4018680831401 2.653346134996383 L 989.6263716798655 35.94882186909956 L 1072.73071969546 26.65392326663673 Z" fill="rgb(140, 197, 34)" stroke="rgb(140, 197, 34)" stroke-width="0.8" stroke-opacity="0.8"></path><path d="M 1002.4018680831401 2.653346134996383 L 1072.73071969546 26.65392326663673 L 1074.6530929880475 3.4257254132100314 Z" fill="rgb(160, 205, 29)" stroke="rgb(160, 205, 29)" stroke-width="0.8" stroke-opacity="0.8"></path><path d="M 1074.6530929880475 3.4257254132100314 L 1072.73071969546 26.65392326663673 L 1084.4099295048434 124.29093323244922 Z" fill="rgb(155, 203, 30)" stroke="rgb(155, 203, 30)" stroke-width="0.8" stroke-opacity="0.8"></path><path d="M -116.42225234497793 48.3542622712801 L -139.12641782313045 90.51916437237145 L -126.93874951415069 97.23030147509249 Z" fill="rgb(106, 156, 43)" stroke="rgb(106, 156, 43)" stroke-width="0.8" stroke-opacity="0.8"></path><path d="M -116.42225234497793 48.3542622712801 L -126.93874951415069 97.23030147509249 L -83.87263734882141 69.51483644990839 Z" fill="rgb(112, 156, 42)" stroke="rgb(112, 156, 42)" stroke-width="0.8" stroke-opacity="0.8"></path><path d="M -116.42225234497793 48.3542622712801 L -83.87263734882141 69.51483644990839 L -78.80915165453028 52.36204947928826 Z" fill="rgb(97, 156, 44)" stroke="rgb(97, 156, 44)" stroke-width="0.8" stroke-opacity="0.8"></path><path d="M -78.80915165453028 52.36204947928826 L -83.87263734882141 69.51483644990839 L -10.566589658770987 68.94936297097185 Z" fill="rgb(106, 156, 43)" stroke="rgb(106, 156, 43)" stroke-width="0.8" stroke-opacity="0.8"></path><path d="M -78.80915165453028 52.36204947928826 L -10.566589658770987 68.94936297097185 L -9.527640394380354 38.342841574954896 Z" fill="rgb(106, 156, 43)" stroke="rgb(106, 156, 43)" stroke-width="0.8" stroke-opacity="0.8"></path><path d="M -9.527640394380354 38.342841574954896 L -10.566589658770987 68.94936297097185 L 52.59419775471957 25.29385571550149 Z" fill="rgb(109, 156, 43)" stroke="rgb(109, 156, 43)" stroke-width="0.8" stroke-opacity="0.8"></path><path d="M 52.59419775471957 25.29385571550149 L -10.566589658770987 68.94936297097185 L 67.87650319522001 75.42657989198071 Z" fill="rgb(108, 156, 43)" stroke="rgb(108, 156, 43)" stroke-width="0.8" stroke-opacity="0.8"></path><path d="M 146.26465135343196 40.28693198175489 L 67.87650319522001 75.42657989198071 L 128.0956377351642 92.76043984240121 Z" fill="rgb(96, 156, 45)" stroke="rgb(96, 156, 45)" stroke-width="0.8" stroke-opacity="0.8"></path><path d="M 146.26465135343196 40.28693198175489 L 128.0956377351642 92.76043984240121 L 185.71839233385708 102.3588602625409 Z" fill="rgb(82, 156, 47)" stroke="rgb(82, 156, 47)" stroke-width="0.8" stroke-opacity="0.8"></path><path d="M 146.26465135343196 40.28693198175489 L 185.71839233385708 102.3588602625409 L 172.6357894833842 21.83939991765096 Z" fill="rgb(87, 156, 46)" stroke="rgb(87, 156, 46)" stroke-width="0.8" stroke-opacity="0.8"></path><path d="M 172.6357894833842 21.83939991765096 L 185.71839233385708 102.3588602625409 L 233.89866936474368 62.5567249139257 Z" fill="rgb(85, 156, 47)" stroke="rgb(85, 156, 47)" stroke-width="0.8" stroke-opacity="0.8"></path><path d="M 172.6357894833842 21.83939991765096 L 233.89866936474368 62.5567249139257 L 231.71361795778773 20.27170432997898 Z" fill="rgb(96, 156, 45)" stroke="rgb(96, 156, 45)" stroke-width="0.8" stroke-opacity="0.8"></path><path d="M 306.15216857823714 38.33558153625116 L 233.89866936474368 62.5567249139257 L 301.11093716828094 111.55570922659936 Z" fill="rgb(60, 157, 53)" stroke="rgb(60, 157, 53)" stroke-width="0.8" stroke-opacity="0.8"></path><path d="M 306.15216857823714 38.33558153625116 L 301.11093716828094 111.55570922659936 L 328.7905631017161 57.972591328122654 Z" fill="rgb(62, 157, 52)" stroke="rgb(62, 157, 52)" stroke-width="0.8" stroke-opacity="0.8"></path><path d="M 306.15216857823714 38.33558153625116 L 328.7905631017161 57.972591328122654 L 370.34032131165065 45.18256192208894 Z" fill="rgb(68, 161, 51)" stroke="rgb(68, 161, 51)" stroke-width="0.8" stroke-opacity="0.8"></path><path d="M 370.34032131165065 45.18256192208894 L 328.7905631017161 57.972591328122654 L 390.30864393194787 78.8908360965971 Z" fill="rgb(69, 155, 50)" stroke="rgb(69, 155, 50)" stroke-width="0.8" stroke-opacity="0.8"></path><path d="M 370.34032131165065 45.18256192208894 L 390.30864393194787 78.8908360965971 L 423.12312588727934 62.67796995228614 Z" fill="rgb(60, 155, 52)" stroke="rgb(60, 155, 52)" stroke-width="0.8" stroke-opacity="0.8"></path><path d="M 370.34032131165065 45.18256192208894 L 423.12312588727934 62.67796995228614 L 423.1611091731988 19.443048136270605 Z" fill="rgb(60, 157, 53)" stroke="rgb(60, 157, 53)" stroke-width="0.8" stroke-opacity="0.8"></path><path d="M 423.1611091731988 19.443048136270605 L 423.12312588727934 62.67796995228614 L 475.6437921604265 25.65203530813401 Z" fill="rgb(59, 155, 52)" stroke="rgb(59, 155, 52)" stroke-width="0.8" stroke-opacity="0.8"></path><path d="M 475.6437921604265 25.65203530813401 L 423.12312588727934 62.67796995228614 L 494.7637757987719 103.43661178193182 Z" fill="rgb(72, 163, 51)" stroke="rgb(72, 163, 51)" stroke-width="0.8" stroke-opacity="0.8"></path><path d="M 570.8604625776528 47.664652233378945 L 515.7434286599783 106.0927407009376 L 566.0149805544862 94.835127398835 Z" fill="rgb(95, 175, 46)" stroke="rgb(95, 175, 46)" stroke-width="0.8" stroke-opacity="0.8"></path><path d="M 570.8604625776528 47.664652233378945 L 566.0149805544862 94.835127398835 L 627.0067464891164 85.24485165582288 Z" fill="rgb(114, 185, 40)" stroke="rgb(114, 185, 40)" stroke-width="0.8" stroke-opacity="0.8"></path><path d="M 570.8604625776528 47.664652233378945 L 627.0067464891164 85.24485165582288 L 603.0779642908063 36.31278240710179 Z" fill="rgb(91, 173, 47)" stroke="rgb(91, 173, 47)" stroke-width="0.8" stroke-opacity="0.8"></path><path d="M 603.0779642908063 36.31278240710179 L 627.0067464891164 85.24485165582288 L 678.0659737258362 48.4031515386473 Z" fill="rgb(120, 188, 38)" stroke="rgb(120, 188, 38)" stroke-width="0.8" stroke-opacity="0.8"></path><path d="M 678.0659737258362 48.4031515386473 L 627.0067464891164 85.24485165582288 L 663.2393290421427 99.38530172543834 Z" fill="rgb(105, 180, 43)" stroke="rgb(105, 180, 43)" stroke-width="0.8" stroke-opacity="0.8"></path><path d="M 678.0659737258362 48.4031515386473 L 663.2393290421427 99.38530172543834 L 683.6375606212621 56.58150144007618 Z" fill="rgb(117, 186, 39)" stroke="rgb(117, 186, 39)" stroke-width="0.8" stroke-opacity="0.8"></path><path d="M 678.0659737258362 48.4031515386473 L 683.6375606212621 56.58150144007618 L 735.4875411577792 66.4445015690778 Z" fill="rgb(118, 187, 39)" stroke="rgb(118, 187, 39)" stroke-width="0.8" stroke-opacity="0.8"></path><path d="M 764.225100332826 42.15879051049835 L 735.4875411577792 66.4445015690778 L 796.6360869931422 57.081898710646335 Z" fill="rgb(115, 185, 40)" stroke="rgb(115, 185, 40)" stroke-width="0.8" stroke-opacity="0.8"></path><path d="M 796.6360869931422 57.081898710646335 L 735.4875411577792 66.4445015690778 L 769.6040645249135 133.7420470859071 Z" fill="rgb(138, 196, 34)" stroke="rgb(138, 196, 34)" stroke-width="0.8" stroke-opacity="0.8"></path><path d="M 796.6360869931422 57.081898710646335 L 769.6040645249135 133.7420470859071 L 822.5951603163115 127.66406435588232 Z" fill="rgb(138, 196, 34)" stroke="rgb(138, 196, 34)" stroke-width="0.8" stroke-opacity="0.8"></path><path d="M 796.6360869931422 57.081898710646335 L 822.5951603163115 127.66406435588232 L 830.1127987503303 61.04288608007112 Z" fill="rgb(127, 191, 36)" stroke="rgb(127, 191, 36)" stroke-width="0.8" stroke-opacity="0.8"></path><path d="M 890.2692116560552 62.90643930347028 L 830.1127987503303 61.04288608007112 L 867.1300062062137 93.74845945893375 Z" fill="rgb(151, 202, 31)" stroke="rgb(151, 202, 31)" stroke-width="0.8" stroke-opacity="0.8"></path><path d="M 890.2692116560552 62.90643930347028 L 867.1300062062137 93.74845945893375 L 926.8159311866573 102.0948092332543 Z" fill="rgb(137, 196, 34)" stroke="rgb(137, 196, 34)" stroke-width="0.8" stroke-opacity="0.8"></path><path d="M 890.2692116560552 62.90643930347028 L 926.8159311866573 102.0948092332543 L 917.7489027784046 57.33800093528419 Z" fill="rgb(142, 198, 33)" stroke="rgb(142, 198, 33)" stroke-width="0.8" stroke-opacity="0.8"></path><path d="M 917.7489027784046 57.33800093528419 L 926.8159311866573 102.0948092332543 L 995.4905402322033 100.595115868041 Z" fill="rgb(160, 205, 29)" stroke="rgb(160, 205, 29)" stroke-width="0.8" stroke-opacity="0.8"></path><path d="M 917.7489027784046 57.33800093528419 L 995.4905402322033 100.595115868041 L 989.6263716798655 35.94882186909956 Z" fill="rgb(161, 205, 29)" stroke="rgb(161, 205, 29)" stroke-width="0.8" stroke-opacity="0.8"></path><path d="M 989.6263716798655 35.94882186909956 L 995.4905402322033 100.595115868041 L 1043.94935984226 93.26017211695034 Z" fill="rgb(158, 204, 30)" stroke="rgb(158, 204, 30)" stroke-width="0.8" stroke-opacity="0.8"></path><path d="M 989.6263716798655 35.94882186909956 L 1043.94935984226 93.26017211695034 L 1072.73071969546 26.65392326663673 Z" fill="rgb(157, 204, 30)" stroke="rgb(157, 204, 30)" stroke-width="0.8" stroke-opacity="0.8"></path><path d="M 1072.73071969546 26.65392326663673 L 1043.94935984226 93.26017211695034 L 1084.4099295048434 124.29093323244922 Z" fill="rgb(150, 201, 32)" stroke="rgb(150, 201, 32)" stroke-width="0.8" stroke-opacity="0.8"></path><path d="M -139.12641782313045 90.51916437237145 L -127.06560212012407 183.54762370719652 L -126.93874951415069 97.23030147509249 Z" fill="rgb(103, 156, 43)" stroke="rgb(103, 156, 43)" stroke-width="0.8" stroke-opacity="0.8"></path><path d="M -83.87263734882141 69.51483644990839 L -126.93874951415069 97.23030147509249 L -56.03235222055423 144.3455688927669 Z" fill="rgb(110, 156, 42)" stroke="rgb(110, 156, 42)" stroke-width="0.8" stroke-opacity="0.8"></path><path d="M -83.87263734882141 69.51483644990839 L -56.03235222055423 144.3455688927669 L -12.654916491231612 125.90683743509547 Z" fill="rgb(93, 156, 45)" stroke="rgb(93, 156, 45)" stroke-width="0.8" stroke-opacity="0.8"></path><path d="M -83.87263734882141 69.51483644990839 L -12.654916491231612 125.90683743509547 L -10.566589658770987 68.94936297097185 Z" fill="rgb(111, 156, 42)" stroke="rgb(111, 156, 42)" stroke-width="0.8" stroke-opacity="0.8"></path><path d="M -10.566589658770987 68.94936297097185 L -12.654916491231612 125.90683743509547 L 67.87650319522001 75.42657989198071 Z" fill="rgb(91, 156, 46)" stroke="rgb(91, 156, 46)" stroke-width="0.8" stroke-opacity="0.8"></path><path d="M 67.87650319522001 75.42657989198071 L -12.654916491231612 125.90683743509547 L 68.50865032251919 127.12880676305245 Z" fill="rgb(104, 156, 43)" stroke="rgb(104, 156, 43)" stroke-width="0.8" stroke-opacity="0.8"></path><path d="M 67.87650319522001 75.42657989198071 L 68.50865032251919 127.12880676305245 L 128.0956377351642 92.76043984240121 Z" fill="rgb(102, 156, 44)" stroke="rgb(102, 156, 44)" stroke-width="0.8" stroke-opacity="0.8"></path><path d="M 128.0956377351642 92.76043984240121 L 68.50865032251919 127.12880676305245 L 145.2083804256002 128.230910969969 Z" fill="rgb(80, 156, 48)" stroke="rgb(80, 156, 48)" stroke-width="0.8" stroke-opacity="0.8"></path><path d="M 128.0956377351642 92.76043984240121 L 145.2083804256002 128.230910969969 L 185.71839233385708 102.3588602625409 Z" fill="rgb(87, 156, 46)" stroke="rgb(87, 156, 46)" stroke-width="0.8" stroke-opacity="0.8"></path><path d="M 185.71839233385708 102.3588602625409 L 145.2083804256002 128.230910969969 L 208.77348496975125 143.79133434595002 Z" fill="rgb(59, 155, 53)" stroke="rgb(59, 155, 53)" stroke-width="0.8" stroke-opacity="0.8"></path><path d="M 185.71839233385708 102.3588602625409 L 208.77348496975125 143.79133434595002 L 233.89866936474368 62.5567249139257 Z" fill="rgb(77, 155, 49)" stroke="rgb(77, 155, 49)" stroke-width="0.8" stroke-opacity="0.8"></path><path d="M 233.89866936474368 62.5567249139257 L 208.77348496975125 143.79133434595002 L 261.4807895141337 135.07508181458957 Z" fill="rgb(64, 155, 51)" stroke="rgb(64, 155, 51)" stroke-width="0.8" stroke-opacity="0.8"></path><path d="M 233.89866936474368 62.5567249139257 L 261.4807895141337 135.07508181458957 L 301.11093716828094 111.55570922659936 Z" fill="rgb(70, 155, 50)" stroke="rgb(70, 155, 50)" stroke-width="0.8" stroke-opacity="0.8"></path><path d="M 328.7905631017161 57.972591328122654 L 301.11093716828094 111.55570922659936 L 384.6695435065437 100.57820297545956 Z" fill="rgb(58, 155, 53)" stroke="rgb(58, 155, 53)" stroke-width="0.8" stroke-opacity="0.8"></path><path d="M 328.7905631017161 57.972591328122654 L 384.6695435065437 100.57820297545956 L 390.30864393194787 78.8908360965971 Z" fill="rgb(71, 162, 51)" stroke="rgb(71, 162, 51)" stroke-width="0.8" stroke-opacity="0.8"></path><path d="M 390.30864393194787 78.8908360965971 L 384.6695435065437 100.57820297545956 L 432.25150718281395 102.32819179619158 Z" fill="rgb(89, 172, 47)" stroke="rgb(89, 172, 47)" stroke-width="0.8" stroke-opacity="0.8"></path><path d="M 390.30864393194787 78.8908360965971 L 432.25150718281395 102.32819179619158 L 423.12312588727934 62.67796995228614 Z" fill="rgb(71, 162, 51)" stroke="rgb(71, 162, 51)" stroke-width="0.8" stroke-opacity="0.8"></path><path d="M 423.12312588727934 62.67796995228614 L 432.25150718281395 102.32819179619158 L 494.7637757987719 103.43661178193182 Z" fill="rgb(90, 172, 47)" stroke="rgb(90, 172, 47)" stroke-width="0.8" stroke-opacity="0.8"></path><path d="M 494.7637757987719 103.43661178193182 L 432.25150718281395 102.32819179619158 L 436.1706354507177 141.67209600011176 Z" fill="rgb(96, 176, 45)" stroke="rgb(96, 176, 45)" stroke-width="0.8" stroke-opacity="0.8"></path><path d="M 494.7637757987719 103.43661178193182 L 436.1706354507177 141.67209600011176 L 491.74689227154624 181.3782776109503 Z" fill="rgb(96, 175, 46)" stroke="rgb(96, 175, 46)" stroke-width="0.8" stroke-opacity="0.8"></path><path d="M 494.7637757987719 103.43661178193182 L 491.74689227154624 181.3782776109503 L 515.7434286599783 106.0927407009376 Z" fill="rgb(82, 168, 49)" stroke="rgb(82, 168, 49)" stroke-width="0.8" stroke-opacity="0.8"></path><path d="M 566.0149805544862 94.835127398835 L 515.7434286599783 106.0927407009376 L 554.06294519203 140.06170533512187 Z" fill="rgb(111, 183, 41)" stroke="rgb(111, 183, 41)" stroke-width="0.8" stroke-opacity="0.8"></path><path d="M 566.0149805544862 94.835127398835 L 554.06294519203 140.06170533512187 L 582.5767752253091 110.61503170518444 Z" fill="rgb(96, 175, 45)" stroke="rgb(96, 175, 45)" stroke-width="0.8" stroke-opacity="0.8"></path><path d="M 566.0149805544862 94.835127398835 L 582.5767752253091 110.61503170518444 L 627.0067464891164 85.24485165582288 Z" fill="rgb(115, 185, 40)" stroke="rgb(115, 185, 40)" stroke-width="0.8" stroke-opacity="0.8"></path><path d="M 627.0067464891164 85.24485165582288 L 582.5767752253091 110.61503170518444 L 636.7797058708849 139.63569558765698 Z" fill="rgb(125, 190, 37)" stroke="rgb(125, 190, 37)" stroke-width="0.8" stroke-opacity="0.8"></path><path d="M 627.0067464891164 85.24485165582288 L 636.7797058708849 139.63569558765698 L 663.2393290421427 99.38530172543834 Z" fill="rgb(117, 187, 39)" stroke="rgb(117, 187, 39)" stroke-width="0.8" stroke-opacity="0.8"></path><path d="M 683.6375606212621 56.58150144007618 L 663.2393290421427 99.38530172543834 L 735.4875411577792 66.4445015690778 Z" fill="rgb(107, 182, 42)" stroke="rgb(107, 182, 42)" stroke-width="0.8" stroke-opacity="0.8"></path><path d="M 735.4875411577792 66.4445015690778 L 663.2393290421427 99.38530172543834 L 752.86176524045 138.32421874522188 Z" fill="rgb(113, 184, 41)" stroke="rgb(113, 184, 41)" stroke-width="0.8" stroke-opacity="0.8"></path><path d="M 735.4875411577792 66.4445015690778 L 752.86176524045 138.32421874522188 L 769.6040645249135 133.7420470859071 Z" fill="rgb(141, 197, 33)" stroke="rgb(141, 197, 33)" stroke-width="0.8" stroke-opacity="0.8"></path><path d="M 830.1127987503303 61.04288608007112 L 822.5951603163115 127.66406435588232 L 867.1300062062137 93.74845945893375 Z" fill="rgb(147, 200, 32)" stroke="rgb(147, 200, 32)" stroke-width="0.8" stroke-opacity="0.8"></path><path d="M 867.1300062062137 93.74845945893375 L 822.5951603163115 127.66406435588232 L 866.591087980623 159.03312515053196 Z" fill="rgb(136, 195, 35)" stroke="rgb(136, 195, 35)" stroke-width="0.8" stroke-opacity="0.8"></path><path d="M 867.1300062062137 93.74845945893375 L 866.591087980623 159.03312515053196 L 899.1918001766862 141.57623721712508 Z" fill="rgb(141, 197, 34)" stroke="rgb(141, 197, 34)" stroke-width="0.8" stroke-opacity="0.8"></path><path d="M 867.1300062062137 93.74845945893375 L 899.1918001766862 141.57623721712508 L 926.8159311866573 102.0948092332543 Z" fill="rgb(139, 196, 34)" stroke="rgb(139, 196, 34)" stroke-width="0.8" stroke-opacity="0.8"></path><path d="M 926.8159311866573 102.0948092332543 L 899.1918001766862 141.57623721712508 L 953.6927573475822 120.33351870953159 Z" fill="rgb(152, 202, 31)" stroke="rgb(152, 202, 31)" stroke-width="0.8" stroke-opacity="0.8"></path><path d="M 926.8159311866573 102.0948092332543 L 953.6927573475822 120.33351870953159 L 995.4905402322033 100.595115868041 Z" fill="rgb(155, 203, 30)" stroke="rgb(155, 203, 30)" stroke-width="0.8" stroke-opacity="0.8"></path><path d="M 995.4905402322033 100.595115868041 L 953.6927573475822 120.33351870953159 L 1018.6759215363161 150.47743057110085 Z" fill="rgb(167, 208, 28)" stroke="rgb(167, 208, 28)" stroke-width="0.8" stroke-opacity="0.8"></path><path d="M 995.4905402322033 100.595115868041 L 1018.6759215363161 150.47743057110085 L 1020.6228268200093 113.83442452255868 Z" fill="rgb(161, 206, 29)" stroke="rgb(161, 206, 29)" stroke-width="0.8" stroke-opacity="0.8"></path><path d="M 995.4905402322033 100.595115868041 L 1020.6228268200093 113.83442452255868 L 1043.94935984226 93.26017211695034 Z" fill="rgb(161, 206, 29)" stroke="rgb(161, 206, 29)" stroke-width="0.8" stroke-opacity="0.8"></path><path d="M 1043.94935984226 93.26017211695034 L 1020.6228268200093 113.83442452255868 L 1084.4099295048434 124.29093323244922 Z" fill="rgb(152, 202, 31)" stroke="rgb(152, 202, 31)" stroke-width="0.8" stroke-opacity="0.8"></path><path d="M -126.93874951415069 97.23030147509249 L -127.06560212012407 183.54762370719652 L -56.03235222055423 144.3455688927669 Z" fill="rgb(92, 156, 45)" stroke="rgb(92, 156, 45)" stroke-width="0.8" stroke-opacity="0.8"></path><path d="M -56.03235222055423 144.3455688927669 L -127.06560212012407 183.54762370719652 L -59.427462969057714 180.8765737106904 Z" fill="rgb(105, 156, 43)" stroke="rgb(105, 156, 43)" stroke-width="0.8" stroke-opacity="0.8"></path><path d="M -56.03235222055423 144.3455688927669 L -59.427462969057714 180.8765737106904 L 13.717615476742878 156.76940350542458 Z" fill="rgb(84, 156, 47)" stroke="rgb(84, 156, 47)" stroke-width="0.8" stroke-opacity="0.8"></path><path d="M -56.03235222055423 144.3455688927669 L 13.717615476742878 156.76940350542458 L -12.654916491231612 125.90683743509547 Z" fill="rgb(104, 156, 43)" stroke="rgb(104, 156, 43)" stroke-width="0.8" stroke-opacity="0.8"></path><path d="M -12.654916491231612 125.90683743509547 L 13.717615476742878 156.76940350542458 L 68.50865032251919 127.12880676305245 Z" fill="rgb(91, 156, 46)" stroke="rgb(91, 156, 46)" stroke-width="0.8" stroke-opacity="0.8"></path><path d="M 68.50865032251919 127.12880676305245 L 13.717615476742878 156.76940350542458 L 83.86551250094595 173.7061436031744 Z" fill="rgb(78, 155, 48)" stroke="rgb(78, 155, 48)" stroke-width="0.8" stroke-opacity="0.8"></path><path d="M 68.50865032251919 127.12880676305245 L 83.86551250094595 173.7061436031744 L 103.64500189977478 167.54576664409637 Z" fill="rgb(70, 155, 50)" stroke="rgb(70, 155, 50)" stroke-width="0.8" stroke-opacity="0.8"></path><path d="M 68.50865032251919 127.12880676305245 L 103.64500189977478 167.54576664409637 L 145.2083804256002 128.230910969969 Z" fill="rgb(84, 156, 47)" stroke="rgb(84, 156, 47)" stroke-width="0.8" stroke-opacity="0.8"></path><path d="M 145.2083804256002 128.230910969969 L 103.64500189977478 167.54576664409637 L 126.78656838404248 179.40404164141776 Z" fill="rgb(84, 156, 47)" stroke="rgb(84, 156, 47)" stroke-width="0.8" stroke-opacity="0.8"></path><path d="M 145.2083804256002 128.230910969969 L 126.78656838404248 179.40404164141776 L 163.10214392821922 180.22227954282042 Z" fill="rgb(78, 155, 48)" stroke="rgb(78, 155, 48)" stroke-width="0.8" stroke-opacity="0.8"></path><path d="M 145.2083804256002 128.230910969969 L 163.10214392821922 180.22227954282042 L 208.77348496975125 143.79133434595002 Z" fill="rgb(79, 156, 48)" stroke="rgb(79, 156, 48)" stroke-width="0.8" stroke-opacity="0.8"></path><path d="M 208.77348496975125 143.79133434595002 L 163.10214392821922 180.22227954282042 L 185.16013902786798 198.00030100389722 Z" fill="rgb(66, 160, 52)" stroke="rgb(66, 160, 52)" stroke-width="0.8" stroke-opacity="0.8"></path><path d="M 208.77348496975125 143.79133434595002 L 185.16013902786798 198.00030100389722 L 237.06918876729344 175.2906366844574 Z" fill="rgb(62, 155, 52)" stroke="rgb(62, 155, 52)" stroke-width="0.8" stroke-opacity="0.8"></path><path d="M 208.77348496975125 143.79133434595002 L 237.06918876729344 175.2906366844574 L 261.4807895141337 135.07508181458957 Z" fill="rgb(72, 155, 50)" stroke="rgb(72, 155, 50)" stroke-width="0.8" stroke-opacity="0.8"></path><path d="M 261.4807895141337 135.07508181458957 L 237.06918876729344 175.2906366844574 L 288.7425551019006 178.1175950248906 Z" fill="rgb(63, 155, 52)" stroke="rgb(63, 155, 52)" stroke-width="0.8" stroke-opacity="0.8"></path><path d="M 261.4807895141337 135.07508181458957 L 288.7425551019006 178.1175950248906 L 304.9951514037358 164.8720401319164 Z" fill="rgb(62, 155, 52)" stroke="rgb(62, 155, 52)" stroke-width="0.8" stroke-opacity="0.8"></path><path d="M 261.4807895141337 135.07508181458957 L 304.9951514037358 164.8720401319164 L 301.11093716828094 111.55570922659936 Z" fill="rgb(58, 155, 53)" stroke="rgb(58, 155, 53)" stroke-width="0.8" stroke-opacity="0.8"></path><path d="M 301.11093716828094 111.55570922659936 L 304.9951514037358 164.8720401319164 L 384.6695435065437 100.57820297545956 Z" fill="rgb(83, 169, 48)" stroke="rgb(83, 169, 48)" stroke-width="0.8" stroke-opacity="0.8"></path><path d="M 384.6695435065437 100.57820297545956 L 304.9951514037358 164.8720401319164 L 395.4309888487793 155.56985978983914 Z" fill="rgb(77, 165, 50)" stroke="rgb(77, 165, 50)" stroke-width="0.8" stroke-opacity="0.8"></path><path d="M 384.6695435065437 100.57820297545956 L 395.4309888487793 155.56985978983914 L 432.25150718281395 102.32819179619158 Z" fill="rgb(84, 169, 48)" stroke="rgb(84, 169, 48)" stroke-width="0.8" stroke-opacity="0.8"></path><path d="M 432.25150718281395 102.32819179619158 L 395.4309888487793 155.56985978983914 L 436.1706354507177 141.67209600011176 Z" fill="rgb(80, 167, 49)" stroke="rgb(80, 167, 49)" stroke-width="0.8" stroke-opacity="0.8"></path><path d="M 515.7434286599783 106.0927407009376 L 491.74689227154624 181.3782776109503 L 554.06294519203 140.06170533512187 Z" fill="rgb(107, 181, 42)" stroke="rgb(107, 181, 42)" stroke-width="0.8" stroke-opacity="0.8"></path><path d="M 582.5767752253091 110.61503170518444 L 554.06294519203 140.06170533512187 L 572.9356797497019 177.20169001708496 Z" fill="rgb(124, 190, 37)" stroke="rgb(124, 190, 37)" stroke-width="0.8" stroke-opacity="0.8"></path><path d="M 582.5767752253091 110.61503170518444 L 572.9356797497019 177.20169001708496 L 632.8440221268614 162.16547111090745 Z" fill="rgb(112, 184, 41)" stroke="rgb(112, 184, 41)" stroke-width="0.8" stroke-opacity="0.8"></path><path d="M 582.5767752253091 110.61503170518444 L 632.8440221268614 162.16547111090745 L 636.7797058708849 139.63569558765698 Z" fill="rgb(129, 192, 36)" stroke="rgb(129, 192, 36)" stroke-width="0.8" stroke-opacity="0.8"></path><path d="M 636.7797058708849 139.63569558765698 L 632.8440221268614 162.16547111090745 L 665.1818484701915 180.4426662509216 Z" fill="rgb(118, 187, 39)" stroke="rgb(118, 187, 39)" stroke-width="0.8" stroke-opacity="0.8"></path><path d="M 636.7797058708849 139.63569558765698 L 665.1818484701915 180.4426662509216 L 663.2393290421427 99.38530172543834 Z" fill="rgb(115, 186, 40)" stroke="rgb(115, 186, 40)" stroke-width="0.8" stroke-opacity="0.8"></path><path d="M 663.2393290421427 99.38530172543834 L 665.1818484701915 180.4426662509216 L 752.86176524045 138.32421874522188 Z" fill="rgb(115, 186, 40)" stroke="rgb(115, 186, 40)" stroke-width="0.8" stroke-opacity="0.8"></path><path d="M 769.6040645249135 133.7420470859071 L 752.86176524045 138.32421874522188 L 796.8779392868782 162.6186168216196 Z" fill="rgb(132, 193, 35)" stroke="rgb(132, 193, 35)" stroke-width="0.8" stroke-opacity="0.8"></path><path d="M 769.6040645249135 133.7420470859071 L 796.8779392868782 162.6186168216196 L 822.5951603163115 127.66406435588232 Z" fill="rgb(149, 201, 32)" stroke="rgb(149, 201, 32)" stroke-width="0.8" stroke-opacity="0.8"></path><path d="M 822.5951603163115 127.66406435588232 L 796.8779392868782 162.6186168216196 L 866.591087980623 159.03312515053196 Z" fill="rgb(145, 199, 33)" stroke="rgb(145, 199, 33)" stroke-width="0.8" stroke-opacity="0.8"></path><path d="M 899.1918001766862 141.57623721712508 L 866.591087980623 159.03312515053196 L 887.5583754669325 191.87964992854447 Z" fill="rgb(143, 198, 33)" stroke="rgb(143, 198, 33)" stroke-width="0.8" stroke-opacity="0.8"></path><path d="M 899.1918001766862 141.57623721712508 L 887.5583754669325 191.87964992854447 L 947.6136624389547 177.60127928252484 Z" fill="rgb(166, 208, 28)" stroke="rgb(166, 208, 28)" stroke-width="0.8" stroke-opacity="0.8"></path><path d="M 899.1918001766862 141.57623721712508 L 947.6136624389547 177.60127928252484 L 953.6927573475822 120.33351870953159 Z" fill="rgb(149, 200, 32)" stroke="rgb(149, 200, 32)" stroke-width="0.8" stroke-opacity="0.8"></path><path d="M 953.6927573475822 120.33351870953159 L 947.6136624389547 177.60127928252484 L 1018.6759215363161 150.47743057110085 Z" fill="rgb(167, 208, 28)" stroke="rgb(167, 208, 28)" stroke-width="0.8" stroke-opacity="0.8"></path><path d="M 1020.6228268200093 113.83442452255868 L 1018.6759215363161 150.47743057110085 L 1084.4099295048434 124.29093323244922 Z" fill="rgb(172, 210, 27)" stroke="rgb(172, 210, 27)" stroke-width="0.8" stroke-opacity="0.8"></path><path d="M 1084.4099295048434 124.29093323244922 L 1018.6759215363161 150.47743057110085 L 1062.3406984827634 184.35335069671527 Z" fill="rgb(158, 204, 30)" stroke="rgb(158, 204, 30)" stroke-width="0.8" stroke-opacity="0.8"></path><path d="M 1084.4099295048434 124.29093323244922 L 1062.3406984827634 184.35335069671527 L 1085.5788781081797 203.26078511918672 Z" fill="rgb(172, 210, 27)" stroke="rgb(172, 210, 27)" stroke-width="0.8" stroke-opacity="0.8"></path><path d="M -127.06560212012407 183.54762370719652 L -122.91696013265995 205.85667220734695 L -59.427462969057714 180.8765737106904 Z" fill="rgb(95, 156, 45)" stroke="rgb(95, 156, 45)" stroke-width="0.8" stroke-opacity="0.8"></path><path d="M -59.427462969057714 180.8765737106904 L -122.91696013265995 205.85667220734695 L -103.61922726085527 235.57578970209528 Z" fill="rgb(89, 156, 46)" stroke="rgb(89, 156, 46)" stroke-width="0.8" stroke-opacity="0.8"></path><path d="M -59.427462969057714 180.8765737106904 L -103.61922726085527 235.57578970209528 L -84.20964406535462 241.88108498042524 Z" fill="rgb(80, 156, 48)" stroke="rgb(80, 156, 48)" stroke-width="0.8" stroke-opacity="0.8"></path><path d="M -59.427462969057714 180.8765737106904 L -84.20964406535462 241.88108498042524 L -42.56290649121734 221.84666345736986 Z" fill="rgb(77, 155, 49)" stroke="rgb(77, 155, 49)" stroke-width="0.8" stroke-opacity="0.8"></path><path d="M -59.427462969057714 180.8765737106904 L -42.56290649121734 221.84666345736986 L 15.734915385722651 198.64483206271615 Z" fill="rgb(97, 156, 45)" stroke="rgb(97, 156, 45)" stroke-width="0.8" stroke-opacity="0.8"></path><path d="M -59.427462969057714 180.8765737106904 L 15.734915385722651 198.64483206271615 L 13.717615476742878 156.76940350542458 Z" fill="rgb(104, 156, 43)" stroke="rgb(104, 156, 43)" stroke-width="0.8" stroke-opacity="0.8"></path><path d="M 13.717615476742878 156.76940350542458 L 15.734915385722651 198.64483206271615 L 83.86551250094595 173.7061436031744 Z" fill="rgb(75, 155, 49)" stroke="rgb(75, 155, 49)" stroke-width="0.8" stroke-opacity="0.8"></path><path d="M 83.86551250094595 173.7061436031744 L 15.734915385722651 198.64483206271615 L 84.60130559591367 216.1587433468414 Z" fill="rgb(95, 156, 45)" stroke="rgb(95, 156, 45)" stroke-width="0.8" stroke-opacity="0.8"></path><path d="M 83.86551250094595 173.7061436031744 L 84.60130559591367 216.1587433468414 L 103.64500189977478 167.54576664409637 Z" fill="rgb(90, 156, 46)" stroke="rgb(90, 156, 46)" stroke-width="0.8" stroke-opacity="0.8"></path><path d="M 103.64500189977478 167.54576664409637 L 84.60130559591367 216.1587433468414 L 126.78656838404248 179.40404164141776 Z" fill="rgb(61, 155, 52)" stroke="rgb(61, 155, 52)" stroke-width="0.8" stroke-opacity="0.8"></path><path d="M 163.10214392821922 180.22227954282042 L 126.78656838404248 179.40404164141776 L 120.55742669051749 250.6522647920001 Z" fill="rgb(58, 155, 53)" stroke="rgb(58, 155, 53)" stroke-width="0.8" stroke-opacity="0.8"></path><path d="M 163.10214392821922 180.22227954282042 L 120.55742669051749 250.6522647920001 L 185.16013902786798 198.00030100389722 Z" fill="rgb(77, 155, 49)" stroke="rgb(77, 155, 49)" stroke-width="0.8" stroke-opacity="0.8"></path><path d="M 237.06918876729344 175.2906366844574 L 185.16013902786798 198.00030100389722 L 234.2247104551178 206.67988603979984 Z" fill="rgb(72, 163, 51)" stroke="rgb(72, 163, 51)" stroke-width="0.8" stroke-opacity="0.8"></path><path d="M 237.06918876729344 175.2906366844574 L 234.2247104551178 206.67988603979984 L 288.7425551019006 178.1175950248906 Z" fill="rgb(72, 163, 51)" stroke="rgb(72, 163, 51)" stroke-width="0.8" stroke-opacity="0.8"></path><path d="M 304.9951514037358 164.8720401319164 L 288.7425551019006 178.1175950248906 L 310.68795485988846 234.119361904538 Z" fill="rgb(62, 157, 52)" stroke="rgb(62, 157, 52)" stroke-width="0.8" stroke-opacity="0.8"></path><path d="M 304.9951514037358 164.8720401319164 L 310.68795485988846 234.119361904538 L 382.99915332215176 191.25112154558926 Z" fill="rgb(90, 173, 47)" stroke="rgb(90, 173, 47)" stroke-width="0.8" stroke-opacity="0.8"></path><path d="M 304.9951514037358 164.8720401319164 L 382.99915332215176 191.25112154558926 L 395.4309888487793 155.56985978983914 Z" fill="rgb(64, 159, 52)" stroke="rgb(64, 159, 52)" stroke-width="0.8" stroke-opacity="0.8"></path><path d="M 395.4309888487793 155.56985978983914 L 382.99915332215176 191.25112154558926 L 441.36165364355224 220.11906604523546 Z" fill="rgb(103, 179, 44)" stroke="rgb(103, 179, 44)" stroke-width="0.8" stroke-opacity="0.8"></path><path d="M 395.4309888487793 155.56985978983914 L 441.36165364355224 220.11906604523546 L 436.1706354507177 141.67209600011176 Z" fill="rgb(84, 169, 48)" stroke="rgb(84, 169, 48)" stroke-width="0.8" stroke-opacity="0.8"></path><path d="M 436.1706354507177 141.67209600011176 L 441.36165364355224 220.11906604523546 L 491.74689227154624 181.3782776109503 Z" fill="rgb(91, 173, 47)" stroke="rgb(91, 173, 47)" stroke-width="0.8" stroke-opacity="0.8"></path><path d="M 491.74689227154624 181.3782776109503 L 441.36165364355224 220.11906604523546 L 481.31245000205604 241.67033103198384 Z" fill="rgb(106, 181, 43)" stroke="rgb(106, 181, 43)" stroke-width="0.8" stroke-opacity="0.8"></path><path d="M 491.74689227154624 181.3782776109503 L 481.31245000205604 241.67033103198384 L 501.48352176104186 190.3033965021711 Z" fill="rgb(109, 182, 42)" stroke="rgb(109, 182, 42)" stroke-width="0.8" stroke-opacity="0.8"></path><path d="M 491.74689227154624 181.3782776109503 L 501.48352176104186 190.3033965021711 L 554.06294519203 140.06170533512187 Z" fill="rgb(113, 185, 41)" stroke="rgb(113, 185, 41)" stroke-width="0.8" stroke-opacity="0.8"></path><path d="M 554.06294519203 140.06170533512187 L 501.48352176104186 190.3033965021711 L 572.9356797497019 177.20169001708496 Z" fill="rgb(98, 176, 45)" stroke="rgb(98, 176, 45)" stroke-width="0.8" stroke-opacity="0.8"></path><path d="M 632.8440221268614 162.16547111090745 L 572.9356797497019 177.20169001708496 L 617.1351586381072 208.6680734706464 Z" fill="rgb(116, 186, 40)" stroke="rgb(116, 186, 40)" stroke-width="0.8" stroke-opacity="0.8"></path><path d="M 632.8440221268614 162.16547111090745 L 617.1351586381072 208.6680734706464 L 665.1818484701915 180.4426662509216 Z" fill="rgb(130, 193, 36)" stroke="rgb(130, 193, 36)" stroke-width="0.8" stroke-opacity="0.8"></path><path d="M 665.1818484701915 180.4426662509216 L 617.1351586381072 208.6680734706464 L 629.0927144990552 229.59124166749865 Z" fill="rgb(124, 190, 37)" stroke="rgb(124, 190, 37)" stroke-width="0.8" stroke-opacity="0.8"></path><path d="M 665.1818484701915 180.4426662509216 L 629.0927144990552 229.59124166749865 L 702.3854482343066 204.08472632587362 Z" fill="rgb(124, 190, 37)" stroke="rgb(124, 190, 37)" stroke-width="0.8" stroke-opacity="0.8"></path><path d="M 665.1818484701915 180.4426662509216 L 702.3854482343066 204.08472632587362 L 752.86176524045 138.32421874522188 Z" fill="rgb(130, 192, 36)" stroke="rgb(130, 192, 36)" stroke-width="0.8" stroke-opacity="0.8"></path><path d="M 752.86176524045 138.32421874522188 L 702.3854482343066 204.08472632587362 L 739.1713704421038 210.19385327074878 Z" fill="rgb(146, 199, 32)" stroke="rgb(146, 199, 32)" stroke-width="0.8" stroke-opacity="0.8"></path><path d="M 752.86176524045 138.32421874522188 L 739.1713704421038 210.19385327074878 L 796.8779392868782 162.6186168216196 Z" fill="rgb(128, 192, 36)" stroke="rgb(128, 192, 36)" stroke-width="0.8" stroke-opacity="0.8"></path><path d="M 796.8779392868782 162.6186168216196 L 739.1713704421038 210.19385327074878 L 745.9105706849518 216.01973772220398 Z" fill="rgb(148, 200, 32)" stroke="rgb(148, 200, 32)" stroke-width="0.8" stroke-opacity="0.8"></path><path d="M 796.8779392868782 162.6186168216196 L 745.9105706849518 216.01973772220398 L 813.999078448544 209.55576239110692 Z" fill="rgb(139, 197, 34)" stroke="rgb(139, 197, 34)" stroke-width="0.8" stroke-opacity="0.8"></path><path d="M 796.8779392868782 162.6186168216196 L 813.999078448544 209.55576239110692 L 866.591087980623 159.03312515053196 Z" fill="rgb(142, 198, 33)" stroke="rgb(142, 198, 33)" stroke-width="0.8" stroke-opacity="0.8"></path><path d="M 866.591087980623 159.03312515053196 L 813.999078448544 209.55576239110692 L 887.5583754669325 191.87964992854447 Z" fill="rgb(145, 199, 33)" stroke="rgb(145, 199, 33)" stroke-width="0.8" stroke-opacity="0.8"></path><path d="M 947.6136624389547 177.60127928252484 L 887.5583754669325 191.87964992854447 L 953.6995297723792 212.5126543304291 Z" fill="rgb(156, 204, 30)" stroke="rgb(156, 204, 30)" stroke-width="0.8" stroke-opacity="0.8"></path><path d="M 947.6136624389547 177.60127928252484 L 953.6995297723792 212.5126543304291 L 1016.6717017422473 198.5589110860062 Z" fill="rgb(170, 209, 27)" stroke="rgb(170, 209, 27)" stroke-width="0.8" stroke-opacity="0.8"></path><path d="M 947.6136624389547 177.60127928252484 L 1016.6717017422473 198.5589110860062 L 1018.6759215363161 150.47743057110085 Z" fill="rgb(157, 204, 30)" stroke="rgb(157, 204, 30)" stroke-width="0.8" stroke-opacity="0.8"></path><path d="M 1018.6759215363161 150.47743057110085 L 1016.6717017422473 198.5589110860062 L 1062.3406984827634 184.35335069671527 Z" fill="rgb(172, 210, 27)" stroke="rgb(172, 210, 27)" stroke-width="0.8" stroke-opacity="0.8"></path><path d="M 1062.3406984827634 184.35335069671527 L 1016.6717017422473 198.5589110860062 L 1054.5995196484394 254.69367108984477 Z" fill="rgb(165, 207, 28)" stroke="rgb(165, 207, 28)" stroke-width="0.8" stroke-opacity="0.8"></path><path d="M 1062.3406984827634 184.35335069671527 L 1054.5995196484394 254.69367108984477 L 1085.5788781081797 203.26078511918672 Z" fill="rgb(169, 209, 28)" stroke="rgb(169, 209, 28)" stroke-width="0.8" stroke-opacity="0.8"></path><path d="M -42.56290649121734 221.84666345736986 L -84.20964406535462 241.88108498042524 L -10.808838953969829 246.27874295463886 Z" fill="rgb(86, 156, 47)" stroke="rgb(86, 156, 47)" stroke-width="0.8" stroke-opacity="0.8"></path><path d="M -42.56290649121734 221.84666345736986 L -10.808838953969829 246.27874295463886 L 15.734915385722651 198.64483206271615 Z" fill="rgb(88, 156, 46)" stroke="rgb(88, 156, 46)" stroke-width="0.8" stroke-opacity="0.8"></path><path d="M 15.734915385722651 198.64483206271615 L -10.808838953969829 246.27874295463886 L 73.25401526479054 232.0198634203029 Z" fill="rgb(96, 156, 45)" stroke="rgb(96, 156, 45)" stroke-width="0.8" stroke-opacity="0.8"></path><path d="M 15.734915385722651 198.64483206271615 L 73.25401526479054 232.0198634203029 L 84.60130559591367 216.1587433468414 Z" fill="rgb(83, 156, 47)" stroke="rgb(83, 156, 47)" stroke-width="0.8" stroke-opacity="0.8"></path><path d="M 84.60130559591367 216.1587433468414 L 73.25401526479054 232.0198634203029 L 120.55742669051749 250.6522647920001 Z" fill="rgb(64, 155, 52)" stroke="rgb(64, 155, 52)" stroke-width="0.8" stroke-opacity="0.8"></path><path d="M 84.60130559591367 216.1587433468414 L 120.55742669051749 250.6522647920001 L 126.78656838404248 179.40404164141776 Z" fill="rgb(60, 155, 52)" stroke="rgb(60, 155, 52)" stroke-width="0.8" stroke-opacity="0.8"></path><path d="M 185.16013902786798 198.00030100389722 L 120.55742669051749 250.6522647920001 L 197.00186900023604 262.1769414981185 Z" fill="rgb(62, 157, 52)" stroke="rgb(62, 157, 52)" stroke-width="0.8" stroke-opacity="0.8"></path><path d="M 185.16013902786798 198.00030100389722 L 197.00186900023604 262.1769414981185 L 227.42847225281724 218.21241114297365 Z" fill="rgb(71, 162, 51)" stroke="rgb(71, 162, 51)" stroke-width="0.8" stroke-opacity="0.8"></path><path d="M 185.16013902786798 198.00030100389722 L 227.42847225281724 218.21241114297365 L 234.2247104551178 206.67988603979984 Z" fill="rgb(58, 155, 53)" stroke="rgb(58, 155, 53)" stroke-width="0.8" stroke-opacity="0.8"></path><path d="M 234.2247104551178 206.67988603979984 L 227.42847225281724 218.21241114297365 L 310.68795485988846 234.119361904538 Z" fill="rgb(64, 159, 52)" stroke="rgb(64, 159, 52)" stroke-width="0.8" stroke-opacity="0.8"></path><path d="M 234.2247104551178 206.67988603979984 L 310.68795485988846 234.119361904538 L 288.7425551019006 178.1175950248906 Z" fill="rgb(62, 158, 52)" stroke="rgb(62, 158, 52)" stroke-width="0.8" stroke-opacity="0.8"></path><path d="M 382.99915332215176 191.25112154558926 L 310.68795485988846 234.119361904538 L 355.9904274089302 262.93210876913275 Z" fill="rgb(77, 165, 50)" stroke="rgb(77, 165, 50)" stroke-width="0.8" stroke-opacity="0.8"></path><path d="M 382.99915332215176 191.25112154558926 L 355.9904274089302 262.93210876913275 L 426.5572632907395 226.05347792616013 Z" fill="rgb(98, 177, 45)" stroke="rgb(98, 177, 45)" stroke-width="0.8" stroke-opacity="0.8"></path><path d="M 382.99915332215176 191.25112154558926 L 426.5572632907395 226.05347792616013 L 441.36165364355224 220.11906604523546 Z" fill="rgb(94, 175, 46)" stroke="rgb(94, 175, 46)" stroke-width="0.8" stroke-opacity="0.8"></path><path d="M 441.36165364355224 220.11906604523546 L 426.5572632907395 226.05347792616013 L 481.31245000205604 241.67033103198384 Z" fill="rgb(107, 181, 43)" stroke="rgb(107, 181, 43)" stroke-width="0.8" stroke-opacity="0.8"></path><path d="M 501.48352176104186 190.3033965021711 L 481.31245000205604 241.67033103198384 L 584.0001239271563 255.6433281770269 Z" fill="rgb(104, 180, 43)" stroke="rgb(104, 180, 43)" stroke-width="0.8" stroke-opacity="0.8"></path><path d="M 501.48352176104186 190.3033965021711 L 584.0001239271563 255.6433281770269 L 572.9356797497019 177.20169001708496 Z" fill="rgb(124, 190, 37)" stroke="rgb(124, 190, 37)" stroke-width="0.8" stroke-opacity="0.8"></path><path d="M 572.9356797497019 177.20169001708496 L 584.0001239271563 255.6433281770269 L 617.1351586381072 208.6680734706464 Z" fill="rgb(132, 193, 35)" stroke="rgb(132, 193, 35)" stroke-width="0.8" stroke-opacity="0.8"></path><path d="M 617.1351586381072 208.6680734706464 L 584.0001239271563 255.6433281770269 L 629.0927144990552 229.59124166749865 Z" fill="rgb(116, 186, 40)" stroke="rgb(116, 186, 40)" stroke-width="0.8" stroke-opacity="0.8"></path><path d="M 702.3854482343066 204.08472632587362 L 629.0927144990552 229.59124166749865 L 706.1138426801809 250.98437471135247 Z" fill="rgb(132, 194, 35)" stroke="rgb(132, 194, 35)" stroke-width="0.8" stroke-opacity="0.8"></path><path d="M 702.3854482343066 204.08472632587362 L 706.1138426801809 250.98437471135247 L 739.1713704421038 210.19385327074878 Z" fill="rgb(144, 198, 33)" stroke="rgb(144, 198, 33)" stroke-width="0.8" stroke-opacity="0.8"></path><path d="M 739.1713704421038 210.19385327074878 L 706.1138426801809 250.98437471135247 L 745.9105706849518 216.01973772220398 Z" fill="rgb(139, 196, 34)" stroke="rgb(139, 196, 34)" stroke-width="0.8" stroke-opacity="0.8"></path><path d="M 813.999078448544 209.55576239110692 L 745.9105706849518 216.01973772220398 L 798.4277633650064 236.1988990090508 Z" fill="rgb(153, 202, 31)" stroke="rgb(153, 202, 31)" stroke-width="0.8" stroke-opacity="0.8"></path><path d="M 813.999078448544 209.55576239110692 L 798.4277633650064 236.1988990090508 L 889.075946620176 253.93192825922452 Z" fill="rgb(142, 198, 33)" stroke="rgb(142, 198, 33)" stroke-width="0.8" stroke-opacity="0.8"></path><path d="M 813.999078448544 209.55576239110692 L 889.075946620176 253.93192825922452 L 887.5583754669325 191.87964992854447 Z" fill="rgb(165, 207, 29)" stroke="rgb(165, 207, 29)" stroke-width="0.8" stroke-opacity="0.8"></path><path d="M 887.5583754669325 191.87964992854447 L 889.075946620176 253.93192825922452 L 954.0817353457518 220.44319929227623 Z" fill="rgb(165, 207, 28)" stroke="rgb(165, 207, 28)" stroke-width="0.8" stroke-opacity="0.8"></path><path d="M 887.5583754669325 191.87964992854447 L 954.0817353457518 220.44319929227623 L 953.6995297723792 212.5126543304291 Z" fill="rgb(172, 210, 27)" stroke="rgb(172, 210, 27)" stroke-width="0.8" stroke-opacity="0.8"></path><path d="M 953.6995297723792 212.5126543304291 L 954.0817353457518 220.44319929227623 L 1009.7431174290741 233.04165116763713 Z" fill="rgb(166, 208, 28)" stroke="rgb(166, 208, 28)" stroke-width="0.8" stroke-opacity="0.8"></path><path d="M 953.6995297723792 212.5126543304291 L 1009.7431174290741 233.04165116763713 L 1016.6717017422473 198.5589110860062 Z" fill="rgb(162, 206, 29)" stroke="rgb(162, 206, 29)" stroke-width="0.8" stroke-opacity="0.8"></path><path d="M 1016.6717017422473 198.5589110860062 L 1009.7431174290741 233.04165116763713 L 1054.5995196484394 254.69367108984477 Z" fill="rgb(172, 210, 27)" stroke="rgb(172, 210, 27)" stroke-width="0.8" stroke-opacity="0.8"></path><path d="M -10.808838953969829 246.27874295463886 L 120.55742669051749 250.6522647920001 L 73.25401526479054 232.0198634203029 Z" fill="rgb(75, 155, 49)" stroke="rgb(75, 155, 49)" stroke-width="0.8" stroke-opacity="0.8"></path><path d="M 197.00186900023604 262.1769414981185 L 355.9904274089302 262.93210876913275 L 310.68795485988846 234.119361904538 Z" fill="rgb(67, 160, 51)" stroke="rgb(67, 160, 51)" stroke-width="0.8" stroke-opacity="0.8"></path><path d="M 197.00186900023604 262.1769414981185 L 310.68795485988846 234.119361904538 L 227.42847225281724 218.21241114297365 Z" fill="rgb(59, 155, 53)" stroke="rgb(59, 155, 53)" stroke-width="0.8" stroke-opacity="0.8"></path><path d="M 355.9904274089302 262.93210876913275 L 584.0001239271563 255.6433281770269 L 481.31245000205604 241.67033103198384 Z" fill="rgb(92, 174, 46)" stroke="rgb(92, 174, 46)" stroke-width="0.8" stroke-opacity="0.8"></path><path d="M 355.9904274089302 262.93210876913275 L 481.31245000205604 241.67033103198384 L 426.5572632907395 226.05347792616013 Z" fill="rgb(111, 183, 41)" stroke="rgb(111, 183, 41)" stroke-width="0.8" stroke-opacity="0.8"></path><path d="M 584.0001239271563 255.6433281770269 L 706.1138426801809 250.98437471135247 L 629.0927144990552 229.59124166749865 Z" fill="rgb(127, 191, 36)" stroke="rgb(127, 191, 36)" stroke-width="0.8" stroke-opacity="0.8"></path><path d="M 706.1138426801809 250.98437471135247 L 889.075946620176 253.93192825922452 L 798.4277633650064 236.1988990090508 Z" fill="rgb(148, 200, 32)" stroke="rgb(148, 200, 32)" stroke-width="0.8" stroke-opacity="0.8"></path><path d="M 706.1138426801809 250.98437471135247 L 798.4277633650064 236.1988990090508 L 745.9105706849518 216.01973772220398 Z" fill="rgb(149, 201, 32)" stroke="rgb(149, 201, 32)" stroke-width="0.8" stroke-opacity="0.8"></path><path d="M 889.075946620176 253.93192825922452 L 1054.5995196484394 254.69367108984477 L 1009.7431174290741 233.04165116763713 Z" fill="rgb(172, 210, 27)" stroke="rgb(172, 210, 27)" stroke-width="0.8" stroke-opacity="0.8"></path><path d="M 889.075946620176 253.93192825922452 L 1009.7431174290741 233.04165116763713 L 954.0817353457518 220.44319929227623 Z" fill="rgb(164, 207, 29)" stroke="rgb(164, 207, 29)" stroke-width="0.8" stroke-opacity="0.8"></path></g>
  </pattern>
</defs>
<rect x="0" y="0" width="100%" height="100%" fill="url(#ldp-96378d490daba8)"></rect></svg>