<svg xmlns="http://www.w3.org/2000/svg" width="1440" height="900"><path d="M719,580L605,292L269,541Z" fill="#2d469a" stroke="#86cc7e" stroke-width="1.51"/><path d="M605,292L458,233L269,541Z" fill="#99d485" stroke="#99d485" stroke-width="1.51"/><path d="M426,1007L632,988L719,580Z" fill="#63b368" stroke="#63b368" stroke-width="1.51"/><path d="M77,260L122,628L269,541Z" fill="#a2d78a" stroke="#a2d78a" stroke-width="1.51"/><path d="M458,233L77,260L269,541Z" fill="#a6da8b" stroke="#a6da8b" stroke-width="1.51"/><path d="M426,1007L719,580L269,541Z" fill="#76c374" stroke="#76c374" stroke-width="1.51"/><path d="M122,628L426,1007L269,541Z" fill="#84c879" stroke="#84c879" stroke-width="1.51"/><path d="M632,988L1003,754L719,580Z" fill="#56b265" stroke="#56b265" stroke-width="1.51"/><path d="M1192,405L736,-48L605,292Z" fill="#85cb7c" stroke="#85cb7c" stroke-width="1.51"/><path d="M605,292L736,-48L458,233Z" fill="#9ed788" stroke="#9ed788" stroke-width="1.51"/><path d="M458,233L404,-158L77,260Z" fill="#b8e293" stroke="#b8e293" stroke-width="1.51"/><path d="M1192,405L605,292L719,580Z" fill="#71c275" stroke="#71c275" stroke-width="1.51"/><path d="M736,-48L404,-158L458,233Z" fill="#afde90" stroke="#afde90" stroke-width="1.51"/><path d="M1003,754L1192,405L719,580Z" fill="#57b567" stroke="#57b567" stroke-width="1.51"/><path d="M122,628L-122,932L426,1007Z" fill="#86c277" stroke="#86c277" stroke-width="1.51"/><path d="M-502,585L-122,932L122,628Z" fill="#9fd388" stroke="#9fd388" stroke-width="1.51"/><path d="M426,1007L455,1338L632,988Z" fill="#5fa661" stroke="#5fa661" stroke-width="1.51"/><path d="M632,988L1137,1067L1003,754Z" fill="#41a158" stroke="#41a158" stroke-width="1.51"/><path d="M100,1337L455,1338L426,1007Z" fill="#68a664" stroke="#68a664" stroke-width="1.51"/><path d="M1424,686L1410,352L1192,405Z" fill="#4ea55d" stroke="#4ea55d" stroke-width="1.51"/><path d="M680,1390L1137,1067L632,988Z" fill="#429956" stroke="#429956" stroke-width="1.51"/><path d="M736,-48L578,-390L404,-158Z" fill="#bbe397" stroke="#bbe397" stroke-width="1.51"/><path d="M1192,405L1070,-161L736,-48Z" fill="#87ca7b" stroke="#87ca7b" stroke-width="1.51"/><path d="M-86,-233L-391,282L77,260Z" fill="#d3eda2" stroke="#d3eda2" stroke-width="1.51"/><path d="M944,-334L578,-390L736,-48Z" fill="#b0dd92" stroke="#b0dd92" stroke-width="1.51"/><path d="M455,1338L680,1390L632,988Z" fill="#529c5c" stroke="#529c5c" stroke-width="1.51"/><path d="M77,260L-391,282L122,628Z" fill="#b6e095" stroke="#b6e095" stroke-width="1.51"/><path d="M-86,-233L77,260L404,-158Z" fill="#d1ec9f" stroke="#d1ec9f" stroke-width="1.51"/><path d="M1192,405L1325,-151L1070,-161Z" fill="#80bf74" stroke="#80bf74" stroke-width="1.51"/><path d="M1424,686L1192,405L1003,754Z" fill="#46a65c" stroke="#46a65c" stroke-width="1.51"/><path d="M455,1338L100,1337L680,1390Z" fill="#5e9b5e" stroke="#5e9b5e" stroke-width="1.51"/><path d="M-122,932L100,1337L426,1007Z" fill="#7bb36d" stroke="#7bb36d" stroke-width="1.51"/><path d="M16,-334L-86,-233L404,-158Z" fill="#def2a7" stroke="#def2a7" stroke-width="1.51"/><path d="M1137,1067L1424,686L1003,754Z" fill="#349a51" stroke="#349a51" stroke-width="1.51"/><path d="M1070,-161L944,-334L736,-48Z" fill="#a0d488" stroke="#a0d488" stroke-width="1.51"/><path d="M-122,932L-266,1070L100,1337Z" fill="#87b674" stroke="#87b674" stroke-width="1.51"/><path d="M-502,585L-266,1070L-122,932Z" fill="#9ac986" stroke="#9ac986" stroke-width="1.51"/><path d="M444,-498L16,-334L404,-158Z" fill="#d7efa5" stroke="#d7efa5" stroke-width="1.51"/><path d="M578,-390L444,-498L404,-158Z" fill="#cbeaa0" stroke="#cbeaa0" stroke-width="1.51"/><path d="M944,-334L444,-498L578,-390Z" fill="#bfe49d" stroke="#bfe49d" stroke-width="1.51"/><path d="M-391,282L-502,585L122,628Z" fill="#b5df97" stroke="#b5df97" stroke-width="1.51"/><path d="M1410,352L1325,-151L1192,405Z" fill="#6cb269" stroke="#6cb269" stroke-width="1.51"/><path d="M1070,-161L1325,-151L944,-334Z" fill="#95cc80" stroke="#95cc80" stroke-width="1.51"/><path d="M1137,1067L1589,978L1424,686Z" fill="#278946" stroke="#278946" stroke-width="1.51"/><path d="M680,1390L949,1506L1137,1067Z" fill="#318a4d" stroke="#318a4d" stroke-width="1.51"/><path d="M100,1337L949,1506L680,1390Z" fill="#4f9157" stroke="#4f9157" stroke-width="1.51"/><path d="M-391,282L-455,-109L-502,585Z" fill="#cdeaae" stroke="#cdeaae" stroke-width="1.51"/><path d="M-86,-233L-455,-109L-391,282Z" fill="#e3f4af" stroke="#e3f4af" stroke-width="1.51"/><path d="M-366,-327L-455,-109L-86,-233Z" fill="#f0f9b7" stroke="#f0f9b7" stroke-width="1.51"/><path d="M-502,585L-421,1233L-266,1070Z" fill="#96c388" stroke="#96c388" stroke-width="1.51"/><path d="M-266,1070L-421,1233L100,1337Z" fill="#87b275" stroke="#87b275" stroke-width="1.51"/><path d="M1412,1271L1589,978L1137,1067Z" fill="#1d7e40" stroke="#1d7e40" stroke-width="1.51"/><path d="M1950,497L1876,225L1410,352Z" fill="#4d9659" stroke="#4d9659" stroke-width="1.51"/><path d="M1885,-6L1449,-528L1325,-151Z" fill="#83b372" stroke="#83b372" stroke-width="1.51"/><path d="M949,1506L1412,1271L1137,1067Z" fill="#1f8145" stroke="#1f8145" stroke-width="1.51"/><path d="M444,-498L-366,-327L16,-334Z" fill="#eaf7b0" stroke="#eaf7b0" stroke-width="1.51"/><path d="M16,-334L-366,-327L-86,-233Z" fill="#eef8b2" stroke="#eef8b2" stroke-width="1.51"/><path d="M1412,1271L1799,981L1589,978Z" fill="#14753d" stroke="#14753d" stroke-width="1.51"/><path d="M1589,978L1799,981L1424,686Z" fill="#1f8244" stroke="#1f8244" stroke-width="1.51"/><path d="M1325,-151L1449,-528L944,-334Z" fill="#96c680" stroke="#96c680" stroke-width="1.51"/><path d="M944,-334L1449,-528L444,-498Z" fill="#a9d894" stroke="#a9d894" stroke-width="1.51"/><path d="M1885,-6L1325,-151L1410,352Z" fill="#6fab67" stroke="#6fab67" stroke-width="1.51"/><path d="M1950,497L1410,352L1424,686Z" fill="#429756" stroke="#429756" stroke-width="1.51"/><path d="M1799,981L1950,497L1424,686Z" fill="#258749" stroke="#258749" stroke-width="1.51"/><path d="M1950,497L1885,-6L1876,225Z" fill="#569159" stroke="#569159" stroke-width="1.51"/><path d="M1876,225L1885,-6L1410,352Z" fill="#5f9e5f" stroke="#5f9e5f" stroke-width="1.51"/><path d="M1412,1271L1960,1390L1799,981Z" fill="#056937" stroke="#056937" stroke-width="1.51"/><path d="M1799,981L1960,1390L1950,497Z" fill="#156c3a" stroke="#156c3a" stroke-width="1.51"/><path d="M949,1506L1960,1390L1412,1271Z" fill="#0f6b38" stroke="#0f6b38" stroke-width="1.51"/><path d="M1449,-528L1904,-615L444,-498Z" fill="#99c78d" stroke="#99c78d" stroke-width="1.51"/><path d="M1885,-6L1904,-615L1449,-528Z" fill="#85ac74" stroke="#85ac74" stroke-width="1.51"/><path d="M1950,497L1904,-615L1885,-6Z" fill="#6d9a63" stroke="#6d9a63" stroke-width="1.51"/></svg>