<?xml version="1.0" standalone="no"?><!DOCTYPE svg PUBLIC "-//W3C//DTD SVG 1.1//EN" "http://www.w3.org/Graphics/SVG/1.1/DTD/svg11.dtd"><svg width="100%" height="100%" viewBox="0 0 46 44" version="1.1" xmlns="http://www.w3.org/2000/svg" xmlns:xlink="http://www.w3.org/1999/xlink" xml:space="preserve" style="fill-rule:evenodd;clip-rule:evenodd;stroke-linejoin:round;stroke-miterlimit:1.41421;"><path id="heart" d="M29.358,10.475c-2.766,0 -5.168,1.402 -6.359,3.447c-1.189,-2.045 -3.596,-3.447 -6.359,-3.447c-4.176,0 -6.359,3.598 -6.359,7.154c0,8.303 11.807,15.48 12.309,15.783c0.127,0.076 0.27,0.113 0.41,0.113c0.143,0 0.283,-0.037 0.408,-0.113c0.502,-0.303 12.311,-7.48 12.311,-15.783c-0.002,-3.556 -2.187,-7.154 -6.361,-7.154l0,0ZM22.999,31.791c-2.055,-1.324 -11.129,-7.557 -11.129,-14.162c0,-2.68 1.494,-5.564 4.77,-5.564c2.676,0 5.564,1.824 5.564,4.77c0,0.439 0.355,0.795 0.795,0.795c0.44,0 0.795,-0.355 0.795,-0.795c0,-2.945 2.889,-4.77 5.564,-4.77c3.277,0 4.77,2.885 4.77,5.564c-0.001,6.598 -9.077,12.836 -11.129,14.162l0,0Z" style="fill:#eb008b;fill-rule:nonzero;"/></svg>