<?xml version="1.0" standalone="no"?><!DOCTYPE svg PUBLIC "-//W3C//DTD SVG 1.1//EN" "http://www.w3.org/Graphics/SVG/1.1/DTD/svg11.dtd"><svg width="100%" height="100%" viewBox="0 0 289 691" version="1.1" xmlns="http://www.w3.org/2000/svg" xmlns:xlink="http://www.w3.org/1999/xlink" xml:space="preserve" style="fill-rule:evenodd;clip-rule:evenodd;stroke-linecap:round;stroke-linejoin:round;stroke-miterlimit:10;"><g id="Layer 1"><path d="M128.657,58.205c0,29.084 -23.578,52.662 -52.662,52.662c-29.084,0 -52.662,-23.578 -52.662,-52.662c0,-29.084 23.578,-52.662 52.662,-52.662c29.084,0 52.662,23.578 52.662,52.662" style="fill:#fff;fill-rule:nonzero;"/><path d="M133.713,58.205c0,31.876 -25.841,57.718 -57.718,57.718c-31.875,0 -57.718,-25.842 -57.718,-57.718c0,-31.876 25.843,-57.718 57.718,-57.718c31.877,0 57.718,25.842 57.718,57.718Z" style="fill:none;stroke-width:1.48px;stroke-dasharray:2.53,5.06;stroke:#fff;"/><path d="M64.717,50.556c-2.027,0 -3.671,-1.642 -3.671,-3.669c0,-2.027 1.644,-3.671 3.671,-3.671c2.027,0 3.671,1.644 3.671,3.671c0,2.027 -1.644,3.669 -3.671,3.669M64.717,40.662c-3.438,0 -6.224,2.787 -6.224,6.225c0,3.436 2.786,6.223 6.224,6.223c3.438,0 6.225,-2.787 6.225,-6.223c0,-3.438 -2.787,-6.225 -6.225,-6.225" style="fill:#1195ef;fill-rule:nonzero;"/><path d="M77.585,50.556c-2.026,0 -3.669,-1.642 -3.669,-3.669c0,-2.027 1.643,-3.671 3.669,-3.671c2.027,0 3.67,1.644 3.67,3.671c0,2.027 -1.643,3.669 -3.67,3.669M77.585,40.662c-3.438,0 -6.225,2.787 -6.225,6.225c0,3.436 2.787,6.223 6.225,6.223c3.437,0 6.223,-2.787 6.223,-6.223c0,-3.438 -2.786,-6.225 -6.223,-6.225" style="fill:#1195ef;fill-rule:nonzero;"/><path d="M88.834,50.232l-2.021,0l0,-0.017l-1.97,0l1.97,-0.331l0,-6.013l-1.97,-0.332l3.643,0l0,0.003l0.348,0c2.181,0 3.284,1.682 3.284,3.352c0,1.669 -1.103,3.338 -3.284,3.338M88.642,40.744l-3.421,0c-0.547,0 -0.991,0.444 -0.991,0.993l0,10.301c0,0.547 0.444,0.992 0.991,0.992l3.421,0c4.023,0 6.044,-3.059 6.044,-6.134c0,-3.076 -2.021,-6.152 -6.044,-6.152" style="fill:#1195ef;fill-rule:nonzero;"/><path d="M58.071,40.177c0,-0.008 -0.002,-0.017 -0.002,-0.026c-0.002,-0.012 -0.002,-0.024 -0.003,-0.036c0,-0.012 -0.002,-0.022 -0.004,-0.034c-0.001,-0.01 -0.001,-0.018 -0.003,-0.028c-0.002,-0.012 -0.006,-0.025 -0.008,-0.036c0,-0.009 -0.001,-0.017 -0.004,-0.025c-0.001,-0.013 -0.005,-0.024 -0.006,-0.037c-0.002,-0.008 -0.004,-0.017 -0.005,-0.024c-0.004,-0.011 -0.008,-0.025 -0.011,-0.035c-0.002,-0.01 -0.005,-0.017 -0.007,-0.026c-0.004,-0.011 -0.007,-0.022 -0.012,-0.033c-0.001,-0.009 -0.005,-0.018 -0.008,-0.028c-0.003,-0.009 -0.007,-0.019 -0.01,-0.027c-0.005,-0.011 -0.009,-0.021 -0.015,-0.031c-0.001,-0.009 -0.006,-0.016 -0.007,-0.024c-0.006,-0.012 -0.013,-0.024 -0.018,-0.034c-0.002,-0.007 -0.005,-0.014 -0.008,-0.02c-0.008,-0.013 -0.014,-0.025 -0.02,-0.038c-0.002,-0.004 -0.005,-0.01 -0.009,-0.015c-0.007,-0.012 -0.014,-0.026 -0.022,-0.04c-0.002,-0.003 -0.005,-0.007 -0.007,-0.012c-0.008,-0.013 -0.017,-0.026 -0.028,-0.04c-0.002,-0.004 -0.003,-0.008 -0.006,-0.011c-0.008,-0.014 -0.019,-0.026 -0.029,-0.04c-0.002,-0.004 -0.006,-0.007 -0.008,-0.011c-0.01,-0.012 -0.019,-0.025 -0.03,-0.038c-0.003,-0.004 -0.007,-0.008 -0.01,-0.011c-0.011,-0.012 -0.02,-0.024 -0.03,-0.036c-0.004,-0.003 -0.006,-0.005 -0.009,-0.009c-0.011,-0.011 -0.022,-0.024 -0.034,-0.035c-0.012,-0.014 -0.025,-0.026 -0.039,-0.038c-0.002,-0.001 -0.004,-0.003 -0.005,-0.005c-0.013,-0.012 -0.026,-0.022 -0.038,-0.033c-0.004,-0.003 -0.007,-0.006 -0.01,-0.008c-0.014,-0.011 -0.025,-0.021 -0.04,-0.031c-0.003,-0.002 -0.007,-0.004 -0.01,-0.008c-0.013,-0.01 -0.025,-0.018 -0.041,-0.029c-0.003,-0.002 -0.005,-0.005 -0.007,-0.006c-0.016,-0.009 -0.028,-0.018 -0.043,-0.026c-0.003,-0.004 -0.007,-0.005 -0.01,-0.007c-0.015,-0.009 -0.029,-0.017 -0.043,-0.025c-0.003,-0.002 -0.009,-0.005 -0.013,-0.008c-0.013,-0.006 -0.027,-0.013 -0.04,-0.018c-0.005,-0.003 -0.011,-0.007 -0.017,-0.009c-0.012,-0.007 -0.024,-0.012 -0.036,-0.017c-0.006,-0.003 -0.015,-0.007 -0.022,-0.01c-0.011,-0.005 -0.022,-0.008 -0.033,-0.012c-0.01,-0.005 -0.016,-0.008 -0.027,-0.01c-0.008,-0.005 -0.019,-0.008 -0.029,-0.01c-0.011,-0.003 -0.02,-0.008 -0.03,-0.011c-0.009,-0.003 -0.019,-0.005 -0.028,-0.006c-0.011,-0.004 -0.021,-0.007 -0.034,-0.01c-0.009,-0.002 -0.017,-0.004 -0.025,-0.005c-0.012,-0.005 -0.025,-0.007 -0.034,-0.009c-0.011,-0.002 -0.021,-0.004 -0.029,-0.005c-0.012,-0.002 -0.022,-0.004 -0.035,-0.005c-0.01,-0.002 -0.021,-0.003 -0.032,-0.005c-0.009,-0.001 -0.019,-0.002 -0.028,-0.004c-0.016,-0.001 -0.032,-0.002 -0.044,-0.003l-0.018,0c-0.043,-0.004 -0.087,-0.004 -0.129,0c-0.008,0 -0.012,0 -0.019,0c-0.014,0.001 -0.029,0.003 -0.044,0.003c-0.011,0.002 -0.02,0.003 -0.03,0.004c-0.009,0.002 -0.022,0.003 -0.032,0.005c-0.012,0.001 -0.021,0.003 -0.034,0.006c-0.009,0 -0.019,0.002 -0.027,0.004c-0.012,0.002 -0.024,0.004 -0.035,0.009c-0.009,0.001 -0.018,0.003 -0.025,0.005c-0.012,0.003 -0.023,0.006 -0.036,0.01c-0.008,0.001 -0.017,0.003 -0.025,0.006c-0.01,0.003 -0.023,0.008 -0.033,0.011c-0.009,0.003 -0.018,0.005 -0.027,0.009c-0.01,0.004 -0.019,0.008 -0.029,0.011c-0.01,0.004 -0.021,0.007 -0.031,0.012c-0.007,0.003 -0.017,0.007 -0.025,0.01c-0.01,0.005 -0.022,0.01 -0.034,0.015c-0.005,0.004 -0.012,0.008 -0.019,0.011c-0.012,0.007 -0.025,0.012 -0.038,0.018c-0.005,0.003 -0.01,0.007 -0.014,0.009c-0.014,0.008 -0.026,0.015 -0.038,0.022c-0.005,0.004 -0.01,0.007 -0.016,0.011c-0.013,0.007 -0.025,0.015 -0.038,0.023c-0.004,0.003 -0.009,0.007 -0.015,0.011c-0.011,0.008 -0.023,0.015 -0.035,0.025c-0.006,0.004 -0.012,0.008 -0.018,0.013c-0.009,0.008 -0.021,0.016 -0.031,0.024c-0.008,0.007 -0.015,0.013 -0.021,0.019c-0.01,0.008 -0.019,0.016 -0.027,0.023c-0.014,0.012 -0.025,0.026 -0.04,0.038c-0.001,0.003 -0.003,0.003 -0.006,0.006l-5.073,5.073l-5.075,-5.073c-0.007,-0.007 -0.014,-0.014 -0.021,-0.02c-0.006,-0.009 -0.014,-0.016 -0.024,-0.024c-0.01,-0.009 -0.019,-0.018 -0.03,-0.026c-0.005,-0.006 -0.01,-0.01 -0.017,-0.016c-0.011,-0.008 -0.021,-0.017 -0.034,-0.026c-0.005,-0.003 -0.011,-0.007 -0.016,-0.011c-0.011,-0.01 -0.024,-0.017 -0.037,-0.027c-0.003,-0.003 -0.009,-0.006 -0.012,-0.009c-0.013,-0.008 -0.026,-0.017 -0.039,-0.023c-0.004,-0.004 -0.008,-0.007 -0.014,-0.011c-0.013,-0.007 -0.026,-0.014 -0.037,-0.022c-0.007,-0.002 -0.012,-0.006 -0.019,-0.009c-0.011,-0.006 -0.022,-0.011 -0.034,-0.018c-0.009,-0.003 -0.014,-0.007 -0.022,-0.011c-0.01,-0.005 -0.022,-0.01 -0.033,-0.013c-0.008,-0.005 -0.016,-0.009 -0.025,-0.012c-0.01,-0.005 -0.019,-0.008 -0.029,-0.012c-0.01,-0.003 -0.02,-0.007 -0.031,-0.011c-0.008,-0.003 -0.016,-0.006 -0.025,-0.009c-0.013,-0.003 -0.023,-0.008 -0.034,-0.011c-0.009,-0.003 -0.015,-0.005 -0.025,-0.006c-0.01,-0.004 -0.023,-0.007 -0.036,-0.01c-0.008,-0.002 -0.015,-0.004 -0.022,-0.005c-0.013,-0.005 -0.026,-0.007 -0.038,-0.009c-0.008,-0.002 -0.018,-0.002 -0.024,-0.004c-0.013,-0.003 -0.025,-0.005 -0.037,-0.006c-0.011,-0.002 -0.019,-0.003 -0.027,-0.005c-0.013,-0.001 -0.026,-0.002 -0.036,-0.004c-0.012,0 -0.025,-0.001 -0.036,-0.003c-0.009,0 -0.017,0 -0.027,0c-0.042,-0.004 -0.084,-0.004 -0.127,0c-0.009,0 -0.016,0 -0.027,0c-0.012,0.002 -0.024,0.003 -0.035,0.003c-0.013,0.002 -0.023,0.003 -0.034,0.004c-0.011,0.002 -0.019,0.003 -0.028,0.005c-0.012,0.001 -0.025,0.003 -0.039,0.006c-0.008,0.002 -0.014,0.002 -0.022,0.004c-0.012,0.002 -0.026,0.004 -0.039,0.009c-0.007,0.001 -0.015,0.003 -0.023,0.005c-0.012,0.003 -0.023,0.006 -0.035,0.01c-0.009,0.001 -0.018,0.003 -0.023,0.006c-0.013,0.003 -0.023,0.008 -0.036,0.011c-0.007,0.003 -0.016,0.006 -0.027,0.009c-0.01,0.004 -0.019,0.008 -0.028,0.011c-0.011,0.004 -0.021,0.007 -0.031,0.012c-0.009,0.003 -0.015,0.007 -0.024,0.012c-0.013,0.003 -0.022,0.008 -0.034,0.013c-0.007,0.004 -0.014,0.008 -0.021,0.011c-0.011,0.007 -0.024,0.012 -0.036,0.018c-0.004,0.003 -0.012,0.007 -0.016,0.009c-0.012,0.008 -0.026,0.015 -0.038,0.022c-0.005,0.004 -0.01,0.007 -0.014,0.011c-0.014,0.006 -0.026,0.015 -0.038,0.023c-0.006,0.003 -0.009,0.006 -0.014,0.009c-0.013,0.01 -0.024,0.017 -0.038,0.027c-0.005,0.004 -0.008,0.008 -0.015,0.011c-0.01,0.009 -0.022,0.018 -0.035,0.026c-0.005,0.006 -0.01,0.01 -0.016,0.016c-0.01,0.008 -0.02,0.017 -0.032,0.026c-0.006,0.008 -0.014,0.015 -0.023,0.024c-0.007,0.006 -0.014,0.013 -0.02,0.02c-0.007,0.007 -0.013,0.013 -0.02,0.02c-0.008,0.008 -0.016,0.015 -0.023,0.025c-0.008,0.009 -0.018,0.019 -0.025,0.03c-0.006,0.007 -0.011,0.011 -0.016,0.016c-0.009,0.013 -0.019,0.022 -0.027,0.035c-0.003,0.005 -0.007,0.01 -0.011,0.015c-0.009,0.012 -0.018,0.024 -0.027,0.037c-0.003,0.004 -0.007,0.008 -0.01,0.013c-0.008,0.013 -0.015,0.024 -0.023,0.039c-0.002,0.004 -0.005,0.008 -0.009,0.014c-0.009,0.013 -0.016,0.025 -0.022,0.037c-0.003,0.007 -0.007,0.013 -0.01,0.018c-0.005,0.012 -0.012,0.023 -0.017,0.036c-0.004,0.007 -0.008,0.014 -0.011,0.021c-0.004,0.01 -0.009,0.022 -0.015,0.032c-0.003,0.009 -0.009,0.017 -0.012,0.026c-0.003,0.01 -0.007,0.02 -0.01,0.029c-0.006,0.01 -0.009,0.02 -0.012,0.03c-0.003,0.009 -0.006,0.017 -0.008,0.026c-0.004,0.012 -0.01,0.023 -0.013,0.035c-0.001,0.008 -0.003,0.015 -0.005,0.023c-0.005,0.012 -0.008,0.026 -0.012,0.037c0,0.007 0,0.016 -0.002,0.022c-0.004,0.014 -0.008,0.026 -0.011,0.039c-0.002,0.007 -0.002,0.015 -0.003,0.023c-0.002,0.012 -0.005,0.026 -0.007,0.038c-0.003,0.01 -0.003,0.017 -0.004,0.025c-0.002,0.014 -0.004,0.025 -0.004,0.037c-0.001,0.011 -0.001,0.022 -0.003,0.033c0,0.01 -0.002,0.02 -0.002,0.03c-0.001,0.02 -0.001,0.042 -0.001,0.063l0,13.291c0,0.708 0.573,1.279 1.28,1.279c0.707,0 1.281,-0.571 1.281,-1.279l0,-9.547l-1.59,-2.23l1.59,1.587l0,-0.011l3.605,3.606c0.048,0.074 0.105,0.143 0.167,0.207c0.501,0.5 1.311,0.5 1.812,0l0.504,-0.504l3.31,-3.309l1.577,-1.576l-1.577,2.214l0,9.563c0,0.708 0.573,1.279 1.279,1.279c0.708,0 1.28,-0.571 1.28,-1.279l0,-13.29c0,-0.021 0,-0.044 -0.002,-0.065" style="fill:#1195ef;fill-rule:nonzero;"/><rect x="95.866" y="37.466" width="0.342" height="18.841" style="fill:#1195ef;fill-rule:nonzero;"/><path d="M106.661,48.383l-0.004,-0.007l-0.001,-0.009c-0.224,-0.937 -0.823,-1.645 -1.774,-2.105c-0.803,-0.387 -1.723,-0.54 -2.517,-0.639l-0.007,-0.001l-0.008,-0.001c-0.626,-0.058 -1.179,-0.119 -1.589,-0.287c-0.394,-0.161 -0.572,-0.381 -0.597,-0.74l0,-0.002l0,-0.003c-0.019,-0.211 0,-0.515 0.185,-0.754c0.384,-0.491 1.144,-0.681 1.728,-0.692c0.014,0 0.028,-0.001 0.044,-0.001c0.653,0 1.317,0.221 1.626,0.648c0.192,-0.432 0.625,-0.659 1.11,-0.659c0.185,0 0.359,0.046 0.511,0.124c-0.084,-0.016 -0.172,-0.025 -0.262,-0.025c-0.732,0 -1.328,0.594 -1.328,1.327c0,0.109 0.016,0.213 0.04,0.315c0,0.003 0.001,0.006 0.001,0.009c0.147,0.576 0.667,1.004 1.287,1.004c0.709,0 1.285,-0.556 1.324,-1.256c0.02,-0.175 0.022,-0.36 0.004,-0.544c-0.112,-1.21 -0.689,-2.024 -1.564,-2.623c-0.74,-0.509 -1.708,-0.789 -2.72,-0.789c-1.536,0 -2.984,0.642 -3.782,1.676c-0.529,0.69 -0.781,1.563 -0.705,2.458l0.002,-0.001c0.096,1.197 0.645,2.076 1.639,2.617c0.826,0.451 1.819,0.601 2.769,0.696c1.048,0.105 1.998,0.245 2.119,0.786c0.027,0.112 0.04,0.212 0.04,0.294c0,0.682 -0.809,1.416 -2.116,1.416c-0.474,0 -0.981,-0.129 -1.36,-0.348c-0.121,-0.072 -0.244,-0.189 -0.355,-0.344c-0.236,0.44 -0.699,0.739 -1.232,0.739c-0.172,0 -0.336,-0.033 -0.487,-0.09c0.072,0.012 0.143,0.019 0.219,0.019c0.629,0 1.156,-0.44 1.292,-1.027c0.01,-0.048 0.019,-0.094 0.024,-0.142c0,-0.002 0.001,-0.005 0.001,-0.006c0.006,-0.05 0.009,-0.101 0.009,-0.153c0,-0.732 -0.593,-1.327 -1.326,-1.327c-0.039,0 -0.076,0.004 -0.113,0.008c-0.036,0.003 -0.072,0.007 -0.106,0.013c-0.628,0.104 -1.108,0.65 -1.108,1.306c0,0.028 0.003,0.056 0.004,0.083c-0.029,0.384 0.046,1.498 1.535,2.797c0.734,0.64 1.984,0.959 2.987,0.959c2.285,0 4.65,-1.453 4.65,-3.888c0,-0.244 -0.032,-0.546 -0.089,-0.831" style="fill:#1195ef;fill-rule:nonzero;"/><path d="M75.995,341.7l0,-1.037" style="fill:none;stroke-width:1.87px;stroke-miterlimit:4;stroke:#1195ef;"/><path id="Linha2" d="M75.995,326.58l0,-101.29" style="fill:none;stroke-width:1.87px;stroke-miterlimit:4;stroke-dasharray:2.11,4.22;stroke:#1195ef;"/><path id="Linha5" d="M75.995,491.635l0,-19.449l0,-12.864" style="fill:none;stroke-width:1.57px;stroke-miterlimit:4;stroke-dasharray:2.85,5.71;stroke:#1195ef;"/><path id="Seta6" d="M72.264,457.746l3.73,3.152l3.731,-3.152" style="fill:none;stroke-width:1.57px;stroke:#1195ef;"/><path id="Linha1" d="M75.995,146.977l0,-24.093" style="fill:none;stroke-width:1.87px;stroke-miterlimit:4;stroke-dasharray:1.98,3.96;stroke:#1195ef;"/><path id="Circulo1" d="M108.958,184.357c0,18.204 -14.76,32.964 -32.965,32.964c-18.203,0 -32.961,-14.76 -32.961,-32.964c0,-18.205 14.758,-32.963 32.961,-32.963c18.205,0 32.965,14.758 32.965,32.963Z" style="fill:none;stroke-width:1.87px;stroke-dasharray:2.07,4.15;stroke:#1195ef;"/><path d="M79.574,183.992c1.993,2.849 2.483,5.896 0.958,7.421c-1.128,1.127 -3.084,1.149 -5.178,0.295c-1.393,-0.574 -2.855,-1.527 -4.17,-2.844c-1.822,-1.825 -2.957,-3.913 -3.31,-5.742c-0.281,-1.471 -0.077,-2.772 0.759,-3.609c1.231,-1.232 3.457,-1.14 5.774,-0.022l2.434,-1.353c-4.785,-3.062 -10.343,-3.288 -12.457,-1.175c-5.164,5.164 -5.164,13.538 0,18.702l-5.924,5.922c-0.344,0.346 -0.448,0.863 -0.26,1.311c0.187,0.449 0.625,0.742 1.109,0.742l10.321,0c0.668,0 1.201,-0.537 1.201,-1.203l0,-3.256c4.273,0.961 8.927,-0.191 12.25,-3.516c2.342,-2.338 1.828,-8.904 -2.259,-13.96l-1.248,2.287Z" style="fill:#e9098a;fill-rule:nonzero;"/><path d="M72.072,186.871c1.034,1.033 2.544,0.887 3.354,-0.332l6.045,-9.068l-9.072,6.043c-1.215,0.811 -1.365,2.322 -0.327,3.357" style="fill:#e9098a;fill-rule:nonzero;"/><path id="SinalAntena1" d="M84.27,178.71c-0.275,0.278 -0.275,0.729 0.004,1.007c0.277,0.276 0.728,0.276 1.004,-0.001c1.662,-1.67 1.658,-4.377 -0.01,-6.038c-1.668,-1.663 -4.377,-1.658 -6.038,0.009c-0.275,0.277 -0.276,0.73 0.001,1.004c0.277,0.281 0.73,0.277 1.008,0c1.109,-1.113 2.912,-1.113 4.025,-0.006c1.111,1.108 1.115,2.913 0.006,4.025" style="fill:#eb008b;fill-rule:nonzero;"/><path id="SinalAntena2" d="M87.8,182.225c3.047,-3.057 3.039,-8.021 -0.019,-11.068c-3.057,-3.048 -8.022,-3.039 -11.071,0.018c-0.276,0.279 -0.276,0.728 0.002,1.008c0.278,0.278 0.73,0.274 1.006,-0.004c2.494,-2.5 6.558,-2.506 9.059,-0.016c2.5,2.495 2.507,6.558 0.013,9.058c-0.275,0.278 -0.277,0.732 0.005,1.008c0.276,0.277 0.73,0.276 1.005,-0.004" style="fill:#eb008b;fill-rule:nonzero;"/><path id="SinalAntena3" d="M90.56,184.519c4.44,-4.455 4.429,-11.688 -0.026,-16.124c-4.455,-4.439 -11.687,-4.429 -16.127,0.028c-0.404,0.407 -0.403,1.06 0.003,1.466c0.405,0.403 1.062,0.401 1.464,-0.006c3.634,-3.642 9.552,-3.65 13.195,-0.02c3.643,3.632 3.655,9.551 0.021,13.193c-0.401,0.403 -0.402,1.063 0.006,1.467c0.403,0.405 1.062,0.4 1.464,-0.004" style="fill:#eb008b;fill-rule:nonzero;"/>

<path id="Som" d="M9.244,582.978c1.176,0 2.133,0.958 2.133,2.135c0,1.177 -0.957,2.136 -2.133,2.136c-1.178,0 -2.137,-0.959 -2.137,-2.136c0,-1.177 0.959,-2.135 2.137,-2.135M21.34,567.491l0,4.236l-8.539,1.831l0,-4.238l8.539,-1.829ZM19.207,585.113c-1.178,0 -2.135,-0.958 -2.135,-2.135c0,-1.179 0.957,-2.135 2.135,-2.135c1.176,0 2.133,0.956 2.133,2.135c0,1.177 -0.957,2.135 -2.133,2.135M9.242,588.671c1.963,0 3.559,-1.596 3.559,-3.558l0,-10.1l8.539,-1.829l0,6.954c-0.711,-0.449 -1.332,-0.719 -2.133,-0.719c-1.963,0 -3.559,1.597 -3.559,3.559c0,1.96 1.596,3.559 3.559,3.559c1.961,0 3.557,-1.599 3.557,-3.559l0,-10.679l0,-0.002l0,-5.688c0,-0.215 -0.096,-0.418 -0.264,-0.554c-0.166,-0.135 -0.387,-0.185 -0.596,-0.141l-9.965,2.134c-0.328,0.071 -0.562,0.361 -0.562,0.697l0,13.528c-0.712,-0.449 -1.332,-0.719 -2.135,-0.719c-1.963,0 -3.557,1.597 -3.557,3.559c0,1.962 1.594,3.558 3.557,3.558" style="fill:#eb008b;fill-rule:nonzero;"/>

<g id="Play"><path id="CirculoPlay" d="M20.558,630.24c-1.882,1.882 -4.385,2.919 -7.046,2.919c-2.661,0 -5.161,-1.037 -7.045,-2.919c-1.882,-1.881 -2.919,-4.384 -2.919,-7.045c0,-2.661 1.037,-5.163 2.919,-7.045c1.884,-1.882 4.384,-2.919 7.045,-2.919c2.661,0 5.164,1.037 7.046,2.919c1.881,1.882 2.918,4.384 2.918,7.045c0,2.661 -1.037,5.164 -2.918,7.045M13.512,611.808c-3.04,0 -5.899,1.186 -8.05,3.336c-2.153,2.15 -3.337,5.01 -3.337,8.051c0,3.041 1.184,5.9 3.337,8.053c2.151,2.15 5.01,3.334 8.05,3.334c3.041,0 5.901,-1.184 8.051,-3.334c2.151,-2.153 3.337,-5.012 3.337,-8.053c0,-3.041 -1.186,-5.901 -3.337,-8.051c-2.15,-2.15 -5.01,-3.336 -8.051,-3.336" style="fill:#eb008b;fill-rule:nonzero;"/><path id="IconePlay" d="M12.446,625.645l0,-4.899l3.118,2.449l-3.118,2.45ZM17.153,622.635l-4.979,-3.913c-0.214,-0.17 -0.506,-0.199 -0.75,-0.08c-0.246,0.116 -0.401,0.365 -0.401,0.64l0,7.827c0,0.272 0.155,0.52 0.401,0.64c0.099,0.048 0.204,0.073 0.308,0.073c0.158,0 0.314,-0.053 0.442,-0.155l4.979,-3.915c0.173,-0.133 0.274,-0.338 0.274,-0.557c0,-0.219 -0.101,-0.425 -0.274,-0.56" style="fill:#eb008b;fill-rule:nonzero;"/></g><path id="SetaEsquerda3" d="M157.178,384.365l-5.021,6.487l5.02,6.488" style="fill:none;stroke-width:1.57px;stroke:#1195ef;"/><path id="SetaEsquerda2" d="M168.296,384.365l-5.023,6.487l5.023,6.488" style="fill:none;stroke-width:1.57px;stroke:#1195ef;"/><path id="SetaEsquerda1" d="M179.412,384.365l-5.023,6.487l5.023,6.488" style="fill:none;stroke-width:1.57px;stroke:#1195ef;"/><path id="Linha4" d="M197.672,321.86l0,64.782" style="fill:none;stroke-width:1.57px;stroke-miterlimit:4;stroke-dasharray:2.87,5.74;stroke:#1195ef;"/><path d="M197.672,389.51l0,1.343l-1.343,0" style="fill:none;stroke-width:1.57px;stroke-miterlimit:4;stroke:#1195ef;"/><path d="M189.965,390.853l-1.343,0" style="fill:none;stroke-width:1.57px;stroke-miterlimit:4;stroke:#1195ef;"/><g transform="matrix(1,0,0,1,-60.0012,-48.1247)"><text x="123.363px" y="115.237px" style="font-family:Source Sans Pro;font-size:10.111px;font-weight:900;fill:#1195ef;">+ sua </text><text x="112.524px" y="127.37px" style="font-family:Source Sans Pro;font-size:10.111px;font-weight:900;fill:#1195ef;">FRANQUIA</text></g><g transform="matrix(1,0,0,1,-60.0012,-48.1247)"><text x="208.222px" y="253.14px" style="font-family:Source Sans Pro;font-size:12px;font-weight:900;fill:#1195ef;">TECNOLOGIA PARA REDES </text><text x="208.227px" y="266.345px" style="font-family:Source Sans Pro;font-size:11px;font-weight:600;fill:#ccc;">Em cada loja é instalado o </text><text x="208.227px" y="279.545px" style="font-family:Source Sans Pro;font-size:11px;font-weight:600;fill:#ccc;">nosso receptor digital de </text><text x="208.227px" y="292.745px" style="font-family:Source Sans Pro;font-size:11px;font-weight:600;fill:#ccc;">som e imagens.</text></g><g transform="matrix(1,0,0,1,-60.0012,-48.1247)"><text x="89.613px" y="620.721px" style="font-family:Source Sans Pro;font-size:11px;font-weight:600;fill:#ccc;">A franquia é reconhecida pelas </text><text x="89.613px" y="633.921px" style="font-family:Source Sans Pro;font-size:11px;font-weight:600;fill:#ccc;">músi</text><text x="112.625px" y="633.921px" style="font-family:Source Sans Pro;font-size:11px;font-weight:600;fill:#ccc;">c</text><text x="117.607px" y="633.921px" style="font-family:Source Sans Pro;font-size:11px;font-weight:600;fill:#ccc;">as que </text><text x="150.475px" y="633.921px" style="font-family:Source Sans Pro;font-size:11px;font-weight:600;fill:#ccc;">t</text><text x="154.346px" y="633.921px" style="font-family:Source Sans Pro;font-size:11px;font-weight:600;fill:#ccc;">o</text><text x="160.385px" y="633.921px" style="font-family:Source Sans Pro;font-size:11px;font-weight:600;fill:#ccc;">c</text><text x="165.367px" y="633.921px" style="font-family:Source Sans Pro;font-size:11px;font-weight:600;fill:#ccc;">am em suas lojas. </text><text x="89.613px" y="658.721px" style="font-family:Source Sans Pro;font-size:11px;font-weight:600;fill:#ccc;">Menus, p</text><text x="131.886px" y="658.721px" style="font-family:Source Sans Pro;font-size:11px;font-weight:600;fill:#ccc;">r</text><text x="135.889px" y="658.721px" style="font-family:Source Sans Pro;font-size:11px;font-weight:600;fill:#ccc;">eços, o</text><text x="168.647px" y="658.721px" style="font-family:Source Sans Pro;font-size:11px;font-weight:600;fill:#ccc;">f</text><text x="172.034px" y="658.721px" style="font-family:Source Sans Pro;font-size:11px;font-weight:600;fill:#ccc;">ertas, e </text><text x="209.291px" y="658.721px" style="font-family:Source Sans Pro;font-size:11px;font-weight:600;fill:#ccc;">t</text><text x="213.162px" y="658.721px" style="font-family:Source Sans Pro;font-size:11px;font-weight:600;fill:#ccc;">oda a </text><text x="89.613px" y="671.921px" style="font-family:Source Sans Pro;font-size:11px;font-weight:600;fill:#ccc;">comuni</text><text x="125.165px" y="671.921px" style="font-family:Source Sans Pro;font-size:11px;font-weight:600;fill:#ccc;">c</text><text x="130.147px" y="671.921px" style="font-family:Source Sans Pro;font-size:11px;font-weight:600;fill:#ccc;">a</text><text x="135.9px" y="671.921px" style="font-family:Source Sans Pro;font-size:11px;font-weight:600;fill:#ccc;">ç</text><text x="140.882px" y="671.921px" style="font-family:Source Sans Pro;font-size:11px;font-weight:600;fill:#ccc;">ão da ma</text><text x="184.167px" y="671.921px" style="font-family:Source Sans Pro;font-size:11px;font-weight:600;fill:#ccc;">r<tspan x="188.17px " y="671.921px ">c</tspan></text><text x="193.152px" y="671.921px" style="font-family:Source Sans Pro;font-size:11px;font-weight:600;fill:#ccc;">a se </text><text x="213.733px" y="671.921px" style="font-family:Source Sans Pro;font-size:11px;font-weight:600;fill:#ccc;">t</text><text x="217.604px" y="671.921px" style="font-family:Source Sans Pro;font-size:11px;font-weight:600;fill:#ccc;">ornam </text><text x="89.613px" y="685.121px" style="font-family:Source Sans Pro;font-size:11px;font-weight:600;fill:#ccc;">mais atraentes nas telas digitais </text><text x="89.613px" y="709.722px" style="font-family:Source Sans Pro;font-size:11px;font-weight:600;fill:#ccc;">A experiência sensorial é </text><text x="89.613px" y="722.922px" style="font-family:Source Sans Pro;font-size:11px;font-weight:600;fill:#ccc;">enriquecida, aumentando a </text><text x="89.613px" y="736.122px" style="font-family:Source Sans Pro;font-size:11px;font-weight:600;fill:#ccc;">satisfação dos consumidores.</text></g><text x="29.611px" y="543.484px" style="font-family:Source Sans Pro;font-size:12px;font-weight:900;fill:#1195ef;">BENEFÍCIOS PARA A FRANQUIA</text><g transform="matrix(1,0,0,1,-60.0012,-48.1247)"><text x="208.227px" y="82.969px" style="font-family:Source Sans Pro;font-size:12px;font-weight:900;fill:#1195ef;">CONTEÚDO EXCL</text><text x="298.779px" y="82.969px" style="font-family:Source Sans Pro;font-size:12px;font-weight:900;fill:#1195ef;">U</text><text x="305.843px" y="82.969px" style="font-family:Source Sans Pro;font-size:12px;font-weight:900;fill:#1195ef;">SIVO </text><text x="208.227px" y="96.169px" style="font-family:Source Sans Pro;font-size:11px;font-weight:600;fill:#ccc;">Entramos no universo da </text><text x="208.227px" y="109.369px" style="font-family:Source Sans Pro;font-size:11px;font-weight:600;fill:#ccc;">sua ma</text><text x="242.118px" y="109.369px" style="font-family:Source Sans Pro;font-size:11px;font-weight:600;fill:#ccc;">r<tspan x="246.121px " y="109.369px ">c</tspan></text><text x="251.103px" y="109.369px" style="font-family:Source Sans Pro;font-size:11px;font-weight:600;fill:#ccc;">a </text><text x="259.111px" y="109.369px" style="font-family:Source Sans Pro;font-size:11px;font-weight:600;fill:#ccc;">p</text><text x="265.215px" y="109.369px" style="font-family:Source Sans Pro;font-size:11px;font-weight:600;fill:#ccc;">ara criar o seu </text><text x="208.227px" y="122.569px" style="font-family:Source Sans Pro;font-size:11px;font-weight:600;fill:#ccc;">conteúdo de Music Branding </text><text x="208.227px" y="135.769px" style="font-family:Source Sans Pro;font-size:11px;font-weight:600;fill:#ccc;">e Digital Signage.</text></g><path d="M148.225,205.92l138.264,0l-138.264,0Z" style="fill:none;stroke-width:0.6px;stroke:#1195ef;"/><path d="M29.612,544.384l163.822,0l-163.822,0Z" style="fill:none;stroke-width:0.6px;stroke:#1195ef;"/><path d="M148.225,35.744l122.783,0l-122.783,0Z" style="fill:none;stroke-width:0.6px;stroke:#1195ef;"/><path d="M215.067,308.662l-44.901,-3.947l0,-12.442l44.901,3.949l0,12.44Z" style="fill:none;stroke-width:1.75px;stroke:#ffd663;"/><path d="M215.067,308.662l14.587,-8.364l0,-12.442l-14.587,8.366l0,12.44Z" style="fill:none;stroke-width:1.75px;stroke:#ffd663;"/><path d="M170.166,292.273l18.017,-7.206l41.471,2.789l-14.587,8.365" style="fill:none;stroke-width:1.75px;stroke:#ffd663;"/><path d="M212.458,302.104c0,1.727 -1.401,3.128 -3.128,3.128c-1.728,0 -3.128,-1.401 -3.128,-3.128c0,-1.729 1.4,-3.128 3.128,-3.128c1.727,0 3.128,1.399 3.128,3.128Z" style="fill:none;stroke-width:1.75px;stroke:#ffd663;"/><path d="M192.616,300.798c0,0.275 -0.224,0.499 -0.499,0.499c-0.277,0 -0.502,-0.224 -0.502,-0.499c0,-0.276 0.225,-0.5 0.502,-0.5c0.275,0 0.499,0.224 0.499,0.5Z" style="fill:none;stroke-width:1.75px;stroke:#ffd663;"/><path id="SinalReceiver1" d="M167.673,285.083c0.275,0.272 0.718,0.272 0.992,-0.004c0.272,-0.272 0.272,-0.716 -0.002,-0.988c-1.643,-1.636 -4.308,-1.632 -5.942,0.009c-1.637,1.642 -1.632,4.308 0.009,5.943c0.273,0.271 0.719,0.272 0.989,-0.002c0.275,-0.272 0.272,-0.718 0,-0.991c-1.096,-1.091 -1.096,-2.866 -0.007,-3.961c1.091,-1.093 2.867,-1.098 3.961,-0.006" style="fill:#ffd663;fill-rule:nonzero;"/><path id="SinalReceiver2" d="M171.132,281.61c-3.008,-2.999 -7.893,-2.991 -10.892,0.019c-3,3.008 -2.991,7.894 0.018,10.894c0.274,0.272 0.717,0.272 0.991,-0.002c0.274,-0.274 0.271,-0.718 -0.003,-0.989c-2.461,-2.454 -2.466,-6.453 -0.015,-8.914c2.454,-2.462 6.453,-2.469 8.914,-0.015c0.273,0.272 0.719,0.273 0.991,-0.004c0.273,-0.273 0.271,-0.717 -0.004,-0.989" style="fill:#ffd663;fill-rule:nonzero;"/><path id="SinalReceiver3" d="M173.39,278.893c-4.385,-4.369 -11.502,-4.358 -15.868,0.025c-4.369,4.385 -4.359,11.502 0.027,15.871c0.4,0.398 1.044,0.397 1.443,-0.002c0.397,-0.399 0.394,-1.045 -0.006,-1.442c-3.584,-3.575 -3.593,-9.4 -0.02,-12.984c3.575,-3.586 9.399,-3.598 12.984,-0.021c0.397,0.394 1.046,0.395 1.444,-0.006c0.399,-0.397 0.394,-1.045 -0.004,-1.441" style="fill:#ffd663;fill-rule:nonzero;"/>
<path id="Heart" d="M14.225,676.9c-1.84,-1.186 -9.964,-6.766 -9.964,-12.679c0,-2.399 1.338,-4.982 4.27,-4.982c2.395,0 4.982,1.634 4.982,4.27c0,0.394 0.318,0.712 0.712,0.712c0.393,0 0.711,-0.318 0.711,-0.712c0,-2.636 2.586,-4.27 4.982,-4.27c2.934,0 4.27,2.583 4.27,4.982c0,5.907 -8.126,11.492 -9.963,12.679M19.918,657.816c-2.476,0 -4.627,1.255 -5.693,3.086c-1.065,-1.831 -3.22,-3.086 -5.694,-3.086c-3.739,0 -5.694,3.221 -5.694,6.405c0,7.433 10.571,13.86 11.021,14.13c0.113,0.069 0.241,0.102 0.367,0.102c0.127,0 0.253,-0.033 0.365,-0.102c0.449,-0.27 11.022,-6.697 11.022,-14.13c0,-3.184 -1.957,-6.405 -5.694,-6.405" style="fill:#eb008b;fill-rule:nonzero;"/><path id="Circulo2" d="M101.428,397.469c0,14.046 -11.387,25.433 -25.434,25.433c-14.045,0 -25.432,-11.387 -25.432,-25.433c0,-14.047 11.387,-25.434 25.432,-25.434c14.047,0 25.434,11.387 25.434,25.434Z" style="fill:none;stroke-width:1.87px;stroke-dasharray:2.07,4.15;stroke:#1195ef;"/>
<clipPath id="_clip1"><path d="M49.743,367.302c-0.118,9.857 11.539,17.987 26.037,18.162c14.498,0.176 26.347,-7.672 26.466,-17.528c0.118,-9.857 -11.537,-17.987 -26.037,-18.162c-0.161,-0.002 -0.32,-0.003 -0.479,-0.003c-14.278,0 -25.869,7.785 -25.987,17.531Z"/></clipPath><g clip-path="url(#_clip1)"><path d="M45.102,366.802l33.482,34.298" style="fill:#000;fill-rule:nonzero;"/><path d="M46.904,365.043l33.482,34.297" style="fill:#000;fill-rule:nonzero;"/><path d="M48.707,363.284l33.48,34.297" style="fill:#000;fill-rule:nonzero;"/><path d="M50.508,361.526l33.482,34.299" style="fill:#000;fill-rule:nonzero;"/><path d="M52.31,359.767l33.479,34.297" style="fill:#000;fill-rule:nonzero;"/><path d="M54.112,358.008l33.481,34.299" style="fill:#000;fill-rule:nonzero;"/><path d="M55.913,356.249l33.482,34.298" style="fill:#000;fill-rule:nonzero;"/><path d="M57.716,354.49l33.48,34.299" style="fill:#000;fill-rule:nonzero;"/><path d="M59.517,352.731l33.479,34.299" style="fill:#000;fill-rule:nonzero;"/><path d="M61.318,350.973l33.481,34.298" style="fill:#000;fill-rule:nonzero;"/><path d="M63.12,349.214l33.481,34.297" style="fill:#000;fill-rule:nonzero;"/><path d="M64.922,347.455l33.481,34.299" style="fill:#000;fill-rule:nonzero;"/><path d="M66.723,345.696l33.48,34.298" style="fill:#000;fill-rule:nonzero;"/><path d="M68.526,343.937l33.479,34.298" style="fill:#000;fill-rule:nonzero;"/><path d="M70.327,342.178l33.481,34.3" style="fill:#000;fill-rule:nonzero;"/><path d="M72.128,340.419l33.481,34.3" style="fill:#000;fill-rule:nonzero;"/><path d="M73.93,338.66l33.482,34.299" style="fill:#000;fill-rule:nonzero;"/><path d="M75.732,336.902l33.48,34.301" style="fill:#000;fill-rule:nonzero;"/><path d="M45.102,366.802l33.482,34.298" style="fill:none;stroke-width:0.46px;stroke:#ffd663;"/><path d="M46.904,365.043l33.482,34.297" style="fill:none;stroke-width:0.46px;stroke:#ffd663;"/><path d="M48.707,363.284l33.48,34.297" style="fill:none;stroke-width:0.46px;stroke:#ffd663;"/><path d="M50.508,361.526l33.482,34.299" style="fill:none;stroke-width:0.46px;stroke:#ffd663;"/><path d="M52.31,359.767l33.479,34.297" style="fill:none;stroke-width:0.46px;stroke:#ffd663;"/><path d="M54.112,358.008l33.481,34.299" style="fill:none;stroke-width:0.46px;stroke:#ffd663;"/><path d="M55.913,356.249l33.482,34.298" style="fill:none;stroke-width:0.46px;stroke:#ffd663;"/><path d="M57.716,354.49l33.48,34.299" style="fill:none;stroke-width:0.46px;stroke:#ffd663;"/><path d="M59.517,352.731l33.479,34.299" style="fill:none;stroke-width:0.46px;stroke:#ffd663;"/><path d="M61.318,350.973l33.481,34.298" style="fill:none;stroke-width:0.46px;stroke:#ffd663;"/><path d="M63.12,349.214l33.481,34.297" style="fill:none;stroke-width:0.46px;stroke:#ffd663;"/><path d="M64.922,347.455l33.481,34.299" style="fill:none;stroke-width:0.46px;stroke:#ffd663;"/><path d="M66.723,345.696l33.48,34.298" style="fill:none;stroke-width:0.46px;stroke:#ffd663;"/><path d="M68.526,343.937l33.479,34.298" style="fill:none;stroke-width:0.46px;stroke:#ffd663;"/><path d="M70.327,342.178l33.481,34.3" style="fill:none;stroke-width:0.46px;stroke:#ffd663;"/><path d="M72.128,340.419l33.481,34.3" style="fill:none;stroke-width:0.46px;stroke:#ffd663;"/><path d="M73.93,338.66l33.482,34.299" style="fill:none;stroke-width:0.46px;stroke:#ffd663;"/><path d="M75.732,336.902l33.48,34.301" style="fill:none;stroke-width:0.46px;stroke:#ffd663;"/></g><path d="M92.198,363.567l0,-33.362l-30.977,0l0,33.362" style="fill:#202020;fill-rule:nonzero;stroke-width:1.09px;stroke:#ec1c24;"/><path d="M61.774,342.354c0,1.326 -1.126,2.402 -2.518,2.402c-1.388,0 -2.516,-1.076 -2.516,-2.402" style="fill:#000;fill-rule:nonzero;stroke-width:1.09px;stroke:#ec1c24;"/><path d="M76.88,342.354c0,1.326 -1.127,2.402 -2.519,2.402c-1.389,0 -2.517,-1.076 -2.517,-2.402" style="fill:#000;fill-rule:nonzero;stroke-width:1.09px;stroke:#ec1c24;"/><path d="M71.844,342.354c-0.001,1.326 -1.127,2.402 -2.517,2.402c-1.391,0 -2.518,-1.076 -2.518,-2.402" style="fill:#000;fill-rule:nonzero;stroke-width:1.09px;stroke:#ec1c24;"/><path d="M61.857,342.354c0,1.326 1.126,2.402 2.518,2.402c1.39,0 2.518,-1.076 2.518,-2.402" style="fill:#000;fill-rule:nonzero;stroke-width:1.09px;stroke:#ec1c24;"/><path d="M81.915,342.354c0,1.326 -1.126,2.402 -2.518,2.402c-1.391,0 -2.517,-1.076 -2.517,-2.402" style="fill:#000;fill-rule:nonzero;stroke-width:1.09px;stroke:#ec1c24;"/><path d="M86.951,342.354c0,1.326 -1.128,2.402 -2.519,2.402c-1.39,0 -2.517,-1.076 -2.517,-2.402" style="fill:#000;fill-rule:nonzero;stroke-width:1.09px;stroke:#ec1c24;"/><path d="M91.986,342.354c0,1.326 -1.128,2.402 -2.518,2.402c-1.39,0 -2.517,-1.076 -2.517,-2.402" style="fill:#000;fill-rule:nonzero;stroke-width:1.09px;stroke:#ec1c24;"/><path d="M97.019,342.354c0,1.326 -1.126,2.402 -2.518,2.402c-1.388,0 -2.515,-1.076 -2.515,-2.402" style="fill:#000;fill-rule:nonzero;stroke-width:1.09px;stroke:#ec1c24;"/><path d="M97.034,342.595l-4.578,-6.672l-31.151,0l-4.582,6.672l40.311,0Z" style="fill:#000;fill-rule:nonzero;stroke-width:1.09px;stroke:#ec1c24;"/><path d="M86.956,363.567l0,-17.159l-20.969,0l0,17.159" style="fill:#202020;fill-rule:nonzero;stroke-width:1.09px;stroke:#ec1c24;"/><path d="M76.472,346.407l0,17.159" style="fill:#000;fill-rule:nonzero;stroke-width:1.09px;stroke:#ec1c24;"/><path d="M61.507,363.567l30.848,0l2.703,3.41l0,4.691l-37.65,0l0,-4.691l4.099,-3.41Z" style="fill:#202020;fill-rule:nonzero;stroke-width:1.09px;stroke:#ec1c24;"/><path d="M94.581,367.854l-37.173,0" style="fill:#000;fill-rule:nonzero;stroke-width:1.09px;stroke:#ec1c24;"/><path d="M68.992,336.515l-2.099,5.388" style="fill:#000;fill-rule:nonzero;stroke-width:1.09px;stroke:#ec1c24;"/><path d="M72.999,336.226l-1.155,5.677" style="fill:#000;fill-rule:nonzero;stroke-width:1.09px;stroke:#ec1c24;"/><path d="M76.784,336.515l0.096,5.464" style="fill:#000;fill-rule:nonzero;stroke-width:1.09px;stroke:#ec1c24;"/><path d="M80.496,336.226l1.419,5.677" style="fill:#000;fill-rule:nonzero;stroke-width:1.09px;stroke:#ec1c24;"/><path d="M84.432,336.226l2.519,5.753" style="fill:#000;fill-rule:nonzero;stroke-width:1.09px;stroke:#ec1c24;"/><path d="M88.439,336.226l3.547,5.677" style="fill:#000;fill-rule:nonzero;stroke-width:1.09px;stroke:#ec1c24;"/><path d="M64.97,336.226l-3.195,5.677" style="fill:#000;fill-rule:nonzero;stroke-width:1.09px;stroke:#ec1c24;"/><clipPath id="_clip2"><path d="M14.807,440.683c-0.121,9.856 11.537,17.988 26.033,18.163c14.499,0.176 26.35,-7.674 26.466,-17.529c0.119,-9.856 -11.536,-17.986 -26.035,-18.16c-0.161,-0.002 -0.321,-0.003 -0.482,-0.003c-14.276,0 -25.865,7.785 -25.982,17.529Z"/></clipPath><g clip-path="url(#_clip2)"><path d="M10.165,440.182l33.48,34.299" style="fill:none;stroke-width:0.46px;stroke:#ffd663;"/><path d="M11.967,438.425l33.481,34.297" style="fill:none;stroke-width:0.46px;stroke:#ffd663;"/><path d="M13.767,436.666l33.479,34.296" style="fill:none;stroke-width:0.46px;stroke:#ffd663;"/><path d="M15.57,434.907l33.481,34.297" style="fill:none;stroke-width:0.46px;stroke:#ffd663;"/><path d="M17.372,433.149l33.479,34.296" style="fill:none;stroke-width:0.46px;stroke:#ffd663;"/><path d="M19.174,431.391l33.479,34.297" style="fill:none;stroke-width:0.46px;stroke:#ffd663;"/><path d="M20.974,429.632l33.48,34.297" style="fill:none;stroke-width:0.46px;stroke:#ffd663;"/><path d="M22.776,427.871l33.482,34.297" style="fill:none;stroke-width:0.46px;stroke:#ffd663;"/><path d="M24.579,426.114l33.48,34.298" style="fill:none;stroke-width:0.46px;stroke:#ffd663;"/><path d="M26.379,424.355l33.481,34.298" style="fill:none;stroke-width:0.46px;stroke:#ffd663;"/><path d="M28.182,422.597l33.479,34.298" style="fill:none;stroke-width:0.46px;stroke:#ffd663;"/><path d="M29.983,420.837l33.48,34.299" style="fill:none;stroke-width:0.46px;stroke:#ffd663;"/><path d="M31.785,419.078l33.479,34.297" style="fill:none;stroke-width:0.46px;stroke:#ffd663;"/><path d="M33.588,417.32l33.479,34.298" style="fill:none;stroke-width:0.46px;stroke:#ffd663;"/><path d="M35.388,415.561l33.479,34.299" style="fill:none;stroke-width:0.46px;stroke:#ffd663;"/><path d="M37.19,413.803l33.479,34.298" style="fill:none;stroke-width:0.46px;stroke:#ffd663;"/><path d="M38.991,412.042l33.481,34.299" style="fill:none;stroke-width:0.46px;stroke:#ffd663;"/><path d="M40.794,410.285l33.479,34.299" style="fill:none;stroke-width:0.46px;stroke:#ffd663;"/></g><path d="M57.261,436.948l0,-33.363l-30.978,0l0,33.363" style="fill:#202020;fill-rule:nonzero;stroke-width:1.09px;stroke:#ec1c24;"/><path d="M26.837,415.737c0,1.325 -1.127,2.401 -2.518,2.401c-1.39,0 -2.516,-1.076 -2.516,-2.401" style="fill:#000;fill-rule:nonzero;stroke-width:1.09px;stroke:#ec1c24;"/><path d="M41.942,415.737c0,1.325 -1.129,2.401 -2.52,2.401c-1.389,0 -2.515,-1.076 -2.515,-2.401" style="fill:#000;fill-rule:nonzero;stroke-width:1.09px;stroke:#ec1c24;"/><path d="M36.907,415.737c0,1.325 -1.129,2.401 -2.518,2.401c-1.391,0 -2.519,-1.076 -2.519,-2.401" style="fill:#000;fill-rule:nonzero;stroke-width:1.09px;stroke:#ec1c24;"/><path d="M26.919,415.737c0,1.325 1.126,2.401 2.516,2.401c1.392,0 2.519,-1.076 2.519,-2.401" style="fill:#000;fill-rule:nonzero;stroke-width:1.09px;stroke:#ec1c24;"/><path d="M46.976,415.737c0,1.325 -1.128,2.401 -2.519,2.401c-1.39,0 -2.515,-1.076 -2.515,-2.401" style="fill:#000;fill-rule:nonzero;stroke-width:1.09px;stroke:#ec1c24;"/><path d="M52.012,415.737c0,1.325 -1.129,2.401 -2.519,2.401c-1.389,0 -2.516,-1.076 -2.516,-2.401" style="fill:#000;fill-rule:nonzero;stroke-width:1.09px;stroke:#ec1c24;"/><path d="M57.046,415.737c0,1.325 -1.127,2.401 -2.516,2.401c-1.391,0 -2.518,-1.076 -2.518,-2.401" style="fill:#000;fill-rule:nonzero;stroke-width:1.09px;stroke:#ec1c24;"/><path d="M62.081,415.737c0,1.325 -1.127,2.401 -2.518,2.401c-1.389,0 -2.517,-1.076 -2.517,-2.401" style="fill:#000;fill-rule:nonzero;stroke-width:1.09px;stroke:#ec1c24;"/><path d="M62.096,415.979l-4.579,-6.673l-31.151,0l-4.581,6.673l40.311,0Z" style="fill:#000;fill-rule:nonzero;stroke-width:1.09px;stroke:#ec1c24;"/><path d="M52.017,436.948l0,-17.159l-20.97,0l0,17.159" style="fill:#202020;fill-rule:nonzero;stroke-width:1.09px;stroke:#ec1c24;"/><path d="M41.533,419.789l0,17.159" style="fill:#000;fill-rule:nonzero;stroke-width:1.09px;stroke:#ec1c24;"/><path d="M26.568,436.948l30.846,0l2.705,3.41l0,4.691l-37.649,0l0,-4.691l4.098,-3.41Z" style="fill:#202020;fill-rule:nonzero;stroke-width:1.09px;stroke:#ec1c24;"/><path d="M59.641,441.236l-37.171,0" style="fill:#000;fill-rule:nonzero;stroke-width:1.09px;stroke:#ec1c24;"/><path d="M34.055,409.898l-2.101,5.388" style="fill:#000;fill-rule:nonzero;stroke-width:1.09px;stroke:#ec1c24;"/><path d="M38.061,409.608l-1.154,5.678" style="fill:#000;fill-rule:nonzero;stroke-width:1.09px;stroke:#ec1c24;"/><path d="M41.845,409.898l0.098,5.463" style="fill:#000;fill-rule:nonzero;stroke-width:1.09px;stroke:#ec1c24;"/><path d="M45.555,409.608l1.421,5.678" style="fill:#000;fill-rule:nonzero;stroke-width:1.09px;stroke:#ec1c24;"/><path d="M49.493,409.608l2.519,5.753" style="fill:#000;fill-rule:nonzero;stroke-width:1.09px;stroke:#ec1c24;"/><path d="M53.501,409.608l3.545,5.678" style="fill:#000;fill-rule:nonzero;stroke-width:1.09px;stroke:#ec1c24;"/><path d="M30.029,409.608l-3.192,5.678" style="fill:#000;fill-rule:nonzero;stroke-width:1.09px;stroke:#ec1c24;"/><clipPath id="_clip3"><path d="M84.684,440.683c-0.12,9.856 11.538,17.988 26.036,18.163c14.495,0.176 26.345,-7.674 26.464,-17.529c0.119,-9.856 -11.538,-17.986 -26.036,-18.16c-0.161,-0.002 -0.321,-0.003 -0.481,-0.003c-14.278,0 -25.867,7.785 -25.983,17.529Z"/></clipPath><g clip-path="url(#_clip3)"><path d="M80.042,440.182l33.482,34.299" style="fill:none;stroke-width:0.46px;stroke:#ffd663;"/><path d="M81.844,438.425l33.479,34.297" style="fill:none;stroke-width:0.46px;stroke:#ffd663;"/><path d="M83.645,436.666l33.48,34.296" style="fill:none;stroke-width:0.46px;stroke:#ffd663;"/><path d="M85.447,434.907l33.481,34.297" style="fill:none;stroke-width:0.46px;stroke:#ffd663;"/><path d="M87.25,433.149l33.479,34.296" style="fill:none;stroke-width:0.46px;stroke:#ffd663;"/><path d="M89.052,431.391l33.479,34.297" style="fill:none;stroke-width:0.46px;stroke:#ffd663;"/><path d="M90.852,429.632l33.48,34.297" style="fill:none;stroke-width:0.46px;stroke:#ffd663;"/><path d="M92.654,427.871l33.479,34.297" style="fill:none;stroke-width:0.46px;stroke:#ffd663;"/><path d="M94.455,426.114l33.481,34.298" style="fill:none;stroke-width:0.46px;stroke:#ffd663;"/><path d="M96.259,424.355l33.479,34.298" style="fill:none;stroke-width:0.46px;stroke:#ffd663;"/><path d="M98.059,422.597l33.48,34.298" style="fill:none;stroke-width:0.46px;stroke:#ffd663;"/><path d="M99.86,420.837l33.48,34.299" style="fill:none;stroke-width:0.46px;stroke:#ffd663;"/><path d="M101.661,419.078l33.481,34.297" style="fill:none;stroke-width:0.46px;stroke:#ffd663;"/><path d="M103.466,417.32l33.478,34.298" style="fill:none;stroke-width:0.46px;stroke:#ffd663;"/><path d="M105.264,415.561l33.481,34.299" style="fill:none;stroke-width:0.46px;stroke:#ffd663;"/><path d="M107.067,413.803l33.48,34.298" style="fill:none;stroke-width:0.46px;stroke:#ffd663;"/><path d="M108.867,412.042l33.484,34.299" style="fill:none;stroke-width:0.46px;stroke:#ffd663;"/><path d="M110.67,410.285l33.479,34.299" style="fill:none;stroke-width:0.46px;stroke:#ffd663;"/></g><path d="M127.136,436.948l0,-33.363l-30.976,0l0,33.363" style="fill:#202020;fill-rule:nonzero;stroke-width:1.09px;stroke:#ec1c24;"/><path d="M96.714,415.737c0,1.325 -1.126,2.401 -2.517,2.401c-1.391,0 -2.518,-1.076 -2.518,-2.401" style="fill:#000;fill-rule:nonzero;stroke-width:1.09px;stroke:#ec1c24;"/><path d="M111.819,415.737c0,1.325 -1.128,2.401 -2.519,2.401c-1.391,0 -2.517,-1.076 -2.517,-2.401" style="fill:#000;fill-rule:nonzero;stroke-width:1.09px;stroke:#ec1c24;"/><path d="M106.783,415.737c0,1.325 -1.126,2.401 -2.518,2.401c-1.389,0 -2.516,-1.076 -2.516,-2.401" style="fill:#000;fill-rule:nonzero;stroke-width:1.09px;stroke:#ec1c24;"/><path d="M96.796,415.737c0,1.325 1.129,2.401 2.518,2.401c1.389,0 2.519,-1.076 2.519,-2.401" style="fill:#000;fill-rule:nonzero;stroke-width:1.09px;stroke:#ec1c24;"/><path d="M116.854,415.737c0,1.325 -1.127,2.401 -2.519,2.401c-1.391,0 -2.516,-1.076 -2.516,-2.401" style="fill:#000;fill-rule:nonzero;stroke-width:1.09px;stroke:#ec1c24;"/><path d="M121.891,415.737c0,1.325 -1.13,2.401 -2.52,2.401c-1.39,0 -2.517,-1.076 -2.517,-2.401" style="fill:#000;fill-rule:nonzero;stroke-width:1.09px;stroke:#ec1c24;"/><path d="M126.925,415.737c0,1.325 -1.129,2.401 -2.518,2.401c-1.389,0 -2.515,-1.076 -2.515,-2.401" style="fill:#000;fill-rule:nonzero;stroke-width:1.09px;stroke:#ec1c24;"/><path d="M131.957,415.737c0,1.325 -1.125,2.401 -2.518,2.401c-1.388,0 -2.514,-1.076 -2.514,-2.401" style="fill:#000;fill-rule:nonzero;stroke-width:1.09px;stroke:#ec1c24;"/><path d="M131.972,415.979l-4.578,-6.673l-31.152,0l-4.578,6.673l40.308,0Z" style="fill:#000;fill-rule:nonzero;stroke-width:1.09px;stroke:#ec1c24;"/><path d="M121.895,436.948l0,-17.159l-20.969,0l0,17.159" style="fill:none;stroke-width:1.09px;stroke:#ec1c24;"/><path d="M111.409,419.789l0,17.159" style="fill:#000;fill-rule:nonzero;stroke-width:1.09px;stroke:#ec1c24;"/><path d="M96.445,436.948l30.848,0l2.704,3.41l0,4.691l-37.65,0l0,-4.691l4.098,-3.41Z" style="fill:#202020;fill-rule:nonzero;stroke-width:1.09px;stroke:#ec1c24;"/><path d="M129.519,441.236l-37.172,0" style="fill:#000;fill-rule:nonzero;stroke-width:1.09px;stroke:#ec1c24;"/><path d="M103.93,409.898l-2.098,5.388" style="fill:#000;fill-rule:nonzero;stroke-width:1.09px;stroke:#ec1c24;"/><path d="M107.937,409.608l-1.154,5.678" style="fill:#000;fill-rule:nonzero;stroke-width:1.09px;stroke:#ec1c24;"/><path d="M111.723,409.898l0.096,5.463" style="fill:#000;fill-rule:nonzero;stroke-width:1.09px;stroke:#ec1c24;"/><path d="M115.435,409.608l1.419,5.678" style="fill:#000;fill-rule:nonzero;stroke-width:1.09px;stroke:#ec1c24;"/><path d="M119.372,409.608l2.52,5.753" style="fill:#000;fill-rule:nonzero;stroke-width:1.09px;stroke:#ec1c24;"/><path d="M123.38,409.608l3.545,5.678" style="fill:#000;fill-rule:nonzero;stroke-width:1.09px;stroke:#ec1c24;"/><path d="M99.909,409.608l-3.195,5.678" style="fill:#000;fill-rule:nonzero;stroke-width:1.09px;stroke:#ec1c24;"/><path id="Seta5" d="M72.264,222.138l3.73,3.152l3.731,-3.152" style="fill:none;stroke-width:1.57px;stroke:#1195ef;"/><path id="Seta4" d="M72.264,118.469l3.73,3.152l3.731,-3.152" style="fill:none;stroke-width:1.57px;stroke:#1195ef;"/></g></svg>