<?xml version="1.0" encoding="UTF-8" standalone="no"?>
<svg
   xmlns:dc="http://purl.org/dc/elements/1.1/"
   xmlns:cc="http://creativecommons.org/ns#"
   xmlns:rdf="http://www.w3.org/1999/02/22-rdf-syntax-ns#"
   xmlns:svg="http://www.w3.org/2000/svg"
   xmlns="http://www.w3.org/2000/svg"
   viewBox="0 0 336 322.49332"
   height="322.49332"
   width="336"
   xml:space="preserve"
   id="svg2"
   version="1.1"><metadata
     id="metadata8"><rdf:RDF><cc:Work
         rdf:about=""><dc:format>image/svg+xml</dc:format><dc:type
           rdf:resource="http://purl.org/dc/dcmitype/StillImage" /></cc:Work></rdf:RDF></metadata><defs
     id="defs6"><clipPath
       id="clipPath20"
       clipPathUnits="userSpaceOnUse"><path
         id="path18"
         d="M 849.254,1493.31 2319.72,1971.09 849.254,2176.28 Z" /></clipPath><linearGradient
       id="linearGradient26"
       spreadMethod="pad"
       gradientTransform="matrix(1818.79,208.121,208.121,-1818.79,1166.43,1871.07)"
       gradientUnits="userSpaceOnUse"
       y2="0"
       x2="1"
       y1="0"
       x1="0"><stop
         id="stop22"
         offset="0"
         style="stop-opacity:1;stop-color:#aee5f8" /><stop
         id="stop24"
         offset="1"
         style="stop-opacity:1;stop-color:#51ade5" /></linearGradient><clipPath
       id="clipPath36"
       clipPathUnits="userSpaceOnUse"><path
         id="path34"
         d="M 0,2418.73 V 0 h 2520 v 2418.73 z" /></clipPath><clipPath
       id="clipPath52"
       clipPathUnits="userSpaceOnUse"><path
         id="path50"
         d="M 1758.06,242.449 2319.72,1971.09 1584.49,1106.77 Z" /></clipPath><linearGradient
       id="linearGradient58"
       spreadMethod="pad"
       gradientTransform="matrix(71.0478,-1233.84,-1233.84,-71.0478,1926.41,1985.2)"
       gradientUnits="userSpaceOnUse"
       y2="0"
       x2="1"
       y1="0"
       x1="0"><stop
         id="stop54"
         offset="0"
         style="stop-opacity:1;stop-color:#498dd2" /><stop
         id="stop56"
         offset="1"
         style="stop-opacity:1;stop-color:#51ade5" /></linearGradient><clipPath
       id="clipPath68"
       clipPathUnits="userSpaceOnUse"><path
         id="path66"
         d="M 0,2418.73 V 0 h 2520 v 2418.73 z" /></clipPath><clipPath
       id="clipPath78"
       clipPathUnits="userSpaceOnUse"><path
         id="path76"
         d="M 849.254,1493.31 200.277,1704.77 524.77,1831.38 Z" /></clipPath><linearGradient
       id="linearGradient84"
       spreadMethod="pad"
       gradientTransform="matrix(768.869,139.81,139.81,-768.869,242.349,1581.49)"
       gradientUnits="userSpaceOnUse"
       y2="0"
       x2="1"
       y1="0"
       x1="0"><stop
         id="stop80"
         offset="0"
         style="stop-opacity:1;stop-color:#51ade5" /><stop
         id="stop82"
         offset="1"
         style="stop-opacity:1;stop-color:#aee5f8" /></linearGradient><clipPath
       id="clipPath94"
       clipPathUnits="userSpaceOnUse"><path
         id="path92"
         d="m 849.254,1493.31 v 682.97 L 524.77,1831.38 Z" /></clipPath><linearGradient
       id="linearGradient100"
       spreadMethod="pad"
       gradientTransform="matrix(487.623,88.6688,88.6688,-487.623,546.621,1779.77)"
       gradientUnits="userSpaceOnUse"
       y2="0"
       x2="1"
       y1="0"
       x1="0"><stop
         id="stop96"
         offset="0"
         style="stop-opacity:1;stop-color:#51ade5" /><stop
         id="stop98"
         offset="1"
         style="stop-opacity:1;stop-color:#aee5f8" /></linearGradient><clipPath
       id="clipPath110"
       clipPathUnits="userSpaceOnUse"><path
         id="path108"
         d="M 0,2418.73 V 0 h 2520 v 2418.73 z" /></clipPath><clipPath
       id="clipPath120"
       clipPathUnits="userSpaceOnUse"><path
         id="path118"
         d="M 849.254,1493.31 1103.11,867.879 1758.06,242.449 Z" /></clipPath><linearGradient
       id="linearGradient126"
       spreadMethod="pad"
       gradientTransform="matrix(-522.411,1201.21,1201.21,522.411,1308.03,836.94)"
       gradientUnits="userSpaceOnUse"
       y2="0"
       x2="1"
       y1="0"
       x1="0"><stop
         id="stop122"
         offset="0"
         style="stop-opacity:1;stop-color:#498dd2" /><stop
         id="stop124"
         offset="1"
         style="stop-opacity:1;stop-color:#3871c1" /></linearGradient><clipPath
       id="clipPath136"
       clipPathUnits="userSpaceOnUse"><path
         id="path134"
         d="M 0,2418.73 V 0 h 2520 v 2418.73 z" /></clipPath><clipPath
       id="clipPath150"
       clipPathUnits="userSpaceOnUse"><path
         id="path148"
         d="M 200.277,1704.77 448.168,941.852 524.77,1323.31 Z" /></clipPath><linearGradient
       id="linearGradient156"
       spreadMethod="pad"
       gradientTransform="matrix(-351.017,-474.152,-474.152,351.017,640.889,1751.07)"
       gradientUnits="userSpaceOnUse"
       y2="0"
       x2="1"
       y1="0"
       x1="0"><stop
         id="stop152"
         offset="0"
         style="stop-opacity:1;stop-color:#51ade5" /><stop
         id="stop154"
         offset="1"
         style="stop-opacity:1;stop-color:#3872c1" /></linearGradient><clipPath
       id="clipPath166"
       clipPathUnits="userSpaceOnUse"><path
         id="path164"
         d="M 0,2418.73 V 0 h 2520 v 2418.73 z" /></clipPath></defs><g
     transform="matrix(1.3333333,0,0,-1.3333333,0,322.49333)"
     id="g10"><g
       transform="scale(0.1)"
       id="g12"><g
         id="g14"><g
           clip-path="url(#clipPath20)"
           id="g16"><path
             id="path28"
             style="fill:url(#linearGradient26);fill-opacity:1;fill-rule:nonzero;stroke:none"
             d="M 849.254,1493.31 2319.72,1971.09 849.254,2176.28 v -682.97" /></g></g><g
         id="g30"><g
           clip-path="url(#clipPath36)"
           id="g32"><path
             id="path38"
             style="fill:#9ddff7;fill-opacity:1;fill-rule:nonzero;stroke:none"
             d="m 1584.49,1834.79 735.23,136.3 -1470.466,205.19 735.236,-341.49" /><path
             id="path40"
             style="fill:#6bcff6;fill-opacity:1;fill-rule:nonzero;stroke:none"
             d="m 1584.49,1834.79 735.23,136.3 -1470.466,-477.78 735.236,341.48" /><path
             id="path42"
             style="fill:#57c4f1;fill-opacity:1;fill-rule:nonzero;stroke:none"
             d="M 849.254,1493.31 2319.72,1971.09 1758.06,242.449 849.254,1493.31" /><path
             id="path44"
             style="fill:#00adef;fill-opacity:1;fill-rule:nonzero;stroke:none"
             d="M 849.254,1493.31 2319.72,1971.09 1584.49,1106.77 849.254,1493.31" /></g></g><g
         id="g46"><g
           clip-path="url(#clipPath52)"
           id="g48"><path
             id="path60"
             style="fill:url(#linearGradient58);fill-opacity:1;fill-rule:nonzero;stroke:none"
             d="M 1758.06,242.449 2319.72,1971.09 1584.49,1106.77 1758.06,242.449" /></g></g><g
         id="g62"><g
           clip-path="url(#clipPath68)"
           id="g64"><path
             id="path70"
             style="fill:#51ade5;fill-opacity:1;fill-rule:nonzero;stroke:none"
             d="m 849.254,1493.31 -648.977,211.46 648.977,471.51 v -682.97" /></g></g><g
         id="g72"><g
           clip-path="url(#clipPath78)"
           id="g74"><path
             id="path86"
             style="fill:url(#linearGradient84);fill-opacity:1;fill-rule:nonzero;stroke:none"
             d="M 849.254,1493.31 200.277,1704.77 524.77,1831.38 849.254,1493.31" /></g></g><g
         id="g88"><g
           clip-path="url(#clipPath94)"
           id="g90"><path
             id="path102"
             style="fill:url(#linearGradient100);fill-opacity:1;fill-rule:nonzero;stroke:none"
             d="m 849.254,1493.31 v 682.97 L 524.77,1831.38 849.254,1493.31" /></g></g><g
         id="g104"><g
           clip-path="url(#clipPath110)"
           id="g106"><path
             id="path112"
             style="fill:#498dd2;fill-opacity:1;fill-rule:nonzero;stroke:none"
             d="M 849.254,1493.31 448.168,941.852 1758.06,242.449 849.254,1493.31" /></g></g><g
         id="g114"><g
           clip-path="url(#clipPath120)"
           id="g116"><path
             id="path128"
             style="fill:url(#linearGradient126);fill-opacity:1;fill-rule:nonzero;stroke:none"
             d="M 849.254,1493.31 1103.11,867.879 1758.06,242.449 849.254,1493.31" /></g></g><g
         id="g130"><g
           clip-path="url(#clipPath136)"
           id="g132"><path
             id="path138"
             style="fill:#3871c1;fill-opacity:1;fill-rule:nonzero;stroke:none"
             d="M 448.168,941.852 1103.11,867.879 1758.06,242.449 448.168,941.852" /><path
             id="path140"
             style="fill:#51ade5;fill-opacity:1;fill-rule:nonzero;stroke:none"
             d="M 849.254,1493.31 448.168,941.852 200.277,1704.77 849.254,1493.31" /><path
             id="path142"
             style="fill:#3871c1;fill-opacity:1;fill-rule:nonzero;stroke:none"
             d="m 849.254,1493.31 -401.086,-551.458 76.602,381.458 324.484,170" /></g></g><g
         id="g144"><g
           clip-path="url(#clipPath150)"
           id="g146"><path
             id="path158"
             style="fill:url(#linearGradient156);fill-opacity:1;fill-rule:nonzero;stroke:none"
             d="M 200.277,1704.77 448.168,941.852 524.77,1323.31 200.277,1704.77" /></g></g><g
         id="g160"><g
           clip-path="url(#clipPath166)"
           id="g162"><path
             id="path168"
             style="fill:#498dd2;fill-opacity:1;fill-rule:nonzero;stroke:none"
             d="m 1603.95,1834.79 c 0,-10.74 -8.71,-19.45 -19.46,-19.45 -10.75,0 -19.46,8.71 -19.46,19.45 0,10.75 8.71,19.46 19.46,19.46 10.75,0 19.46,-8.71 19.46,-19.46" /><path
             id="path170"
             style="fill:#498dd2;fill-opacity:1;fill-rule:nonzero;stroke:none"
             d="m 544.23,1831.38 c 0,-10.77 -8.71,-19.48 -19.46,-19.48 -10.75,0 -19.461,8.71 -19.461,19.48 0,10.74 8.711,19.45 19.461,19.45 10.75,0 19.46,-8.71 19.46,-19.45" /><path
             id="path172"
             style="fill:#2c3892;fill-opacity:1;fill-rule:nonzero;stroke:none"
             d="m 544.23,1323.31 c 0,-10.74 -8.71,-19.45 -19.46,-19.45 -10.75,0 -19.461,8.71 -19.461,19.45 0,10.74 8.711,19.45 19.461,19.45 10.75,0 19.46,-8.71 19.46,-19.45" /><path
             id="path174"
             style="fill:#2c3892;fill-opacity:1;fill-rule:nonzero;stroke:none"
             d="m 1122.57,867.879 c 0,-10.758 -8.71,-19.469 -19.46,-19.469 -10.75,0 -19.46,8.711 -19.46,19.469 0,10.742 8.71,19.449 19.46,19.449 10.75,0 19.46,-8.707 19.46,-19.449" /><path
             id="path176"
             style="fill:#2c3892;fill-opacity:1;fill-rule:nonzero;stroke:none"
             d="m 1603.95,1106.77 c 0,-10.75 -8.71,-19.46 -19.46,-19.46 -10.75,0 -19.46,8.71 -19.46,19.46 0,10.74 8.71,19.45 19.46,19.45 10.75,0 19.46,-8.71 19.46,-19.45" /><path
             id="path178"
             style="fill:#24265d;fill-opacity:1;fill-rule:nonzero;stroke:none"
             d="m 886.578,1493.31 c 0,-20.2 -16.367,-36.56 -36.562,-36.56 -20.203,0 -36.575,16.36 -36.575,36.56 0,20.19 16.372,36.57 36.575,36.57 20.195,0 36.562,-16.38 36.562,-36.57" /></g></g></g></g></svg>