<?xml version="1.0" encoding="UTF-8" standalone="no"?>
<svg
   xmlns:dc="http://purl.org/dc/elements/1.1/"
   xmlns:cc="http://creativecommons.org/ns#"
   xmlns:rdf="http://www.w3.org/1999/02/22-rdf-syntax-ns#"
   xmlns:svg="http://www.w3.org/2000/svg"
   xmlns="http://www.w3.org/2000/svg"
   xmlns:sodipodi="http://sodipodi.sourceforge.net/DTD/sodipodi-0.dtd"
   xmlns:inkscape="http://www.inkscape.org/namespaces/inkscape"
   viewBox="0 0 176.47144 52.514531"
   height="52.51453"
   width="176.47144"
   xml:space="preserve"
   id="svg2"
   version="1.1"
   sodipodi:docname="moods-top-green.svg"
   inkscape:version="0.92.2 5c3e80d, 2017-08-06"><sodipodi:namedview
     pagecolor="#ffffff"
     bordercolor="#666666"
     borderopacity="1"
     objecttolerance="10"
     gridtolerance="10"
     guidetolerance="10"
     inkscape:pageopacity="0"
     inkscape:pageshadow="2"
     inkscape:window-width="1161"
     inkscape:window-height="674"
     id="namedview17"
     showgrid="false"
     inkscape:zoom="3.0550861"
     inkscape:cx="84.046837"
     inkscape:cy="-1.4818513"
     inkscape:window-x="2"
     inkscape:window-y="0"
     inkscape:window-maximized="0"
     inkscape:current-layer="svg2"
     fit-margin-top="0"
     fit-margin-left="0"
     fit-margin-right="0"
     fit-margin-bottom="0" /><metadata
     id="metadata8"><rdf:RDF><cc:Work
         rdf:about=""><dc:format>image/svg+xml</dc:format><dc:type
           rdf:resource="http://purl.org/dc/dcmitype/StillImage" /><dc:title /></cc:Work></rdf:RDF></metadata><defs
     id="defs6"><clipPath
       id="clipPath20"
       clipPathUnits="userSpaceOnUse"><path
         id="path18"
         d="M 0,0 H 2645.52 V 1036 H 0 Z"
         inkscape:connector-curvature="0" /></clipPath><clipPath
       clipPathUnits="userSpaceOnUse"
       id="clipPath20-8"><path
         d="M 0,0 H 2645.52 V 1036 H 0 Z"
         id="path18-0" /></clipPath><clipPath
       clipPathUnits="userSpaceOnUse"
       id="clipPath20-80"><path
         d="M 0,0 H 2645.52 V 1036 H 0 Z"
         id="path18-2" /></clipPath></defs><g
     id="g10"
     transform="matrix(0.92651317,0,0,-0.92651317,-32.54344,74.606082)"><g
       id="g12"
       transform="scale(0.1)"><g
         id="g14"><g
           id="g16"
           clip-path="url(#clipPath20-80)"><path
             d="m 1019.22,411.316 c -58.962,0 -106.755,47.793 -106.755,106.747 0,58.957 47.793,106.75 106.755,106.75 58.95,0 106.75,-47.793 106.75,-106.75 0,-58.954 -47.8,-106.747 -106.75,-106.747 z m 0,287.774 c -99.978,0 -181.032,-81.047 -181.032,-181.027 0,-99.989 81.054,-181.024 181.032,-181.024 99.96,0 181.03,81.035 181.03,181.024 0,99.98 -81.07,181.027 -181.03,181.027"
             style="fill:#173520;fill-opacity:1;fill-rule:nonzero;stroke:none"
             id="path22"
             inkscape:connector-curvature="0" /><path
             d="m 1393.51,411.316 c -58.97,0 -106.76,47.793 -106.76,106.747 0,58.957 47.79,106.75 106.76,106.75 58.96,0 106.75,-47.793 106.75,-106.75 0,-58.954 -47.79,-106.747 -106.75,-106.747 z m 0,287.774 c -99.99,0 -181.03,-81.047 -181.03,-181.027 0,-99.989 81.04,-181.024 181.03,-181.024 99.97,0 181.03,81.035 181.03,181.024 0,99.98 -81.06,181.027 -181.03,181.027"
             style="fill:#173520;fill-opacity:1;fill-rule:nonzero;stroke:none"
             id="path24"
             inkscape:connector-curvature="0" /><path
             d="m 1720.68,420.758 h -58.73 v 0.488 h -57.36 l 57.36,9.649 v 174.894 l -57.36,9.668 h 105.98 v -0.09 h 10.11 c 63.44,0 95.55,-48.933 95.55,-97.5 0,-48.554 -32.11,-97.109 -95.55,-97.109 z m -5.62,275.957 h -99.45 c -15.94,0 -28.85,-12.918 -28.85,-28.836 V 368.25 c 0,-15.918 12.91,-28.848 28.85,-28.848 h 99.45 c 117.06,0 175.85,88.946 175.85,178.399 0,89.453 -58.79,178.914 -175.85,178.914"
             style="fill:#173520;fill-opacity:1;fill-rule:nonzero;stroke:none"
             id="path26"
             inkscape:connector-curvature="0" /><path
             d="m 825.922,713.211 c -0.008,0.254 -0.027,0.508 -0.059,0.762 -0.019,0.351 -0.039,0.703 -0.078,1.054 -0.027,0.34 -0.078,0.664 -0.105,0.996 -0.039,0.274 -0.059,0.547 -0.11,0.801 -0.047,0.371 -0.125,0.723 -0.183,1.082 -0.032,0.246 -0.078,0.481 -0.129,0.696 -0.067,0.371 -0.156,0.742 -0.235,1.113 -0.046,0.215 -0.097,0.449 -0.156,0.672 -0.097,0.351 -0.195,0.695 -0.293,1.035 -0.058,0.246 -0.125,0.5 -0.195,0.734 -0.098,0.321 -0.203,0.625 -0.313,0.946 -0.086,0.265 -0.175,0.539 -0.273,0.8 -0.098,0.286 -0.203,0.559 -0.313,0.832 -0.117,0.293 -0.222,0.614 -0.351,0.918 -0.098,0.215 -0.195,0.45 -0.293,0.672 -0.145,0.344 -0.301,0.676 -0.457,1.008 -0.09,0.195 -0.195,0.371 -0.274,0.547 -0.187,0.371 -0.363,0.742 -0.566,1.113 -0.078,0.137 -0.168,0.274 -0.246,0.43 -0.215,0.391 -0.43,0.762 -0.652,1.152 -0.078,0.117 -0.157,0.235 -0.227,0.352 -0.254,0.398 -0.488,0.789 -0.762,1.191 -0.078,0.098 -0.136,0.196 -0.203,0.301 -0.273,0.391 -0.547,0.781 -0.851,1.164 -0.067,0.117 -0.157,0.215 -0.223,0.313 -0.285,0.371 -0.586,0.742 -0.879,1.113 -0.098,0.117 -0.195,0.215 -0.273,0.332 -0.305,0.351 -0.598,0.703 -0.918,1.035 -0.059,0.078 -0.149,0.156 -0.215,0.223 -0.332,0.371 -0.664,0.734 -1.027,1.086 -0.36,0.371 -0.743,0.722 -1.122,1.074 -0.058,0.047 -0.109,0.105 -0.168,0.156 -0.351,0.332 -0.722,0.625 -1.082,0.938 -0.089,0.078 -0.187,0.175 -0.293,0.253 -0.371,0.313 -0.753,0.606 -1.132,0.887 -0.098,0.071 -0.188,0.156 -0.286,0.227 -0.39,0.293 -0.789,0.574 -1.191,0.847 -0.098,0.059 -0.195,0.129 -0.281,0.188 -0.41,0.273 -0.801,0.535 -1.223,0.789 -0.097,0.059 -0.203,0.129 -0.312,0.187 -0.391,0.254 -0.789,0.489 -1.2,0.692 -0.128,0.07 -0.265,0.148 -0.39,0.226 -0.383,0.196 -0.762,0.391 -1.145,0.586 -0.164,0.079 -0.332,0.157 -0.496,0.243 -0.363,0.168 -0.715,0.324 -1.074,0.48 -0.207,0.098 -0.402,0.184 -0.617,0.273 -0.321,0.137 -0.645,0.262 -0.965,0.391 -0.266,0.098 -0.52,0.184 -0.762,0.281 -0.304,0.11 -0.586,0.207 -0.879,0.305 -0.293,0.086 -0.578,0.184 -0.879,0.273 -0.273,0.079 -0.546,0.145 -0.8,0.215 -0.325,0.106 -0.645,0.196 -0.969,0.274 -0.262,0.058 -0.516,0.117 -0.77,0.183 -0.343,0.071 -0.675,0.157 -1.007,0.215 -0.274,0.051 -0.547,0.098 -0.809,0.149 -0.324,0.058 -0.645,0.117 -0.977,0.156 -0.312,0.058 -0.625,0.086 -0.937,0.125 -0.285,0.031 -0.578,0.07 -0.859,0.109 -0.442,0.039 -0.872,0.067 -1.309,0.098 -0.168,0 -0.332,0.019 -0.5,0.027 -1.25,0.071 -2.5,0.071 -3.738,0 -0.188,-0.008 -0.364,-0.027 -0.539,-0.039 -0.43,-0.019 -0.86,-0.047 -1.278,-0.086 -0.293,-0.039 -0.597,-0.078 -0.879,-0.109 -0.312,-0.039 -0.605,-0.067 -0.918,-0.125 -0.343,-0.039 -0.675,-0.109 -1.007,-0.156 -0.262,-0.059 -0.528,-0.098 -0.782,-0.149 -0.351,-0.058 -0.683,-0.144 -1.043,-0.222 -0.234,-0.059 -0.488,-0.118 -0.722,-0.176 -0.344,-0.078 -0.684,-0.176 -1.016,-0.274 -0.254,-0.07 -0.5,-0.136 -0.754,-0.215 -0.312,-0.089 -0.613,-0.195 -0.926,-0.292 -0.273,-0.098 -0.547,-0.176 -0.82,-0.274 -0.273,-0.109 -0.547,-0.215 -0.82,-0.312 -0.313,-0.118 -0.617,-0.235 -0.91,-0.352 -0.235,-0.109 -0.469,-0.215 -0.704,-0.312 -0.32,-0.137 -0.652,-0.293 -0.976,-0.45 -0.203,-0.097 -0.391,-0.195 -0.586,-0.293 -0.352,-0.156 -0.711,-0.351 -1.063,-0.527 -0.175,-0.098 -0.324,-0.195 -0.488,-0.273 -0.371,-0.215 -0.734,-0.422 -1.105,-0.637 -0.137,-0.086 -0.282,-0.184 -0.438,-0.274 -0.371,-0.234 -0.722,-0.457 -1.086,-0.703 -0.156,-0.097 -0.281,-0.203 -0.429,-0.301 -0.352,-0.234 -0.711,-0.488 -1.043,-0.742 -0.168,-0.117 -0.325,-0.254 -0.489,-0.371 -0.312,-0.234 -0.636,-0.488 -0.929,-0.734 -0.215,-0.176 -0.418,-0.352 -0.633,-0.535 -0.246,-0.215 -0.508,-0.43 -0.754,-0.645 -0.399,-0.371 -0.781,-0.754 -1.16,-1.125 -0.059,-0.047 -0.11,-0.086 -0.156,-0.144 L 614.848,590.094 467.27,737.684 c -0.204,0.195 -0.411,0.379 -0.614,0.566 -0.234,0.234 -0.468,0.469 -0.703,0.684 -0.293,0.254 -0.578,0.507 -0.871,0.761 -0.184,0.137 -0.34,0.293 -0.508,0.43 -0.332,0.262 -0.664,0.527 -1.004,0.781 -0.136,0.106 -0.273,0.215 -0.41,0.332 -0.371,0.254 -0.722,0.508 -1.086,0.762 -0.136,0.098 -0.273,0.184 -0.39,0.273 -0.379,0.254 -0.75,0.489 -1.121,0.711 -0.137,0.09 -0.286,0.188 -0.43,0.274 -0.352,0.215 -0.723,0.422 -1.094,0.637 -0.168,0.078 -0.324,0.175 -0.5,0.273 -0.332,0.176 -0.672,0.352 -1.035,0.527 -0.203,0.098 -0.391,0.196 -0.606,0.293 -0.312,0.157 -0.632,0.293 -0.964,0.438 -0.235,0.109 -0.489,0.215 -0.723,0.324 -0.293,0.117 -0.578,0.223 -0.871,0.332 -0.293,0.117 -0.567,0.223 -0.86,0.332 -0.253,0.078 -0.515,0.176 -0.761,0.262 -0.321,0.109 -0.672,0.215 -0.996,0.304 -0.223,0.079 -0.45,0.137 -0.684,0.215 -0.359,0.086 -0.711,0.184 -1.074,0.282 -0.215,0.05 -0.438,0.109 -0.652,0.148 -0.372,0.086 -0.754,0.176 -1.125,0.254 -0.223,0.039 -0.45,0.078 -0.665,0.105 -0.378,0.071 -0.75,0.137 -1.121,0.188 -0.254,0.047 -0.507,0.078 -0.773,0.098 -0.332,0.058 -0.672,0.097 -1.024,0.136 -0.343,0.039 -0.683,0.039 -1.035,0.078 -0.265,0.02 -0.507,0.039 -0.773,0.047 -1.238,0.071 -2.469,0.071 -3.699,0 -0.254,-0.008 -0.52,-0.027 -0.782,-0.047 -0.343,-0.039 -0.683,-0.039 -1.035,-0.078 -0.343,-0.039 -0.676,-0.078 -1.027,-0.136 -0.242,-0.02 -0.508,-0.051 -0.77,-0.098 -0.371,-0.051 -0.742,-0.117 -1.125,-0.188 -0.203,-0.027 -0.418,-0.066 -0.652,-0.105 -0.383,-0.078 -0.762,-0.168 -1.125,-0.254 -0.215,-0.039 -0.43,-0.098 -0.644,-0.148 -0.372,-0.098 -0.731,-0.196 -1.083,-0.282 -0.226,-0.078 -0.468,-0.136 -0.695,-0.215 -0.32,-0.089 -0.652,-0.195 -0.984,-0.304 -0.254,-0.086 -0.52,-0.184 -0.754,-0.262 -0.301,-0.109 -0.586,-0.215 -0.867,-0.332 -0.305,-0.109 -0.586,-0.215 -0.871,-0.332 -0.254,-0.109 -0.489,-0.215 -0.723,-0.324 -0.32,-0.145 -0.664,-0.281 -0.965,-0.438 -0.207,-0.097 -0.41,-0.195 -0.605,-0.293 -0.352,-0.175 -0.703,-0.351 -1.047,-0.527 -0.164,-0.098 -0.34,-0.195 -0.496,-0.273 -0.371,-0.215 -0.735,-0.422 -1.094,-0.637 -0.149,-0.086 -0.285,-0.184 -0.43,-0.274 -0.371,-0.222 -0.734,-0.457 -1.105,-0.711 -0.145,-0.089 -0.262,-0.175 -0.41,-0.273 -0.352,-0.254 -0.711,-0.508 -1.075,-0.762 -0.136,-0.117 -0.273,-0.226 -0.418,-0.332 -0.343,-0.254 -0.675,-0.519 -1.007,-0.781 -0.157,-0.137 -0.321,-0.293 -0.496,-0.43 -0.286,-0.254 -0.586,-0.507 -0.872,-0.761 -0.234,-0.215 -0.476,-0.45 -0.703,-0.684 -0.215,-0.187 -0.418,-0.371 -0.605,-0.566 -0.215,-0.196 -0.391,-0.411 -0.586,-0.606 -0.223,-0.234 -0.449,-0.48 -0.664,-0.703 -0.262,-0.293 -0.516,-0.586 -0.762,-0.891 -0.156,-0.164 -0.301,-0.32 -0.43,-0.496 -0.273,-0.332 -0.527,-0.664 -0.789,-0.996 -0.109,-0.137 -0.226,-0.285 -0.324,-0.429 -0.273,-0.352 -0.515,-0.715 -0.769,-1.075 -0.098,-0.136 -0.188,-0.254 -0.274,-0.39 -0.254,-0.371 -0.48,-0.743 -0.715,-1.106 -0.086,-0.144 -0.175,-0.281 -0.261,-0.437 -0.227,-0.364 -0.43,-0.723 -0.637,-1.086 -0.086,-0.176 -0.184,-0.34 -0.274,-0.496 -0.183,-0.352 -0.351,-0.703 -0.535,-1.047 -0.097,-0.203 -0.195,-0.399 -0.293,-0.613 -0.156,-0.313 -0.293,-0.625 -0.441,-0.958 -0.106,-0.234 -0.215,-0.488 -0.313,-0.722 -0.125,-0.285 -0.234,-0.567 -0.339,-0.871 -0.11,-0.282 -0.227,-0.574 -0.325,-0.867 -0.097,-0.254 -0.175,-0.5 -0.261,-0.754 -0.11,-0.332 -0.227,-0.664 -0.325,-0.996 -0.058,-0.223 -0.125,-0.457 -0.183,-0.684 -0.11,-0.359 -0.215,-0.723 -0.305,-1.094 -0.047,-0.203 -0.098,-0.418 -0.144,-0.613 -0.09,-0.391 -0.176,-0.781 -0.246,-1.152 -0.047,-0.215 -0.067,-0.43 -0.118,-0.645 -0.058,-0.371 -0.136,-0.762 -0.195,-1.152 -0.027,-0.235 -0.059,-0.469 -0.098,-0.715 -0.039,-0.36 -0.086,-0.711 -0.125,-1.074 -0.019,-0.321 -0.05,-0.633 -0.07,-0.965 -0.019,-0.274 -0.047,-0.567 -0.059,-0.84 -0.039,-0.625 -0.046,-1.231 -0.046,-1.848 v -386.59 c 0,-20.566 16.66,-37.226 37.214,-37.226 20.567,0 37.227,16.66 37.227,37.226 v 277.696 l -46.18,64.871 46.18,-46.18 v 0.352 L 583.07,516.598 c 1.399,-2.137 3.02,-4.149 4.883,-6.035 14.543,-14.532 38.117,-14.52 52.637,0 l 14.68,14.679 96.257,96.27 45.852,45.828 -45.852,-64.383 V 324.773 c 0,-20.566 16.672,-37.226 37.219,-37.226 20.567,0 37.227,16.66 37.227,37.226 v 386.582 c 0,0.625 -0.02,1.231 -0.051,1.856"
             style="fill:#173520;fill-opacity:1;fill-rule:nonzero;stroke:none"
             id="path28"
             inkscape:connector-curvature="0" /><path
             d="m 1930.2,239.051 c -2.76,0 -5,2.234 -5,5 v 548.027 c 0,2.762 2.24,5 5,5 2.76,0 5,-2.238 5,-5 V 244.051 c 0,-2.766 -2.24,-5 -5,-5"
             style="fill:#1c6434;fill-opacity:1;fill-rule:nonzero;stroke:none"
             id="path30"
             inkscape:connector-curvature="0" /><path
             d="m 2239.2,474.527 -0.05,0.246 -0.05,0.235 c -6.58,27.265 -23.95,47.871 -51.66,61.211 -23.32,11.258 -50.1,15.722 -73.18,18.601 l -0.18,0.032 -0.21,0.007 c -18.27,1.711 -34.36,3.516 -46.32,8.399 -11.41,4.648 -16.6,11.074 -17.32,21.496 l -0.01,0.078 v 0.078 c -0.52,6.16 0,14.961 5.4,21.914 11.14,14.317 33.28,19.805 50.27,20.164 0.38,0 0.82,0.012 1.27,0.012 19.02,0 38.3,-6.418 47.31,-18.867 5.58,12.586 18.16,19.187 32.3,19.187 5.35,0 10.39,-1.336 14.84,-3.64 -2.45,0.488 -5,0.761 -7.62,0.761 -21.32,0 -38.6,-17.285 -38.6,-38.613 0,-3.144 0.42,-6.203 1.14,-9.14 0.01,-0.098 0.05,-0.176 0.06,-0.274 4.21,-16.758 19.34,-29.18 37.4,-29.18 20.6,0 37.4,16.161 38.5,36.485 0.6,5.144 0.62,10.527 0.13,15.867 -3.27,35.187 -20.08,58.879 -45.46,76.269 -21.59,14.817 -49.72,22.961 -79.17,22.961 -44.66,0 -86.79,-18.691 -109.97,-48.769 -15.44,-20.078 -22.72,-45.449 -20.51,-71.484 h 0.05 c 2.77,-34.758 18.79,-60.364 47.64,-76.086 24.03,-13.086 52.93,-17.481 80.59,-20.262 30.47,-3.047 58.1,-7.102 61.65,-22.832 0.74,-3.281 1.11,-6.184 1.11,-8.547 0,-19.832 -23.53,-41.219 -61.5,-41.219 -13.79,0 -28.59,3.809 -39.6,10.164 -3.56,2.063 -7.08,5.469 -10.33,9.973 -6.84,-12.774 -20.31,-21.465 -35.82,-21.465 -5.01,0 -9.76,0.957 -14.19,2.598 2.09,-0.352 4.21,-0.567 6.39,-0.567 18.33,0 33.63,12.793 37.59,29.91 v 0 c 0.31,1.34 0.55,2.727 0.72,4.122 0,0.07 0.01,0.128 0.03,0.187 0.17,1.445 0.25,2.91 0.25,4.383 0,21.32 -17.27,38.605 -38.59,38.605 -1.12,0 -2.23,-0.078 -3.32,-0.175 -1.03,-0.098 -2.06,-0.235 -3.07,-0.403 v 0 c -18.26,-3.035 -32.2,-18.886 -32.2,-38.027 0,-0.789 0.07,-1.582 0.11,-2.371 -0.81,-11.172 1.34,-43.613 44.66,-81.367 21.33,-18.606 57.66,-27.871 86.89,-27.871 66.46,0 135.22,42.285 135.22,113.046 0,7.09 -0.94,15.899 -2.59,24.168"
             style="fill:#1c6434;fill-opacity:1;fill-rule:nonzero;stroke:none"
             id="path32"
             inkscape:connector-curvature="0" /></g></g></g></g></svg>