<?xml version="1.0" encoding="UTF-8" standalone="no"?>
<svg
   xmlns:dc="http://purl.org/dc/elements/1.1/"
   xmlns:cc="http://creativecommons.org/ns#"
   xmlns:rdf="http://www.w3.org/1999/02/22-rdf-syntax-ns#"
   xmlns:svg="http://www.w3.org/2000/svg"
   xmlns="http://www.w3.org/2000/svg"
   viewBox="0 0 336 322.49332"
   height="322.49332"
   width="336"
   xml:space="preserve"
   id="svg2"
   version="1.1"><metadata
     id="metadata8"><rdf:RDF><cc:Work
         rdf:about=""><dc:format>image/svg+xml</dc:format><dc:type
           rdf:resource="http://purl.org/dc/dcmitype/StillImage" /></cc:Work></rdf:RDF></metadata><defs
     id="defs6"><clipPath
       id="clipPath20"
       clipPathUnits="userSpaceOnUse"><path
         id="path18"
         d="M 0,2418.74 V 0 h 2520 v 2418.74 z" /></clipPath></defs><g
     transform="matrix(1.3333333,0,0,-1.3333333,0,322.49333)"
     id="g10"><g
       transform="scale(0.1)"
       id="g12"><g
         id="g14"><g
           clip-path="url(#clipPath20)"
           id="g16"><path
             id="path22"
             style="fill:#393536;fill-opacity:1;fill-rule:nonzero;stroke:none"
             d="M 1591.46,884.031 2304.43,1554.17 1516.3,213.891 Z M 974.641,640.711 1485.97,203.969 463.313,544.809 Z M 515.105,928.559 442.273,565.859 206.582,1291.26 Z m 1.34,738.821 -273.523,-293.77 547.051,765.8 z m 1072.165,1.83 -705.524,537.34 1411.064,-616.21 z m -3.26,-777.19 -721.373,209.23 1442.753,468.79 z M 859.59,1092.11 1581.25,882.781 1505.18,204.48 Z M 980.469,648.871 859.434,1075.34 1479.78,222.41 Z M 844.949,1089.73 969.766,649.969 454.863,553.379 Z M 524.922,926.629 830.332,1086.63 452.82,567.582 Z M 834.121,1099.91 521.711,936.238 209.285,1303.51 Z m -314.57,556.14 316.523,-546.26 -633.054,206.28 z m 322.414,-536.46 -315.695,544.8 315.695,544.8 z m 10,-8.51 V 2217.7 l 726.475,-553.31 z m 736.165,548.12 714.73,-79.9 -1429.481,-464.47 z m 742.61,-80.04 -4.31,2.54 2,4.57 -1479.465,646.1 -2,-4.58 -4.074,2.9 -652.942,-914.04 4.067,-2.91 -4.758,-1.54 249.402,-767.591 4.758,1.551 -1.582,-4.75 1065.294,-355.039 1.58,4.75 4.32,-2.543 817.71,1390.582" /></g></g></g></g></svg>