<?xml version="1.0" encoding="UTF-8"?>
<svg width="176.47" height="52.515" version="1.1" viewBox="0 0 176.47144 52.514531" xml:space="preserve" xmlns="http://www.w3.org/2000/svg" xmlns:cc="http://creativecommons.org/ns#" xmlns:dc="http://purl.org/dc/elements/1.1/" xmlns:rdf="http://www.w3.org/1999/02/22-rdf-syntax-ns#"><metadata><rdf:RDF><cc:Work rdf:about=""><dc:format>image/svg+xml</dc:format><dc:type rdf:resource="http://purl.org/dc/dcmitype/StillImage"/><dc:title/></cc:Work></rdf:RDF></metadata><g transform="matrix(.94279 0 0 -.94279 -35.865 75.444)"><g transform="scale(.1)"><path d="m1019.2 411.32c-58.964 0-106.75 47.774-106.75 106.74 0 58.964 47.789 106.74 106.75 106.74 58.95 0 106.75-47.774 106.75-106.74 0-58.965-47.8-106.74-106.75-106.74zm0 287.75c-99.984 0-181.03-81.035-181.03-181.02 0-99.981 81.047-181.02 181.03-181.02 99.96 0 181.03 81.035 181.03 181.02 0 99.98-81.07 181.02-181.03 181.02" fill="#3a132e"/><path d="m1393.5 411.32c-58.97 0-106.77 47.774-106.77 106.74 0 58.964 47.8 106.74 106.77 106.74 58.95 0 106.74-47.774 106.74-106.74 0-58.965-47.79-106.74-106.74-106.74zm0 287.75c-99.99 0-181.04-81.035-181.04-181.02 0-99.981 81.05-181.02 181.04-181.02 99.96 0 181.02 81.035 181.02 181.02 0 99.98-81.06 181.02-181.02 181.02" fill="#3a132e"/><path d="m1720.7 420.76h-58.72v0.488h-57.36l57.36 9.649v174.9l-57.36 9.648h105.97l0.02-0.078h10.09c63.45 0 95.56-48.945 95.56-97.5 0-48.554-32.11-97.109-95.56-97.109zm-5.61 275.96h-99.45c-15.95 0-28.85-12.91-28.85-28.848v-299.61c0-15.938 12.9-28.867 28.85-28.867h99.45c117.07 0 175.85 88.964 175.85 178.42 0 89.453-58.78 178.91-175.85 178.91" fill="#3a132e"/><path d="m825.93 713.22c-0.016 0.234-0.039 0.488-0.067 0.742-0.023 0.352-0.031 0.723-0.082 1.055-0.023 0.351-0.066 0.664-0.105 1.015-0.035 0.274-0.059 0.528-0.11 0.782-0.047 0.371-0.117 0.742-0.175 1.093-0.04 0.254-0.082 0.469-0.129 0.703-0.075 0.371-0.161 0.723-0.243 1.094-0.046 0.235-0.089 0.469-0.156 0.684-0.094 0.351-0.187 0.703-0.281 1.035-0.059 0.254-0.133 0.488-0.207 0.742-0.094 0.313-0.199 0.625-0.309 0.938-0.082 0.273-0.179 0.546-0.269 0.8-0.102 0.274-0.203 0.567-0.309 0.821-0.125 0.312-0.23 0.625-0.363 0.918-0.094 0.234-0.191 0.449-0.281 0.683-0.157 0.332-0.313 0.684-0.465 1.016-0.082 0.176-0.192 0.371-0.278 0.547-0.175 0.371-0.359 0.742-0.558 1.093-0.082 0.157-0.164 0.293-0.246 0.45-0.215 0.371-0.434 0.761-0.66 1.152-0.071 0.117-0.153 0.234-0.227 0.352-0.246 0.39-0.488 0.781-0.762 1.171-0.066 0.118-0.132 0.215-0.199 0.313-0.277 0.391-0.551 0.781-0.844 1.172-0.074 0.098-0.156 0.195-0.23 0.293-0.281 0.39-0.582 0.762-0.879 1.113-0.098 0.137-0.191 0.215-0.277 0.352-0.293 0.332-0.59 0.703-0.914 1.035-0.063 0.078-0.141 0.156-0.215 0.215-0.336 0.371-0.668 0.722-1.028 1.093-0.355 0.372-0.734 0.704-1.117 1.075-0.058 0.039-0.105 0.097-0.164 0.136-0.363 0.352-0.726 0.645-1.086 0.957-0.097 0.079-0.187 0.157-0.297 0.235-0.371 0.312-0.754 0.625-1.132 0.898-0.094 0.078-0.192 0.156-0.29 0.235-0.39 0.273-0.781 0.566-1.183 0.839-0.102 0.059-0.192 0.137-0.289 0.196-0.406 0.254-0.797 0.527-1.215 0.781-0.094 0.059-0.203 0.137-0.309 0.195-0.39 0.235-0.8 0.469-1.203 0.684-0.133 0.078-0.261 0.156-0.394 0.234-0.379 0.196-0.762 0.391-1.145 0.567-0.164 0.097-0.332 0.175-0.5 0.254-0.355 0.156-0.715 0.332-1.07 0.468-0.199 0.118-0.406 0.196-0.621 0.293-0.321 0.137-0.645 0.254-0.961 0.371-0.266 0.098-0.512 0.196-0.766 0.293-0.293 0.098-0.582 0.196-0.879 0.293-0.285 0.098-0.574 0.196-0.871 0.274-0.273 0.097-0.547 0.156-0.808 0.234-0.325 0.098-0.645 0.195-0.961 0.254-0.266 0.078-0.516 0.117-0.778 0.195-0.332 0.078-0.664 0.157-1.004 0.215-0.269 0.039-0.543 0.098-0.808 0.137-0.317 0.059-0.641 0.117-0.977 0.176-0.308 0.039-0.629 0.078-0.937 0.117-0.289 0.039-0.571 0.078-0.86 0.098-0.437 0.039-0.871 0.078-1.308 0.097-0.164 0.02-0.336 0.039-0.504 0.039-1.25 0.059-2.5 0.059-3.738 0-0.176 0-0.36-0.019-0.536-0.039-0.425-0.019-0.859-0.058-1.273-0.097-0.297-0.02-0.594-0.059-0.883-0.098-0.308-0.039-0.605-0.078-0.914-0.117-0.347-0.059-0.683-0.117-1.015-0.176-0.262-0.039-0.524-0.098-0.77-0.137-0.363-0.058-0.695-0.137-1.051-0.234-0.238-0.059-0.488-0.098-0.726-0.156-0.332-0.079-0.68-0.176-1.012-0.293-0.25-0.059-0.504-0.118-0.75-0.215-0.309-0.078-0.621-0.176-0.93-0.274-0.273-0.117-0.547-0.195-0.82-0.273-0.273-0.117-0.551-0.215-0.824-0.313-0.309-0.117-0.606-0.234-0.907-0.371-0.238-0.097-0.46-0.215-0.703-0.293-0.32-0.156-0.652-0.312-0.972-0.468-0.203-0.079-0.395-0.176-0.582-0.274-0.364-0.176-0.719-0.351-1.075-0.547-0.168-0.078-0.324-0.176-0.488-0.273-0.371-0.215-0.726-0.41-1.094-0.625-0.148-0.098-0.289-0.195-0.441-0.274-0.371-0.234-0.727-0.468-1.082-0.703-0.156-0.097-0.289-0.195-0.43-0.293-0.355-0.234-0.715-0.488-1.05-0.761-0.168-0.118-0.325-0.235-0.489-0.372-0.308-0.234-0.629-0.488-0.929-0.722-0.211-0.176-0.415-0.352-0.629-0.547-0.254-0.215-0.512-0.41-0.75-0.645-0.407-0.371-0.786-0.742-1.168-1.113-0.059-0.058-0.11-0.098-0.157-0.137l-147.59-147.6-147.58 147.6c-0.199 0.176-0.402 0.372-0.617 0.567-0.226 0.234-0.465 0.469-0.703 0.683-0.285 0.254-0.57 0.489-0.871 0.762-0.176 0.117-0.332 0.274-0.496 0.43-0.332 0.254-0.668 0.527-1.016 0.762-0.129 0.117-0.273 0.234-0.402 0.332-0.371 0.273-0.727 0.527-1.082 0.761-0.148 0.098-0.273 0.196-0.398 0.274-0.379 0.254-0.75 0.488-1.118 0.722-0.144 0.098-0.289 0.176-0.429 0.274-0.356 0.215-0.727 0.41-1.094 0.625-0.164 0.097-0.32 0.195-0.5 0.273-0.332 0.196-0.68 0.371-1.035 0.528-0.203 0.117-0.399 0.214-0.61 0.293-0.308 0.156-0.632 0.312-0.964 0.449-0.239 0.097-0.489 0.215-0.727 0.312-0.285 0.137-0.57 0.235-0.871 0.352-0.281 0.117-0.555 0.215-0.856 0.332-0.254 0.078-0.511 0.156-0.765 0.254-0.317 0.117-0.664 0.215-0.985 0.312-0.226 0.078-0.457 0.137-0.687 0.196-0.359 0.097-0.719 0.195-1.074 0.293-0.215 0.058-0.442 0.097-0.657 0.156-0.371 0.078-0.753 0.156-1.117 0.234-0.23 0.039-0.457 0.078-0.672 0.117-0.379 0.079-0.746 0.137-1.117 0.196-0.262 0.039-0.512 0.078-0.773 0.097-0.332 0.039-0.68 0.098-1.024 0.118-0.343 0.039-0.691 0.058-1.039 0.078-0.258 0.019-0.511 0.058-0.769 0.058-1.242 0.059-2.469 0.059-3.707 0-0.25 0-0.512-0.039-0.774-0.058-0.344-0.02-0.691-0.039-1.035-0.078-0.348-0.02-0.684-0.079-1.023-0.118-0.25-0.019-0.512-0.058-0.778-0.097-0.367-0.059-0.738-0.117-1.117-0.196-0.215-0.039-0.43-0.078-0.656-0.117-0.379-0.078-0.762-0.156-1.133-0.234-0.215-0.059-0.43-0.098-0.644-0.156-0.368-0.098-0.723-0.196-1.083-0.293-0.226-0.059-0.464-0.118-0.687-0.196-0.324-0.097-0.656-0.195-0.988-0.312-0.254-0.098-0.512-0.176-0.75-0.254-0.301-0.117-0.582-0.215-0.871-0.332-0.297-0.117-0.586-0.215-0.871-0.352-0.247-0.097-0.489-0.215-0.727-0.312-0.32-0.137-0.652-0.293-0.965-0.449-0.199-0.079-0.402-0.176-0.605-0.293-0.348-0.157-0.703-0.332-1.036-0.528-0.167-0.078-0.347-0.176-0.5-0.273-0.371-0.215-0.742-0.41-1.097-0.625-0.141-0.098-0.281-0.176-0.43-0.274-0.367-0.234-0.738-0.468-1.109-0.722-0.141-0.078-0.258-0.176-0.399-0.274-0.363-0.234-0.718-0.488-1.074-0.761-0.141-0.098-0.273-0.215-0.43-0.332-0.332-0.235-0.664-0.508-1.003-0.762-0.149-0.156-0.317-0.313-0.497-0.43-0.289-0.273-0.582-0.508-0.871-0.762-0.238-0.214-0.476-0.449-0.703-0.683-0.215-0.195-0.414-0.391-0.601-0.567-0.215-0.214-0.399-0.429-0.586-0.605-0.227-0.254-0.457-0.488-0.672-0.723-0.258-0.293-0.508-0.586-0.762-0.879-0.148-0.175-0.293-0.332-0.426-0.488-0.277-0.332-0.523-0.664-0.785-0.996-0.105-0.156-0.226-0.293-0.32-0.43-0.274-0.371-0.527-0.722-0.777-1.074-0.094-0.137-0.192-0.273-0.274-0.41-0.25-0.352-0.473-0.742-0.715-1.094-0.082-0.137-0.179-0.293-0.261-0.449-0.223-0.352-0.43-0.703-0.629-1.074-0.098-0.176-0.192-0.332-0.274-0.508-0.191-0.332-0.355-0.703-0.539-1.035-0.105-0.215-0.199-0.41-0.297-0.606-0.156-0.312-0.297-0.644-0.437-0.957-0.11-0.234-0.215-0.488-0.317-0.742-0.125-0.273-0.23-0.566-0.34-0.859-0.109-0.293-0.23-0.567-0.324-0.86-0.093-0.254-0.179-0.507-0.261-0.761-0.11-0.332-0.223-0.664-0.325-0.996-0.054-0.235-0.129-0.45-0.187-0.684-0.11-0.352-0.215-0.723-0.297-1.094-0.047-0.195-0.094-0.41-0.145-0.625-0.097-0.371-0.175-0.762-0.25-1.152-0.046-0.215-0.07-0.43-0.121-0.625-0.058-0.391-0.125-0.781-0.183-1.152-0.039-0.235-0.067-0.489-0.098-0.723-0.051-0.352-0.098-0.703-0.133-1.074-0.023-0.313-0.051-0.645-0.074-0.957-8e-3 -0.293-0.043-0.567-0.059-0.86-0.035-0.605-0.046-1.23-0.046-1.836v-386.6c0-20.547 16.664-37.227 37.214-37.227 20.567 0 37.235 16.68 37.235 37.227v277.72l-46.188 64.863 46.188-46.172v0.332l104.91-104.9c1.391-2.129 3.012-4.16 4.883-6.035 14.539-14.532 38.105-14.532 52.637 0l14.671 14.667 96.258 96.27 45.852 45.84-45.852-64.395v-278.18c0-20.547 16.676-37.227 37.219-37.227 20.566 0 37.227 16.68 37.227 37.227v386.58c0 0.625-0.024 1.25-0.043 1.875" fill="#3a132e"/><path d="m1935.2 244.06h-10v548.01h10v-548.01" fill="#b2127a"/><path d="m2239.2 474.53-0.04 0.235-0.07 0.234c-6.57 27.285-23.94 47.891-51.63 61.231-23.34 11.25-50.1 15.703-73.19 18.593l-0.19 0.039h-0.2c-18.27 1.719-34.35 3.516-46.31 8.399-11.43 4.648-16.61 11.074-17.34 21.504l-0.01 0.078v0.078c-0.51 6.152 0 14.961 5.41 21.914 11.14 14.316 33.27 19.805 50.26 20.156h1.28c19.01 0 38.3-6.406 47.32-18.867 5.57 12.598 18.15 19.199 32.28 19.199 5.36 0 10.4-1.328 14.85-3.632-2.46 0.488-5.01 0.761-7.62 0.761-21.32 0-38.61-17.304-38.61-38.613 0-3.164 0.43-6.211 1.14-9.141 0.02-0.097 0.05-0.195 0.08-0.293 4.2-16.738 19.32-29.16 37.39-29.16 20.59 0 37.39 16.153 38.49 36.485 0.61 5.136 0.61 10.507 0.13 15.859-3.27 35.176-20.08 58.867-45.46 76.269-21.59 14.805-49.7 22.95-79.16 22.95-44.66 0-86.8-18.672-109.98-48.75-15.43-20.078-22.71-45.45-20.51-71.504l0.05 0.019c2.78-34.765 18.81-60.371 47.64-76.093 24.03-13.086 52.93-17.481 80.59-20.274 30.47-3.047 58.1-7.09 61.65-22.812 0.75-3.301 1.12-6.192 1.12-8.555 0-19.844-23.52-41.231-61.51-41.231-13.79 0-28.58 3.809-39.58 10.176-3.56 2.071-7.1 5.469-10.34 9.961-6.85-12.754-20.32-21.445-35.83-21.445-5 0-9.76 0.937-14.18 2.598 2.08-0.352 4.2-0.586 6.39-0.586 18.32 0 33.64 12.793 37.58 29.921 0.3 1.348 0.55 2.735 0.73 4.122 0 0.058 0.02 0.136 0.02 0.195 0.17 1.445 0.27 2.891 0.27 4.375 0 21.328-17.29 38.594-38.6 38.594-1.13 0-2.22-0.059-3.31-0.157-1.04-0.097-2.06-0.234-3.08-0.41h0.01c-18.28-3.047-32.22-18.886-32.22-38.027 0-0.801 0.07-1.582 0.11-2.363-0.79-11.172 1.34-43.614 44.67-81.387 21.34-18.594 57.65-27.852 86.88-27.852 66.48 0 135.23 42.266 135.23 113.05 0 7.09-0.94 15.899-2.6 24.16" fill="#b2127a"/></g></g></svg>
