<svg xmlns="http://www.w3.org/2000/svg" xmlns:cc="http://creativecommons.org/ns#" xmlns:dc="http://purl.org/dc/elements/1.1/" xmlns:rdf="http://www.w3.org/1999/02/22-rdf-syntax-ns#" width="176.47" height="52.515" version="1.1" viewBox="0 0 176.47144 52.514531" xml:space="preserve"><metadata fill="#000000"><rdf:RDF fill="#000000"><cc:Work rdf:about="" fill="#000000"><dc:format fill="#000000">image/svg+xml</dc:format><dc:type rdf:resource="http://purl.org/dc/dcmitype/StillImage" fill="#000000"/><dc:title fill="#000000"/></cc:Work></rdf:RDF></metadata><defs fill="#000000"><clipPath id="a" fill="#000000"><path d="m0 0h2645.5v1036h-2645.5z" fill="#000000"/></clipPath></defs><g transform="matrix(.92191 0 0 -.92191 -34.649 74.566)"><g transform="scale(.1)"><g clip-path="url(#a)"><path d="m1019.2 411.32c-58.962 0-106.76 47.793-106.76 106.74 0 58.965 47.793 106.76 106.76 106.76 58.96 0 106.75-47.793 106.75-106.76 0-58.946-47.79-106.74-106.75-106.74zm0 287.77c-99.978 0-181.02-81.055-181.02-181.04 0-99.981 81.043-181.02 181.02-181.02 99.97 0 181.03 81.035 181.03 181.02 0 99.98-81.06 181.04-181.03 181.04" fill="#ffffff"/><path d="m1393.5 411.32c-58.96 0-106.75 47.793-106.75 106.74 0 58.965 47.79 106.76 106.75 106.76s106.76-47.793 106.76-106.76c0-58.946-47.8-106.74-106.76-106.74zm0 287.77c-99.98 0-181.02-81.055-181.02-181.04 0-99.981 81.04-181.02 181.02-181.02s181.02 81.035 181.02 181.02c0 99.98-81.04 181.04-181.02 181.04" fill="#ffffff"/><path d="m1720.7 420.75h-58.74v0.488h-57.36l57.36 9.649v174.9l-57.36 9.668h105.99v-0.098h10.11c63.44 0 95.55-48.945 95.55-97.5 0-48.554-32.11-97.109-95.55-97.109zm-5.63 275.96h-99.45c-15.93 0-28.85-12.91-28.85-28.828v-299.63c0-15.918 12.92-28.848 28.85-28.848h99.45c117.07 0 175.85 88.946 175.85 178.4s-58.78 178.91-175.85 178.91" fill="#ffffff"/><path d="m825.92 713.21c-8e-3 0.254-0.039 0.508-0.047 0.742-0.031 0.371-0.051 0.723-0.078 1.074-0.039 0.332-0.078 0.664-0.129 0.996-0.027 0.274-0.059 0.528-0.086 0.801-0.059 0.371-0.129 0.723-0.195 1.074-0.039 0.254-0.078 0.489-0.117 0.704-0.071 0.371-0.168 0.722-0.247 1.093-0.058 0.235-0.097 0.469-0.164 0.684-0.078 0.351-0.175 0.703-0.273 1.035-0.07 0.254-0.137 0.508-0.215 0.742-0.09 0.313-0.195 0.625-0.293 0.938-0.098 0.273-0.176 0.547-0.285 0.82-0.086 0.274-0.203 0.547-0.313 0.82-0.105 0.293-0.222 0.606-0.351 0.918-0.098 0.215-0.195 0.45-0.293 0.664-0.156 0.332-0.301 0.684-0.457 1.016-0.09 0.176-0.188 0.371-0.274 0.547-0.187 0.371-0.363 0.742-0.566 1.094-0.07 0.156-0.168 0.293-0.234 0.449-0.215 0.371-0.43 0.762-0.664 1.152-0.078 0.117-0.149 0.235-0.235 0.352-0.234 0.39-0.488 0.781-0.754 1.191-0.066 0.098-0.136 0.196-0.203 0.293-0.265 0.391-0.558 0.781-0.84 1.172-0.078 0.117-0.156 0.215-0.234 0.293-0.285 0.391-0.578 0.762-0.871 1.133-0.098 0.117-0.195 0.215-0.281 0.332-0.305 0.351-0.598 0.703-0.91 1.035-0.067 0.078-0.145 0.156-0.215 0.215-0.34 0.371-0.672 0.742-1.024 1.094-0.371 0.371-0.742 0.722-1.125 1.074-0.058 0.039-0.105 0.097-0.176 0.156-0.351 0.332-0.722 0.625-1.074 0.938-0.105 0.078-0.195 0.156-0.301 0.253-0.371 0.313-0.753 0.606-1.132 0.879-0.098 0.079-0.196 0.157-0.274 0.235-0.402 0.293-0.801 0.566-1.203 0.84-0.098 0.058-0.184 0.136-0.293 0.195-0.391 0.273-0.789 0.527-1.199 0.781-0.109 0.059-0.215 0.137-0.324 0.195-0.391 0.235-0.801 0.489-1.2 0.684-0.128 0.078-0.253 0.156-0.382 0.234-0.379 0.196-0.762 0.391-1.153 0.567-0.164 0.098-0.32 0.176-0.496 0.254-0.351 0.176-0.703 0.332-1.074 0.488-0.195 0.098-0.41 0.176-0.617 0.273-0.332 0.137-0.653 0.254-0.965 0.391-0.254 0.098-0.508 0.176-0.762 0.274-0.293 0.117-0.586 0.214-0.89 0.312-0.282 0.078-0.567 0.176-0.868 0.273-0.265 0.079-0.539 0.157-0.8 0.215-0.332 0.098-0.637 0.196-0.957 0.274-0.266 0.058-0.528 0.117-0.793 0.176-0.321 0.078-0.653 0.156-0.985 0.214-0.285 0.059-0.558 0.098-0.82 0.157-0.324 0.058-0.645 0.117-0.977 0.156-0.312 0.058-0.636 0.078-0.937 0.117-0.293 0.039-0.578 0.078-0.859 0.117-0.442 0.039-0.872 0.059-1.309 0.098-0.168 0-0.344 0.019-0.508 0.019-1.242 0.079-2.48 0.079-3.742 0-0.176 0-0.352-0.019-0.527-0.039-0.418-0.019-0.86-0.039-1.278-0.078-0.293-0.039-0.586-0.078-0.879-0.117-0.304-0.039-0.605-0.059-0.918-0.117-0.332-0.039-0.675-0.117-1.015-0.156-0.254-0.059-0.508-0.098-0.762-0.157-0.352-0.058-0.703-0.136-1.047-0.214-0.254-0.059-0.488-0.118-0.73-0.176-0.344-0.078-0.676-0.176-1.016-0.274-0.254-0.058-0.508-0.136-0.754-0.215-0.312-0.097-0.605-0.195-0.926-0.292-0.265-0.118-0.547-0.176-0.82-0.274-0.273-0.117-0.547-0.215-0.832-0.312-0.293-0.118-0.605-0.235-0.898-0.352-0.223-0.117-0.457-0.215-0.692-0.312-0.332-0.137-0.664-0.293-0.988-0.45-0.203-0.097-0.391-0.195-0.586-0.293-0.359-0.156-0.711-0.351-1.055-0.527-0.176-0.098-0.34-0.195-0.488-0.273l-1.113-0.645c-0.145-0.098-0.282-0.176-0.43-0.273-0.371-0.235-0.73-0.45-1.094-0.704-0.144-0.097-0.281-0.195-0.429-0.293-0.34-0.234-0.704-0.488-1.036-0.742-0.164-0.117-0.332-0.254-0.488-0.371-0.32-0.234-0.633-0.488-0.937-0.742-0.215-0.176-0.418-0.352-0.625-0.527-0.243-0.215-0.508-0.43-0.75-0.645-0.403-0.371-0.793-0.762-1.172-1.133-0.059-0.058-0.11-0.097-0.156-0.136l-147.58-147.6-147.59 147.6c-0.204 0.195-0.411 0.371-0.614 0.566-0.234 0.234-0.468 0.469-0.703 0.684-0.285 0.254-0.578 0.507-0.879 0.761-0.168 0.137-0.324 0.293-0.5 0.43-0.32 0.254-0.664 0.527-1.004 0.781-0.136 0.098-0.273 0.215-0.41 0.332-0.363 0.254-0.715 0.508-1.086 0.762-0.125 0.098-0.261 0.176-0.39 0.273-0.371 0.254-0.743 0.489-1.114 0.704-0.136 0.097-0.293 0.175-0.437 0.273-0.352 0.215-0.715 0.43-1.086 0.645-0.164 0.078-0.332 0.175-0.496 0.273-0.344 0.176-0.696 0.352-1.035 0.527-0.215 0.098-0.411 0.196-0.618 0.293-0.312 0.157-0.632 0.293-0.957 0.43-0.242 0.117-0.488 0.215-0.73 0.332-0.285 0.117-0.566 0.215-0.859 0.332s-0.579 0.215-0.872 0.332c-0.253 0.078-0.507 0.156-0.761 0.254-0.321 0.117-0.664 0.215-0.996 0.312-0.223 0.079-0.45 0.137-0.672 0.215-0.363 0.078-0.735 0.176-1.086 0.274-0.215 0.058-0.43 0.117-0.652 0.156-0.372 0.078-0.754 0.176-1.125 0.234-0.223 0.059-0.438 0.098-0.665 0.118-0.371 0.078-0.75 0.136-1.113 0.195-0.254 0.039-0.515 0.078-0.769 0.098-0.344 0.039-0.696 0.097-1.028 0.136-0.34 0.039-0.691 0.039-1.043 0.059-0.254 0.039-0.519 0.058-0.773 0.058-1.231 0.079-2.469 0.079-3.699 0-0.254 0-0.52-0.019-0.782-0.058-0.343-0.02-0.695-0.02-1.035-0.059-0.343-0.039-0.676-0.097-1.015-0.136-0.254-0.02-0.52-0.059-0.782-0.098-0.363-0.059-0.742-0.117-1.113-0.195-0.226-0.02-0.441-0.059-0.664-0.118-0.371-0.058-0.754-0.156-1.133-0.234-0.215-0.039-0.429-0.098-0.644-0.156-0.352-0.098-0.715-0.196-1.067-0.274-0.242-0.078-0.468-0.136-0.691-0.215-0.332-0.097-0.664-0.195-0.988-0.312-0.254-0.098-0.516-0.176-0.762-0.254-0.301-0.117-0.586-0.215-0.867-0.332-0.293-0.117-0.586-0.215-0.871-0.332-0.243-0.117-0.489-0.215-0.731-0.332-0.324-0.137-0.644-0.273-0.957-0.43-0.207-0.097-0.402-0.195-0.598-0.293-0.359-0.175-0.703-0.351-1.054-0.527-0.164-0.098-0.332-0.195-0.496-0.273-0.371-0.215-0.743-0.43-1.094-0.645-0.149-0.098-0.285-0.176-0.422-0.273-0.379-0.215-0.75-0.45-1.113-0.704-0.137-0.097-0.262-0.175-0.399-0.273-0.363-0.254-0.722-0.508-1.074-0.762-0.148-0.117-0.285-0.234-0.422-0.332-0.34-0.254-0.672-0.527-1.004-0.781-0.168-0.137-0.332-0.293-0.5-0.43-0.3-0.254-0.593-0.507-0.879-0.761-0.242-0.215-0.468-0.45-0.703-0.684-0.203-0.195-0.41-0.371-0.605-0.566-0.203-0.196-0.391-0.411-0.586-0.606-0.223-0.234-0.457-0.488-0.664-0.723-0.262-0.273-0.516-0.585-0.77-0.878-0.148-0.157-0.285-0.313-0.422-0.489-0.273-0.332-0.527-0.664-0.789-0.996-0.109-0.137-0.214-0.293-0.324-0.429-0.262-0.352-0.515-0.723-0.762-1.075-0.097-0.136-0.183-0.254-0.281-0.41-0.254-0.351-0.48-0.723-0.703-1.094-0.098-0.136-0.195-0.273-0.273-0.429-0.215-0.371-0.43-0.723-0.637-1.094-0.098-0.176-0.184-0.332-0.274-0.488-0.183-0.352-0.351-0.703-0.535-1.055-0.09-0.195-0.195-0.41-0.293-0.605-0.148-0.313-0.304-0.625-0.441-0.958-0.106-0.234-0.215-0.488-0.313-0.742-0.117-0.273-0.222-0.547-0.332-0.859-0.117-0.274-0.222-0.566-0.332-0.859-0.097-0.254-0.164-0.508-0.261-0.762-0.11-0.332-0.215-0.664-0.325-0.996-0.058-0.215-0.125-0.449-0.195-0.664-0.086-0.371-0.195-0.743-0.293-1.114-0.047-0.195-0.098-0.41-0.137-0.605-0.097-0.391-0.175-0.781-0.253-1.152-0.047-0.215-0.079-0.43-0.106-0.645-0.078-0.371-0.148-0.762-0.207-1.152-0.039-0.235-0.059-0.469-0.086-0.703-0.051-0.372-0.09-0.723-0.129-1.094-0.039-0.313-0.047-0.625-0.086-0.957-0.011-0.274-0.039-0.567-0.051-0.86-0.027-0.605-0.039-1.211-0.039-1.836v-386.6c0-20.547 16.661-37.207 37.219-37.207 20.547 0 37.227 16.66 37.227 37.207v277.72l-46.203 64.863 46.203-46.172v0.332l104.89-104.9c1.399-2.129 3.028-4.16 4.895-6.035 14.539-14.532 38.094-14.512 52.637 0l14.668 14.687 96.257 96.25 45.852 45.84-45.852-64.394v-278.18c0-20.547 16.68-37.207 37.227-37.207 20.559 0 37.219 16.66 37.219 37.207v386.58c0 0.644-0.012 1.25-0.051 1.875" fill="#ffffff"/><path d="m1930.2 239.05c-2.76 0-5 2.226-5 5v548.03c0 2.754 2.24 5 5 5s5-2.246 5-5v-548.03c0-2.774-2.24-5-5-5" fill="#51ade5"/><path d="m2239.2 474.52-0.05 0.253-0.06 0.235c-6.57 27.265-23.95 47.871-51.64 61.211-23.33 11.25-50.11 15.722-73.2 18.594l-0.18 0.039h-0.2c-18.27 1.718-34.35 3.515-46.32 8.398-11.43 4.648-16.6 11.074-17.33 21.504v0.078l-0.02 0.078c-0.51 6.153 0.02 14.961 5.42 21.914 11.13 14.317 33.27 19.805 50.26 20.156h1.28c19.02 0 38.29-6.406 47.31-18.847 5.57 12.578 18.16 19.18 32.29 19.18 5.35 0 10.4-1.329 14.85-3.633-2.47 0.488-5.02 0.761-7.63 0.761-21.32 0-38.59-17.285-38.59-38.613 0-3.144 0.42-6.211 1.13-9.14 0.02-0.098 0.05-0.176 0.07-0.274 4.21-16.758 19.32-29.18 37.39-29.18 20.6 0 37.4 16.153 38.5 36.485 0.6 5.136 0.62 10.527 0.12 15.859-3.26 35.195-20.08 58.867-45.45 76.27-21.59 14.824-49.71 22.968-79.17 22.968-44.65 0-86.78-18.691-109.96-48.769-15.45-20.078-22.72-45.449-20.52-71.484h0.04c2.8-34.766 18.81-60.372 47.64-76.094 24.04-13.086 52.94-17.481 80.6-20.254 30.47-3.047 58.1-7.11 61.66-22.832 0.74-3.281 1.1-6.192 1.1-8.555 0-19.824-23.52-41.211-61.49-41.211-13.79 0-28.6 3.809-39.6 10.156-3.56 2.071-7.08 5.469-10.34 9.981-6.84-12.774-20.31-21.465-35.82-21.465-5 0-9.75 0.957-14.19 2.598 2.08-0.352 4.2-0.567 6.39-0.567 18.32 0 33.64 12.793 37.58 29.903 0.31 1.347 0.56 2.734 0.73 4.121 0.01 0.058 0.02 0.136 0.02 0.195 0.19 1.445 0.27 2.891 0.27 4.375 0 21.328-17.28 38.613-38.6 38.613-1.11 0-2.22-0.078-3.31-0.175-1.03-0.098-2.06-0.235-3.08-0.411h0.01c-18.28-3.046-32.22-18.886-32.22-38.027 0-0.781 0.08-1.582 0.11-2.363-0.79-11.172 1.35-43.613 44.67-81.367 21.34-18.614 57.66-27.871 86.9-27.871 66.46 0 135.21 42.285 135.21 113.05 0 7.09-0.94 15.899-2.58 24.161" fill="#51ade5"/></g></g></g></svg>