<?xml version="1.0" encoding="UTF-8" standalone="no"?>
<svg
   xmlns:dc="http://purl.org/dc/elements/1.1/"
   xmlns:cc="http://creativecommons.org/ns#"
   xmlns:rdf="http://www.w3.org/1999/02/22-rdf-syntax-ns#"
   xmlns:svg="http://www.w3.org/2000/svg"
   xmlns="http://www.w3.org/2000/svg"
   viewBox="0 0 336 322.49332"
   height="322.49332"
   width="336"
   xml:space="preserve"
   id="svg2"
   version="1.1"><metadata
     id="metadata8"><rdf:RDF><cc:Work
         rdf:about=""><dc:format>image/svg+xml</dc:format><dc:type
           rdf:resource="http://purl.org/dc/dcmitype/StillImage" /></cc:Work></rdf:RDF></metadata><defs
     id="defs6"><clipPath
       id="clipPath20"
       clipPathUnits="userSpaceOnUse"><path
         id="path18"
         d="M 1105,1259.32 2227.17,1623.95 1105,2114 Z" /></clipPath><linearGradient
       id="linearGradient26"
       spreadMethod="pad"
       gradientTransform="matrix(-1774.77,490.103,490.103,1774.77,2909.99,1188.21)"
       gradientUnits="userSpaceOnUse"
       y2="0"
       x2="1"
       y1="0"
       x1="0"><stop
         id="stop22"
         offset="0"
         style="stop-opacity:1;stop-color:#ec008c" /><stop
         id="stop24"
         offset="1"
         style="stop-opacity:1;stop-color:#ef84c8" /></linearGradient><clipPath
       id="clipPath36"
       clipPathUnits="userSpaceOnUse"><path
         id="path34"
         d="M 0,2418.73 V 0 h 2520 v 2418.73 z" /></clipPath><clipPath
       id="clipPath48"
       clipPathUnits="userSpaceOnUse"><path
         id="path46"
         d="M 1105,1259.32 2227.17,1623.95 1798.54,304.73 Z" /></clipPath><linearGradient
       id="linearGradient54"
       spreadMethod="pad"
       gradientTransform="matrix(-1017.84,472.499,472.499,1017.84,2113.47,917.63)"
       gradientUnits="userSpaceOnUse"
       y2="0"
       x2="1"
       y1="0"
       x1="0"><stop
         id="stop50"
         offset="0"
         style="stop-opacity:1;stop-color:#ec008c" /><stop
         id="stop52"
         offset="1"
         style="stop-opacity:1;stop-color:#b2127a" /></linearGradient><clipPath
       id="clipPath64"
       clipPathUnits="userSpaceOnUse"><path
         id="path62"
         d="M 0,2418.73 V 0 h 2520 v 2418.73 z" /></clipPath><clipPath
       id="clipPath78"
       clipPathUnits="userSpaceOnUse"><path
         id="path76"
         d="m 1105,1259.32 -812.168,264.61 406.086,165.58 z" /></clipPath><linearGradient
       id="linearGradient86"
       spreadMethod="pad"
       gradientTransform="matrix(106.134,270.336,270.336,-106.134,681.084,1346.18)"
       gradientUnits="userSpaceOnUse"
       y2="0"
       x2="1"
       y1="0"
       x1="0"><stop
         id="stop80"
         offset="0"
         style="stop-opacity:1;stop-color:#cc1091" /><stop
         id="stop82"
         offset="0.509017"
         style="stop-opacity:1;stop-color:#e156b3" /><stop
         id="stop84"
         offset="1"
         style="stop-opacity:1;stop-color:#ef84c8" /></linearGradient><clipPath
       id="clipPath96"
       clipPathUnits="userSpaceOnUse"><path
         id="path94"
         d="M 1105,1259.32 V 2114 L 698.918,1689.51 Z" /></clipPath><linearGradient
       id="linearGradient104"
       spreadMethod="pad"
       gradientTransform="matrix(279.088,710.874,710.874,-279.088,833.271,1299.45)"
       gradientUnits="userSpaceOnUse"
       y2="0"
       x2="1"
       y1="0"
       x1="0"><stop
         id="stop98"
         offset="0"
         style="stop-opacity:1;stop-color:#cc1091" /><stop
         id="stop100"
         offset="0.509017"
         style="stop-opacity:1;stop-color:#e156b3" /><stop
         id="stop102"
         offset="1"
         style="stop-opacity:1;stop-color:#ef84c8" /></linearGradient><clipPath
       id="clipPath114"
       clipPathUnits="userSpaceOnUse"><path
         id="path112"
         d="M 1105,1259.32 798.895,838.48 1798.54,304.73 Z" /></clipPath><linearGradient
       id="linearGradient120"
       spreadMethod="pad"
       gradientTransform="matrix(445.836,-1231.62,-1231.62,-445.836,973.433,1470.2)"
       gradientUnits="userSpaceOnUse"
       y2="0"
       x2="1"
       y1="0"
       x1="0"><stop
         id="stop116"
         offset="0"
         style="stop-opacity:1;stop-color:#771b65" /><stop
         id="stop118"
         offset="1"
         style="stop-opacity:1;stop-color:#b2127a" /></linearGradient><clipPath
       id="clipPath130"
       clipPathUnits="userSpaceOnUse"><path
         id="path128"
         d="M 0,2418.73 V 0 h 2520 v 2418.73 z" /></clipPath><clipPath
       id="clipPath142"
       clipPathUnits="userSpaceOnUse"><path
         id="path140"
         d="M 1105,1259.32 798.895,838.48 292.832,1523.93 Z" /></clipPath><linearGradient
       id="linearGradient148"
       spreadMethod="pad"
       gradientTransform="matrix(511.217,631.086,631.086,-511.217,576.895,1219.49)"
       gradientUnits="userSpaceOnUse"
       y2="0"
       x2="1"
       y1="0"
       x1="0"><stop
         id="stop144"
         offset="0"
         style="stop-opacity:1;stop-color:#771b65" /><stop
         id="stop146"
         offset="1"
         style="stop-opacity:1;stop-color:#cc1091" /></linearGradient><clipPath
       id="clipPath158"
       clipPathUnits="userSpaceOnUse"><path
         id="path156"
         d="M 0,2418.73 V 0 h 2520 v 2418.73 z" /></clipPath></defs><g
     transform="matrix(1.3333333,0,0,-1.3333333,0,322.49333)"
     id="g10"><g
       transform="scale(0.1)"
       id="g12"><g
         id="g14"><g
           clip-path="url(#clipPath20)"
           id="g16"><path
             id="path28"
             style="fill:url(#linearGradient26);fill-opacity:1;fill-rule:nonzero;stroke:none"
             d="M 1105,1259.32 2227.17,1623.95 1105,2114 v -854.68" /></g></g><g
         id="g30"><g
           clip-path="url(#clipPath36)"
           id="g32"><path
             id="path38"
             style="fill:#ef85c8;fill-opacity:1;fill-rule:nonzero;stroke:none"
             d="M 1666.08,1683.42 2227.17,1623.95 1105,2114 1666.08,1683.42" /><path
             id="path40"
             style="fill:#ec008c;fill-opacity:1;fill-rule:nonzero;stroke:none"
             d="m 1666.08,1683.42 561.09,-59.47 -1122.17,-364.63 561.08,424.1" /></g></g><g
         id="g42"><g
           clip-path="url(#clipPath48)"
           id="g44"><path
             id="path56"
             style="fill:url(#linearGradient54);fill-opacity:1;fill-rule:nonzero;stroke:none"
             d="M 1105,1259.32 2227.17,1623.95 1798.54,304.73 1105,1259.32" /></g></g><g
         id="g58"><g
           clip-path="url(#clipPath64)"
           id="g60"><path
             id="path66"
             style="fill:#cc1091;fill-opacity:1;fill-rule:nonzero;stroke:none"
             d="M 1105,1259.32 2227.17,1623.95 1666.08,964.34 1105,1259.32" /><path
             id="path68"
             style="fill:#b2127a;fill-opacity:1;fill-rule:nonzero;stroke:none"
             d="M 1798.54,304.73 2227.17,1623.95 1666.08,964.34 1798.54,304.73" /><path
             id="path70"
             style="fill:#cc1091;fill-opacity:1;fill-rule:nonzero;stroke:none"
             d="M 1105,1259.32 292.832,1523.93 1105,2114 v -854.68" /></g></g><g
         id="g72"><g
           clip-path="url(#clipPath78)"
           id="g74"><path
             id="path88"
             style="fill:url(#linearGradient86);fill-opacity:1;fill-rule:nonzero;stroke:none"
             d="M 1105,1259.32 292.832,1523.93 698.918,1689.51 1105,1259.32" /></g></g><g
         id="g90"><g
           clip-path="url(#clipPath96)"
           id="g92"><path
             id="path106"
             style="fill:url(#linearGradient104);fill-opacity:1;fill-rule:nonzero;stroke:none"
             d="M 1105,1259.32 V 2114 L 698.918,1689.51 1105,1259.32" /></g></g><g
         id="g108"><g
           clip-path="url(#clipPath114)"
           id="g110"><path
             id="path122"
             style="fill:url(#linearGradient120);fill-opacity:1;fill-rule:nonzero;stroke:none"
             d="M 1105,1259.32 798.895,838.48 1798.54,304.73 1105,1259.32" /></g></g><g
         id="g124"><g
           clip-path="url(#clipPath130)"
           id="g126"><path
             id="path132"
             style="fill:#b2127a;fill-opacity:1;fill-rule:nonzero;stroke:none"
             d="M 1105,1259.32 1298.72,782.012 1798.54,304.73 1105,1259.32" /><path
             id="path134"
             style="fill:#771b65;fill-opacity:1;fill-rule:nonzero;stroke:none"
             d="M 798.895,838.48 1298.72,782.012 1798.54,304.73 798.895,838.48" /></g></g><g
         id="g136"><g
           clip-path="url(#clipPath142)"
           id="g138"><path
             id="path150"
             style="fill:url(#linearGradient148);fill-opacity:1;fill-rule:nonzero;stroke:none"
             d="M 1105,1259.32 798.895,838.48 292.832,1523.93 1105,1259.32" /></g></g><g
         id="g152"><g
           clip-path="url(#clipPath158)"
           id="g154"><path
             id="path160"
             style="fill:#771b65;fill-opacity:1;fill-rule:nonzero;stroke:none"
             d="M 1105,1259.32 798.895,838.48 698.918,1181.21 1105,1259.32" /><path
             id="path162"
             style="fill:#b2127a;fill-opacity:1;fill-rule:nonzero;stroke:none"
             d="M 292.832,1523.93 798.895,838.48 698.918,1181.21 292.832,1523.93" /><path
             id="path164"
             style="fill:#ec008c;fill-opacity:1;fill-rule:nonzero;stroke:none"
             d="m 718.375,1686.66 c 0,-10.74 -8.711,-19.45 -19.457,-19.45 -10.75,0 -19.465,8.71 -19.465,19.45 0,10.74 8.715,19.45 19.465,19.45 10.746,0 19.457,-8.71 19.457,-19.45" /><path
             id="path166"
             style="fill:#cc1091;fill-opacity:1;fill-rule:nonzero;stroke:none"
             d="m 1685.55,1683.42 c 0,-10.76 -8.72,-19.47 -19.47,-19.47 -10.74,0 -19.45,8.71 -19.45,19.47 0,10.74 8.71,19.45 19.45,19.45 10.75,0 19.47,-8.71 19.47,-19.45" /><path
             id="path168"
             style="fill:#771b65;fill-opacity:1;fill-rule:nonzero;stroke:none"
             d="m 1685.55,964.34 c 0,-10.75 -8.72,-19.461 -19.47,-19.461 -10.74,0 -19.45,8.711 -19.45,19.461 0,10.738 8.71,19.449 19.45,19.449 10.75,0 19.47,-8.711 19.47,-19.449" /><path
             id="path170"
             style="fill:#5b184d;fill-opacity:1;fill-rule:nonzero;stroke:none"
             d="m 1318.18,782.012 c 0,-10.742 -8.71,-19.453 -19.46,-19.453 -10.76,0 -19.46,8.711 -19.46,19.453 0,10.758 8.7,19.468 19.46,19.468 10.75,0 19.46,-8.71 19.46,-19.468" /><path
             id="path172"
             style="fill:#5b184d;fill-opacity:1;fill-rule:nonzero;stroke:none"
             d="m 718.375,1181.21 c 0,-10.76 -8.711,-19.47 -19.457,-19.47 -10.75,0 -19.465,8.71 -19.465,19.47 0,10.74 8.715,19.45 19.465,19.45 10.746,0 19.457,-8.71 19.457,-19.45" /><path
             id="path174"
             style="fill:#5b184d;fill-opacity:1;fill-rule:nonzero;stroke:none"
             d="m 1144.89,1259.32 c 0,-20.2 -16.37,-36.57 -36.57,-36.57 -20.19,0 -36.57,16.37 -36.57,36.57 0,20.19 16.38,36.56 36.57,36.56 20.2,0 36.57,-16.37 36.57,-36.56" /></g></g></g></g></svg>