<?xml version="1.0" encoding="UTF-8" standalone="no"?>
<svg
   xmlns:dc="http://purl.org/dc/elements/1.1/"
   xmlns:cc="http://creativecommons.org/ns#"
   xmlns:rdf="http://www.w3.org/1999/02/22-rdf-syntax-ns#"
   xmlns:svg="http://www.w3.org/2000/svg"
   xmlns="http://www.w3.org/2000/svg"
   viewBox="0 0 336 322.49332"
   height="322.49332"
   width="336"
   xml:space="preserve"
   id="svg2"
   version="1.1"><metadata
     id="metadata8"><rdf:RDF><cc:Work
         rdf:about=""><dc:format>image/svg+xml</dc:format><dc:type
           rdf:resource="http://purl.org/dc/dcmitype/StillImage" /></cc:Work></rdf:RDF></metadata><defs
     id="defs6"><clipPath
       id="clipPath20"
       clipPathUnits="userSpaceOnUse"><path
         id="path18"
         d="M 0,2418.73 V 0 h 2520 v 2418.73 z" /></clipPath></defs><g
     transform="matrix(1.3333333,0,0,-1.3333333,0,322.49333)"
     id="g10"><g
       transform="scale(0.1)"
       id="g12"><g
         id="g14"><g
           clip-path="url(#clipPath20)"
           id="g16"><path
             id="path22"
             style="fill:#393536;fill-opacity:1;fill-rule:nonzero;stroke:none"
             d="M 1585.47,1105.55 2284.86,1762.93 1511.74,448.18 Z M 979.855,866.641 1481.41,438.262 478.301,772.578 Z M 528.691,1149.3 457.266,793.629 226.145,1504.94 Z m 2.5,510.78 -282.128,-113.05 564.238,409.94 z m 1050.169,0.97 -694.329,322.49 1388.659,-193.77 z m -2,-547.52 -707.797,205.34 1415.597,459.92 z M 867.18,1309.71 1575.26,1104.3 1500.62,438.77 Z M 985.684,874.801 867.02,1292.93 1475.21,456.699 Z M 852.539,1307.34 974.98,875.898 469.855,781.148 Z M 538.508,1147.36 837.922,1304.24 467.813,795.352 Z m 303.203,170.16 -306.418,-160.55 -306.438,360.24 z m -308.93,332.42 304.532,-320.47 -609.083,198.46 z m 316.762,-318.83 -308.574,324.73 308.574,324.75 z m 10,-4.68 v 658.84 l 709.297,-329.43 z m 722.697,324.62 650.53,120.59 -1301.071,-422.73 z m 728.93,136.86 -4.3,2.54 0.69,4.96 -1452.326,202.66 -0.691,-4.96 -2.941,4.04 -640.957,-465.67 2.941,-4.04 -4.758,-1.54 244.824,-753.521 4.754,1.551 -1.582,-4.75 1045.746,-348.52 1.58,4.75 4.31,-2.539 802.71,1365.039" /></g></g></g></g></svg>