<?xml version="1.0" encoding="UTF-8" standalone="no"?>
<svg
   xmlns:dc="http://purl.org/dc/elements/1.1/"
   xmlns:cc="http://creativecommons.org/ns#"
   xmlns:rdf="http://www.w3.org/1999/02/22-rdf-syntax-ns#"
   xmlns:svg="http://www.w3.org/2000/svg"
   xmlns="http://www.w3.org/2000/svg"
   xmlns:sodipodi="http://sodipodi.sourceforge.net/DTD/sodipodi-0.dtd"
   xmlns:inkscape="http://www.inkscape.org/namespaces/inkscape"
   viewBox="0 0 176.47144 52.514531"
   height="52.51453"
   width="176.47144"
   xml:space="preserve"
   id="svg2"
   version="1.1"
   sodipodi:docname="moods-top-red.svg"
   inkscape:version="0.92.2 5c3e80d, 2017-08-06"><sodipodi:namedview
     pagecolor="#ffffff"
     bordercolor="#666666"
     borderopacity="1"
     objecttolerance="10"
     gridtolerance="10"
     guidetolerance="10"
     inkscape:pageopacity="0"
     inkscape:pageshadow="2"
     inkscape:window-width="1161"
     inkscape:window-height="674"
     id="namedview17"
     showgrid="false"
     inkscape:zoom="3.0550861"
     inkscape:cx="107.94142"
     inkscape:cy="-14.574772"
     inkscape:window-x="0"
     inkscape:window-y="0"
     inkscape:window-maximized="0"
     inkscape:current-layer="svg2"
     fit-margin-top="0"
     fit-margin-left="0"
     fit-margin-right="0"
     fit-margin-bottom="0" /><metadata
     id="metadata8"><rdf:RDF><cc:Work
         rdf:about=""><dc:format>image/svg+xml</dc:format><dc:type
           rdf:resource="http://purl.org/dc/dcmitype/StillImage" /><dc:title /></cc:Work></rdf:RDF></metadata><defs
     id="defs6"><clipPath
       id="clipPath20"
       clipPathUnits="userSpaceOnUse"><path
         id="path18"
         d="M 0,0 H 2645.52 V 1036 H 0 Z"
         inkscape:connector-curvature="0" /></clipPath><clipPath
       clipPathUnits="userSpaceOnUse"
       id="clipPath20-8"><path
         d="M 0,0 H 2645.52 V 1036 H 0 Z"
         id="path18-0" /></clipPath><clipPath
       clipPathUnits="userSpaceOnUse"
       id="clipPath20-80"><path
         d="M 0,0 H 2645.52 V 1036 H 0 Z"
         id="path18-2" /></clipPath></defs><g
     id="g10"
     transform="matrix(0.93559709,0,0,-0.93559709,-34.579862,75.201893)"><g
       id="g12"
       transform="scale(0.1)"><path
         d="m 1019.22,411.316 c -58.962,0 -106.755,47.793 -106.755,106.747 0,58.957 47.793,106.75 106.755,106.75 58.95,0 106.75,-47.793 106.75,-106.75 0,-58.954 -47.8,-106.747 -106.75,-106.747 z m 0,287.774 c -99.978,0 -181.032,-81.047 -181.032,-181.027 0,-99.981 81.054,-181.024 181.032,-181.024 99.96,0 181.03,81.043 181.03,181.024 0,99.98 -81.07,181.027 -181.03,181.027"
         style="fill:#581119;fill-opacity:1;fill-rule:nonzero;stroke:none"
         id="path14"
         inkscape:connector-curvature="0" /><path
         d="m 1393.51,411.316 c -58.96,0 -106.76,47.793 -106.76,106.747 0,58.957 47.8,106.75 106.76,106.75 58.96,0 106.75,-47.793 106.75,-106.75 0,-58.954 -47.79,-106.747 -106.75,-106.747 z m 0,287.774 c -99.98,0 -181.03,-81.047 -181.03,-181.027 0,-99.981 81.05,-181.024 181.03,-181.024 99.97,0 181.03,81.043 181.03,181.024 0,99.98 -81.06,181.027 -181.03,181.027"
         style="fill:#581119;fill-opacity:1;fill-rule:nonzero;stroke:none"
         id="path16"
         inkscape:connector-curvature="0" /><path
         d="m 1720.68,420.758 h -58.74 v 0.488 h -57.35 l 57.35,9.649 v 174.894 l -57.35,9.656 h 105.97 l 0.01,-0.078 h 10.11 c 63.43,0 95.55,-48.945 95.55,-97.508 0,-48.546 -32.12,-97.101 -95.55,-97.101 z m -5.62,275.957 h -99.46 c -15.94,0 -28.85,-12.918 -28.85,-28.848 V 368.258 c 0,-15.938 12.91,-28.856 28.85,-28.856 h 99.46 c 117.06,0 175.84,88.946 175.84,178.407 0,89.453 -58.78,178.906 -175.84,178.906"
         style="fill:#581119;fill-opacity:1;fill-rule:nonzero;stroke:none"
         id="path18-8"
         inkscape:connector-curvature="0" /><path
         d="m 825.922,713.211 c -0.008,0.254 -0.027,0.508 -0.047,0.75 -0.031,0.363 -0.051,0.715 -0.09,1.066 -0.027,0.34 -0.078,0.664 -0.105,0.996 -0.039,0.274 -0.071,0.536 -0.11,0.801 -0.058,0.36 -0.117,0.723 -0.183,1.082 -0.032,0.246 -0.078,0.469 -0.117,0.703 -0.079,0.371 -0.168,0.723 -0.247,1.094 -0.046,0.227 -0.105,0.461 -0.156,0.684 -0.086,0.351 -0.183,0.703 -0.281,1.035 -0.07,0.246 -0.137,0.488 -0.207,0.734 -0.098,0.321 -0.203,0.633 -0.301,0.946 -0.09,0.273 -0.187,0.539 -0.285,0.8 -0.098,0.274 -0.203,0.559 -0.313,0.832 -0.105,0.293 -0.222,0.606 -0.351,0.907 -0.098,0.226 -0.195,0.461 -0.293,0.683 -0.145,0.332 -0.301,0.676 -0.457,1.016 -0.09,0.176 -0.188,0.363 -0.274,0.539 -0.187,0.379 -0.363,0.742 -0.566,1.101 -0.07,0.149 -0.156,0.286 -0.234,0.43 -0.215,0.391 -0.43,0.774 -0.676,1.164 -0.059,0.125 -0.137,0.235 -0.223,0.352 -0.234,0.398 -0.488,0.789 -0.754,1.179 -0.066,0.11 -0.136,0.208 -0.214,0.313 -0.254,0.383 -0.536,0.781 -0.829,1.172 -0.078,0.098 -0.156,0.207 -0.234,0.293 -0.285,0.383 -0.578,0.754 -0.871,1.125 -0.098,0.117 -0.195,0.215 -0.293,0.332 -0.293,0.34 -0.586,0.691 -0.898,1.035 -0.079,0.078 -0.157,0.156 -0.215,0.223 -0.34,0.371 -0.672,0.734 -1.024,1.086 -0.363,0.371 -0.742,0.722 -1.125,1.074 -0.058,0.047 -0.105,0.105 -0.176,0.156 -0.351,0.332 -0.722,0.633 -1.074,0.938 -0.097,0.086 -0.195,0.164 -0.301,0.253 -0.371,0.313 -0.753,0.606 -1.132,0.887 -0.098,0.078 -0.196,0.156 -0.274,0.227 -0.402,0.293 -0.801,0.574 -1.203,0.847 -0.098,0.059 -0.184,0.137 -0.281,0.196 -0.403,0.254 -0.801,0.519 -1.211,0.781 -0.098,0.059 -0.207,0.137 -0.324,0.195 -0.391,0.235 -0.801,0.469 -1.2,0.684 -0.128,0.078 -0.253,0.148 -0.382,0.226 -0.379,0.196 -0.762,0.391 -1.153,0.575 -0.164,0.097 -0.32,0.168 -0.496,0.254 -0.351,0.168 -0.715,0.332 -1.074,0.468 -0.207,0.11 -0.41,0.196 -0.617,0.285 -0.321,0.137 -0.645,0.254 -0.977,0.391 -0.242,0.098 -0.496,0.184 -0.75,0.281 -0.293,0.11 -0.586,0.207 -0.879,0.293 -0.293,0.098 -0.578,0.196 -0.879,0.285 -0.265,0.079 -0.539,0.145 -0.8,0.223 -0.325,0.098 -0.645,0.188 -0.957,0.266 -0.266,0.058 -0.528,0.117 -0.782,0.183 -0.332,0.078 -0.675,0.149 -0.996,0.215 -0.285,0.051 -0.558,0.098 -0.82,0.149 -0.324,0.058 -0.645,0.105 -0.977,0.164 -0.304,0.05 -0.636,0.078 -0.949,0.117 -0.273,0.039 -0.566,0.07 -0.847,0.098 -0.442,0.05 -0.872,0.078 -1.309,0.109 -0.168,0.008 -0.344,0.019 -0.5,0.027 -1.25,0.059 -2.5,0.059 -3.75,0 -0.176,-0.008 -0.352,-0.019 -0.527,-0.039 -0.418,-0.019 -0.86,-0.047 -1.278,-0.097 -0.304,-0.028 -0.586,-0.059 -0.879,-0.098 -0.304,-0.039 -0.617,-0.078 -0.918,-0.117 -0.332,-0.059 -0.675,-0.117 -1.007,-0.176 -0.262,-0.039 -0.516,-0.086 -0.782,-0.137 -0.351,-0.066 -0.691,-0.144 -1.035,-0.234 -0.254,-0.047 -0.488,-0.106 -0.73,-0.156 -0.344,-0.086 -0.676,-0.184 -1.016,-0.282 -0.254,-0.07 -0.508,-0.136 -0.754,-0.215 -0.301,-0.089 -0.613,-0.195 -0.926,-0.292 -0.265,-0.11 -0.547,-0.176 -0.82,-0.274 -0.285,-0.109 -0.547,-0.215 -0.82,-0.312 -0.305,-0.118 -0.606,-0.235 -0.91,-0.364 -0.235,-0.097 -0.457,-0.203 -0.692,-0.3 -0.332,-0.137 -0.664,-0.293 -0.988,-0.45 -0.203,-0.097 -0.399,-0.187 -0.586,-0.285 -0.352,-0.176 -0.711,-0.359 -1.063,-0.547 -0.168,-0.086 -0.332,-0.183 -0.488,-0.261 -0.363,-0.215 -0.734,-0.422 -1.094,-0.637 -0.156,-0.098 -0.293,-0.184 -0.449,-0.274 -0.363,-0.234 -0.722,-0.468 -1.086,-0.703 -0.144,-0.097 -0.281,-0.203 -0.429,-0.293 -0.34,-0.242 -0.704,-0.488 -1.036,-0.75 -0.164,-0.117 -0.332,-0.254 -0.488,-0.371 -0.32,-0.246 -0.633,-0.488 -0.945,-0.742 -0.207,-0.168 -0.41,-0.344 -0.625,-0.539 -0.246,-0.203 -0.5,-0.418 -0.742,-0.633 -0.403,-0.371 -0.793,-0.754 -1.172,-1.125 -0.059,-0.058 -0.11,-0.098 -0.156,-0.144 L 614.859,590.094 467.262,737.684 c -0.196,0.195 -0.403,0.379 -0.606,0.574 -0.234,0.226 -0.468,0.461 -0.703,0.676 -0.293,0.254 -0.578,0.507 -0.879,0.761 -0.168,0.137 -0.324,0.282 -0.5,0.43 -0.332,0.262 -0.664,0.516 -1.004,0.781 -0.136,0.106 -0.273,0.223 -0.41,0.321 -0.363,0.273 -0.715,0.519 -1.086,0.773 -0.136,0.098 -0.261,0.184 -0.39,0.273 -0.371,0.243 -0.743,0.489 -1.114,0.711 -0.144,0.098 -0.293,0.176 -0.429,0.274 -0.36,0.215 -0.723,0.422 -1.094,0.637 -0.176,0.078 -0.332,0.175 -0.496,0.273 -0.352,0.176 -0.696,0.352 -1.035,0.516 -0.215,0.109 -0.403,0.207 -0.618,0.304 -0.312,0.157 -0.632,0.301 -0.957,0.438 -0.242,0.109 -0.488,0.215 -0.73,0.324 -0.285,0.117 -0.566,0.223 -0.871,0.332 -0.281,0.117 -0.567,0.223 -0.86,0.332 -0.253,0.086 -0.515,0.164 -0.769,0.262 -0.324,0.109 -0.656,0.215 -0.977,0.312 -0.234,0.071 -0.461,0.129 -0.683,0.196 -0.371,0.097 -0.723,0.195 -1.086,0.293 -0.215,0.05 -0.43,0.097 -0.652,0.148 -0.372,0.086 -0.754,0.176 -1.125,0.242 -0.223,0.051 -0.438,0.09 -0.665,0.117 -0.371,0.079 -0.75,0.137 -1.113,0.196 -0.262,0.039 -0.527,0.07 -0.769,0.097 -0.344,0.039 -0.684,0.09 -1.036,0.129 -0.332,0.028 -0.683,0.047 -1.035,0.067 -0.265,0.031 -0.507,0.05 -0.781,0.058 -1.223,0.059 -2.461,0.059 -3.691,0 -0.254,-0.008 -0.52,-0.027 -0.782,-0.058 -0.343,-0.02 -0.695,-0.039 -1.035,-0.067 -0.343,-0.039 -0.683,-0.09 -1.015,-0.129 -0.266,-0.027 -0.528,-0.058 -0.782,-0.097 -0.371,-0.059 -0.742,-0.117 -1.113,-0.196 -0.226,-0.027 -0.441,-0.066 -0.664,-0.117 -0.371,-0.066 -0.754,-0.156 -1.125,-0.242 -0.215,-0.051 -0.437,-0.098 -0.652,-0.148 -0.352,-0.098 -0.723,-0.196 -1.075,-0.293 -0.234,-0.067 -0.46,-0.125 -0.683,-0.196 -0.332,-0.097 -0.664,-0.203 -0.988,-0.312 -0.262,-0.098 -0.516,-0.176 -0.77,-0.262 -0.293,-0.109 -0.578,-0.215 -0.871,-0.332 -0.281,-0.109 -0.574,-0.215 -0.859,-0.332 -0.254,-0.109 -0.489,-0.215 -0.731,-0.324 -0.324,-0.137 -0.644,-0.281 -0.957,-0.438 -0.207,-0.097 -0.402,-0.195 -0.605,-0.304 -0.352,-0.164 -0.703,-0.34 -1.047,-0.516 -0.156,-0.098 -0.332,-0.195 -0.496,-0.273 -0.364,-0.215 -0.735,-0.422 -1.094,-0.637 -0.137,-0.098 -0.285,-0.176 -0.43,-0.274 -0.371,-0.222 -0.734,-0.468 -1.105,-0.711 -0.137,-0.089 -0.274,-0.175 -0.399,-0.273 -0.363,-0.254 -0.722,-0.5 -1.074,-0.773 -0.148,-0.098 -0.285,-0.215 -0.43,-0.321 -0.332,-0.265 -0.675,-0.519 -0.996,-0.781 -0.168,-0.148 -0.332,-0.293 -0.5,-0.43 -0.293,-0.254 -0.593,-0.507 -0.886,-0.761 -0.227,-0.215 -0.469,-0.45 -0.696,-0.676 -0.203,-0.195 -0.41,-0.379 -0.605,-0.574 -0.203,-0.196 -0.391,-0.411 -0.586,-0.606 -0.223,-0.246 -0.449,-0.48 -0.672,-0.715 -0.254,-0.281 -0.508,-0.586 -0.754,-0.879 -0.156,-0.164 -0.293,-0.32 -0.437,-0.488 -0.266,-0.332 -0.52,-0.664 -0.782,-1.004 -0.109,-0.148 -0.226,-0.285 -0.324,-0.422 -0.262,-0.359 -0.515,-0.722 -0.762,-1.074 -0.097,-0.144 -0.195,-0.273 -0.281,-0.41 -0.254,-0.352 -0.48,-0.731 -0.703,-1.094 -0.098,-0.144 -0.187,-0.293 -0.273,-0.437 -0.215,-0.364 -0.43,-0.723 -0.625,-1.086 -0.098,-0.176 -0.196,-0.34 -0.286,-0.508 -0.183,-0.34 -0.359,-0.691 -0.527,-1.035 -0.105,-0.203 -0.203,-0.41 -0.301,-0.613 -0.156,-0.313 -0.293,-0.637 -0.441,-0.95 -0.106,-0.242 -0.215,-0.496 -0.313,-0.742 -0.117,-0.281 -0.222,-0.566 -0.332,-0.859 -0.117,-0.282 -0.234,-0.567 -0.332,-0.867 -0.097,-0.254 -0.175,-0.5 -0.261,-0.754 -0.11,-0.332 -0.215,-0.664 -0.325,-1.004 -0.058,-0.215 -0.125,-0.442 -0.183,-0.676 -0.11,-0.352 -0.215,-0.723 -0.305,-1.094 -0.047,-0.195 -0.086,-0.41 -0.137,-0.613 -0.097,-0.383 -0.175,-0.774 -0.253,-1.152 -0.047,-0.215 -0.079,-0.43 -0.118,-0.637 -0.066,-0.391 -0.136,-0.77 -0.195,-1.152 -0.039,-0.243 -0.059,-0.477 -0.086,-0.723 -0.051,-0.352 -0.098,-0.711 -0.129,-1.074 -0.039,-0.321 -0.058,-0.645 -0.078,-0.965 -0.008,-0.274 -0.047,-0.567 -0.059,-0.852 -0.027,-0.605 -0.046,-1.23 -0.046,-1.836 v 0 -386.601 c 0,-20.555 16.668,-37.215 37.214,-37.215 20.567,0 37.239,16.66 37.239,37.215 v 277.707 l -46.192,64.871 46.192,-46.18 v 0.34 L 583.07,516.598 c 1.399,-2.137 3.028,-4.16 4.883,-6.035 14.543,-14.532 38.106,-14.52 52.649,0 l 14.668,14.667 96.257,96.27 45.852,45.84 -45.852,-64.395 V 324.762 c 0,-20.555 16.672,-37.215 37.227,-37.215 20.559,0 37.219,16.66 37.219,37.215 v 386.582 c 0,0.625 -0.02,1.25 -0.051,1.867"
         style="fill:#581119;fill-opacity:1;fill-rule:nonzero;stroke:none"
         id="path20"
         inkscape:connector-curvature="0" /><path
         d="m 1935.19,244.059 h -10 v 548.007 h 10 V 244.059"
         style="fill:#bf1b2c;fill-opacity:1;fill-rule:nonzero;stroke:none"
         id="path22"
         inkscape:connector-curvature="0" /><path
         d="m 2239.19,474.527 -0.04,0.235 -0.06,0.246 c -6.58,27.273 -23.95,47.871 -51.64,61.211 -23.34,11.258 -50.11,15.722 -73.2,18.601 l -0.18,0.032 -0.2,0.007 c -18.27,1.711 -34.36,3.516 -46.32,8.399 -11.42,4.648 -16.61,11.074 -17.33,21.496 l -0.01,0.078 v 0.086 c -0.52,6.152 0,14.961 5.4,21.914 11.14,14.309 33.28,19.797 50.27,20.156 0.39,0 0.82,0 1.27,0 19.02,0 38.3,-6.406 47.32,-18.867 5.57,12.598 18.16,19.199 32.28,19.199 5.36,0 10.4,-1.328 14.86,-3.64 -2.46,0.488 -5.01,0.761 -7.63,0.761 -21.32,0 -38.6,-17.296 -38.6,-38.605 0,-3.164 0.42,-6.211 1.14,-9.148 0.01,-0.098 0.05,-0.176 0.07,-0.274 4.21,-16.758 19.33,-29.18 37.39,-29.18 20.6,0 37.4,16.161 38.5,36.493 0.6,5.128 0.62,10.519 0.13,15.859 -3.27,35.187 -20.09,58.867 -45.46,76.269 -21.59,14.805 -49.71,22.961 -79.17,22.961 -44.65,0 -86.79,-18.683 -109.97,-48.769 -15.44,-20.078 -22.71,-45.449 -20.51,-71.496 l 0.05,0.019 c 2.78,-34.765 18.8,-60.371 47.64,-76.093 24.03,-13.086 52.93,-17.481 80.59,-20.262 30.47,-3.059 58.1,-7.102 61.65,-22.832 0.74,-3.293 1.11,-6.184 1.11,-8.547 0,-19.832 -23.52,-41.219 -61.5,-41.219 -13.79,0 -28.59,3.797 -39.59,10.164 -3.57,2.063 -7.09,5.469 -10.34,9.973 -6.84,-12.766 -20.31,-21.457 -35.82,-21.457 -5,0 -9.76,0.937 -14.19,2.59 2.09,-0.344 4.21,-0.567 6.39,-0.567 18.33,0 33.64,12.782 37.59,29.91 v 0 c 0.3,1.348 0.55,2.727 0.72,4.122 0,0.058 0.02,0.128 0.03,0.195 0.17,1.437 0.26,2.891 0.26,4.375 0,21.32 -17.28,38.605 -38.6,38.605 -1.12,0 -2.22,-0.078 -3.32,-0.168 -1.03,-0.105 -2.06,-0.242 -3.07,-0.41 h 0.01 c -18.27,-3.047 -32.21,-18.886 -32.21,-38.027 0,-0.801 0.07,-1.582 0.11,-2.363 -0.8,-11.18 1.33,-43.614 44.66,-81.375 21.34,-18.606 57.66,-27.871 86.89,-27.871 66.47,0 135.23,42.273 135.23,113.054 0,7.09 -0.95,15.899 -2.6,24.16"
         style="fill:#bf1b2c;fill-opacity:1;fill-rule:nonzero;stroke:none"
         id="path24"
         inkscape:connector-curvature="0" /></g></g></svg>