<?xml version="1.0" encoding="UTF-8" standalone="no"?>
<svg
   xmlns:dc="http://purl.org/dc/elements/1.1/"
   xmlns:cc="http://creativecommons.org/ns#"
   xmlns:rdf="http://www.w3.org/1999/02/22-rdf-syntax-ns#"
   xmlns:svg="http://www.w3.org/2000/svg"
   xmlns="http://www.w3.org/2000/svg"
   viewBox="0 0 336 322.49332"
   height="322.49332"
   width="336"
   xml:space="preserve"
   id="svg2"
   version="1.1"><metadata
     id="metadata8"><rdf:RDF><cc:Work
         rdf:about=""><dc:format>image/svg+xml</dc:format><dc:type
           rdf:resource="http://purl.org/dc/dcmitype/StillImage" /></cc:Work></rdf:RDF></metadata><defs
     id="defs6"><clipPath
       id="clipPath20"
       clipPathUnits="userSpaceOnUse"><path
         id="path18"
         d="M 0,2418.73 V 0 h 2520 v 2418.73 z" /></clipPath><clipPath
       id="clipPath32"
       clipPathUnits="userSpaceOnUse"><path
         id="path30"
         d="M 1580.47,1108.04 2306.64,1790.55 1503.93,425.52 Z" /></clipPath><linearGradient
       id="linearGradient38"
       spreadMethod="pad"
       gradientTransform="matrix(-515.996,131.971,131.971,515.996,2109.77,1055.74)"
       gradientUnits="userSpaceOnUse"
       y2="0"
       x2="1"
       y1="0"
       x1="0"><stop
         id="stop34"
         offset="0"
         style="stop-opacity:1;stop-color:#cce310" /><stop
         id="stop36"
         offset="1"
         style="stop-opacity:1;stop-color:#f2ef1d" /></linearGradient><clipPath
       id="clipPath48"
       clipPathUnits="userSpaceOnUse"><path
         id="path46"
         d="M 854.316,1318.69 2306.64,1790.55 854.316,1993.21 Z" /></clipPath><linearGradient
       id="linearGradient54"
       spreadMethod="pad"
       gradientTransform="matrix(-1281.24,-683.87,-683.87,1281.24,1620.02,1913)"
       gradientUnits="userSpaceOnUse"
       y2="0"
       x2="1"
       y1="0"
       x1="0"><stop
         id="stop50"
         offset="0"
         style="stop-opacity:1;stop-color:#cce310" /><stop
         id="stop52"
         offset="1"
         style="stop-opacity:1;stop-color:#f2ef1d" /></linearGradient><clipPath
       id="clipPath64"
       clipPathUnits="userSpaceOnUse"><path
         id="path62"
         d="M 0,2418.73 V 0 h 2520 v 2418.73 z" /></clipPath><clipPath
       id="clipPath78"
       clipPathUnits="userSpaceOnUse"><path
         id="path76"
         d="m 854.316,1318.69 -640.957,208.85 320.489,128.41 z" /></clipPath><linearGradient
       id="linearGradient84"
       spreadMethod="pad"
       gradientTransform="matrix(70.8718,-371.816,-371.816,-70.8718,501.499,1592.75)"
       gradientUnits="userSpaceOnUse"
       y2="0"
       x2="1"
       y1="0"
       x1="0"><stop
         id="stop80"
         offset="0"
         style="stop-opacity:1;stop-color:#f2ef1d" /><stop
         id="stop82"
         offset="1"
         style="stop-opacity:1;stop-color:#80cc28" /></linearGradient><clipPath
       id="clipPath94"
       clipPathUnits="userSpaceOnUse"><path
         id="path92"
         d="M 0,2418.73 V 0 h 2520 v 2418.73 z" /></clipPath><clipPath
       id="clipPath104"
       clipPathUnits="userSpaceOnUse"><path
         id="path102"
         d="M 854.316,1318.69 458.184,774.031 1503.93,425.52 Z" /></clipPath><linearGradient
       id="linearGradient110"
       spreadMethod="pad"
       gradientTransform="matrix(1045.74,0,0,-1045.74,458.184,872.11)"
       gradientUnits="userSpaceOnUse"
       y2="0"
       x2="1"
       y1="0"
       x1="0"><stop
         id="stop106"
         offset="0"
         style="stop-opacity:1;stop-color:#27963c" /><stop
         id="stop108"
         offset="1"
         style="stop-opacity:1;stop-color:#cce310" /></linearGradient><clipPath
       id="clipPath120"
       clipPathUnits="userSpaceOnUse"><path
         id="path118"
         d="M 854.316,1318.69 981.055,872.102 1503.93,425.52 Z" /></clipPath><linearGradient
       id="linearGradient126"
       spreadMethod="pad"
       gradientTransform="matrix(649.609,0,0,-649.609,854.316,872.11)"
       gradientUnits="userSpaceOnUse"
       y2="0"
       x2="1"
       y1="0"
       x1="0"><stop
         id="stop122"
         offset="0"
         style="stop-opacity:1;stop-color:#27963c" /><stop
         id="stop124"
         offset="1"
         style="stop-opacity:1;stop-color:#cce310" /></linearGradient><clipPath
       id="clipPath136"
       clipPathUnits="userSpaceOnUse"><path
         id="path134"
         d="M 0,2418.73 V 0 h 2520 v 2418.73 z" /></clipPath><clipPath
       id="clipPath146"
       clipPathUnits="userSpaceOnUse"><path
         id="path144"
         d="M 854.316,1318.69 458.184,774.031 213.359,1527.54 Z" /></clipPath><linearGradient
       id="linearGradient154"
       spreadMethod="pad"
       gradientTransform="matrix(-632.873,-860.573,-860.573,632.873,831.309,1824.62)"
       gradientUnits="userSpaceOnUse"
       y2="0"
       x2="1"
       y1="0"
       x1="0"><stop
         id="stop148"
         offset="0"
         style="stop-opacity:1;stop-color:#cce310" /><stop
         id="stop150"
         offset="0.613939"
         style="stop-opacity:1;stop-color:#27963c" /><stop
         id="stop152"
         offset="1"
         style="stop-opacity:1;stop-color:#217232" /></linearGradient><clipPath
       id="clipPath164"
       clipPathUnits="userSpaceOnUse"><path
         id="path162"
         d="M 533.848,1150.79 458.184,774.031 213.359,1527.54 Z" /></clipPath><linearGradient
       id="linearGradient172"
       spreadMethod="pad"
       gradientTransform="matrix(-434.132,-590.328,-590.328,434.132,632.715,1554.58)"
       gradientUnits="userSpaceOnUse"
       y2="0"
       x2="1"
       y1="0"
       x1="0"><stop
         id="stop166"
         offset="0"
         style="stop-opacity:1;stop-color:#cce310" /><stop
         id="stop168"
         offset="0.613939"
         style="stop-opacity:1;stop-color:#27963c" /><stop
         id="stop170"
         offset="1"
         style="stop-opacity:1;stop-color:#217232" /></linearGradient><clipPath
       id="clipPath182"
       clipPathUnits="userSpaceOnUse"><path
         id="path180"
         d="M 0,2418.73 V 0 h 2520 v 2418.73 z" /></clipPath></defs><g
     transform="matrix(1.3333333,0,0,-1.3333333,0,322.49333)"
     id="g10"><g
       transform="scale(0.1)"
       id="g12"><g
         id="g14"><g
           clip-path="url(#clipPath20)"
           id="g16"><path
             id="path22"
             style="fill:#cce310;fill-opacity:1;fill-rule:nonzero;stroke:none"
             d="M 854.316,1318.69 2306.64,1790.55 1503.93,425.52 854.316,1318.69" /><path
             id="path24"
             style="fill:#aed11a;fill-opacity:1;fill-rule:nonzero;stroke:none"
             d="M 1580.47,1108.04 2306.64,1790.55 854.316,1318.69 1580.47,1108.04" /></g></g><g
         id="g26"><g
           clip-path="url(#clipPath32)"
           id="g28"><path
             id="path40"
             style="fill:url(#linearGradient38);fill-opacity:1;fill-rule:nonzero;stroke:none"
             d="m 1580.47,1108.04 726.17,682.51 -802.71,-1365.03 76.54,682.52" /></g></g><g
         id="g42"><g
           clip-path="url(#clipPath48)"
           id="g44"><path
             id="path56"
             style="fill:url(#linearGradient54);fill-opacity:1;fill-rule:nonzero;stroke:none"
             d="M 854.316,1318.69 2306.64,1790.55 854.316,1993.21 v -674.52" /></g></g><g
         id="g58"><g
           clip-path="url(#clipPath64)"
           id="g60"><path
             id="path66"
             style="fill:#f2ef1d;fill-opacity:1;fill-rule:nonzero;stroke:none"
             d="m 1580.47,1655.95 726.17,134.6 -1452.324,202.66 726.154,-337.26" /><path
             id="path68"
             style="fill:#cce310;fill-opacity:1;fill-rule:nonzero;stroke:none"
             d="m 1580.47,1655.95 726.17,134.6 -1452.324,-471.86 726.154,337.26" /><path
             id="path70"
             style="fill:#cce310;fill-opacity:1;fill-rule:nonzero;stroke:none"
             d="m 854.316,1318.69 -640.957,208.85 640.957,465.67 v -674.52" /></g></g><g
         id="g72"><g
           clip-path="url(#clipPath78)"
           id="g74"><path
             id="path86"
             style="fill:url(#linearGradient84);fill-opacity:1;fill-rule:nonzero;stroke:none"
             d="m 854.316,1318.69 -640.957,208.85 320.489,128.41 320.468,-337.26" /></g></g><g
         id="g88"><g
           clip-path="url(#clipPath94)"
           id="g90"><path
             id="path96"
             style="fill:#f7f35b;fill-opacity:1;fill-rule:nonzero;stroke:none"
             d="m 854.316,1318.69 v 674.52 L 533.848,1655.95 854.316,1318.69" /></g></g><g
         id="g98"><g
           clip-path="url(#clipPath104)"
           id="g100"><path
             id="path112"
             style="fill:url(#linearGradient110);fill-opacity:1;fill-rule:nonzero;stroke:none"
             d="M 854.316,1318.69 458.184,774.031 1503.93,425.52 854.316,1318.69" /></g></g><g
         id="g114"><g
           clip-path="url(#clipPath120)"
           id="g116"><path
             id="path128"
             style="fill:url(#linearGradient126);fill-opacity:1;fill-rule:nonzero;stroke:none"
             d="M 854.316,1318.69 981.055,872.102 1503.93,425.52 854.316,1318.69" /></g></g><g
         id="g130"><g
           clip-path="url(#clipPath136)"
           id="g132"><path
             id="path138"
             style="fill:#27963c;fill-opacity:1;fill-rule:nonzero;stroke:none"
             d="M 458.184,774.031 981.055,872.102 1503.93,425.52 458.184,774.031" /></g></g><g
         id="g140"><g
           clip-path="url(#clipPath146)"
           id="g142"><path
             id="path156"
             style="fill:url(#linearGradient154);fill-opacity:1;fill-rule:nonzero;stroke:none"
             d="M 854.316,1318.69 458.184,774.031 213.359,1527.54 854.316,1318.69" /></g></g><g
         id="g158"><g
           clip-path="url(#clipPath164)"
           id="g160"><path
             id="path174"
             style="fill:url(#linearGradient172);fill-opacity:1;fill-rule:nonzero;stroke:none"
             d="M 533.848,1150.79 458.184,774.031 213.359,1527.54 533.848,1150.79" /></g></g><g
         id="g176"><g
           clip-path="url(#clipPath182)"
           id="g178"><path
             id="path184"
             style="fill:#237637;fill-opacity:1;fill-rule:nonzero;stroke:none"
             d="M 533.848,1150.8 458.184,774.039 854.316,1318.69 533.848,1150.8" /><path
             id="path186"
             style="fill:#80cc28;fill-opacity:1;fill-rule:nonzero;stroke:none"
             d="m 553.301,1655.95 c 0,-10.75 -8.711,-19.47 -19.461,-19.47 -10.742,0 -19.453,8.72 -19.453,19.47 0,10.75 8.711,19.46 19.453,19.46 10.75,0 19.461,-8.71 19.461,-19.46" /><path
             id="path188"
             style="fill:#80cc28;fill-opacity:1;fill-rule:nonzero;stroke:none"
             d="m 1599.94,1655.95 c 0,-10.75 -8.71,-19.47 -19.47,-19.47 -10.74,0 -19.45,8.72 -19.45,19.47 0,10.75 8.71,19.46 19.45,19.46 10.76,0 19.47,-8.71 19.47,-19.46" /><path
             id="path190"
             style="fill:#27963c;fill-opacity:1;fill-rule:nonzero;stroke:none"
             d="m 1599.94,1108.04 c 0,-10.75 -8.71,-19.47 -19.47,-19.47 -10.74,0 -19.45,8.72 -19.45,19.47 0,10.75 8.71,19.46 19.45,19.46 10.76,0 19.47,-8.71 19.47,-19.46" /><path
             id="path192"
             style="fill:#1c6434;fill-opacity:1;fill-rule:nonzero;stroke:none"
             d="m 1000.52,872.102 c 0,-10.743 -8.711,-19.461 -19.465,-19.461 -10.742,0 -19.453,8.718 -19.453,19.461 0,10.75 8.711,19.457 19.453,19.457 10.754,0 19.465,-8.707 19.465,-19.457" /><path
             id="path194"
             style="fill:#1c6434;fill-opacity:1;fill-rule:nonzero;stroke:none"
             d="m 553.301,1150.79 c 0,-10.74 -8.711,-19.46 -19.461,-19.46 -10.742,0 -19.453,8.72 -19.453,19.46 0,10.75 8.711,19.46 19.453,19.46 10.75,0 19.461,-8.71 19.461,-19.46" /><path
             id="path196"
             style="fill:#1c6434;fill-opacity:1;fill-rule:nonzero;stroke:none"
             d="m 889.688,1318.69 c 0,-20.2 -16.375,-36.57 -36.575,-36.57 -20.203,0 -36.558,16.37 -36.558,36.57 0,20.2 16.355,36.57 36.558,36.57 20.2,0 36.575,-16.37 36.575,-36.57" /></g></g></g></g></svg>