<?xml version="1.0" encoding="UTF-8" standalone="no"?>
<svg
   xmlns:dc="http://purl.org/dc/elements/1.1/"
   xmlns:cc="http://creativecommons.org/ns#"
   xmlns:rdf="http://www.w3.org/1999/02/22-rdf-syntax-ns#"
   xmlns:svg="http://www.w3.org/2000/svg"
   xmlns="http://www.w3.org/2000/svg"
   xmlns:sodipodi="http://sodipodi.sourceforge.net/DTD/sodipodi-0.dtd"
   xmlns:inkscape="http://www.inkscape.org/namespaces/inkscape"
   viewBox="0 0 176.47144 52.514531"
   height="52.51453"
   width="176.47144"
   xml:space="preserve"
   id="svg2"
   version="1.1"
   sodipodi:docname="moods-menu.svg"
   inkscape:version="0.92.2 5c3e80d, 2017-08-06"><sodipodi:namedview
     pagecolor="#ffffff"
     bordercolor="#666666"
     borderopacity="1"
     objecttolerance="10"
     gridtolerance="10"
     guidetolerance="10"
     inkscape:pageopacity="0"
     inkscape:pageshadow="2"
     inkscape:window-width="1161"
     inkscape:window-height="674"
     id="namedview17"
     showgrid="false"
     inkscape:zoom="3.0550861"
     inkscape:cx="114.8152"
     inkscape:cy="-14.574772"
     inkscape:window-x="0"
     inkscape:window-y="0"
     inkscape:window-maximized="0"
     inkscape:current-layer="svg2"
     fit-margin-top="0"
     fit-margin-left="0"
     fit-margin-right="0"
     fit-margin-bottom="0" /><metadata
     id="metadata8"><rdf:RDF><cc:Work
         rdf:about=""><dc:format>image/svg+xml</dc:format><dc:type
           rdf:resource="http://purl.org/dc/dcmitype/StillImage" /><dc:title></dc:title></cc:Work></rdf:RDF></metadata><defs
     id="defs6"><clipPath
       id="clipPath20"
       clipPathUnits="userSpaceOnUse"><path
         id="path18"
         d="M 0,0 H 2645.52 V 1036 H 0 Z"
         inkscape:connector-curvature="0" /></clipPath></defs><g
     transform="matrix(0.95824713,0,0,-0.95824713,-38.475396,75.90103)"
     id="g10"><g
       transform="scale(0.1)"
       id="g12"><g
         id="g14"><g
           clip-path="url(#clipPath20)"
           id="g16"><path
             id="path22"
             style="fill:#393536;fill-opacity:1;fill-rule:nonzero;stroke:none"
             d="m 1019.22,411.32 c -58.97,0 -106.763,47.793 -106.763,106.739 0,58.964 47.793,106.757 106.763,106.757 58.96,0 106.75,-47.793 106.75,-106.757 0,-58.946 -47.79,-106.739 -106.75,-106.739 z m 0,287.774 c -99.986,0 -181.021,-81.055 -181.021,-181.035 0,-99.961 81.035,-181.016 181.021,-181.016 99.97,0 181.03,81.055 181.03,181.016 0,99.98 -81.06,181.035 -181.03,181.035"
             inkscape:connector-curvature="0" /><path
             id="path24"
             style="fill:#393536;fill-opacity:1;fill-rule:nonzero;stroke:none"
             d="m 1393.5,411.32 c -58.95,0 -106.75,47.793 -106.75,106.739 0,58.964 47.8,106.757 106.75,106.757 58.97,0 106.76,-47.793 106.76,-106.757 0,-58.946 -47.79,-106.739 -106.76,-106.739 z m 0,287.774 c -99.97,0 -181.02,-81.055 -181.02,-181.035 0,-99.961 81.05,-181.016 181.02,-181.016 99.98,0 181.04,81.055 181.04,181.016 0,99.98 -81.06,181.035 -181.04,181.035"
             inkscape:connector-curvature="0" /><path
             id="path26"
             style="fill:#393536;fill-opacity:1;fill-rule:nonzero;stroke:none"
             d="m 1720.67,420.754 h -58.73 v 0.488 h -57.35 l 57.35,9.649 v 174.902 l -57.35,9.648 h 105.97 l 0.01,-0.078 h 10.1 c 63.45,0 95.55,-48.925 95.55,-97.5 0,-48.554 -32.1,-97.109 -95.55,-97.109 z m -5.61,275.976 h -99.46 c -15.94,0 -28.85,-12.929 -28.85,-28.867 V 368.254 c 0,-15.918 12.91,-28.848 28.85,-28.848 h 99.46 c 117.05,0 175.84,88.946 175.84,178.418 0,89.434 -58.79,178.906 -175.84,178.906"
             inkscape:connector-curvature="0" /><path
             id="path28"
             style="fill:#393536;fill-opacity:1;fill-rule:nonzero;stroke:none"
             d="m 825.914,713.215 c 0,0.254 -0.019,0.508 -0.039,0.762 -0.031,0.351 -0.051,0.703 -0.09,1.035 -0.019,0.351 -0.066,0.683 -0.105,1.015 -0.039,0.274 -0.071,0.528 -0.11,0.801 -0.058,0.352 -0.117,0.723 -0.175,1.074 -0.04,0.254 -0.086,0.469 -0.137,0.703 -0.067,0.372 -0.156,0.743 -0.235,1.094 -0.046,0.235 -0.105,0.469 -0.156,0.684 -0.097,0.351 -0.183,0.703 -0.281,1.035 -0.07,0.254 -0.148,0.508 -0.207,0.742 -0.098,0.313 -0.203,0.625 -0.313,0.938 -0.078,0.273 -0.175,0.547 -0.273,0.82 -0.086,0.273 -0.195,0.547 -0.301,0.801 -0.129,0.312 -0.234,0.625 -0.363,0.918 -0.098,0.234 -0.203,0.468 -0.293,0.683 -0.145,0.352 -0.301,0.684 -0.457,1.016 -0.078,0.176 -0.188,0.371 -0.274,0.547 -0.187,0.371 -0.371,0.742 -0.566,1.094 -0.078,0.156 -0.156,0.293 -0.246,0.449 -0.215,0.371 -0.43,0.762 -0.664,1.152 -0.059,0.117 -0.145,0.235 -0.223,0.352 -0.246,0.39 -0.488,0.781 -0.754,1.172 -0.066,0.117 -0.144,0.214 -0.214,0.312 -0.262,0.391 -0.536,0.781 -0.829,1.172 -0.078,0.117 -0.156,0.195 -0.234,0.312 -0.285,0.372 -0.578,0.743 -0.879,1.114 -0.098,0.117 -0.187,0.215 -0.285,0.332 -0.301,0.351 -0.586,0.703 -0.906,1.035 -0.071,0.078 -0.137,0.156 -0.215,0.234 -0.332,0.352 -0.664,0.723 -1.027,1.075 -0.352,0.371 -0.731,0.722 -1.114,1.074 -0.058,0.039 -0.105,0.097 -0.164,0.156 -0.363,0.332 -0.734,0.625 -1.086,0.937 -0.097,0.079 -0.195,0.176 -0.301,0.254 -0.371,0.313 -0.761,0.606 -1.144,0.899 -0.098,0.058 -0.184,0.137 -0.274,0.215 -0.39,0.293 -0.781,0.566 -1.191,0.84 -0.098,0.078 -0.184,0.136 -0.281,0.195 -0.41,0.273 -0.801,0.527 -1.211,0.781 -0.098,0.078 -0.207,0.137 -0.324,0.195 -0.379,0.235 -0.801,0.469 -1.211,0.704 -0.117,0.058 -0.242,0.136 -0.379,0.214 -0.383,0.196 -0.762,0.391 -1.145,0.567 -0.164,0.097 -0.332,0.176 -0.496,0.254 -0.351,0.175 -0.715,0.332 -1.074,0.488 -0.195,0.098 -0.41,0.176 -0.617,0.273 -0.321,0.137 -0.645,0.254 -0.977,0.391 -0.254,0.098 -0.496,0.195 -0.75,0.273 -0.293,0.118 -0.586,0.215 -0.879,0.293 -0.304,0.098 -0.586,0.196 -0.879,0.293 -0.265,0.079 -0.539,0.157 -0.8,0.215 -0.325,0.098 -0.645,0.196 -0.969,0.274 -0.262,0.058 -0.516,0.117 -0.77,0.175 -0.332,0.079 -0.664,0.157 -1.007,0.215 -0.274,0.059 -0.547,0.098 -0.801,0.157 -0.34,0.058 -0.664,0.117 -0.977,0.156 -0.312,0.039 -0.644,0.078 -0.957,0.117 -0.273,0.039 -0.555,0.078 -0.847,0.117 -0.442,0.039 -0.879,0.059 -1.309,0.098 -0.168,0 -0.344,0.019 -0.5,0.019 -1.25,0.078 -2.5,0.078 -3.75,0 -0.176,0 -0.34,-0.019 -0.527,-0.039 -0.43,-0.019 -0.86,-0.058 -1.278,-0.078 -0.304,-0.039 -0.586,-0.078 -0.89,-0.117 -0.293,-0.039 -0.606,-0.078 -0.918,-0.117 -0.332,-0.039 -0.664,-0.117 -0.996,-0.176 -0.262,-0.039 -0.528,-0.078 -0.77,-0.137 -0.363,-0.058 -0.703,-0.136 -1.055,-0.215 -0.246,-0.058 -0.488,-0.117 -0.722,-0.175 -0.344,-0.078 -0.684,-0.176 -1.016,-0.274 -0.246,-0.078 -0.508,-0.136 -0.742,-0.215 -0.313,-0.097 -0.625,-0.195 -0.949,-0.293 -0.262,-0.097 -0.536,-0.175 -0.809,-0.273 -0.285,-0.117 -0.547,-0.215 -0.82,-0.313 -0.313,-0.117 -0.606,-0.234 -0.91,-0.351 -0.235,-0.117 -0.457,-0.215 -0.704,-0.313 -0.312,-0.156 -0.664,-0.293 -0.984,-0.449 -0.195,-0.097 -0.391,-0.195 -0.578,-0.293 -0.352,-0.176 -0.723,-0.351 -1.063,-0.527 -0.168,-0.098 -0.332,-0.195 -0.488,-0.274 -0.371,-0.214 -0.742,-0.429 -1.094,-0.644 -0.156,-0.078 -0.285,-0.176 -0.441,-0.274 -0.371,-0.234 -0.73,-0.449 -1.102,-0.703 -0.136,-0.097 -0.285,-0.195 -0.421,-0.293 -0.352,-0.234 -0.704,-0.488 -1.043,-0.742 -0.168,-0.117 -0.332,-0.254 -0.489,-0.371 -0.304,-0.254 -0.625,-0.488 -0.937,-0.742 -0.215,-0.176 -0.422,-0.352 -0.617,-0.527 -0.254,-0.215 -0.516,-0.43 -0.75,-0.664 -0.411,-0.352 -0.793,-0.743 -1.172,-1.114 -0.059,-0.058 -0.11,-0.078 -0.168,-0.136 L 614.848,590.09 467.262,737.688 c -0.207,0.195 -0.403,0.39 -0.606,0.566 -0.226,0.234 -0.468,0.469 -0.703,0.684 -0.285,0.253 -0.586,0.507 -0.879,0.761 -0.168,0.137 -0.324,0.293 -0.5,0.43 -0.32,0.254 -0.664,0.527 -1.004,0.781 -0.129,0.098 -0.273,0.215 -0.422,0.332 -0.351,0.254 -0.71,0.508 -1.082,0.762 -0.128,0.098 -0.253,0.176 -0.39,0.273 -0.371,0.254 -0.735,0.489 -1.106,0.703 -0.144,0.098 -0.281,0.196 -0.429,0.274 -0.36,0.215 -0.723,0.43 -1.094,0.644 -0.164,0.079 -0.32,0.176 -0.508,0.274 -0.34,0.176 -0.684,0.351 -1.035,0.527 -0.215,0.098 -0.391,0.196 -0.606,0.293 -0.32,0.156 -0.644,0.293 -0.964,0.43 -0.235,0.117 -0.489,0.215 -0.723,0.332 -0.285,0.117 -0.578,0.234 -0.871,0.332 -0.281,0.117 -0.574,0.215 -0.86,0.332 -0.242,0.078 -0.507,0.176 -0.769,0.254 -0.324,0.117 -0.656,0.215 -0.977,0.312 -0.234,0.079 -0.468,0.137 -0.695,0.196 -0.351,0.097 -0.711,0.195 -1.074,0.293 -0.215,0.058 -0.438,0.117 -0.652,0.156 -0.364,0.098 -0.743,0.176 -1.125,0.234 -0.215,0.059 -0.45,0.078 -0.672,0.137 -0.371,0.059 -0.735,0.117 -1.106,0.176 -0.262,0.039 -0.527,0.078 -0.769,0.097 -0.352,0.059 -0.684,0.098 -1.028,0.137 -0.351,0.02 -0.691,0.039 -1.035,0.078 -0.262,0.02 -0.515,0.039 -0.789,0.039 -1.23,0.078 -2.461,0.078 -3.691,0 -0.254,0 -0.508,-0.019 -0.782,-0.039 -0.343,-0.039 -0.695,-0.058 -1.027,-0.078 -0.351,-0.039 -0.691,-0.078 -1.023,-0.137 -0.266,-0.019 -0.528,-0.058 -0.774,-0.097 -0.371,-0.059 -0.75,-0.117 -1.121,-0.176 -0.226,-0.059 -0.441,-0.078 -0.664,-0.137 -0.371,-0.058 -0.754,-0.136 -1.125,-0.234 -0.215,-0.039 -0.437,-0.098 -0.652,-0.156 -0.364,-0.098 -0.715,-0.196 -1.075,-0.293 -0.234,-0.059 -0.46,-0.117 -0.695,-0.196 -0.332,-0.097 -0.652,-0.195 -0.984,-0.312 -0.246,-0.078 -0.508,-0.176 -0.762,-0.254 -0.293,-0.117 -0.586,-0.215 -0.871,-0.332 -0.281,-0.098 -0.566,-0.215 -0.859,-0.332 -0.243,-0.117 -0.489,-0.215 -0.731,-0.332 -0.324,-0.137 -0.644,-0.274 -0.957,-0.43 -0.207,-0.097 -0.402,-0.195 -0.605,-0.293 -0.364,-0.176 -0.703,-0.351 -1.047,-0.527 -0.156,-0.098 -0.332,-0.195 -0.508,-0.274 -0.352,-0.214 -0.723,-0.429 -1.082,-0.644 -0.137,-0.078 -0.285,-0.176 -0.422,-0.274 -0.379,-0.214 -0.742,-0.449 -1.113,-0.703 -0.137,-0.097 -0.274,-0.175 -0.399,-0.273 -0.363,-0.254 -0.715,-0.508 -1.074,-0.762 -0.148,-0.117 -0.285,-0.234 -0.43,-0.332 -0.332,-0.254 -0.664,-0.527 -0.996,-0.781 -0.168,-0.137 -0.324,-0.293 -0.507,-0.43 -0.286,-0.254 -0.579,-0.508 -0.879,-0.761 -0.227,-0.215 -0.461,-0.45 -0.696,-0.684 -0.215,-0.176 -0.41,-0.371 -0.605,-0.566 -0.215,-0.215 -0.391,-0.411 -0.594,-0.606 -0.215,-0.234 -0.441,-0.469 -0.664,-0.723 -0.254,-0.273 -0.52,-0.566 -0.754,-0.879 -0.156,-0.175 -0.293,-0.312 -0.437,-0.488 -0.266,-0.332 -0.528,-0.664 -0.774,-0.996 -0.105,-0.156 -0.222,-0.293 -0.332,-0.43 -0.262,-0.351 -0.515,-0.703 -0.762,-1.074 -0.097,-0.137 -0.195,-0.254 -0.281,-0.39 -0.254,-0.372 -0.488,-0.743 -0.715,-1.114 -0.078,-0.136 -0.175,-0.273 -0.273,-0.429 -0.215,-0.371 -0.41,-0.723 -0.613,-1.094 -0.098,-0.176 -0.196,-0.332 -0.286,-0.508 -0.183,-0.332 -0.359,-0.684 -0.527,-1.035 -0.105,-0.195 -0.203,-0.41 -0.301,-0.606 -0.148,-0.312 -0.293,-0.644 -0.441,-0.957 -0.106,-0.234 -0.215,-0.488 -0.32,-0.742 -0.118,-0.273 -0.227,-0.566 -0.332,-0.84 -0.11,-0.293 -0.227,-0.586 -0.325,-0.879 -0.086,-0.253 -0.175,-0.507 -0.261,-0.761 -0.098,-0.332 -0.227,-0.664 -0.313,-0.996 -0.078,-0.215 -0.137,-0.45 -0.195,-0.664 -0.11,-0.372 -0.215,-0.743 -0.293,-1.094 -0.07,-0.215 -0.098,-0.43 -0.149,-0.625 -0.097,-0.391 -0.175,-0.781 -0.253,-1.153 -0.047,-0.214 -0.079,-0.429 -0.118,-0.644 -0.066,-0.371 -0.144,-0.762 -0.183,-1.152 -0.051,-0.235 -0.059,-0.469 -0.098,-0.723 -0.051,-0.352 -0.098,-0.703 -0.137,-1.074 -0.031,-0.313 -0.039,-0.625 -0.07,-0.957 -0.008,-0.274 -0.047,-0.567 -0.059,-0.86 -0.039,-0.605 -0.046,-1.211 -0.046,-1.836 V 324.777 c 0,-20.566 16.66,-37.226 37.214,-37.226 20.567,0 37.227,16.66 37.227,37.226 v 277.696 l -46.18,64.863 46.18,-46.172 v 0.332 L 583.07,516.594 c 1.387,-2.129 3.02,-4.141 4.895,-6.016 14.539,-14.551 38.094,-14.531 52.637,0 l 14.668,14.668 96.257,96.25 45.84,45.84 -45.84,-64.395 V 324.777 c 0,-20.566 16.68,-37.226 37.219,-37.226 20.567,0 37.227,16.66 37.227,37.226 V 711.34 c 0,0.625 -0.02,1.25 -0.059,1.875"
             inkscape:connector-curvature="0" /><path
             id="path30"
             style="fill:#bdbcbc;fill-opacity:1;fill-rule:nonzero;stroke:none"
             d="m 1925.19,244.055 h 10 v 548.027 h -10 z"
             inkscape:connector-curvature="0" /><path
             id="path32"
             style="fill:#bdbcbc;fill-opacity:1;fill-rule:nonzero;stroke:none"
             d="m 2239.19,474.543 -0.04,0.234 -0.06,0.235 c -6.58,27.285 -23.95,47.871 -51.65,61.211 -23.33,11.269 -50.1,15.722 -73.19,18.613 l -0.18,0.019 -0.21,0.02 c -18.27,1.699 -34.35,3.496 -46.31,8.379 -11.42,4.668 -16.6,11.074 -17.33,21.504 l -0.01,0.078 v 0.078 c -0.51,6.152 0,14.961 5.41,21.914 11.13,14.317 33.27,19.805 50.26,20.156 0.38,0 0.82,0.02 1.28,0.02 19.01,0 38.3,-6.426 47.3,-18.867 5.58,12.578 18.16,19.179 32.29,19.179 5.36,0 10.4,-1.328 14.85,-3.632 -2.45,0.488 -5,0.761 -7.62,0.761 -21.32,0 -38.6,-17.285 -38.6,-38.593 0,-3.164 0.42,-6.211 1.14,-9.161 0.02,-0.097 0.05,-0.175 0.07,-0.273 4.21,-16.758 19.33,-29.18 37.39,-29.18 20.61,0 37.4,16.153 38.5,36.504 0.6,5.117 0.62,10.508 0.13,15.84 -3.27,35.195 -20.08,58.867 -45.46,76.27 -21.59,14.824 -49.71,22.968 -79.17,22.968 -44.65,0 -86.79,-18.691 -109.97,-48.769 -15.44,-20.078 -22.72,-45.449 -20.51,-71.485 l 0.05,0.02 c 2.78,-34.785 18.79,-60.371 47.64,-76.094 24.03,-13.105 52.93,-17.5 80.59,-20.273 30.47,-3.047 58.09,-7.09 61.65,-22.832 0.73,-3.282 1.11,-6.172 1.11,-8.555 0,-19.824 -23.53,-41.211 -61.5,-41.211 -13.79,0 -28.58,3.809 -39.59,10.156 -3.57,2.071 -7.09,5.469 -10.34,9.981 -6.84,-12.774 -20.31,-21.465 -35.82,-21.465 -5,0 -9.76,0.957 -14.18,2.598 2.08,-0.332 4.2,-0.567 6.38,-0.567 18.33,0 33.63,12.793 37.58,29.903 v 0.019 c 0.32,1.348 0.56,2.715 0.73,4.102 0,0.078 0.02,0.136 0.03,0.195 0.16,1.445 0.26,2.91 0.26,4.395 0,21.308 -17.28,38.593 -38.6,38.593 -1.11,0 -2.23,-0.078 -3.32,-0.176 -1.03,-0.097 -2.07,-0.234 -3.06,-0.41 0,0 0,0 0,0.02 -18.27,-3.047 -32.21,-18.906 -32.21,-38.027 0,-0.801 0.07,-1.583 0.11,-2.364 -0.81,-11.191 1.34,-43.613 44.66,-81.386 21.33,-18.594 57.66,-27.872 86.9,-27.872 66.45,0 135.22,42.286 135.22,113.047 0,7.09 -0.94,15.918 -2.6,24.18"
             inkscape:connector-curvature="0" /></g></g></g></g><path
     style="fill:#bdbcbc;fill-opacity:1;stroke-width:0.32732302"
     d="m 119.61023,8.9369163 c -2.18244,0.01258 -4.95482,-0.319764 -6.22489,1.9268587 0.12822,10.025991 -0.26941,20.070697 0.23398,30.085587 -0.14168,1.932668 1.79811,2.792631 3.4467,2.607055 5.14745,-0.04517 10.56838,0.68962 15.47986,-1.217848 6.7633,-2.657908 10.97945,-10.060054 10.22501,-17.233047 -0.0381,-8.445334 -7.47486,-16.2516687 -16.04691,-16.0481657 -2.36916,-0.120192 -4.74209,-0.131214 -7.11375,-0.12044 z m 4.91752,8.2808887 c 3.43219,-0.230223 7.34841,0.536137 9.23856,3.739281 3.00422,4.500609 1.49854,11.806072 -3.87673,13.739256 -3.57198,1.113358 -7.44004,0.483783 -11.13602,0.687251 -2.37083,0.04829 0.40412,-0.204642 1.25896,-0.428506 2.10535,-0.208973 0.70796,-3.0601 1.10966,-4.465996 -0.18573,-4.194631 0.37838,-8.509945 -0.3887,-12.640294 -0.35404,-0.544741 -2.85337,-0.495153 -1.34835,-0.583329 1.71412,-0.02351 3.42827,-0.05389 5.14262,-0.04766 z"
     id="path49"
     inkscape:connector-curvature="0" /><path
     style="fill:#bdbcbc;fill-opacity:1;stroke-width:0.32732302"
     d="m 94.454309,8.7738943 c -10.05105,0.119686 -18.672903,10.3331447 -16.65512,20.2806007 1.293653,8.364707 9.339585,15.325754 17.92541,14.571628 9.614081,0.02798 17.814871,-9.3432 16.786171,-18.855595 C 111.8694,15.78118 103.46592,8.2999643 94.454309,8.7738943 Z m 0.79081,7.5322647 c 6.443581,-0.213576 11.550031,7.099705 9.271811,13.068627 -1.33931,4.354593 -6.020481,7.418751 -10.638001,6.801542 -4.993212,-0.436717 -9.096024,-5.198528 -8.709858,-10.243548 -0.02844,-5.354415 4.714691,-9.898535 10.076048,-9.626621 z"
     id="path51"
     inkscape:connector-curvature="0" /><path
     style="fill:#bdbcbc;fill-opacity:1;stroke-width:0.32732302"
     d="m 58.840027,8.7483223 c -9.186579,-0.02833 -17.298171,8.2736447 -17.171033,17.4382607 -0.180495,8.944669 7.52125,17.323534 16.546434,17.442735 5.223297,0.466933 10.43862,-1.73528 13.82339,-5.724464 5.619511,-5.491821 5.896347,-14.980871 1.701335,-21.372108 C 70.464827,11.703962 64.692172,8.6240123 58.840027,8.7483223 Z m 0.314536,7.5744587 c 6.004655,-0.31961 11.094095,5.895296 9.810101,11.696683 -0.895909,6.255535 -8.565332,10.222387 -14.171424,7.164666 -3.546495,-1.740123 -5.914078,-5.585003 -5.494168,-9.573559 0.0604,-5.052287 4.840075,-9.433142 9.855491,-9.28779 z"
     id="path53"
     inkscape:connector-curvature="0" /><path
     style="fill:#bdbcbc;fill-opacity:1;stroke-width:0.32732302"
     d="M 36.88701,4.0264319 C 34.323453,4.2947911 32.994125,6.9915114 31.075678,8.4074943 27.496544,11.881454 23.987185,15.426316 20.443503,18.93625 15.517976,14.131819 10.873135,9.0047633 5.643644,4.5295632 3.66708,3.2589894 0.835909,4.6243124 0.1300669,6.6098509 0.1970483,19.613204 -0.2709904,32.632276 0.2472895,45.626502 0.6947958,48.387482 4.610738,49.443508 6.438937,47.34047 8.280432,45.85029 7.017432,43.090361 7.411862,41.022996 7.417762,33.36814 7.60138,25.686314 7.495702,18.048259 6.535878,16.698421 5.561606,15.362088 4.616922,14.005308 c 5.000924,4.643098 9.53486,9.846627 14.861871,14.107494 2.555785,0.596184 4.259235,-2.179015 6.031182,-3.525115 3.578966,-3.445484 7.043951,-7.002851 10.62841,-10.443011 -1.132472,1.908294 -3.380707,3.460056 -2.783526,5.935926 0.05514,8.674479 -0.109574,17.387692 0.08183,26.038161 1.106669,2.043701 3.851649,3.172137 5.846424,1.669862 1.976628,-1.308939 1.274946,-4.186452 1.559936,-6.193475 C 40.961511,29.824819 40.777392,18.05328 40.764381,6.2825314 39.866092,5.1284355 38.477293,3.9310605 36.88701,4.0264319 Z"
     id="path55"
     inkscape:connector-curvature="0" /><path
     style="fill:#2e8b57;fill-opacity:1;stroke-width:0.32732302"
     d="m 162.98948,8.8346283 c -5.13811,-0.09578 -10.38882,2.9841127 -11.87697,8.0795077 -0.79896,3.970585 0.22879,8.916548 4.16861,10.8751 3.99076,2.339627 8.9864,1.569271 13.09065,3.445921 1.81384,1.609839 -0.40228,4.031846 -2.11609,4.590833 -2.42909,0.993572 -5.30111,0.573384 -7.39226,-0.996034 -1.03405,0.141032 -1.6098,1.458198 -2.72407,1.52282 2.13934,-1.05234 3.13469,-4.067432 1.32464,-5.894372 -1.46536,-2.113759 -4.73166,-1.945524 -6.12772,0.165579 -1.99718,3.342114 0.38423,7.362104 2.84809,9.760236 3.10995,3.131764 7.78421,3.693738 11.95688,2.990658 5.73811,-0.434914 11.19403,-5.796275 10.21579,-11.776205 -0.12956,-4.97472 -5.18017,-8.167328 -9.70525,-8.64401 -2.62107,-0.720725 -5.77385,-0.314394 -7.9501,-2.093471 -1.58463,-2.220298 1.18594,-4.48634 3.30327,-4.562064 1.98794,-0.328809 4.04967,-0.01899 5.77227,1.169284 0.64149,-0.0031 1.789,-1.313649 2.13207,-1.103436 -2.85896,1.419032 -2.58188,6.260917 0.62204,7.053427 2.60119,1.012788 5.37417,-1.281954 5.16749,-3.993085 0.15099,-5.37628 -4.50612,-9.9145647 -9.72187,-10.4137437 -0.98718,-0.153025 -1.98948,-0.200149 -2.98747,-0.176945 z"
     id="path65"
     inkscape:connector-curvature="0" /></svg>