<?xml version="1.0" encoding="UTF-8" standalone="no"?>
<svg
   xmlns:dc="http://purl.org/dc/elements/1.1/"
   xmlns:cc="http://creativecommons.org/ns#"
   xmlns:rdf="http://www.w3.org/1999/02/22-rdf-syntax-ns#"
   xmlns:svg="http://www.w3.org/2000/svg"
   xmlns="http://www.w3.org/2000/svg"
   viewBox="0 0 336 322.49332"
   height="322.49332"
   width="336"
   xml:space="preserve"
   id="svg2"
   version="1.1"><metadata
     id="metadata8"><rdf:RDF><cc:Work
         rdf:about=""><dc:format>image/svg+xml</dc:format><dc:type
           rdf:resource="http://purl.org/dc/dcmitype/StillImage" /></cc:Work></rdf:RDF></metadata><defs
     id="defs6"><clipPath
       id="clipPath20"
       clipPathUnits="userSpaceOnUse"><path
         id="path18"
         d="M 0,2418.73 V 0 h 2520 v 2418.73 z" /></clipPath></defs><g
     transform="matrix(1.3333333,0,0,-1.3333333,0,322.49333)"
     id="g10"><g
       transform="scale(0.1)"
       id="g12"><g
         id="g14"><g
           clip-path="url(#clipPath20)"
           id="g16"><path
             id="path22"
             style="fill:#393536;fill-opacity:1;fill-rule:nonzero;stroke:none"
             d="m 1115.03,481.871 418.77,78.539 394.3,-336.762 z m 862,-272.75 -100.31,499.551 424.95,499.588 z m -437.4,359.449 -98.73,347.91 506.05,-695.781 z m -113.21,362.309 102.51,-361.207 -422.91,-79.32 z M 812.773,907.949 1066.66,516.93 254.137,1298.96 Z m 0.801,681.891 -573.508,-230.33 1147.004,833.34 z m 1061.446,-0.78 -396.4,575.9 792.82,-893.52 z m -4.9,-872.689 -428.86,224.68 857.7,279.459 z M 1418.23,936.621 1094.81,491.949 825.371,906.93 Z m -17.17,9.141 L 817.91,916.559 234.75,1324.73 Z M 815.168,1579.71 1411.2,952.988 219.121,1340.31 Z M 1423.42,954.648 823.352,1585.61 1423.42,2216.56 Z m 10,3.551 V 2213.01 l 431.85,-627.4 z m 437.92,627.411 z m 1.06,-7.27 431.49,-345.7 -862.97,-281.179 z M 1965.9,211.641 1445.05,927.77 1866.9,706.738 1966.35,211.5 Z m 353.09,1017.559 -4.75,1.54 3.74,3.32 -885.82,998.34 -3.74,-3.32 -2.94,4.05 -1223.949,-889.26 2.942,-4.05 -3.465,-3.61 890.102,-856.679 3.47,3.59 -1.52,-4.762 854.6,-271.41 24.98,-21.347 3.25,3.808 4.75,-1.539 338.35,1041.329" /></g></g></g></g></svg>