<svg class="ldp-trianglify" width="1000px"  height="200px"  xmlns="http://www.w3.org/2000/svg" xmlns:xlink="http://www.w3.org/1999/xlink" preserveAspectRatio="xMidYMid" style="background: rgb(255, 255, 255);"><defs>
  <pattern id="ldp-96378d490daba8" x="0" y="0" width="1000" height="200" patternUnits="userSpaceOnUse">
    <defs><pattern id="ldp-96378d490daba8123" x="0" y="0" width="1000" height="200" patternUnits="userSpaceOnUse"></pattern></defs><g class="polygons"><path d="M -263.0138584947305 -79.56119307618451 L -268.2244697568181 -34.54261768001906 L -142.496094864411 -35.61672322785506 Z" fill="rgb(229, 118, 23)" stroke="rgb(229, 118, 23)" stroke-width="0.8" stroke-opacity="0.8"></path><path d="M -263.0138584947305 -79.56119307618451 L -142.496094864411 -35.61672322785506 L -135.3860330623657 -92.72518674137679 Z" fill="rgb(233, 122, 22)" stroke="rgb(233, 122, 22)" stroke-width="0.8" stroke-opacity="0.8"></path><path d="M -135.3860330623657 -92.72518674137679 L -142.496094864411 -35.61672322785506 L -10.667498104254712 -78.12731784241566 Z" fill="rgb(233, 122, 22)" stroke="rgb(233, 122, 22)" stroke-width="0.8" stroke-opacity="0.8"></path><path d="M -10.667498104254712 -78.12731784241566 L -142.496094864411 -35.61672322785506 L -139.98642056017195 -19.55689861254479 Z" fill="rgb(233, 122, 22)" stroke="rgb(233, 122, 22)" stroke-width="0.8" stroke-opacity="0.8"></path><path d="M -10.667498104254712 -78.12731784241566 L -139.98642056017195 -19.55689861254479 L -2.802292923266183 -10.212622255456656 Z" fill="rgb(226, 115, 24)" stroke="rgb(226, 115, 24)" stroke-width="0.8" stroke-opacity="0.8"></path><path d="M -10.667498104254712 -78.12731784241566 L -2.802292923266183 -10.212622255456656 L 22.634673962064994 -28.477830835075196 Z" fill="rgb(233, 122, 22)" stroke="rgb(233, 122, 22)" stroke-width="0.8" stroke-opacity="0.8"></path><path d="M -10.667498104254712 -78.12731784241566 L 22.634673962064994 -28.477830835075196 L 125.51676641113356 -58.85941009681962 Z" fill="rgb(220, 108, 25)" stroke="rgb(220, 108, 25)" stroke-width="0.8" stroke-opacity="0.8"></path><path d="M -10.667498104254712 -78.12731784241566 L 125.51676641113356 -58.85941009681962 L 128.19474662266063 -63.62851531286983 Z" fill="rgb(228, 117, 23)" stroke="rgb(228, 117, 23)" stroke-width="0.8" stroke-opacity="0.8"></path><path d="M 128.19474662266063 -63.62851531286983 L 125.51676641113356 -58.85941009681962 L 247.26408178904285 -26.012071892601114 Z" fill="rgb(210, 98, 27)" stroke="rgb(210, 98, 27)" stroke-width="0.8" stroke-opacity="0.8"></path><path d="M 128.19474662266063 -63.62851531286983 L 247.26408178904285 -26.012071892601114 L 267.72230961990203 -80.44650076262364 Z" fill="rgb(201, 90, 27)" stroke="rgb(201, 90, 27)" stroke-width="0.8" stroke-opacity="0.8"></path><path d="M 267.72230961990203 -80.44650076262364 L 247.26408178904285 -26.012071892601114 L 356.52671778004196 -3.521208880456456 Z" fill="rgb(212, 100, 26)" stroke="rgb(212, 100, 26)" stroke-width="0.8" stroke-opacity="0.8"></path><path d="M 267.72230961990203 -80.44650076262364 L 356.52671778004196 -3.521208880456456 L 368.8838988190761 -95.18546167720294 Z" fill="rgb(206, 94, 27)" stroke="rgb(206, 94, 27)" stroke-width="0.8" stroke-opacity="0.8"></path><path d="M 368.8838988190761 -95.18546167720294 L 356.52671778004196 -3.521208880456456 L 399.0447487342005 -44.8097379536745 Z" fill="rgb(193, 83, 28)" stroke="rgb(193, 83, 28)" stroke-width="0.8" stroke-opacity="0.8"></path><path d="M 368.8838988190761 -95.18546167720294 L 399.0447487342005 -44.8097379536745 L 501.4566652522017 -90.26067626563409 Z" fill="rgb(194, 85, 28)" stroke="rgb(194, 85, 28)" stroke-width="0.8" stroke-opacity="0.8"></path><path d="M 501.4566652522017 -90.26067626563409 L 399.0447487342005 -44.8097379536745 L 490.50295547346315 -13.462576150455005 Z" fill="rgb(196, 86, 28)" stroke="rgb(196, 86, 28)" stroke-width="0.8" stroke-opacity="0.8"></path><path d="M 501.4566652522017 -90.26067626563409 L 490.50295547346315 -13.462576150455005 L 515.9272154162518 -23.561808320633347 Z" fill="rgb(198, 89, 28)" stroke="rgb(198, 89, 28)" stroke-width="0.8" stroke-opacity="0.8"></path><path d="M 501.4566652522017 -90.26067626563409 L 515.9272154162518 -23.561808320633347 L 611.6991367853509 -85.2149640444803 Z" fill="rgb(204, 96, 28)" stroke="rgb(204, 96, 28)" stroke-width="0.8" stroke-opacity="0.8"></path><path d="M 611.6991367853509 -85.2149640444803 L 515.9272154162518 -23.561808320633347 L 601.3738673670204 -29.7466667159636 Z" fill="rgb(205, 98, 28)" stroke="rgb(205, 98, 28)" stroke-width="0.8" stroke-opacity="0.8"></path><path d="M 611.6991367853509 -85.2149640444803 L 601.3738673670204 -29.7466667159636 L 633.4876298923822 -13.464513574789665 Z" fill="rgb(206, 99, 27)" stroke="rgb(206, 99, 27)" stroke-width="0.8" stroke-opacity="0.8"></path><path d="M 611.6991367853509 -85.2149640444803 L 633.4876298923822 -13.464513574789665 L 739.8132090963743 -86.15426386643956 Z" fill="rgb(205, 98, 28)" stroke="rgb(205, 98, 28)" stroke-width="0.8" stroke-opacity="0.8"></path><path d="M 739.8132090963743 -86.15426386643956 L 633.4876298923822 -13.464513574789665 L 753.3915112723462 -23.395984430499034 Z" fill="rgb(213, 107, 27)" stroke="rgb(213, 107, 27)" stroke-width="0.8" stroke-opacity="0.8"></path><path d="M 739.8132090963743 -86.15426386643956 L 753.3915112723462 -23.395984430499034 L 862.8891216899239 -58.384279342075345 Z" fill="rgb(211, 105, 27)" stroke="rgb(211, 105, 27)" stroke-width="0.8" stroke-opacity="0.8"></path><path d="M 889.299560451226 -57.247433360912076 L 862.8891216899239 -58.384279342075345 L 855.1674011145152 -3.678820877405567 Z" fill="rgb(225, 123, 26)" stroke="rgb(225, 123, 26)" stroke-width="0.8" stroke-opacity="0.8"></path><path d="M 889.299560451226 -57.247433360912076 L 855.1674011145152 -3.678820877405567 L 893.8078880165806 17.038119834654285 Z" fill="rgb(220, 117, 26)" stroke="rgb(220, 117, 26)" stroke-width="0.8" stroke-opacity="0.8"></path><path d="M 889.299560451226 -57.247433360912076 L 893.8078880165806 17.038119834654285 L 994.5133593739472 -34.2260506865796 Z" fill="rgb(222, 119, 26)" stroke="rgb(222, 119, 26)" stroke-width="0.8" stroke-opacity="0.8"></path><path d="M 889.299560451226 -57.247433360912076 L 994.5133593739472 -34.2260506865796 L 1000.4796832440312 -81.8631452404664 Z" fill="rgb(233, 133, 25)" stroke="rgb(233, 133, 25)" stroke-width="0.8" stroke-opacity="0.8"></path><path d="M 1000.4796832440312 -81.8631452404664 L 994.5133593739472 -34.2260506865796 L 1108.6596795491325 -59.30048917006553 Z" fill="rgb(229, 129, 26)" stroke="rgb(229, 129, 26)" stroke-width="0.8" stroke-opacity="0.8"></path><path d="M 1108.6596795491325 -59.30048917006553 L 994.5133593739472 -34.2260506865796 L 991.7665999092586 5.680350051735701 Z" fill="rgb(235, 136, 25)" stroke="rgb(235, 136, 25)" stroke-width="0.8" stroke-opacity="0.8"></path><path d="M 1108.6596795491325 -59.30048917006553 L 991.7665999092586 5.680350051735701 L 1115.5860441277391 41.63978784655356 Z" fill="rgb(233, 133, 25)" stroke="rgb(233, 133, 25)" stroke-width="0.8" stroke-opacity="0.8"></path><path d="M 1108.6596795491325 -59.30048917006553 L 1115.5860441277391 41.63978784655356 L 1131.2778135896856 -29.778988210394267 Z" fill="rgb(228, 126, 26)" stroke="rgb(228, 126, 26)" stroke-width="0.8" stroke-opacity="0.8"></path><path d="M -268.2244697568181 -34.54261768001906 L -264.85980285804135 5.208612082243306 L -142.496094864411 -35.61672322785506 Z" fill="rgb(224, 113, 24)" stroke="rgb(224, 113, 24)" stroke-width="0.8" stroke-opacity="0.8"></path><path d="M -142.496094864411 -35.61672322785506 L -264.85980285804135 5.208612082243306 L -139.98642056017195 -19.55689861254479 Z" fill="rgb(227, 116, 24)" stroke="rgb(227, 116, 24)" stroke-width="0.8" stroke-opacity="0.8"></path><path d="M 22.634673962064994 -28.477830835075196 L -2.802292923266183 -10.212622255456656 L 101.74410965738254 51.66939585291047 Z" fill="rgb(233, 122, 22)" stroke="rgb(233, 122, 22)" stroke-width="0.8" stroke-opacity="0.8"></path><path d="M 22.634673962064994 -28.477830835075196 L 101.74410965738254 51.66939585291047 L 103.88630331555566 -2.9416287681130093 Z" fill="rgb(221, 109, 25)" stroke="rgb(221, 109, 25)" stroke-width="0.8" stroke-opacity="0.8"></path><path d="M 22.634673962064994 -28.477830835075196 L 103.88630331555566 -2.9416287681130093 L 125.51676641113356 -58.85941009681962 Z" fill="rgb(233, 122, 22)" stroke="rgb(233, 122, 22)" stroke-width="0.8" stroke-opacity="0.8"></path><path d="M 125.51676641113356 -58.85941009681962 L 103.88630331555566 -2.9416287681130093 L 241.8485313751969 21.358764183284123 Z" fill="rgb(207, 96, 27)" stroke="rgb(207, 96, 27)" stroke-width="0.8" stroke-opacity="0.8"></path><path d="M 125.51676641113356 -58.85941009681962 L 241.8485313751969 21.358764183284123 L 247.26408178904285 -26.012071892601114 Z" fill="rgb(216, 105, 26)" stroke="rgb(216, 105, 26)" stroke-width="0.8" stroke-opacity="0.8"></path><path d="M 247.26408178904285 -26.012071892601114 L 241.8485313751969 21.358764183284123 L 265.07068969261746 31.696006536429753 Z" fill="rgb(198, 87, 28)" stroke="rgb(198, 87, 28)" stroke-width="0.8" stroke-opacity="0.8"></path><path d="M 247.26408178904285 -26.012071892601114 L 265.07068969261746 31.696006536429753 L 356.52671778004196 -3.521208880456456 Z" fill="rgb(205, 93, 27)" stroke="rgb(205, 93, 27)" stroke-width="0.8" stroke-opacity="0.8"></path><path d="M 399.0447487342005 -44.8097379536745 L 356.52671778004196 -3.521208880456456 L 392.97231759686235 57.294030877453466 Z" fill="rgb(190, 80, 28)" stroke="rgb(190, 80, 28)" stroke-width="0.8" stroke-opacity="0.8"></path><path d="M 399.0447487342005 -44.8097379536745 L 392.97231759686235 57.294030877453466 L 490.50295547346315 -13.462576150455005 Z" fill="rgb(196, 87, 28)" stroke="rgb(196, 87, 28)" stroke-width="0.8" stroke-opacity="0.8"></path><path d="M 515.9272154162518 -23.561808320633347 L 490.50295547346315 -13.462576150455005 L 506.4367278706783 56.66191808835618 Z" fill="rgb(195, 86, 28)" stroke="rgb(195, 86, 28)" stroke-width="0.8" stroke-opacity="0.8"></path><path d="M 515.9272154162518 -23.561808320633347 L 506.4367278706783 56.66191808835618 L 601.3738673670204 -29.7466667159636 Z" fill="rgb(198, 89, 28)" stroke="rgb(198, 89, 28)" stroke-width="0.8" stroke-opacity="0.8"></path><path d="M 601.3738673670204 -29.7466667159636 L 506.4367278706783 56.66191808835618 L 612.0026068655048 92.95400510688353 Z" fill="rgb(198, 89, 28)" stroke="rgb(198, 89, 28)" stroke-width="0.8" stroke-opacity="0.8"></path><path d="M 601.3738673670204 -29.7466667159636 L 612.0026068655048 92.95400510688353 L 649.0466910894392 22.64686282280669 Z" fill="rgb(203, 94, 28)" stroke="rgb(203, 94, 28)" stroke-width="0.8" stroke-opacity="0.8"></path><path d="M 601.3738673670204 -29.7466667159636 L 649.0466910894392 22.64686282280669 L 633.4876298923822 -13.464513574789665 Z" fill="rgb(208, 101, 27)" stroke="rgb(208, 101, 27)" stroke-width="0.8" stroke-opacity="0.8"></path><path d="M 758.7807908820744 -17.04978591431665 L 753.3915112723462 -23.395984430499034 L 740.1704319887673 52.014062215858765 Z" fill="rgb(209, 102, 27)" stroke="rgb(209, 102, 27)" stroke-width="0.8" stroke-opacity="0.8"></path><path d="M 758.7807908820744 -17.04978591431665 L 740.1704319887673 52.014062215858765 L 765.0962608965842 62.223375810160974 Z" fill="rgb(208, 101, 27)" stroke="rgb(208, 101, 27)" stroke-width="0.8" stroke-opacity="0.8"></path><path d="M 758.7807908820744 -17.04978591431665 L 765.0962608965842 62.223375810160974 L 855.1674011145152 -3.678820877405567 Z" fill="rgb(216, 110, 27)" stroke="rgb(216, 110, 27)" stroke-width="0.8" stroke-opacity="0.8"></path><path d="M 758.7807908820744 -17.04978591431665 L 855.1674011145152 -3.678820877405567 L 862.8891216899239 -58.384279342075345 Z" fill="rgb(215, 110, 27)" stroke="rgb(215, 110, 27)" stroke-width="0.8" stroke-opacity="0.8"></path><path d="M 758.7807908820744 -17.04978591431665 L 862.8891216899239 -58.384279342075345 L 753.3915112723462 -23.395984430499034 Z" fill="rgb(208, 101, 27)" stroke="rgb(208, 101, 27)" stroke-width="0.8" stroke-opacity="0.8"></path><path d="M 994.5133593739472 -34.2260506865796 L 893.8078880165806 17.038119834654285 L 991.7665999092586 5.680350051735701 Z" fill="rgb(232, 132, 25)" stroke="rgb(232, 132, 25)" stroke-width="0.8" stroke-opacity="0.8"></path><path d="M 1131.2778135896856 -29.778988210394267 L 1115.5860441277391 41.63978784655356 L 1139.7096543124414 7.285559992235097 Z" fill="rgb(230, 129, 25)" stroke="rgb(230, 129, 25)" stroke-width="0.8" stroke-opacity="0.8"></path><path d="M -264.85980285804135 5.208612082243306 L -263.1080497017582 62.52232265500746 L -255.88254680432976 61.6859474750242 Z" fill="rgb(233, 122, 22)" stroke="rgb(233, 122, 22)" stroke-width="0.8" stroke-opacity="0.8"></path><path d="M -264.85980285804135 5.208612082243306 L -255.88254680432976 61.6859474750242 L -133.530231769955 51.56473664201066 Z" fill="rgb(233, 122, 22)" stroke="rgb(233, 122, 22)" stroke-width="0.8" stroke-opacity="0.8"></path><path d="M -264.85980285804135 5.208612082243306 L -133.530231769955 51.56473664201066 L -139.98642056017195 -19.55689861254479 Z" fill="rgb(231, 119, 23)" stroke="rgb(231, 119, 23)" stroke-width="0.8" stroke-opacity="0.8"></path><path d="M -139.98642056017195 -19.55689861254479 L -133.530231769955 51.56473664201066 L -19.693751402059647 26.33430566641818 Z" fill="rgb(233, 122, 22)" stroke="rgb(233, 122, 22)" stroke-width="0.8" stroke-opacity="0.8"></path><path d="M -139.98642056017195 -19.55689861254479 L -19.693751402059647 26.33430566641818 L -2.802292923266183 -10.212622255456656 Z" fill="rgb(233, 122, 22)" stroke="rgb(233, 122, 22)" stroke-width="0.8" stroke-opacity="0.8"></path><path d="M -2.802292923266183 -10.212622255456656 L -19.693751402059647 26.33430566641818 L 101.74410965738254 51.66939585291047 Z" fill="rgb(224, 112, 24)" stroke="rgb(224, 112, 24)" stroke-width="0.8" stroke-opacity="0.8"></path><path d="M 103.88630331555566 -2.9416287681130093 L 101.74410965738254 51.66939585291047 L 138.64924256915813 77.60316903103885 Z" fill="rgb(209, 97, 27)" stroke="rgb(209, 97, 27)" stroke-width="0.8" stroke-opacity="0.8"></path><path d="M 103.88630331555566 -2.9416287681130093 L 138.64924256915813 77.60316903103885 L 241.8485313751969 21.358764183284123 Z" fill="rgb(204, 93, 27)" stroke="rgb(204, 93, 27)" stroke-width="0.8" stroke-opacity="0.8"></path><path d="M 241.8485313751969 21.358764183284123 L 138.64924256915813 77.60316903103885 L 259.8149225365683 89.84314103487847 Z" fill="rgb(207, 95, 27)" stroke="rgb(207, 95, 27)" stroke-width="0.8" stroke-opacity="0.8"></path><path d="M 241.8485313751969 21.358764183284123 L 259.8149225365683 89.84314103487847 L 265.07068969261746 31.696006536429753 Z" fill="rgb(200, 89, 28)" stroke="rgb(200, 89, 28)" stroke-width="0.8" stroke-opacity="0.8"></path><path d="M 356.52671778004196 -3.521208880456456 L 265.07068969261746 31.696006536429753 L 358.9189482260233 39.519003814968904 Z" fill="rgb(192, 82, 28)" stroke="rgb(192, 82, 28)" stroke-width="0.8" stroke-opacity="0.8"></path><path d="M 356.52671778004196 -3.521208880456456 L 358.9189482260233 39.519003814968904 L 392.97231759686235 57.294030877453466 Z" fill="rgb(190, 80, 28)" stroke="rgb(190, 80, 28)" stroke-width="0.8" stroke-opacity="0.8"></path><path d="M 490.50295547346315 -13.462576150455005 L 392.97231759686235 57.294030877453466 L 506.4367278706783 56.66191808835618 Z" fill="rgb(197, 88, 28)" stroke="rgb(197, 88, 28)" stroke-width="0.8" stroke-opacity="0.8"></path><path d="M 633.4876298923822 -13.464513574789665 L 649.0466910894392 22.64686282280669 L 753.3915112723462 -23.395984430499034 Z" fill="rgb(211, 104, 27)" stroke="rgb(211, 104, 27)" stroke-width="0.8" stroke-opacity="0.8"></path><path d="M 753.3915112723462 -23.395984430499034 L 649.0466910894392 22.64686282280669 L 740.1704319887673 52.014062215858765 Z" fill="rgb(214, 108, 27)" stroke="rgb(214, 108, 27)" stroke-width="0.8" stroke-opacity="0.8"></path><path d="M 855.1674011145152 -3.678820877405567 L 765.0962608965842 62.223375810160974 L 860.6611091731987 99.4430481362706 Z" fill="rgb(224, 121, 26)" stroke="rgb(224, 121, 26)" stroke-width="0.8" stroke-opacity="0.8"></path><path d="M 855.1674011145152 -3.678820877405567 L 860.6611091731987 99.4430481362706 L 888.3762054371568 84.5173488387453 Z" fill="rgb(223, 119, 26)" stroke="rgb(223, 119, 26)" stroke-width="0.8" stroke-opacity="0.8"></path><path d="M 855.1674011145152 -3.678820877405567 L 888.3762054371568 84.5173488387453 L 893.8078880165806 17.038119834654285 Z" fill="rgb(228, 127, 26)" stroke="rgb(228, 127, 26)" stroke-width="0.8" stroke-opacity="0.8"></path><path d="M 991.7665999092586 5.680350051735701 L 893.8078880165806 17.038119834654285 L 975.6437921604265 105.652035308134 Z" fill="rgb(233, 134, 25)" stroke="rgb(233, 134, 25)" stroke-width="0.8" stroke-opacity="0.8"></path><path d="M 991.7665999092586 5.680350051735701 L 975.6437921604265 105.652035308134 L 1002.4018680831401 82.65334613499638 Z" fill="rgb(233, 134, 25)" stroke="rgb(233, 134, 25)" stroke-width="0.8" stroke-opacity="0.8"></path><path d="M 991.7665999092586 5.680350051735701 L 1002.4018680831401 82.65334613499638 L 1017.6495281036608 57.039832223557426 Z" fill="rgb(226, 124, 26)" stroke="rgb(226, 124, 26)" stroke-width="0.8" stroke-opacity="0.8"></path><path d="M 991.7665999092586 5.680350051735701 L 1017.6495281036608 57.039832223557426 L 1115.5860441277391 41.63978784655356 Z" fill="rgb(230, 130, 25)" stroke="rgb(230, 130, 25)" stroke-width="0.8" stroke-opacity="0.8"></path><path d="M 1139.7096543124414 7.285559992235097 L 1115.5860441277391 41.63978784655356 L 1137.1530929880475 83.42572541321003 Z" fill="rgb(231, 131, 25)" stroke="rgb(231, 131, 25)" stroke-width="0.8" stroke-opacity="0.8"></path><path d="M 1139.7096543124414 7.285559992235097 L 1137.1530929880475 83.42572541321003 L 1142.6127987503303 181.04288608007113 Z" fill="rgb(231, 130, 25)" stroke="rgb(231, 130, 25)" stroke-width="0.8" stroke-opacity="0.8"></path><path d="M -263.1080497017582 62.52232265500746 L -271.9220357091936 156.3127824071018 L -241.42225234497795 128.3542622712801 Z" fill="rgb(218, 106, 25)" stroke="rgb(218, 106, 25)" stroke-width="0.8" stroke-opacity="0.8"></path><path d="M -263.1080497017582 62.52232265500746 L -241.42225234497795 128.3542622712801 L -255.88254680432976 61.6859474750242 Z" fill="rgb(233, 122, 22)" stroke="rgb(233, 122, 22)" stroke-width="0.8" stroke-opacity="0.8"></path><path d="M -133.530231769955 51.56473664201066 L -255.88254680432976 61.6859474750242 L -148.34160752679696 85.68345661557858 Z" fill="rgb(233, 122, 22)" stroke="rgb(233, 122, 22)" stroke-width="0.8" stroke-opacity="0.8"></path><path d="M -133.530231769955 51.56473664201066 L -148.34160752679696 85.68345661557858 L -8.320512777253796 95.71695695021369 Z" fill="rgb(221, 110, 25)" stroke="rgb(221, 110, 25)" stroke-width="0.8" stroke-opacity="0.8"></path><path d="M -133.530231769955 51.56473664201066 L -8.320512777253796 95.71695695021369 L -19.693751402059647 26.33430566641818 Z" fill="rgb(231, 119, 23)" stroke="rgb(231, 119, 23)" stroke-width="0.8" stroke-opacity="0.8"></path><path d="M -19.693751402059647 26.33430566641818 L -8.320512777253796 95.71695695021369 L 101.74410965738254 51.66939585291047 Z" fill="rgb(223, 111, 25)" stroke="rgb(223, 111, 25)" stroke-width="0.8" stroke-opacity="0.8"></path><path d="M 101.74410965738254 51.66939585291047 L -8.320512777253796 95.71695695021369 L 115.09419775471957 105.2938557155015 Z" fill="rgb(208, 96, 27)" stroke="rgb(208, 96, 27)" stroke-width="0.8" stroke-opacity="0.8"></path><path d="M 101.74410965738254 51.66939585291047 L 115.09419775471957 105.2938557155015 L 138.64924256915813 77.60316903103885 Z" fill="rgb(211, 99, 26)" stroke="rgb(211, 99, 26)" stroke-width="0.8" stroke-opacity="0.8"></path><path d="M 265.07068969261746 31.696006536429753 L 259.8149225365683 89.84314103487847 L 358.9189482260233 39.519003814968904 Z" fill="rgb(199, 88, 28)" stroke="rgb(199, 88, 28)" stroke-width="0.8" stroke-opacity="0.8"></path><path d="M 358.9189482260233 39.519003814968904 L 259.8149225365683 89.84314103487847 L 360.1357894833842 101.83939991765097 Z" fill="rgb(192, 82, 28)" stroke="rgb(192, 82, 28)" stroke-width="0.8" stroke-opacity="0.8"></path><path d="M 358.9189482260233 39.519003814968904 L 360.1357894833842 101.83939991765097 L 392.97231759686235 57.294030877453466 Z" fill="rgb(195, 84, 28)" stroke="rgb(195, 84, 28)" stroke-width="0.8" stroke-opacity="0.8"></path><path d="M 506.4367278706783 56.66191808835618 L 392.97231759686235 57.294030877453466 L 502.8563026767223 72.40717297210793 Z" fill="rgb(195, 86, 28)" stroke="rgb(195, 86, 28)" stroke-width="0.8" stroke-opacity="0.8"></path><path d="M 506.4367278706783 56.66191808835618 L 502.8563026767223 72.40717297210793 L 612.0026068655048 92.95400510688353 Z" fill="rgb(205, 97, 28)" stroke="rgb(205, 97, 28)" stroke-width="0.8" stroke-opacity="0.8"></path><path d="M 649.0466910894392 22.64686282280669 L 612.0026068655048 92.95400510688353 L 740.1704319887673 52.014062215858765 Z" fill="rgb(212, 106, 27)" stroke="rgb(212, 106, 27)" stroke-width="0.8" stroke-opacity="0.8"></path><path d="M 740.1704319887673 52.014062215858765 L 612.0026068655048 92.95400510688353 L 618.6521685782371 118.33558153625117 Z" fill="rgb(211, 105, 27)" stroke="rgb(211, 105, 27)" stroke-width="0.8" stroke-opacity="0.8"></path><path d="M 740.1704319887673 52.014062215858765 L 618.6521685782371 118.33558153625117 L 745.3403213116507 125.18256192208894 Z" fill="rgb(211, 105, 27)" stroke="rgb(211, 105, 27)" stroke-width="0.8" stroke-opacity="0.8"></path><path d="M 740.1704319887673 52.014062215858765 L 745.3403213116507 125.18256192208894 L 765.0962608965842 62.223375810160974 Z" fill="rgb(218, 114, 27)" stroke="rgb(218, 114, 27)" stroke-width="0.8" stroke-opacity="0.8"></path><path d="M 893.8078880165806 17.038119834654285 L 888.3762054371568 84.5173488387453 L 975.6437921604265 105.652035308134 Z" fill="rgb(228, 127, 26)" stroke="rgb(228, 127, 26)" stroke-width="0.8" stroke-opacity="0.8"></path><path d="M 1017.6495281036608 57.039832223557426 L 1002.4018680831401 82.65334613499638 L 1133.3604625776527 127.66465223337894 Z" fill="rgb(238, 141, 25)" stroke="rgb(238, 141, 25)" stroke-width="0.8" stroke-opacity="0.8"></path><path d="M 1017.6495281036608 57.039832223557426 L 1133.3604625776527 127.66465223337894 L 1137.1530929880475 83.42572541321003 Z" fill="rgb(239, 142, 24)" stroke="rgb(239, 142, 24)" stroke-width="0.8" stroke-opacity="0.8"></path><path d="M 1017.6495281036608 57.039832223557426 L 1137.1530929880475 83.42572541321003 L 1115.5860441277391 41.63978784655356 Z" fill="rgb(231, 131, 25)" stroke="rgb(231, 131, 25)" stroke-width="0.8" stroke-opacity="0.8"></path><path d="M -255.88254680432976 61.6859474750242 L -241.42225234497795 128.3542622712801 L -148.34160752679696 85.68345661557858 Z" fill="rgb(216, 105, 26)" stroke="rgb(216, 105, 26)" stroke-width="0.8" stroke-opacity="0.8"></path><path d="M -148.34160752679696 85.68345661557858 L -241.42225234497795 128.3542622712801 L -141.3091516545303 132.36204947928826 Z" fill="rgb(215, 104, 26)" stroke="rgb(215, 104, 26)" stroke-width="0.8" stroke-opacity="0.8"></path><path d="M -148.34160752679696 85.68345661557858 L -141.3091516545303 132.36204947928826 L -8.320512777253796 95.71695695021369 Z" fill="rgb(215, 103, 26)" stroke="rgb(215, 103, 26)" stroke-width="0.8" stroke-opacity="0.8"></path><path d="M -8.320512777253796 95.71695695021369 L -141.3091516545303 132.36204947928826 L -9.527640394380354 118.34284157495489 Z" fill="rgb(221, 110, 25)" stroke="rgb(221, 110, 25)" stroke-width="0.8" stroke-opacity="0.8"></path><path d="M -8.320512777253796 95.71695695021369 L -9.527640394380354 118.34284157495489 L 115.09419775471957 105.2938557155015 Z" fill="rgb(208, 97, 27)" stroke="rgb(208, 97, 27)" stroke-width="0.8" stroke-opacity="0.8"></path><path d="M 138.64924256915813 77.60316903103885 L 115.09419775471957 105.2938557155015 L 141.2905631017161 177.97259132812266 Z" fill="rgb(204, 93, 27)" stroke="rgb(204, 93, 27)" stroke-width="0.8" stroke-opacity="0.8"></path><path d="M 138.64924256915813 77.60316903103885 L 141.2905631017161 177.97259132812266 L 259.8149225365683 89.84314103487847 Z" fill="rgb(191, 81, 28)" stroke="rgb(191, 81, 28)" stroke-width="0.8" stroke-opacity="0.8"></path><path d="M 259.8149225365683 89.84314103487847 L 141.2905631017161 177.97259132812266 L 271.264651353432 120.28693198175489 Z" fill="rgb(196, 85, 28)" stroke="rgb(196, 85, 28)" stroke-width="0.8" stroke-opacity="0.8"></path><path d="M 259.8149225365683 89.84314103487847 L 271.264651353432 120.28693198175489 L 360.1357894833842 101.83939991765097 Z" fill="rgb(198, 87, 28)" stroke="rgb(198, 87, 28)" stroke-width="0.8" stroke-opacity="0.8"></path><path d="M 392.97231759686235 57.294030877453466 L 360.1357894833842 101.83939991765097 L 481.71361795778773 100.27170432997897 Z" fill="rgb(196, 87, 28)" stroke="rgb(196, 87, 28)" stroke-width="0.8" stroke-opacity="0.8"></path><path d="M 392.97231759686235 57.294030877453466 L 481.71361795778773 100.27170432997897 L 502.8563026767223 72.40717297210793 Z" fill="rgb(195, 86, 28)" stroke="rgb(195, 86, 28)" stroke-width="0.8" stroke-opacity="0.8"></path><path d="M 502.8563026767223 72.40717297210793 L 481.71361795778773 100.27170432997897 L 489.6263716798656 155.94882186909956 Z" fill="rgb(203, 95, 28)" stroke="rgb(203, 95, 28)" stroke-width="0.8" stroke-opacity="0.8"></path><path d="M 502.8563026767223 72.40717297210793 L 489.6263716798656 155.94882186909956 L 612.0026068655048 92.95400510688353 Z" fill="rgb(207, 99, 27)" stroke="rgb(207, 99, 27)" stroke-width="0.8" stroke-opacity="0.8"></path><path d="M 612.0026068655048 92.95400510688353 L 489.6263716798656 155.94882186909956 L 618.6521685782371 118.33558153625117 Z" fill="rgb(206, 98, 28)" stroke="rgb(206, 98, 28)" stroke-width="0.8" stroke-opacity="0.8"></path><path d="M 765.0962608965842 62.223375810160974 L 745.3403213116507 125.18256192208894 L 860.6611091731987 99.4430481362706 Z" fill="rgb(218, 114, 27)" stroke="rgb(218, 114, 27)" stroke-width="0.8" stroke-opacity="0.8"></path><path d="M 888.3762054371568 84.5173488387453 L 860.6611091731987 99.4430481362706 L 853.6273626511786 149.5148364499084 Z" fill="rgb(230, 130, 25)" stroke="rgb(230, 130, 25)" stroke-width="0.8" stroke-opacity="0.8"></path><path d="M 888.3762054371568 84.5173488387453 L 853.6273626511786 149.5148364499084 L 871.1375606212621 176.58150144007618 Z" fill="rgb(232, 132, 25)" stroke="rgb(232, 132, 25)" stroke-width="0.8" stroke-opacity="0.8"></path><path d="M 888.3762054371568 84.5173488387453 L 871.1375606212621 176.58150144007618 L 975.6437921604265 105.652035308134 Z" fill="rgb(237, 140, 25)" stroke="rgb(237, 140, 25)" stroke-width="0.8" stroke-opacity="0.8"></path><path d="M 1002.4018680831401 82.65334613499638 L 975.6437921604265 105.652035308134 L 989.433410341229 148.94936297097186 Z" fill="rgb(230, 129, 26)" stroke="rgb(230, 129, 26)" stroke-width="0.8" stroke-opacity="0.8"></path><path d="M 1002.4018680831401 82.65334613499638 L 989.433410341229 148.94936297097186 L 1133.3604625776527 127.66465223337894 Z" fill="rgb(231, 131, 25)" stroke="rgb(231, 131, 25)" stroke-width="0.8" stroke-opacity="0.8"></path><path d="M 1137.1530929880475 83.42572541321003 L 1133.3604625776527 127.66465223337894 L 1142.6127987503303 181.04288608007113 Z" fill="rgb(238, 141, 25)" stroke="rgb(238, 141, 25)" stroke-width="0.8" stroke-opacity="0.8"></path><path d="M -241.42225234497795 128.3542622712801 L -271.9220357091936 156.3127824071018 L -246.9043622648358 212.7604398424012 Z" fill="rgb(218, 106, 25)" stroke="rgb(218, 106, 25)" stroke-width="0.8" stroke-opacity="0.8"></path><path d="M -241.42225234497795 128.3542622712801 L -246.9043622648358 212.7604398424012 L -134.43402627416378 168.4031515386473 Z" fill="rgb(223, 111, 25)" stroke="rgb(223, 111, 25)" stroke-width="0.8" stroke-opacity="0.8"></path><path d="M -241.42225234497795 128.3542622712801 L -134.43402627416378 168.4031515386473 L -141.3091516545303 132.36204947928826 Z" fill="rgb(208, 96, 27)" stroke="rgb(208, 96, 27)" stroke-width="0.8" stroke-opacity="0.8"></path><path d="M -141.3091516545303 132.36204947928826 L -134.43402627416378 168.4031515386473 L -9.527640394380354 118.34284157495489 Z" fill="rgb(223, 111, 25)" stroke="rgb(223, 111, 25)" stroke-width="0.8" stroke-opacity="0.8"></path><path d="M -9.527640394380354 118.34284157495489 L -134.43402627416378 168.4031515386473 L -16.101330635256318 182.5567249139257 Z" fill="rgb(222, 110, 25)" stroke="rgb(222, 110, 25)" stroke-width="0.8" stroke-opacity="0.8"></path><path d="M -9.527640394380354 118.34284157495489 L -16.101330635256318 182.5567249139257 L 14.225100332825896 162.15879051049836 Z" fill="rgb(224, 113, 24)" stroke="rgb(224, 113, 24)" stroke-width="0.8" stroke-opacity="0.8"></path><path d="M -9.527640394380354 118.34284157495489 L 14.225100332825896 162.15879051049836 L 115.09419775471957 105.2938557155015 Z" fill="rgb(214, 102, 26)" stroke="rgb(214, 102, 26)" stroke-width="0.8" stroke-opacity="0.8"></path><path d="M 115.09419775471957 105.2938557155015 L 14.225100332825896 162.15879051049836 L 109.13608699314213 177.08189871064633 Z" fill="rgb(199, 88, 28)" stroke="rgb(199, 88, 28)" stroke-width="0.8" stroke-opacity="0.8"></path><path d="M 115.09419775471957 105.2938557155015 L 109.13608699314213 177.08189871064633 L 141.2905631017161 177.97259132812266 Z" fill="rgb(196, 85, 28)" stroke="rgb(196, 85, 28)" stroke-width="0.8" stroke-opacity="0.8"></path><path d="M 271.264651353432 120.28693198175489 L 141.2905631017161 177.97259132812266 L 265.2692116560551 182.90643930347028 Z" fill="rgb(189, 79, 28)" stroke="rgb(189, 79, 28)" stroke-width="0.8" stroke-opacity="0.8"></path><path d="M 271.264651353432 120.28693198175489 L 265.2692116560551 182.90643930347028 L 355.2489027784046 177.33800093528419 Z" fill="rgb(190, 80, 28)" stroke="rgb(190, 80, 28)" stroke-width="0.8" stroke-opacity="0.8"></path><path d="M 271.264651353432 120.28693198175489 L 355.2489027784046 177.33800093528419 L 360.1357894833842 101.83939991765097 Z" fill="rgb(198, 89, 28)" stroke="rgb(198, 89, 28)" stroke-width="0.8" stroke-opacity="0.8"></path><path d="M 360.1357894833842 101.83939991765097 L 355.2489027784046 177.33800093528419 L 360.62312588727934 182.67796995228613 Z" fill="rgb(199, 90, 28)" stroke="rgb(199, 90, 28)" stroke-width="0.8" stroke-opacity="0.8"></path><path d="M 360.1357894833842 101.83939991765097 L 360.62312588727934 182.67796995228613 L 489.6263716798656 155.94882186909956 Z" fill="rgb(198, 89, 28)" stroke="rgb(198, 89, 28)" stroke-width="0.8" stroke-opacity="0.8"></path><path d="M 360.1357894833842 101.83939991765097 L 489.6263716798656 155.94882186909956 L 481.71361795778773 100.27170432997897 Z" fill="rgb(194, 84, 28)" stroke="rgb(194, 84, 28)" stroke-width="0.8" stroke-opacity="0.8"></path><path d="M 618.6521685782371 118.33558153625117 L 489.6263716798656 155.94882186909956 L 635.23071969546 146.65392326663672 Z" fill="rgb(206, 98, 27)" stroke="rgb(206, 98, 27)" stroke-width="0.8" stroke-opacity="0.8"></path><path d="M 618.6521685782371 118.33558153625117 L 635.23071969546 146.65392326663672 L 745.3403213116507 125.18256192208894 Z" fill="rgb(212, 106, 27)" stroke="rgb(212, 106, 27)" stroke-width="0.8" stroke-opacity="0.8"></path><path d="M 745.3403213116507 125.18256192208894 L 635.23071969546 146.65392326663672 L 735.8735821768696 170.51916437237145 Z" fill="rgb(221, 118, 26)" stroke="rgb(221, 118, 26)" stroke-width="0.8" stroke-opacity="0.8"></path><path d="M 745.3403213116507 125.18256192208894 L 735.8735821768696 170.51916437237145 L 853.6273626511786 149.5148364499084 Z" fill="rgb(227, 125, 26)" stroke="rgb(227, 125, 26)" stroke-width="0.8" stroke-opacity="0.8"></path><path d="M 745.3403213116507 125.18256192208894 L 853.6273626511786 149.5148364499084 L 860.6611091731987 99.4430481362706 Z" fill="rgb(229, 128, 26)" stroke="rgb(229, 128, 26)" stroke-width="0.8" stroke-opacity="0.8"></path><path d="M 975.6437921604265 105.652035308134 L 871.1375606212621 176.58150144007618 L 989.433410341229 148.94936297097186 Z" fill="rgb(229, 129, 26)" stroke="rgb(229, 129, 26)" stroke-width="0.8" stroke-opacity="0.8"></path><path d="M 1133.3604625776527 127.66465223337894 L 989.433410341229 148.94936297097186 L 1130.37650319522 155.4265798919807 Z" fill="rgb(242, 147, 24)" stroke="rgb(242, 147, 24)" stroke-width="0.8" stroke-opacity="0.8"></path><path d="M 1133.3604625776527 127.66465223337894 L 1130.37650319522 155.4265798919807 L 1142.6127987503303 181.04288608007113 Z" fill="rgb(238, 141, 25)" stroke="rgb(238, 141, 25)" stroke-width="0.8" stroke-opacity="0.8"></path><path d="M -271.9220357091936 156.3127824071018 L -257.86999379378636 253.74845945893375 L -246.9043622648358 212.7604398424012 Z" fill="rgb(215, 103, 26)" stroke="rgb(215, 103, 26)" stroke-width="0.8" stroke-opacity="0.8"></path><path d="M -134.43402627416378 168.4031515386473 L -246.9043622648358 212.7604398424012 L -126.78160766614292 222.3588602625409 Z" fill="rgb(205, 93, 27)" stroke="rgb(205, 93, 27)" stroke-width="0.8" stroke-opacity="0.8"></path><path d="M -134.43402627416378 168.4031515386473 L -126.78160766614292 222.3588602625409 L -16.101330635256318 182.5567249139257 Z" fill="rgb(220, 108, 25)" stroke="rgb(220, 108, 25)" stroke-width="0.8" stroke-opacity="0.8"></path><path d="M 14.225100332825896 162.15879051049836 L -16.101330635256318 182.5567249139257 L -4.509459767796628 260.59511586804103 Z" fill="rgb(209, 98, 27)" stroke="rgb(209, 98, 27)" stroke-width="0.8" stroke-opacity="0.8"></path><path d="M 14.225100332825896 162.15879051049836 L -4.509459767796628 260.59511586804103 L 106.44935984226011 253.26017211695034 Z" fill="rgb(204, 93, 27)" stroke="rgb(204, 93, 27)" stroke-width="0.8" stroke-opacity="0.8"></path><path d="M 14.225100332825896 162.15879051049836 L 106.44935984226011 253.26017211695034 L 109.13608699314213 177.08189871064633 Z" fill="rgb(206, 94, 27)" stroke="rgb(206, 94, 27)" stroke-width="0.8" stroke-opacity="0.8"></path><path d="M 109.13608699314213 177.08189871064633 L 106.44935984226011 253.26017211695034 L 141.2905631017161 177.97259132812266 Z" fill="rgb(190, 80, 28)" stroke="rgb(190, 80, 28)" stroke-width="0.8" stroke-opacity="0.8"></path><path d="M 265.2692116560551 182.90643930347028 L 141.2905631017161 177.97259132812266 L 248.0612504858493 217.2303014750925 Z" fill="rgb(196, 87, 28)" stroke="rgb(196, 87, 28)" stroke-width="0.8" stroke-opacity="0.8"></path><path d="M 265.2692116560551 182.90643930347028 L 248.0612504858493 217.2303014750925 L 265.30864393194787 198.8908360965971 Z" fill="rgb(193, 83, 28)" stroke="rgb(193, 83, 28)" stroke-width="0.8" stroke-opacity="0.8"></path><path d="M 265.2692116560551 182.90643930347028 L 265.30864393194787 198.8908360965971 L 355.2489027784046 177.33800093528419 Z" fill="rgb(197, 88, 28)" stroke="rgb(197, 88, 28)" stroke-width="0.8" stroke-opacity="0.8"></path><path d="M 355.2489027784046 177.33800093528419 L 265.30864393194787 198.8908360965971 L 360.62312588727934 182.67796995228613 Z" fill="rgb(195, 86, 28)" stroke="rgb(195, 86, 28)" stroke-width="0.8" stroke-opacity="0.8"></path><path d="M 489.6263716798656 155.94882186909956 L 360.62312588727934 182.67796995228613 L 494.7637757987719 223.43661178193182 Z" fill="rgb(206, 98, 28)" stroke="rgb(206, 98, 28)" stroke-width="0.8" stroke-opacity="0.8"></path><path d="M 489.6263716798656 155.94882186909956 L 494.7637757987719 223.43661178193182 L 628.5149805544862 214.835127398835 Z" fill="rgb(212, 105, 27)" stroke="rgb(212, 105, 27)" stroke-width="0.8" stroke-opacity="0.8"></path><path d="M 489.6263716798656 155.94882186909956 L 628.5149805544862 214.835127398835 L 635.23071969546 146.65392326663672 Z" fill="rgb(213, 107, 27)" stroke="rgb(213, 107, 27)" stroke-width="0.8" stroke-opacity="0.8"></path><path d="M 635.23071969546 146.65392326663672 L 628.5149805544862 214.835127398835 L 735.8735821768696 170.51916437237145 Z" fill="rgb(220, 117, 26)" stroke="rgb(220, 117, 26)" stroke-width="0.8" stroke-opacity="0.8"></path><path d="M 735.8735821768696 170.51916437237145 L 628.5149805544862 214.835127398835 L 752.0067464891164 205.24485165582288 Z" fill="rgb(220, 116, 26)" stroke="rgb(220, 116, 26)" stroke-width="0.8" stroke-opacity="0.8"></path><path d="M 735.8735821768696 170.51916437237145 L 752.0067464891164 205.24485165582288 L 853.6273626511786 149.5148364499084 Z" fill="rgb(228, 126, 26)" stroke="rgb(228, 126, 26)" stroke-width="0.8" stroke-opacity="0.8"></path><path d="M 853.6273626511786 149.5148364499084 L 752.0067464891164 205.24485165582288 L 871.1375606212621 176.58150144007618 Z" fill="rgb(235, 137, 25)" stroke="rgb(235, 137, 25)" stroke-width="0.8" stroke-opacity="0.8"></path><path d="M 989.433410341229 148.94936297097186 L 871.1375606212621 176.58150144007618 L 985.4875411577792 186.4445015690778 Z" fill="rgb(238, 141, 25)" stroke="rgb(238, 141, 25)" stroke-width="0.8" stroke-opacity="0.8"></path><path d="M 989.433410341229 148.94936297097186 L 985.4875411577792 186.4445015690778 L 1130.37650319522 155.4265798919807 Z" fill="rgb(237, 140, 25)" stroke="rgb(237, 140, 25)" stroke-width="0.8" stroke-opacity="0.8"></path><path d="M 1130.37650319522 155.4265798919807 L 985.4875411577792 186.4445015690778 L 1113.610937168281 231.55570922659936 Z" fill="rgb(238, 141, 25)" stroke="rgb(238, 141, 25)" stroke-width="0.8" stroke-opacity="0.8"></path><path d="M 1130.37650319522 155.4265798919807 L 1113.610937168281 231.55570922659936 L 1142.6127987503303 181.04288608007113 Z" fill="rgb(243, 149, 24)" stroke="rgb(243, 149, 24)" stroke-width="0.8" stroke-opacity="0.8"></path><path d="M -246.9043622648358 212.7604398424012 L -257.86999379378636 253.74845945893375 L -135.68406881334275 262.0948092332543 Z" fill="rgb(214, 102, 26)" stroke="rgb(214, 102, 26)" stroke-width="0.8" stroke-opacity="0.8"></path><path d="M -246.9043622648358 212.7604398424012 L -135.68406881334275 262.0948092332543 L -126.78160766614292 222.3588602625409 Z" fill="rgb(220, 109, 25)" stroke="rgb(220, 109, 25)" stroke-width="0.8" stroke-opacity="0.8"></path><path d="M -126.78160766614292 222.3588602625409 L -135.68406881334275 262.0948092332543 L -4.509459767796628 260.59511586804103 Z" fill="rgb(203, 91, 27)" stroke="rgb(203, 91, 27)" stroke-width="0.8" stroke-opacity="0.8"></path><path d="M -126.78160766614292 222.3588602625409 L -4.509459767796628 260.59511586804103 L -16.101330635256318 182.5567249139257 Z" fill="rgb(201, 90, 27)" stroke="rgb(201, 90, 27)" stroke-width="0.8" stroke-opacity="0.8"></path><path d="M 141.2905631017161 177.97259132812266 L 106.44935984226011 253.26017211695034 L 248.0612504858493 217.2303014750925 Z" fill="rgb(191, 82, 28)" stroke="rgb(191, 82, 28)" stroke-width="0.8" stroke-opacity="0.8"></path><path d="M 265.30864393194787 198.8908360965971 L 248.0612504858493 217.2303014750925 L 381.46764777944577 264.3455688927669 Z" fill="rgb(190, 80, 28)" stroke="rgb(190, 80, 28)" stroke-width="0.8" stroke-opacity="0.8"></path><path d="M 265.30864393194787 198.8908360965971 L 381.46764777944577 264.3455688927669 L 360.62312588727934 182.67796995228613 Z" fill="rgb(200, 91, 28)" stroke="rgb(200, 91, 28)" stroke-width="0.8" stroke-opacity="0.8"></path><path d="M 360.62312588727934 182.67796995228613 L 381.46764777944577 264.3455688927669 L 494.7637757987719 223.43661178193182 Z" fill="rgb(204, 96, 28)" stroke="rgb(204, 96, 28)" stroke-width="0.8" stroke-opacity="0.8"></path><path d="M 494.7637757987719 223.43661178193182 L 381.46764777944577 264.3455688927669 L 487.34508350876837 245.90683743509547 Z" fill="rgb(209, 102, 27)" stroke="rgb(209, 102, 27)" stroke-width="0.8" stroke-opacity="0.8"></path><path d="M 494.7637757987719 223.43661178193182 L 487.34508350876837 245.90683743509547 L 631.0086503225192 247.12880676305244 Z" fill="rgb(210, 104, 27)" stroke="rgb(210, 104, 27)" stroke-width="0.8" stroke-opacity="0.8"></path><path d="M 494.7637757987719 223.43661178193182 L 631.0086503225192 247.12880676305244 L 628.5149805544862 214.835127398835 Z" fill="rgb(211, 105, 27)" stroke="rgb(211, 105, 27)" stroke-width="0.8" stroke-opacity="0.8"></path><path d="M 628.5149805544862 214.835127398835 L 631.0086503225192 247.12880676305244 L 752.0067464891164 205.24485165582288 Z" fill="rgb(216, 111, 27)" stroke="rgb(216, 111, 27)" stroke-width="0.8" stroke-opacity="0.8"></path><path d="M 752.0067464891164 205.24485165582288 L 631.0086503225192 247.12880676305244 L 770.2083804256002 248.230910969969 Z" fill="rgb(218, 114, 27)" stroke="rgb(218, 114, 27)" stroke-width="0.8" stroke-opacity="0.8"></path><path d="M 752.0067464891164 205.24485165582288 L 770.2083804256002 248.230910969969 L 871.1375606212621 176.58150144007618 Z" fill="rgb(230, 129, 25)" stroke="rgb(230, 129, 25)" stroke-width="0.8" stroke-opacity="0.8"></path><path d="M 871.1375606212621 176.58150144007618 L 770.2083804256002 248.230910969969 L 896.2734849697513 263.79133434595 Z" fill="rgb(228, 126, 26)" stroke="rgb(228, 126, 26)" stroke-width="0.8" stroke-opacity="0.8"></path><path d="M 871.1375606212621 176.58150144007618 L 896.2734849697513 263.79133434595 L 985.4875411577792 186.4445015690778 Z" fill="rgb(239, 143, 24)" stroke="rgb(239, 143, 24)" stroke-width="0.8" stroke-opacity="0.8"></path><path d="M 985.4875411577792 186.4445015690778 L 896.2734849697513 263.79133434595 L 1011.4807895141337 255.07508181458957 Z" fill="rgb(243, 149, 24)" stroke="rgb(243, 149, 24)" stroke-width="0.8" stroke-opacity="0.8"></path><path d="M 985.4875411577792 186.4445015690778 L 1011.4807895141337 255.07508181458957 L 1113.610937168281 231.55570922659936 Z" fill="rgb(243, 149, 24)" stroke="rgb(243, 149, 24)" stroke-width="0.8" stroke-opacity="0.8"></path><path d="M 106.44935984226011 253.26017211695034 L 381.46764777944577 264.3455688927669 L 248.0612504858493 217.2303014750925 Z" fill="rgb(194, 85, 28)" stroke="rgb(194, 85, 28)" stroke-width="0.8" stroke-opacity="0.8"></path></g>
  </pattern>
</defs>
<rect x="0" y="0" width="100%" height="100%" fill="url(#ldp-96378d490daba8)"></rect></svg>