<?xml version="1.0" encoding="UTF-8" standalone="no"?>
<!-- Created with Inkscape (http://www.inkscape.org/) -->

<svg
   xmlns:dc="http://purl.org/dc/elements/1.1/"
   xmlns:cc="http://creativecommons.org/ns#"
   xmlns:rdf="http://www.w3.org/1999/02/22-rdf-syntax-ns#"
   xmlns:svg="http://www.w3.org/2000/svg"
   xmlns="http://www.w3.org/2000/svg"
   xmlns:sodipodi="http://sodipodi.sourceforge.net/DTD/sodipodi-0.dtd"
   xmlns:inkscape="http://www.inkscape.org/namespaces/inkscape"
   version="1.1"
   id="svg2"
   xml:space="preserve"
   width="962.6665"
   height="528.04712"
   viewBox="0 0 962.66649 528.04711"
   sodipodi:docname="playermoods-on.svg"
   inkscape:version="0.92.2 5c3e80d, 2017-08-06"><metadata
     id="metadata8"><rdf:RDF><cc:Work
         rdf:about=""><dc:format>image/svg+xml</dc:format><dc:type
           rdf:resource="http://purl.org/dc/dcmitype/StillImage" /><dc:title /></cc:Work></rdf:RDF></metadata><defs
     id="defs6"><clipPath
       clipPathUnits="userSpaceOnUse"
       id="clipPath94"><path
         d="M 0,1526 H 2048 V 0 H 0 Z"
         id="path92"
         inkscape:connector-curvature="0" /></clipPath><clipPath
       clipPathUnits="userSpaceOnUse"
       id="clipPath194"><path
         d="M 0,1526 H 2048 V 0 H 0 Z"
         id="path192"
         inkscape:connector-curvature="0" /></clipPath></defs><sodipodi:namedview
     pagecolor="#ffffff"
     bordercolor="#666666"
     borderopacity="1"
     objecttolerance="10"
     gridtolerance="10"
     guidetolerance="10"
     inkscape:pageopacity="0"
     inkscape:pageshadow="2"
     inkscape:window-width="1105"
     inkscape:window-height="634"
     id="namedview4"
     showgrid="false"
     fit-margin-top="0"
     fit-margin-left="0"
     fit-margin-right="0"
     fit-margin-bottom="0"
     inkscape:zoom="0.23197902"
     inkscape:cx="306.65215"
     inkscape:cy="123.08668"
     inkscape:window-x="0"
     inkscape:window-y="0"
     inkscape:window-maximized="0"
     inkscape:current-layer="g10" /><g
     id="g10"
     inkscape:groupmode="layer"
     inkscape:label="Apresentação_MOODS_2017_final"
     transform="matrix(1.3333333,0,0,-1.3333333,-1496.9778,1422.2938)"><g
       id="g88"><g
         id="g90"
         clip-path="url(#clipPath94)"><g
           id="g128"
           transform="translate(1408.4437,814.4572)"><path
             d="m 0,0 c -3.355,0 -6.074,2.719 -6.074,6.073 0,3.355 2.719,6.073 6.074,6.073 3.354,0 6.073,-2.718 6.073,-6.073 C 6.073,2.719 3.354,0 0,0 m 0,16.372 c -5.689,0 -10.299,-4.611 -10.299,-10.299 0,-5.688 4.61,-10.299 10.299,-10.299 5.687,0 10.298,4.611 10.298,10.299 0,5.688 -4.611,10.299 -10.298,10.299"
             style="fill:#414142;fill-opacity:1;fill-rule:nonzero;stroke:none"
             id="path130"
             inkscape:connector-curvature="0" /></g><g
           id="g132"
           transform="translate(1429.7369,814.4572)"><path
             d="m 0,0 c -3.354,0 -6.073,2.719 -6.073,6.073 0,3.355 2.719,6.073 6.073,6.073 3.354,0 6.073,-2.718 6.073,-6.073 C 6.073,2.719 3.354,0 0,0 m 0,16.372 c -5.688,0 -10.299,-4.611 -10.299,-10.299 0,-5.688 4.611,-10.299 10.299,-10.299 5.688,0 10.299,4.611 10.299,10.299 0,5.688 -4.611,10.299 -10.299,10.299"
             style="fill:#414142;fill-opacity:1;fill-rule:nonzero;stroke:none"
             id="path134"
             inkscape:connector-curvature="0" /></g><g
           id="g136"
           transform="translate(1448.3499,814.9944)"><path
             d="m 0,0 h -3.342 v 0.028 h -3.262 l 3.262,0.549 v 9.95 l -3.262,0.549 h 6.029 l 0.001,-0.004 H 0 c 3.609,0 5.435,-2.785 5.435,-5.547 C 5.435,2.762 3.609,0 0,0 m -0.319,15.7 h -5.659 c -0.906,0 -1.641,-0.735 -1.641,-1.641 V -2.987 c 0,-0.906 0.735,-1.641 1.641,-1.641 h 5.659 c 6.659,0 10.003,5.06 10.003,10.15 0,5.089 -3.344,10.178 -10.003,10.178"
             style="fill:#414142;fill-opacity:1;fill-rule:nonzero;stroke:none"
             id="path138"
             inkscape:connector-curvature="0" /></g><g
           id="g140"
           transform="translate(1397.4462,831.6328)"><path
             d="m 0,0 c 0,0.014 -0.001,0.029 -0.003,0.043 -0.001,0.02 -0.002,0.04 -0.005,0.06 C -0.009,0.122 -0.012,0.141 -0.014,0.16 -0.016,0.175 -0.018,0.19 -0.02,0.205 -0.023,0.226 -0.026,0.246 -0.03,0.267 -0.032,0.281 -0.035,0.294 -0.037,0.307 -0.041,0.328 -0.046,0.348 -0.051,0.369 -0.054,0.382 -0.057,0.396 -0.06,0.408 -0.065,0.428 -0.071,0.448 -0.076,0.467 -0.08,0.481 -0.084,0.495 -0.088,0.509 -0.093,0.527 -0.099,0.544 -0.105,0.562 -0.11,0.578 -0.115,0.593 -0.121,0.608 -0.126,0.624 -0.132,0.64 -0.138,0.655 -0.145,0.672 -0.151,0.69 -0.159,0.707 -0.164,0.72 -0.17,0.733 -0.176,0.746 -0.184,0.765 -0.193,0.784 -0.201,0.803 -0.206,0.814 -0.212,0.824 -0.217,0.834 -0.228,0.855 -0.238,0.877 -0.25,0.897 -0.253,0.905 -0.258,0.913 -0.263,0.922 -0.275,0.944 -0.287,0.965 -0.301,0.987 -0.304,0.995 -0.309,1.001 -0.314,1.008 -0.327,1.03 -0.342,1.052 -0.356,1.075 -0.36,1.081 -0.365,1.086 -0.369,1.093 -0.384,1.115 -0.399,1.137 -0.416,1.159 -0.42,1.165 -0.425,1.17 -0.429,1.176 -0.445,1.197 -0.462,1.219 -0.479,1.24 -0.485,1.246 -0.49,1.252 -0.495,1.258 c -0.017,0.021 -0.033,0.04 -0.052,0.06 l -0.012,0.013 c -0.019,0.02 -0.038,0.041 -0.058,0.061 -0.021,0.021 -0.042,0.041 -0.064,0.061 -0.003,0.003 -0.006,0.006 -0.01,0.009 -0.02,0.019 -0.041,0.036 -0.061,0.053 C -0.758,1.52 -0.763,1.525 -0.769,1.53 -0.79,1.547 -0.812,1.565 -0.834,1.581 -0.839,1.585 -0.845,1.589 -0.85,1.593 -0.872,1.61 -0.895,1.626 -0.917,1.641 -0.923,1.645 -0.928,1.649 -0.934,1.652 -0.957,1.667 -0.979,1.682 -1.003,1.697 -1.008,1.701 -1.014,1.705 -1.021,1.708 -1.043,1.722 -1.067,1.735 -1.09,1.747 -1.096,1.751 -1.104,1.756 -1.111,1.76 -1.133,1.771 -1.155,1.782 -1.176,1.793 -1.186,1.798 -1.195,1.802 -1.205,1.807 -1.225,1.816 -1.245,1.826 -1.266,1.834 -1.277,1.84 -1.289,1.845 -1.301,1.85 -1.319,1.857 -1.338,1.865 -1.356,1.872 -1.371,1.877 -1.385,1.883 -1.399,1.888 -1.416,1.894 -1.432,1.9 -1.449,1.905 -1.466,1.91 -1.482,1.916 -1.499,1.921 -1.514,1.926 -1.53,1.93 -1.545,1.934 -1.563,1.939 -1.581,1.944 -1.6,1.948 -1.615,1.952 -1.629,1.955 -1.644,1.959 -1.663,1.963 -1.682,1.968 -1.701,1.972 -1.716,1.974 -1.732,1.977 -1.747,1.98 -1.766,1.983 -1.784,1.986 -1.802,1.989 -1.82,1.992 -1.839,1.994 -1.857,1.996 -1.872,1.998 -1.888,2 -1.905,2.002 c -0.025,0.002 -0.05,0.004 -0.074,0.006 -0.01,0 -0.02,10e-4 -0.029,10e-4 -0.071,0.004 -0.142,0.004 -0.213,0 -0.01,0 -0.02,-10e-4 -0.03,-0.002 C -2.275,2.006 -2.299,2.004 -2.324,2.002 -2.341,2 -2.357,1.998 -2.374,1.996 -2.391,1.994 -2.409,1.992 -2.426,1.989 -2.445,1.986 -2.464,1.982 -2.483,1.979 -2.498,1.977 -2.513,1.974 -2.527,1.972 -2.547,1.968 -2.567,1.963 -2.587,1.958 -2.601,1.955 -2.615,1.952 -2.628,1.949 -2.648,1.944 -2.667,1.939 -2.686,1.933 -2.7,1.929 -2.715,1.926 -2.729,1.921 -2.746,1.916 -2.764,1.91 -2.782,1.904 -2.797,1.898 -2.813,1.894 -2.828,1.889 -2.844,1.882 -2.859,1.877 -2.875,1.871 -2.892,1.864 -2.909,1.857 -2.926,1.851 -2.94,1.845 -2.953,1.839 -2.966,1.833 -2.985,1.825 -3.004,1.816 -3.022,1.807 -3.034,1.802 -3.045,1.796 -3.056,1.791 -3.075,1.781 -3.096,1.771 -3.116,1.761 -3.126,1.756 -3.135,1.75 -3.144,1.745 -3.165,1.733 -3.186,1.721 -3.206,1.709 -3.215,1.704 -3.222,1.699 -3.231,1.693 -3.252,1.68 -3.272,1.667 -3.293,1.654 -3.302,1.648 -3.31,1.642 -3.318,1.637 -3.338,1.623 -3.358,1.609 -3.377,1.594 -3.386,1.587 -3.396,1.58 -3.405,1.573 -3.422,1.559 -3.441,1.546 -3.458,1.531 -3.47,1.521 -3.482,1.511 -3.493,1.501 -3.508,1.488 -3.522,1.477 -3.536,1.464 -3.559,1.443 -3.581,1.421 -3.602,1.401 -3.606,1.397 -3.609,1.395 -3.612,1.392 l -8.396,-8.397 -8.396,8.397 c -0.012,0.011 -0.023,0.022 -0.035,0.033 -0.013,0.012 -0.026,0.026 -0.04,0.038 -0.016,0.015 -0.033,0.029 -0.05,0.043 -0.01,0.008 -0.018,0.017 -0.028,0.025 -0.019,0.015 -0.038,0.03 -0.057,0.044 -0.008,0.006 -0.016,0.013 -0.024,0.019 -0.02,0.015 -0.041,0.029 -0.062,0.044 -0.007,0.005 -0.015,0.01 -0.022,0.015 -0.021,0.014 -0.042,0.028 -0.063,0.041 -0.008,0.005 -0.017,0.01 -0.025,0.015 -0.02,0.012 -0.041,0.024 -0.062,0.036 -0.009,0.005 -0.018,0.011 -0.029,0.016 -0.019,0.01 -0.039,0.02 -0.058,0.03 -0.013,0.005 -0.023,0.011 -0.035,0.017 -0.018,0.008 -0.037,0.016 -0.055,0.024 -0.013,0.007 -0.027,0.013 -0.041,0.019 -0.016,0.006 -0.033,0.013 -0.05,0.019 -0.016,0.006 -0.032,0.012 -0.048,0.019 -0.015,0.005 -0.029,0.009 -0.044,0.014 -0.019,0.007 -0.038,0.013 -0.056,0.018 -0.014,0.005 -0.026,0.008 -0.039,0.012 -0.021,0.005 -0.041,0.011 -0.061,0.016 -0.012,0.003 -0.025,0.006 -0.038,0.009 -0.021,0.005 -0.042,0.01 -0.064,0.014 -0.012,0.002 -0.025,0.004 -0.038,0.006 -0.021,0.004 -0.042,0.008 -0.063,0.011 -0.015,0.002 -0.029,0.004 -0.044,0.005 -0.019,0.003 -0.038,0.006 -0.058,0.008 -0.02,0.002 -0.039,0.002 -0.059,0.004 -0.015,0.002 -0.029,0.002 -0.045,0.003 -0.07,0.004 -0.14,0.004 -0.21,0 C -22.021,2.008 -22.036,2.008 -22.052,2.006 -22.071,2.004 -22.091,2.004 -22.11,2.002 -22.129,2 -22.149,1.997 -22.168,1.994 -22.183,1.993 -22.198,1.991 -22.212,1.989 -22.233,1.986 -22.255,1.982 -22.276,1.978 -22.289,1.976 -22.301,1.974 -22.313,1.972 -22.335,1.968 -22.356,1.963 -22.378,1.958 -22.39,1.955 -22.403,1.952 -22.415,1.949 -22.435,1.944 -22.455,1.938 -22.476,1.933 -22.489,1.929 -22.502,1.926 -22.515,1.921 -22.534,1.916 -22.552,1.91 -22.571,1.903 -22.585,1.898 -22.6,1.894 -22.615,1.889 -22.631,1.882 -22.648,1.876 -22.664,1.87 -22.68,1.864 -22.696,1.857 -22.713,1.851 -22.727,1.845 -22.741,1.839 -22.755,1.832 -22.773,1.824 -22.791,1.816 -22.809,1.808 -22.82,1.802 -22.832,1.796 -22.844,1.791 c -0.02,-0.01 -0.04,-0.02 -0.059,-0.03 -0.009,-0.005 -0.019,-0.011 -0.029,-0.016 -0.02,-0.012 -0.041,-0.024 -0.061,-0.036 -0.008,-0.005 -0.017,-0.01 -0.024,-0.015 -0.022,-0.013 -0.043,-0.027 -0.064,-0.041 -0.008,-0.005 -0.015,-0.01 -0.023,-0.015 -0.02,-0.015 -0.04,-0.029 -0.061,-0.044 -0.008,-0.006 -0.016,-0.013 -0.024,-0.019 -0.019,-0.014 -0.038,-0.029 -0.057,-0.044 -0.009,-0.008 -0.018,-0.017 -0.028,-0.025 -0.017,-0.014 -0.033,-0.028 -0.051,-0.043 -0.012,-0.012 -0.026,-0.026 -0.039,-0.038 -0.012,-0.011 -0.024,-0.022 -0.034,-0.033 -0.013,-0.012 -0.023,-0.024 -0.034,-0.035 -0.012,-0.013 -0.025,-0.026 -0.038,-0.04 -0.015,-0.016 -0.029,-0.033 -0.043,-0.05 -0.009,-0.01 -0.017,-0.018 -0.025,-0.028 -0.015,-0.019 -0.03,-0.038 -0.044,-0.057 -0.006,-0.008 -0.013,-0.016 -0.019,-0.024 -0.015,-0.021 -0.029,-0.041 -0.043,-0.061 -0.006,-0.008 -0.011,-0.015 -0.016,-0.023 -0.015,-0.021 -0.027,-0.042 -0.041,-0.063 -0.004,-0.008 -0.01,-0.016 -0.015,-0.025 -0.012,-0.02 -0.024,-0.041 -0.035,-0.062 -0.006,-0.009 -0.011,-0.019 -0.017,-0.028 -0.01,-0.019 -0.02,-0.04 -0.029,-0.059 C -23.803,0.825 -23.809,0.814 -23.815,0.802 -23.823,0.784 -23.831,0.766 -23.839,0.748 -23.845,0.734 -23.852,0.72 -23.858,0.706 -23.865,0.69 -23.871,0.674 -23.877,0.657 -23.883,0.641 -23.89,0.624 -23.895,0.608 -23.9,0.593 -23.905,0.579 -23.91,0.565 c -0.006,-0.019 -0.013,-0.038 -0.018,-0.057 -0.004,-0.013 -0.008,-0.026 -0.011,-0.039 -0.006,-0.02 -0.012,-0.041 -0.017,-0.062 -0.003,-0.011 -0.005,-0.024 -0.008,-0.035 -0.005,-0.022 -0.01,-0.044 -0.014,-0.066 -0.003,-0.012 -0.005,-0.024 -0.007,-0.036 -0.004,-0.022 -0.008,-0.044 -0.011,-0.065 -0.003,-0.014 -0.003,-0.028 -0.005,-0.041 -0.003,-0.021 -0.006,-0.041 -0.008,-0.062 -0.002,-0.018 -0.003,-0.036 -0.004,-0.054 -10e-4,-0.016 -0.003,-0.032 -0.003,-0.049 -0.002,-0.034 -0.003,-0.069 -0.003,-0.104 v -21.994 c 0,-1.17 0.948,-2.118 2.117,-2.118 1.17,0 2.118,0.948 2.118,2.118 v 15.798 l -2.627,3.691 2.627,-2.627 v 0.019 l 5.968,-5.968 c 0.079,-0.122 0.172,-0.236 0.278,-0.343 0.828,-0.827 2.168,-0.827 2.995,0 l 0.835,0.835 5.476,5.476 2.608,2.608 -2.608,-3.663 v -15.826 c 0,-1.17 0.949,-2.118 2.117,-2.118 1.17,0 2.118,0.948 2.118,2.118 V -0.106 C 0.003,-0.071 0.002,-0.035 0,0"
             style="fill:#414142;fill-opacity:1;fill-rule:nonzero;stroke:none"
             id="path142"
             inkscape:connector-curvature="0" /></g><g
           id="g144"
           transform="translate(1460.2695,836.119)"><path
             d="M 0,0 V -28.703"
             style="fill:none;stroke:#f7931d;stroke-width:2;stroke-linecap:butt;stroke-linejoin:miter;stroke-miterlimit:10;stroke-dasharray:none;stroke-opacity:1"
             id="path146"
             inkscape:connector-curvature="0" /></g><g
           id="g148"
           transform="translate(1477.8492,818.0535)"><path
             d="M 0,0 -0.003,0.014 -0.006,0.027 C -0.38,1.579 -1.369,2.751 -2.944,3.51 -4.272,4.15 -5.795,4.404 -7.108,4.568 L -7.119,4.57 H -7.13 c -1.04,0.097 -1.955,0.2 -2.635,0.478 -0.65,0.265 -0.945,0.63 -0.986,1.223 l -0.001,0.004 V 6.28 c -0.029,0.35 0,0.851 0.308,1.247 0.633,0.814 1.893,1.127 2.86,1.147 0.022,0 0.046,0 0.072,0 1.082,0 2.179,-0.364 2.691,-1.073 0.318,0.716 1.033,1.092 1.837,1.092 0.306,0 0.592,-0.076 0.845,-0.208 -0.14,0.029 -0.285,0.044 -0.434,0.044 -1.212,0 -2.196,-0.984 -2.196,-2.196 0,-0.18 0.024,-0.354 0.066,-0.521 0,-0.005 0.002,-0.01 0.003,-0.015 0.24,-0.954 1.1,-1.661 2.127,-1.661 1.173,0 2.129,0.92 2.191,2.077 0.034,0.292 0.035,0.598 0.007,0.902 -0.186,2.002 -1.142,3.349 -2.586,4.339 -1.228,0.843 -2.829,1.306 -4.504,1.306 -2.541,0 -4.938,-1.063 -6.256,-2.774 C -14.6,8.843 -15.014,7.4 -14.888,5.919 h 0.003 c 0.158,-1.978 1.069,-3.434 2.71,-4.329 1.367,-0.744 3.011,-0.994 4.585,-1.153 1.733,-0.173 3.305,-0.403 3.507,-1.298 0.042,-0.187 0.063,-0.352 0.063,-0.487 0,-1.128 -1.338,-2.345 -3.498,-2.345 -0.785,0 -1.627,0.217 -2.253,0.579 -0.203,0.117 -0.403,0.311 -0.588,0.567 -0.389,-0.727 -1.156,-1.221 -2.038,-1.221 -0.284,0 -0.555,0.054 -0.806,0.148 0.118,-0.02 0.239,-0.033 0.362,-0.033 1.043,0 1.914,0.728 2.138,1.702 v 0 c 0.018,0.077 0.032,0.155 0.042,0.234 0,0.004 10e-4,0.008 10e-4,0.008 0.01,0.085 0.015,0.168 0.015,0.252 0,1.213 -0.983,2.197 -2.196,2.197 -0.063,0 -0.126,-0.005 -0.189,-0.01 -0.058,-0.006 -0.117,-0.013 -0.173,-0.023 v 0 c -1.04,-0.173 -1.833,-1.075 -1.833,-2.164 0,-0.045 0.003,-0.09 0.006,-0.134 -0.046,-0.636 0.076,-2.481 2.541,-4.63 1.213,-1.058 3.28,-1.585 4.943,-1.585 3.781,0 7.694,2.405 7.694,6.431 C 0.148,-0.972 0.094,-0.47 0,0"
             style="fill:#f7931d;fill-opacity:1;fill-rule:nonzero;stroke:none"
             id="path150"
             inkscape:connector-curvature="0" /></g><g
           id="g152"
           transform="translate(1242.4451,786.5461)"><path
             d="m 0,0 c 0,-14.842 -12.039,-26.878 -26.858,-26.878 -14.849,0 -26.878,12.036 -26.878,26.878 0,14.842 12.029,26.86 26.878,26.86 C -12.039,26.86 0,14.842 0,0 Z"
             style="fill:none;stroke:#f15a29;stroke-width:7;stroke-linecap:round;stroke-linejoin:round;stroke-miterlimit:10;stroke-dasharray:none;stroke-opacity:1"
             id="path154"
             inkscape:connector-curvature="0" /></g><g
           id="g156"
           transform="translate(1286.2334,695.685)"><path
             d="m 0,0 v 0 c 0,-12.426 -10.074,-22.5 -22.5,-22.5 h -25.656 c -12.427,0 -22.5,10.074 -22.5,22.5"
             style="fill:none;stroke:#e7e8e9;stroke-width:5;stroke-linecap:round;stroke-linejoin:round;stroke-miterlimit:10;stroke-dasharray:none;stroke-opacity:1"
             id="path158"
             inkscape:connector-curvature="0" /></g><g
           id="g160"
           transform="translate(1548.6531,695.685)"><path
             d="m 0,0 v 0 c 0,-12.426 -10.073,-22.5 -22.5,-22.5 h -25.656 c -12.427,0 -22.5,10.074 -22.5,22.5"
             style="fill:none;stroke:#e7e8e9;stroke-width:5;stroke-linecap:round;stroke-linejoin:round;stroke-miterlimit:10;stroke-dasharray:none;stroke-opacity:1"
             id="path162"
             inkscape:connector-curvature="0" /></g><g
           id="g164"
           transform="translate(1524.9799,821.7666)"><path
             d="m 0,0 c 0,-8.599 -6.972,-15.586 -15.596,-15.586 -8.615,0 -15.578,6.987 -15.578,15.586 0,8.619 6.963,15.587 15.578,15.587 C -6.972,15.587 0,8.619 0,0 Z"
             style="fill:none;stroke:#d1d3d4;stroke-width:5;stroke-linecap:butt;stroke-linejoin:miter;stroke-miterlimit:10;stroke-dasharray:none;stroke-opacity:1"
             id="path166"
             inkscape:connector-curvature="0" /></g><g
           id="g168"
           transform="translate(1563.946,821.7666)"><path
             d="m 0,0 c 0,-8.599 -6.972,-15.586 -15.596,-15.586 -8.614,0 -15.578,6.987 -15.578,15.586 0,8.619 6.964,15.587 15.578,15.587 C -6.972,15.587 0,8.619 0,0 Z"
             style="fill:none;stroke:#d1d3d4;stroke-width:5;stroke-linecap:butt;stroke-linejoin:miter;stroke-miterlimit:10;stroke-dasharray:none;stroke-opacity:1"
             id="path170"
             inkscape:connector-curvature="0" /></g><g
           id="g172"
           transform="translate(1602.912,821.7666)"><path
             d="m 0,0 c 0,-8.599 -6.972,-15.586 -15.596,-15.586 -8.615,0 -15.578,6.987 -15.578,15.586 0,8.619 6.963,15.587 15.578,15.587 C -6.972,15.587 0,8.619 0,0 Z"
             style="fill:none;stroke:#d1d3d4;stroke-width:5;stroke-linecap:butt;stroke-linejoin:miter;stroke-miterlimit:10;stroke-dasharray:none;stroke-opacity:1"
             id="path174"
             inkscape:connector-curvature="0" /></g><g
           id="g176"
           transform="translate(1642.2334,773.1912)"><path
             d="M 0,0 C 0,-37.141 -24.02,-70.006 -61.13,-70.006 H -446.193 C -483.303,-70.006 -516,-37.141 -516,0 v 30.004 c 0,37.14 32.697,60.99 69.807,60.99 H -61.13 C -24.02,90.994 0,67.144 0,30.004 Z"
             style="fill:none;stroke:#f15a29;stroke-width:7;stroke-linecap:round;stroke-linejoin:round;stroke-miterlimit:10;stroke-dasharray:none;stroke-opacity:1"
             id="path178"
             inkscape:connector-curvature="0" /></g><g
           id="g180"
           transform="translate(1268.7334,782.685)"><path
             d="M 0,0 H 370"
             style="fill:none;stroke:#f15a29;stroke-width:2;stroke-linecap:round;stroke-linejoin:round;stroke-miterlimit:10;stroke-dasharray:none;stroke-opacity:1"
             id="path182"
             inkscape:connector-curvature="0" /></g></g></g><text
       transform="matrix(1,0,0,-1,1571.7383,751.4932)"
       style="font-variant:normal;font-weight:normal;font-stretch:normal;font-size:22.92869949px;font-family:MeganoOT-Regular;-inkscape-font-specification:MeganoOT-Regular;writing-mode:lr-tb;fill:#d1d3d4;fill-opacity:1;fill-rule:nonzero;stroke:none"
       id="text186"><tspan
         x="0 6.3971071 22.263767"
         y="0"
         sodipodi:role="line"
         id="tspan184">ID#</tspan></text>
<g
       id="g188"><g
         id="g190"
         clip-path="url(#clipPath194)"><g
           id="g196"
           transform="translate(1342.3173,1043.101)"><path
             d="m 0,0 c 13.039,12.795 32.207,20.084 52.724,20.084 h 385.062 c 37.111,0 61.13,-23.849 61.13,-60.99 V -70.91 c 0,-18.57 -6.005,-36.01 -16.649,-48.807"
             style="fill:none;stroke:#f15a29;stroke-width:7;stroke-linecap:round;stroke-linejoin:round;stroke-miterlimit:10;stroke-dasharray:none;stroke-opacity:1"
             id="path198"
             inkscape:connector-curvature="0" /></g><g
           id="g200"
           transform="translate(1196.0409,864.185)"><path
             d="M 0,0 199,199"
             style="fill:none;stroke:#f15a29;stroke-width:7;stroke-linecap:round;stroke-linejoin:round;stroke-miterlimit:10;stroke-dasharray:none;stroke-opacity:1"
             id="path202"
             inkscape:connector-curvature="0" /></g><g
           id="g204"
           transform="translate(1583.2334,864.185)"><path
             d="M 0,0 199,199"
             style="fill:none;stroke:#f15a29;stroke-width:7;stroke-linecap:round;stroke-linejoin:round;stroke-miterlimit:10;stroke-dasharray:none;stroke-opacity:1"
             id="path206"
             inkscape:connector-curvature="0" /></g><g
           id="g208"
           transform="translate(1642.2334,813.4059)"><path
             d="M 0,0 198.428,198.428"
             style="fill:none;stroke:#f15a29;stroke-width:7;stroke-linecap:round;stroke-linejoin:round;stroke-miterlimit:10;stroke-dasharray:none;stroke-opacity:1"
             id="path210"
             inkscape:connector-curvature="0" /></g><g
           id="g212"
           transform="translate(1635.4674,834.2955)"><path
             d="M 0,0 198.428,198.428"
             style="fill:none;stroke:#f15a29;stroke-width:3;stroke-linecap:round;stroke-linejoin:round;stroke-miterlimit:10;stroke-dasharray:none;stroke-opacity:1"
             id="path214"
             inkscape:connector-curvature="0" /></g><g
           id="g216"
           transform="translate(1627.6888,845.3889)"><path
             d="M 0,0 196.77,196.77"
             style="fill:none;stroke:#f15a29;stroke-width:3;stroke-linecap:round;stroke-linejoin:round;stroke-miterlimit:10;stroke-dasharray:none;stroke-opacity:1"
             id="path218"
             inkscape:connector-curvature="0" /></g><g
           id="g220"
           transform="translate(1611.739,858.0239)"><path
             d="M 0,0 198.428,198.428"
             style="fill:none;stroke:#f15a29;stroke-width:3;stroke-linecap:round;stroke-linejoin:round;stroke-miterlimit:10;stroke-dasharray:none;stroke-opacity:1"
             id="path222"
             inkscape:connector-curvature="0" /></g><g
           id="g224"
           transform="translate(1137.4097,837.3537)"><path
             d="M 0,0 204.908,205.747"
             style="fill:none;stroke:#f15a29;stroke-width:7;stroke-linecap:round;stroke-linejoin:round;stroke-miterlimit:10;stroke-dasharray:none;stroke-opacity:1"
             id="path226"
             inkscape:connector-curvature="0" /></g><g
           id="g228"
           transform="translate(1625.9059,723.4089)"><path
             d="M 0,0 198.679,199.975"
             style="fill:none;stroke:#f15a29;stroke-width:7;stroke-linecap:round;stroke-linejoin:round;stroke-miterlimit:10;stroke-dasharray:none;stroke-opacity:1"
             id="path230"
             inkscape:connector-curvature="0" /></g></g></g><path
       style="fill:#00ff00;stroke-width:4.31073475"
       d="m 514.09278,313.65032 c -23.04769,0.0591 -10.65306,42.09957 8.68882,25.34241 13.06967,-6.33901 9.9657,-28.09774 -6.2051,-25.47712 z"
       id="path63"
       inkscape:connector-curvature="0"
       transform="matrix(0.75000002,0,0,-0.75000002,1122.7334,1066.7204)" /><path
       style="fill:#ff0000;stroke-width:4.31073475"
       d="m 617.70196,314.00394 c -21.53354,-0.29088 -13.66521,37.08721 6.80288,26.83264 15.13144,-2.06444 11.26595,-34.69711 -6.80288,-26.83264 z"
       id="path65"
       inkscape:connector-curvature="0"
       transform="matrix(0.75000002,0,0,-0.75000002,1122.7334,1066.7204)" /><path
       style="fill:#ffff00;stroke-width:4.31073475"
       d="m 565.8216,313.65032 c -23.04769,0.0591 -10.65306,42.09957 8.68882,25.34241 13.06967,-6.33901 9.9657,-28.09774 -6.2051,-25.47712 z"
       id="path67"
       inkscape:connector-curvature="0"
       transform="matrix(0.75000002,0,0,-0.75000002,1122.7334,1066.7204)" /></g></svg>