<?xml version="1.0" standalone="no"?><!DOCTYPE svg PUBLIC "-//W3C//DTD SVG 1.1//EN" "http://www.w3.org/Graphics/SVG/1.1/DTD/svg11.dtd"><svg width="100%" height="100%" viewBox="0 0 897 392" version="1.1" xmlns="http://www.w3.org/2000/svg" xmlns:xlink="http://www.w3.org/1999/xlink" xml:space="preserve" style="fill-rule:evenodd;clip-rule:evenodd;stroke-linecap:round;stroke-linejoin:round;stroke-miterlimit:10;"><g id="Layer 1"><path d="M131,68.5c0,34.518 -27.982,62.5 -62.5,62.5c-34.518,0 -62.5,-27.982 -62.5,-62.5c0,-34.518 27.982,-62.5 62.5,-62.5c34.518,0 62.5,27.982 62.5,62.5" style="fill:#fff;fill-rule:nonzero;"/><path d="M137,68.5c0,37.831 -30.668,68.5 -68.5,68.5c-37.83,0 -68.5,-30.669 -68.5,-68.5c0,-37.831 30.67,-68.5 68.5,-68.5c37.832,0 68.5,30.669 68.5,68.5Z" style="fill:none;stroke-width:1.75px;stroke-dasharray:3,6;stroke:#fff;"/><path d="M55.114,59.423c-2.405,0 -4.356,-1.949 -4.356,-4.354c0,-2.407 1.951,-4.357 4.356,-4.357c2.406,0 4.357,1.95 4.357,4.357c0,2.405 -1.951,4.354 -4.357,4.354M55.114,47.681c-4.079,0 -7.386,3.307 -7.386,7.388c0,4.078 3.307,7.385 7.386,7.385c4.08,0 7.388,-3.307 7.388,-7.385c0,-4.081 -3.308,-7.388 -7.388,-7.388" style="fill:#1195ef;fill-rule:nonzero;"/><path d="M70.387,59.423c-2.405,0 -4.354,-1.949 -4.354,-4.354c0,-2.407 1.949,-4.357 4.354,-4.357c2.406,0 4.355,1.95 4.355,4.357c0,2.405 -1.949,4.354 -4.355,4.354M70.387,47.681c-4.079,0 -7.387,3.307 -7.387,7.388c0,4.078 3.308,7.385 7.387,7.385c4.078,0 7.386,-3.307 7.386,-7.385c0,-4.081 -3.308,-7.388 -7.386,-7.388" style="fill:#1195ef;fill-rule:nonzero;"/><path d="M83.737,59.038l-2.398,0l0,-0.021l-2.339,0l2.339,-0.392l0,-7.137l-2.339,-0.393l4.324,0l0,0.003l0.413,0c2.588,0 3.897,1.996 3.897,3.978c0,1.981 -1.309,3.962 -3.897,3.962M83.508,47.777l-4.059,0c-0.649,0 -1.177,0.528 -1.177,1.179l0,12.226c0,0.648 0.528,1.176 1.177,1.176l4.059,0c4.776,0 7.173,-3.63 7.173,-7.28c0,-3.649 -2.397,-7.301 -7.173,-7.301" style="fill:#1195ef;fill-rule:nonzero;"/><path d="M47.228,47.105c0,-0.01 -0.002,-0.021 -0.002,-0.031c-0.002,-0.014 -0.002,-0.029 -0.004,-0.042c0,-0.015 -0.002,-0.028 -0.004,-0.041c-0.002,-0.012 -0.002,-0.022 -0.004,-0.032c-0.003,-0.015 -0.007,-0.031 -0.008,-0.044c0,-0.011 -0.002,-0.02 -0.006,-0.03c-0.002,-0.015 -0.006,-0.029 -0.008,-0.044c-0.002,-0.009 -0.004,-0.02 -0.006,-0.028c-0.004,-0.014 -0.009,-0.029 -0.013,-0.042c-0.002,-0.011 -0.006,-0.02 -0.007,-0.03c-0.004,-0.014 -0.008,-0.027 -0.015,-0.039c-0.002,-0.011 -0.006,-0.022 -0.01,-0.034c-0.004,-0.01 -0.008,-0.022 -0.012,-0.032c-0.005,-0.012 -0.01,-0.025 -0.016,-0.037c-0.002,-0.011 -0.008,-0.019 -0.01,-0.028c-0.007,-0.015 -0.015,-0.028 -0.021,-0.041c-0.001,-0.008 -0.005,-0.016 -0.009,-0.024c-0.009,-0.014 -0.017,-0.029 -0.025,-0.044c-0.002,-0.005 -0.006,-0.012 -0.01,-0.018c-0.008,-0.015 -0.016,-0.031 -0.026,-0.047c-0.002,-0.005 -0.007,-0.011 -0.009,-0.015c-0.009,-0.015 -0.019,-0.032 -0.032,-0.048c-0.002,-0.005 -0.004,-0.008 -0.008,-0.012c-0.009,-0.017 -0.022,-0.031 -0.034,-0.048c-0.002,-0.005 -0.007,-0.008 -0.009,-0.013c-0.011,-0.014 -0.023,-0.03 -0.036,-0.045c-0.004,-0.006 -0.008,-0.009 -0.011,-0.013c-0.013,-0.015 -0.025,-0.029 -0.037,-0.043c-0.004,-0.003 -0.006,-0.006 -0.01,-0.01c-0.012,-0.014 -0.027,-0.029 -0.04,-0.042c-0.015,-0.017 -0.031,-0.032 -0.047,-0.045l-0.006,-0.006c-0.015,-0.014 -0.03,-0.026 -0.045,-0.039c-0.004,-0.004 -0.008,-0.008 -0.012,-0.01c-0.016,-0.012 -0.03,-0.025 -0.047,-0.037c-0.004,-0.002 -0.007,-0.005 -0.011,-0.011c-0.017,-0.01 -0.031,-0.02 -0.049,-0.033c-0.004,-0.002 -0.006,-0.005 -0.01,-0.007c-0.018,-0.01 -0.032,-0.021 -0.051,-0.031c-0.004,-0.004 -0.008,-0.006 -0.011,-0.008c-0.017,-0.01 -0.034,-0.02 -0.051,-0.029c-0.004,-0.003 -0.01,-0.006 -0.015,-0.01c-0.015,-0.008 -0.032,-0.015 -0.048,-0.021c-0.006,-0.004 -0.012,-0.009 -0.02,-0.011c-0.015,-0.008 -0.029,-0.014 -0.042,-0.02c-0.009,-0.004 -0.019,-0.008 -0.027,-0.012c-0.012,-0.006 -0.026,-0.01 -0.039,-0.015c-0.011,-0.006 -0.019,-0.009 -0.032,-0.012c-0.01,-0.004 -0.022,-0.008 -0.034,-0.011c-0.013,-0.004 -0.024,-0.009 -0.036,-0.013c-0.011,-0.003 -0.023,-0.006 -0.032,-0.008c-0.015,-0.005 -0.027,-0.008 -0.041,-0.011c-0.01,-0.002 -0.021,-0.004 -0.031,-0.006c-0.013,-0.005 -0.028,-0.008 -0.04,-0.011c-0.012,-0.002 -0.024,-0.004 -0.034,-0.006c-0.015,-0.002 -0.026,-0.004 -0.041,-0.006c-0.012,-0.002 -0.026,-0.003 -0.038,-0.005c-0.011,-0.002 -0.022,-0.004 -0.034,-0.006c-0.02,0 -0.038,-0.001 -0.053,-0.003l-0.02,0c-0.051,-0.004 -0.103,-0.004 -0.154,0c-0.009,0 -0.014,0 -0.022,0.001c-0.017,0.001 -0.034,0.002 -0.053,0.002c-0.013,0.002 -0.022,0.004 -0.034,0.006c-0.012,0.002 -0.027,0.003 -0.038,0.005c-0.015,0.002 -0.027,0.004 -0.042,0.007c-0.009,0.001 -0.023,0.003 -0.032,0.005c-0.014,0.003 -0.029,0.006 -0.042,0.011c-0.011,0.002 -0.021,0.004 -0.029,0.006c-0.013,0.003 -0.028,0.006 -0.043,0.011c-0.009,0.002 -0.02,0.005 -0.029,0.008l-0.038,0.013c-0.013,0.004 -0.023,0.007 -0.032,0.011c-0.014,0.004 -0.023,0.009 -0.037,0.013c-0.011,0.004 -0.024,0.008 -0.036,0.014c-0.009,0.004 -0.02,0.008 -0.03,0.012c-0.012,0.006 -0.026,0.012 -0.039,0.018c-0.006,0.004 -0.015,0.009 -0.023,0.013c-0.014,0.008 -0.03,0.013 -0.044,0.021c-0.007,0.004 -0.013,0.008 -0.019,0.011c-0.017,0.009 -0.03,0.018 -0.045,0.026c-0.006,0.004 -0.011,0.008 -0.017,0.012c-0.016,0.009 -0.03,0.019 -0.046,0.028c-0.005,0.004 -0.011,0.008 -0.017,0.013c-0.014,0.01 -0.028,0.019 -0.042,0.029c-0.008,0.005 -0.015,0.011 -0.02,0.016c-0.012,0.01 -0.027,0.02 -0.038,0.029c-0.009,0.008 -0.019,0.016 -0.025,0.023c-0.012,0.009 -0.022,0.017 -0.032,0.026c-0.017,0.015 -0.031,0.03 -0.047,0.045c-0.002,0.003 -0.004,0.003 -0.008,0.008l-6.02,6.019l-6.024,-6.02c-0.008,-0.008 -0.015,-0.016 -0.024,-0.023c-0.008,-0.011 -0.018,-0.02 -0.028,-0.029c-0.012,-0.01 -0.024,-0.02 -0.037,-0.03c-0.005,-0.007 -0.011,-0.013 -0.02,-0.019c-0.012,-0.009 -0.026,-0.02 -0.04,-0.031c-0.006,-0.004 -0.013,-0.009 -0.019,-0.014c-0.014,-0.01 -0.028,-0.019 -0.044,-0.031c-0.005,-0.004 -0.011,-0.007 -0.014,-0.011c-0.016,-0.009 -0.031,-0.02 -0.046,-0.028c-0.005,-0.004 -0.011,-0.008 -0.017,-0.012c-0.015,-0.008 -0.03,-0.017 -0.044,-0.026c-0.009,-0.003 -0.014,-0.007 -0.022,-0.011c-0.014,-0.008 -0.027,-0.013 -0.041,-0.021c-0.011,-0.004 -0.017,-0.009 -0.026,-0.013c-0.012,-0.006 -0.026,-0.012 -0.039,-0.016c-0.009,-0.006 -0.019,-0.01 -0.03,-0.014c-0.012,-0.006 -0.022,-0.01 -0.034,-0.014c-0.012,-0.004 -0.026,-0.009 -0.036,-0.013c-0.011,-0.003 -0.021,-0.007 -0.031,-0.011c-0.014,-0.004 -0.028,-0.009 -0.041,-0.013c-0.009,-0.003 -0.017,-0.006 -0.028,-0.008c-0.015,-0.004 -0.028,-0.008 -0.044,-0.011c-0.009,-0.002 -0.019,-0.004 -0.026,-0.006c-0.015,-0.005 -0.03,-0.008 -0.046,-0.011c-0.009,-0.002 -0.02,-0.002 -0.027,-0.005c-0.016,-0.003 -0.031,-0.005 -0.044,-0.007c-0.013,-0.002 -0.023,-0.003 -0.033,-0.005c-0.014,-0.002 -0.029,-0.004 -0.043,-0.006c-0.014,0 -0.028,0 -0.042,-0.002c-0.01,-0.001 -0.02,-0.001 -0.032,-0.001c-0.049,-0.004 -0.099,-0.004 -0.15,0c-0.01,0 -0.02,0 -0.032,0.001c-0.014,0.002 -0.029,0.002 -0.042,0.002c-0.015,0.002 -0.027,0.004 -0.041,0.006c-0.012,0.002 -0.022,0.003 -0.033,0.005c-0.013,0.002 -0.03,0.004 -0.046,0.007c-0.008,0.003 -0.016,0.003 -0.026,0.005c-0.015,0.003 -0.03,0.006 -0.047,0.011c-0.008,0.002 -0.016,0.004 -0.026,0.006c-0.014,0.003 -0.028,0.007 -0.042,0.011c-0.011,0.002 -0.021,0.005 -0.028,0.008c-0.015,0.004 -0.027,0.009 -0.041,0.013c-0.01,0.004 -0.02,0.008 -0.033,0.011c-0.011,0.004 -0.022,0.009 -0.034,0.013c-0.013,0.004 -0.024,0.008 -0.036,0.014c-0.011,0.004 -0.019,0.008 -0.028,0.014c-0.015,0.004 -0.027,0.01 -0.041,0.016c-0.008,0.004 -0.016,0.009 -0.025,0.013c-0.013,0.008 -0.028,0.013 -0.042,0.021c-0.006,0.004 -0.014,0.008 -0.02,0.011c-0.014,0.009 -0.031,0.018 -0.044,0.026c-0.007,0.004 -0.013,0.008 -0.017,0.012c-0.016,0.008 -0.03,0.019 -0.046,0.028c-0.007,0.004 -0.01,0.007 -0.016,0.011c-0.015,0.012 -0.029,0.021 -0.046,0.031c-0.006,0.005 -0.009,0.01 -0.018,0.014c-0.012,0.011 -0.025,0.022 -0.04,0.031c-0.006,0.006 -0.012,0.012 -0.019,0.019c-0.013,0.01 -0.025,0.02 -0.037,0.03c-0.008,0.01 -0.018,0.019 -0.029,0.029c-0.008,0.007 -0.015,0.015 -0.023,0.024c-0.009,0.008 -0.018,0.016 -0.025,0.023c-0.008,0.01 -0.018,0.019 -0.026,0.029c-0.011,0.011 -0.023,0.023 -0.03,0.036c-0.008,0.008 -0.014,0.012 -0.02,0.02c-0.012,0.014 -0.021,0.026 -0.031,0.04c-0.005,0.006 -0.008,0.012 -0.013,0.018c-0.011,0.015 -0.021,0.028 -0.032,0.044c-0.004,0.005 -0.008,0.011 -0.012,0.015c-0.009,0.017 -0.018,0.03 -0.028,0.047c-0.003,0.005 -0.006,0.011 -0.01,0.018c-0.011,0.015 -0.018,0.029 -0.026,0.044c-0.004,0.008 -0.009,0.015 -0.013,0.021c-0.006,0.014 -0.014,0.027 -0.02,0.042c-0.003,0.009 -0.008,0.017 -0.012,0.024c-0.006,0.014 -0.012,0.026 -0.019,0.039c-0.005,0.011 -0.009,0.02 -0.013,0.03c-0.004,0.012 -0.008,0.026 -0.012,0.035c-0.007,0.012 -0.011,0.024 -0.016,0.035c-0.003,0.012 -0.006,0.021 -0.008,0.032c-0.004,0.014 -0.012,0.027 -0.015,0.042c-0.002,0.009 -0.004,0.017 -0.006,0.027c-0.006,0.014 -0.01,0.03 -0.014,0.044c-0.002,0.008 -0.002,0.019 -0.004,0.026c-0.004,0.016 -0.008,0.031 -0.012,0.046c-0.002,0.009 -0.002,0.018 -0.004,0.028c-0.002,0.013 -0.006,0.029 -0.008,0.046c-0.003,0.01 -0.003,0.019 -0.006,0.029c-0.001,0.014 -0.003,0.029 -0.003,0.044c-0.002,0.011 -0.002,0.026 -0.004,0.038c0,0.013 -0.002,0.024 -0.002,0.036c-0.002,0.024 -0.002,0.05 -0.002,0.075l0,15.773c0,0.84 0.68,1.519 1.519,1.519c0.839,-0.001 1.521,-0.68 1.521,-1.519l0,-11.33l-1.887,-2.648l1.887,1.885l0,-0.014l4.279,4.28c0.055,0.088 0.124,0.17 0.198,0.247c0.595,0.593 1.556,0.592 2.149,0l0.599,-0.599l3.928,-3.928l1.871,-1.87l-1.87,2.627l-0.001,11.35c0,0.839 0.679,1.518 1.518,1.518c0.839,0 1.518,-0.679 1.518,-1.518l0,-15.773c0,-0.025 0,-0.052 -0.002,-0.077" style="fill:#1195ef;fill-rule:nonzero;"/><rect x="92.083" y="43.887" width="0.406" height="22.361" style="fill:#1195ef;fill-rule:nonzero;"/><path d="M104.895,56.843l-0.004,-0.009l-0.002,-0.01c-0.266,-1.112 -0.976,-1.953 -2.106,-2.498c-0.952,-0.46 -2.044,-0.641 -2.987,-0.758l-0.007,-0.001l-0.009,-0.001c-0.745,-0.07 -1.401,-0.142 -1.888,-0.342c-0.467,-0.191 -0.678,-0.451 -0.708,-0.878l0,-0.002l0,-0.004c-0.021,-0.25 0,-0.61 0.221,-0.894c0.455,-0.583 1.356,-0.808 2.05,-0.822c0.016,0 0.034,-0.001 0.052,-0.001c0.775,0 1.563,0.262 1.929,0.769c0.229,-0.513 0.742,-0.782 1.318,-0.782c0.219,0 0.425,0.054 0.607,0.147c-0.101,-0.018 -0.204,-0.03 -0.312,-0.03c-0.869,0 -1.575,0.706 -1.575,1.575c0,0.13 0.019,0.253 0.047,0.374c0,0.004 0.002,0.007 0.002,0.011c0.174,0.683 0.791,1.191 1.526,1.191c0.842,0 1.527,-0.659 1.572,-1.49c0.024,-0.208 0.026,-0.428 0.005,-0.646c-0.133,-1.436 -0.818,-2.402 -1.856,-3.113c-0.879,-0.604 -2.027,-0.936 -3.229,-0.936c-1.823,0 -3.542,0.761 -4.488,1.989c-0.629,0.819 -0.928,1.854 -0.837,2.917l0.002,-0.001c0.114,1.42 0.767,2.464 1.946,3.105c0.98,0.536 2.159,0.714 3.287,0.827c1.243,0.125 2.37,0.291 2.514,0.933c0.032,0.133 0.047,0.251 0.047,0.349c0,0.808 -0.96,1.68 -2.511,1.68c-0.562,0 -1.165,-0.154 -1.615,-0.413c-0.143,-0.085 -0.289,-0.224 -0.421,-0.409c-0.279,0.523 -0.829,0.878 -1.462,0.878c-0.204,0 -0.398,-0.04 -0.578,-0.107c0.085,0.014 0.17,0.023 0.261,0.023c0.746,0 1.371,-0.522 1.533,-1.22c0.012,-0.056 0.022,-0.111 0.028,-0.168c0,-0.003 0.002,-0.005 0.002,-0.007c0.006,-0.059 0.01,-0.121 0.01,-0.181c0,-0.869 -0.704,-1.575 -1.573,-1.575c-0.047,0 -0.091,0.005 -0.135,0.009c-0.043,0.003 -0.086,0.008 -0.126,0.015c-0.746,0.124 -1.314,0.772 -1.314,1.551c0,0.033 0.003,0.065 0.005,0.098c-0.035,0.456 0.053,1.778 1.821,3.32c0.871,0.759 2.354,1.138 3.546,1.138c2.711,0 5.517,-1.725 5.517,-4.615c0,-0.289 -0.038,-0.648 -0.105,-0.986" style="fill:#1195ef;fill-rule:nonzero;"/><g transform="matrix(1,0,0,1,-48.9131,-30.3926)"><text x="102.421px" y="109.463px" style="font-family:Source Sans Pro;font-size:12px;font-weight:900;fill:#1195ef;">+ sua </text><text x="89.557px" y="123.863px" style="font-family:Source Sans Pro;font-size:12px;font-weight:900;fill:#1195ef;">FRANQUIA</text></g><g transform="matrix(1,0,0,1,-48.9131,-30.3926)"><text x="213.925px" y="80.159px" style="font-family:Source Sans Pro;font-size:12px;font-weight:900;fill:#1195ef;">CONTEÚDO EXCL</text><text x="304.477px" y="80.159px" style="font-family:Source Sans Pro;font-size:12px;font-weight:900;fill:#1195ef;">U</text><text x="311.541px" y="80.159px" style="font-family:Source Sans Pro;font-size:12px;font-weight:900;fill:#1195ef;">SIVO </text><text x="213.928px" y="94.559px" style="font-family:Source Sans Pro;font-size:12px;font-weight:600;fill:#ccc;">Entramos no universo da sua ma</text><text x="382.024px" y="94.559px" style="font-family:Source Sans Pro;font-size:12px;font-weight:600;fill:#ccc;">r<tspan x="386.4px " y="94.559px ">c</tspan></text><text x="391.844px" y="94.559px" style="font-family:Source Sans Pro;font-size:12px;font-weight:600;fill:#ccc;">a </text><text x="213.928px" y="108.959px" style="font-family:Source Sans Pro;font-size:12px;font-weight:600;fill:#ccc;">p</text><text x="220.596px" y="108.959px" style="font-family:Source Sans Pro;font-size:12px;font-weight:600;fill:#ccc;">ara criar o seu con</text><text x="314.748px" y="108.959px" style="font-family:Source Sans Pro;font-size:12px;font-weight:600;fill:#ccc;">t</text><text x="318.98px" y="108.959px" style="font-family:Source Sans Pro;font-size:12px;font-weight:600;fill:#ccc;">eúdo de Music </text><text x="213.928px" y="123.359px" style="font-family:Source Sans Pro;font-size:12px;font-weight:600;fill:#ccc;">Branding e Digital Signage.</text></g><g transform="matrix(1,0,0,1,-48.9131,-30.3926)"><text x="770.93px" y="290.704px" style="font-family:Source Sans Pro;font-size:12px;font-weight:600;fill:#ccc;">A franquia é reconhecida pelas </text><text x="770.93px" y="305.104px" style="font-family:Source Sans Pro;font-size:12px;font-weight:600;fill:#ccc;">músi</text><text x="796.034px" y="305.104px" style="font-family:Source Sans Pro;font-size:12px;font-weight:600;fill:#ccc;">c</text><text x="801.478px" y="305.104px" style="font-family:Source Sans Pro;font-size:12px;font-weight:600;fill:#ccc;">as que </text><text x="837.334px" y="305.104px" style="font-family:Source Sans Pro;font-size:12px;font-weight:600;fill:#ccc;">t</text><text x="841.566px" y="305.104px" style="font-family:Source Sans Pro;font-size:12px;font-weight:600;fill:#ccc;">o</text><text x="848.154px" y="305.104px" style="font-family:Source Sans Pro;font-size:12px;font-weight:600;fill:#ccc;">c</text><text x="853.598px" y="305.104px" style="font-family:Source Sans Pro;font-size:12px;font-weight:600;fill:#ccc;">am em suas lojas. </text><text x="770.93px" y="328.704px" style="font-family:Source Sans Pro;font-size:12px;font-weight:600;fill:#ccc;">Menus, p</text><text x="817.046px" y="328.704px" style="font-family:Source Sans Pro;font-size:12px;font-weight:600;fill:#ccc;">r</text><text x="821.422px" y="328.704px" style="font-family:Source Sans Pro;font-size:12px;font-weight:600;fill:#ccc;">eços, o</text><text x="857.158px" y="328.704px" style="font-family:Source Sans Pro;font-size:12px;font-weight:600;fill:#ccc;">f</text><text x="860.862px" y="328.704px" style="font-family:Source Sans Pro;font-size:12px;font-weight:600;fill:#ccc;">ertas, e </text><text x="901.506px" y="328.704px" style="font-family:Source Sans Pro;font-size:12px;font-weight:600;fill:#ccc;">t</text><text x="905.738px" y="328.704px" style="font-family:Source Sans Pro;font-size:12px;font-weight:600;fill:#ccc;">oda a </text><text x="770.93px" y="343.104px" style="font-family:Source Sans Pro;font-size:12px;font-weight:600;fill:#ccc;">comuni</text><text x="809.714px" y="343.104px" style="font-family:Source Sans Pro;font-size:12px;font-weight:600;fill:#ccc;">c</text><text x="815.158px" y="343.104px" style="font-family:Source Sans Pro;font-size:12px;font-weight:600;fill:#ccc;">a</text><text x="821.434px" y="343.104px" style="font-family:Source Sans Pro;font-size:12px;font-weight:600;fill:#ccc;">ç</text><text x="826.878px" y="343.104px" style="font-family:Source Sans Pro;font-size:12px;font-weight:600;fill:#ccc;">ão da ma</text><text x="874.098px" y="343.104px" style="font-family:Source Sans Pro;font-size:12px;font-weight:600;fill:#ccc;">r<tspan x="878.474px " y="343.104px ">c</tspan></text><text x="883.918px" y="343.104px" style="font-family:Source Sans Pro;font-size:12px;font-weight:600;fill:#ccc;">a se </text><text x="906.37px" y="343.104px" style="font-family:Source Sans Pro;font-size:12px;font-weight:600;fill:#ccc;">t</text><text x="910.602px" y="343.104px" style="font-family:Source Sans Pro;font-size:12px;font-weight:600;fill:#ccc;">ornam </text><text x="770.93px" y="357.504px" style="font-family:Source Sans Pro;font-size:12px;font-weight:600;fill:#ccc;">mais atraentes nas telas digitais </text><text x="770.93px" y="379.705px" style="font-family:Source Sans Pro;font-size:12px;font-weight:600;fill:#ccc;">A experiência sensorial é </text><text x="770.93px" y="394.105px" style="font-family:Source Sans Pro;font-size:12px;font-weight:600;fill:#ccc;">enriquecida, aumentando a </text><text x="770.93px" y="408.505px" style="font-family:Source Sans Pro;font-size:12px;font-weight:600;fill:#ccc;">satisfação dos consumidores.</text></g><g transform="matrix(1,0,0,1,-48.9131,-30.3926)"><text x="574.766px" y="80.149px" style="font-family:Source Sans Pro;font-size:12px;font-weight:900;fill:#1195ef;">TECNOLOGIA PARA REDES </text><text x="574.77px" y="94.554px" style="font-family:Source Sans Pro;font-size:12px;font-weight:600;fill:#ccc;">Em cada loja é instalado o </text><text x="574.77px" y="108.954px" style="font-family:Source Sans Pro;font-size:12px;font-weight:600;fill:#ccc;">nosso receptor digital de </text><text x="574.77px" y="123.354px" style="font-family:Source Sans Pro;font-size:12px;font-weight:600;fill:#ccc;">som e imagens.</text></g><text x="722.016px" y="231.199px" style="font-family:Source Sans Pro;font-size:12px;font-weight:900;fill:#1195ef;">BENEFÍCIOS PARA A FRANQUIA</text><path d="M165.015,50.662l122.783,0l-122.783,0Z" style="fill:none;stroke-width:0.6px;stroke:#1195ef;"/><path d="M525.856,50.662l138.263,0l-138.263,0Z" style="fill:none;stroke-width:0.6px;stroke:#1195ef;"/><path d="M471.664,82.955l-44.998,-3.955l0,-12.47l44.998,3.958l0,12.467Z" style="fill:none;stroke-width:1.75px;stroke:#ffd663;"/><path d="M471.664,82.955l14.619,-8.383l0,-12.468l-14.619,8.384l0,12.467Z" style="fill:none;stroke-width:1.75px;stroke:#ffd663;"/><path d="M426.666,66.531l18.056,-7.222l41.561,2.794l-14.619,8.384" style="fill:none;stroke-width:1.75px;stroke:#ffd663;"/><path d="M469.05,76.382c0,1.732 -1.404,3.136 -3.136,3.136c-1.731,0 -3.134,-1.404 -3.134,-3.136c0,-1.732 1.403,-3.134 3.134,-3.134c1.732,0 3.136,1.402 3.136,3.134Z" style="fill:none;stroke-width:1.75px;stroke:#ffd663;"/><path d="M449.165,75.073c0,0.277 -0.225,0.502 -0.501,0.502c-0.277,0 -0.503,-0.225 -0.503,-0.502c0,-0.276 0.226,-0.501 0.503,-0.501c0.276,0 0.501,0.225 0.501,0.501Z" style="fill:none;stroke-width:1.75px;stroke:#ffd663;"/><g><path id="SetaBaixo3" d="M447.448,149.179l7.246,5.609l7.246,-5.609" style="fill:none;stroke-width:1.75px;stroke:#1195ef;"/><path id="SetaBaixo2" d="M447.448,136.761l7.246,5.611l7.246,-5.611" style="fill:none;stroke-width:1.75px;stroke:#1195ef;"/><path id="SetaBaixo1" d="M447.448,124.345l7.246,5.61l7.246,-5.61" style="fill:none;stroke-width:1.75px;stroke:#1195ef;"/></g><path id="Linha1" d="M70.287,248.592l0,-107.469" style="fill:none;stroke-width:1.75px;stroke-miterlimit:4;stroke-dasharray:2.9,5.79;stroke:#1195ef;"/><path id="Linha2" d="M318.937,295.592l-203.866,0" style="fill:none;stroke-width:1.75px;stroke-miterlimit:4;stroke-dasharray:2.94,5.89;stroke:#1195ef;"/><path id="Seta2" d="M111.551,299.759l3.52,-4.168l-3.52,-4.166" style="fill:none;stroke-width:1.75px;stroke:#1195ef;"/><path id="Circulo1" d="M107.106,293.154c-0.001,20.333 -16.485,36.818 -36.819,36.818c-20.332,0 -36.816,-16.485 -36.816,-36.818c0,-20.334 16.484,-36.818 36.817,-36.818c20.333,0 36.817,16.484 36.817,36.818Z" style="fill:none;stroke-width:2.09px;stroke-dasharray:2.32,4.63;stroke:#1195ef;"/><path d="M75.285,292.748c2.227,3.182 2.773,6.586 1.07,8.289c-1.259,1.258 -3.445,1.283 -5.783,0.328c-1.557,-0.64 -3.189,-1.705 -4.658,-3.176c-2.035,-2.039 -3.303,-4.371 -3.697,-6.414c-0.315,-1.642 -0.086,-3.095 0.847,-4.031c1.375,-1.375 3.862,-1.273 6.45,-0.023l2.718,-1.512c-5.343,-3.42 -11.552,-3.672 -13.914,-1.313c-5.767,5.768 -5.767,15.122 0,20.889l-6.617,6.615c-0.383,0.387 -0.5,0.965 -0.289,1.465c0.209,0.5 0.697,0.828 1.238,0.828l11.528,0c0.746,0 1.341,-0.599 1.341,-1.343l0,-3.637c4.774,1.074 9.971,-0.213 13.684,-3.928c2.615,-2.609 2.041,-9.945 -2.523,-15.592l-1.395,2.555Z" style="fill:#e9098a;fill-rule:nonzero;"/><path d="M66.906,295.963c1.154,1.154 2.842,0.99 3.746,-0.371l6.752,-10.129l-10.133,6.75c-1.357,0.906 -1.525,2.594 -0.365,3.75" style="fill:#e9098a;fill-rule:nonzero;"/><path id="SinalAntena1" d="M80.531,286.848c-0.309,0.311 -0.309,0.814 0.004,1.125c0.309,0.309 0.813,0.309 1.122,-0.002c1.856,-1.865 1.852,-4.889 -0.011,-6.744c-1.863,-1.858 -4.889,-1.852 -6.745,0.01c-0.307,0.31 -0.308,0.816 0.002,1.123c0.309,0.312 0.815,0.308 1.125,0c1.238,-1.244 3.253,-1.244 4.496,-0.008c1.241,1.238 1.246,3.254 0.007,4.496" style="fill:#eb008b;fill-rule:nonzero;"/><path id="SinalAntena2" d="M84.473,290.773c3.404,-3.414 3.395,-8.959 -0.021,-12.363c-3.415,-3.405 -8.96,-3.395 -12.365,0.021c-0.309,0.311 -0.309,0.813 0.002,1.125c0.311,0.311 0.815,0.307 1.123,-0.004c2.785,-2.793 7.324,-2.799 10.117,-0.017c2.794,2.785 2.802,7.324 0.017,10.117c-0.309,0.31 -0.31,0.816 0.005,1.125c0.309,0.31 0.814,0.308 1.122,-0.004" style="fill:#eb008b;fill-rule:nonzero;"/><path id="SinalAntena3" d="M87.557,293.336c4.959,-4.977 4.946,-13.055 -0.029,-18.01c-4.976,-4.959 -13.054,-4.947 -18.013,0.031c-0.451,0.454 -0.45,1.184 0.003,1.637c0.452,0.451 1.186,0.447 1.636,-0.006c4.058,-4.068 10.669,-4.078 14.737,-0.023c4.07,4.057 4.083,10.668 0.024,14.736c-0.448,0.451 -0.449,1.188 0.006,1.639c0.451,0.453 1.187,0.447 1.636,-0.004" style="fill:#eb008b;fill-rule:nonzero;"/><path id="Seta3" d="M532.779,297.592l3.52,-4.168l-3.52,-4.166" style="fill:none;stroke-width:1.75px;stroke:#1195ef;"/><path id="Linha3" d="M540.729,293.153l124.979,0" style="fill:none;stroke-width:1.75px;stroke-dasharray:3,6;stroke:#1195ef;"/><g id="Play"><path id="PlayCirculo" d="M705.944,318.301c-2.102,2.102 -4.896,3.26 -7.869,3.26c-2.973,0 -5.766,-1.158 -7.869,-3.26c-2.102,-2.102 -3.26,-4.896 -3.26,-7.869c0,-2.973 1.158,-5.768 3.26,-7.869c2.103,-2.102 4.896,-3.26 7.869,-3.26c2.973,0 5.767,1.158 7.869,3.26c2.102,2.101 3.26,4.896 3.26,7.869c0,2.973 -1.158,5.767 -3.26,7.869M698.075,297.713c-3.397,0 -6.59,1.324 -8.992,3.727c-2.405,2.4 -3.727,5.595 -3.727,8.992c0,3.396 1.322,6.59 3.727,8.994c2.402,2.402 5.595,3.725 8.992,3.725c3.396,0 6.592,-1.323 8.992,-3.725c2.402,-2.404 3.727,-5.598 3.727,-8.994c0,-3.397 -1.325,-6.592 -3.727,-8.992c-2.4,-2.403 -5.596,-3.727 -8.992,-3.727" style="fill:#eb008b;fill-rule:nonzero;"/><path id="PlayIcon" d="M696.884,313.168l0,-5.473l3.482,2.737l-3.482,2.736ZM702.142,309.807l-5.563,-4.371c-0.238,-0.19 -0.564,-0.223 -0.838,-0.09c-0.273,0.131 -0.447,0.408 -0.447,0.715l0,8.742c0,0.304 0.174,0.582 0.447,0.715c0.112,0.054 0.229,0.082 0.346,0.082c0.176,0 0.35,-0.059 0.492,-0.172l5.563,-4.373c0.193,-0.151 0.306,-0.379 0.306,-0.623c0,-0.244 -0.113,-0.475 -0.306,-0.625" style="fill:#eb008b;fill-rule:nonzero;"/></g>
<svg x="685" y="251" id="heart_group" width="46" height="44" viewBox="0 0 46 44" version="1.1" xmlns="http://www.w3.org/2000/svg" xmlns:xlink="http://www.w3.org/1999/xlink" xml:space="preserve" style="fill-rule:evenodd;clip-rule:evenodd;stroke-linejoin:round;stroke-miterlimit:1.41421;">
<!-- <path id="SomDesktop" d="M692.512,274.761c1.314,0 2.383,1.07 2.383,2.385c0,1.314 -1.069,2.385 -2.383,2.385c-1.314,0 -2.387,-1.071 -2.387,-2.385c0,-1.315 1.073,-2.385 2.387,-2.385M706.024,257.462l0,4.733l-9.539,2.045l0,-4.735l9.539,-2.043ZM703.641,277.146c-1.316,0 -2.385,-1.071 -2.385,-2.385c0,-1.316 1.069,-2.385 2.385,-2.385c1.312,0 2.383,1.069 2.383,2.385c0,1.314 -1.071,2.385 -2.383,2.385M692.51,281.12c2.193,0 3.975,-1.783 3.975,-3.974l0,-11.281l9.539,-2.043l0,7.767c-0.795,-0.502 -1.489,-0.803 -2.383,-0.803c-2.193,0 -3.975,1.784 -3.975,3.975c0,2.189 1.782,3.975 3.975,3.975c2.189,0 3.973,-1.786 3.973,-3.975l0,-11.928l0,-0.002l0,-6.353c0,-0.24 -0.108,-0.467 -0.295,-0.619c-0.186,-0.151 -0.432,-0.207 -0.666,-0.159l-11.129,2.385c-0.367,0.078 -0.629,0.403 -0.629,0.778l0,15.111c-0.795,-0.502 -1.488,-0.803 -2.385,-0.803c-2.191,0 -3.973,1.783 -3.973,3.975c0,2.191 1.782,3.974 3.973,3.974" style="fill:#eb008b;fill-rule:nonzero;"/> !-->
<path id="SomDesktop" d="M6.751,20.25c1.239,0 2.248,0.968 2.248,2.156c0,1.189 -1.009,2.158 -2.248,2.158c-1.242,0 -2.252,-0.969 -2.252,-2.158c0,-1.188 1.01,-2.156 2.252,-2.156M19.499,4.608l0,4.279l-8.999,1.849l0,-4.28l8.999,-1.848ZM17.251,22.406c-1.241,0 -2.25,-0.967 -2.25,-2.156c0,-1.191 1.009,-2.156 2.25,-2.156c1.24,0 2.248,0.965 2.248,2.156c0,1.189 -1.008,2.156 -2.248,2.156M6.749,26c2.069,0 3.751,-1.612 3.751,-3.594l0,-10.2l8.999,-1.848l0,7.024c-0.749,-0.454 -1.404,-0.726 -2.248,-0.726c-2.069,0 -3.751,1.613 -3.751,3.594c0,1.98 1.682,3.595 3.751,3.595c2.067,0 3.749,-1.615 3.749,-3.595l0,-10.786l0,-0.002l0,-5.744c0,-0.217 -0.101,-0.423 -0.278,-0.56c-0.175,-0.136 -0.408,-0.187 -0.628,-0.142l-10.503,2.155c-0.345,0.072 -0.592,0.365 -0.592,0.704l0,13.663c-0.75,-0.453 -1.404,-0.726 -2.25,-0.726c-2.069,0 -3.749,1.613 -3.749,3.594c0,1.982 1.68,3.594 3.749,3.594" style="fill:#eb008b;fill-rule:nonzero;"/>
</svg>
<path id="Circulo2" d="M491.512,303.155c0,20.333 -16.484,36.818 -36.818,36.818c-20.332,0 -36.817,-16.485 -36.817,-36.818c0,-20.334 16.485,-36.818 36.817,-36.818c20.334,0 36.818,16.484 36.818,36.818Z" style="fill:none;stroke-width:2.09px;stroke-dasharray:2.32,4.63;stroke:#1195ef;"/><path d="M455.005,234.745c20.99,0.253 37.864,12.022 37.692,26.291c-0.172,14.269 -17.326,25.63 -38.313,25.374c-20.988,-0.252 -37.864,-12.022 -37.692,-26.291c0.172,-14.268 17.326,-25.629 38.313,-25.374" style="fill:#000;fill-rule:nonzero;"/><clipPath id="_clip1"><path d="M416.691,260.119c-0.172,14.269 16.704,26.039 37.693,26.291c20.987,0.256 38.14,-11.106 38.313,-25.375c0.172,-14.267 -16.702,-26.038 -37.692,-26.29c-0.232,-0.003 -0.461,-0.005 -0.692,-0.005c-20.67,0.001 -37.451,11.269 -37.622,25.379Z"/></clipPath><g clip-path="url(#_clip1)"><path d="M409.974,259.394l48.47,49.652" style="fill:#000;fill-rule:nonzero;"/><path d="M412.582,256.849l48.47,49.65" style="fill:#000;fill-rule:nonzero;"/><path d="M415.19,254.302l48.468,49.65" style="fill:#000;fill-rule:nonzero;"/><path d="M417.798,251.756l48.471,49.652" style="fill:#000;fill-rule:nonzero;"/><path d="M420.408,249.211l48.466,49.65" style="fill:#000;fill-rule:nonzero;"/><path d="M423.017,246.664l48.468,49.652" style="fill:#000;fill-rule:nonzero;"/><path d="M425.623,244.118l48.47,49.651" style="fill:#000;fill-rule:nonzero;"/><path d="M428.232,241.57l48.468,49.652" style="fill:#000;fill-rule:nonzero;"/><path d="M430.841,239.025l48.468,49.652" style="fill:#000;fill-rule:nonzero;"/><path d="M433.449,236.479l48.468,49.652" style="fill:#000;fill-rule:nonzero;"/><path d="M436.056,233.934l48.47,49.65" style="fill:#000;fill-rule:nonzero;"/><path d="M438.665,231.387l48.468,49.653" style="fill:#000;fill-rule:nonzero;"/><path d="M441.272,228.84l48.469,49.651" style="fill:#000;fill-rule:nonzero;"/><path d="M443.882,226.295l48.468,49.651" style="fill:#000;fill-rule:nonzero;"/><path d="M446.488,223.748l48.47,49.654" style="fill:#000;fill-rule:nonzero;"/><path d="M449.097,221.202l48.469,49.653" style="fill:#000;fill-rule:nonzero;"/><path d="M451.705,218.656l48.471,49.652" style="fill:#000;fill-rule:nonzero;"/><path d="M454.314,216.11l48.469,49.653" style="fill:#000;fill-rule:nonzero;"/><path d="M409.974,259.394l48.47,49.652" style="fill:none;stroke-width:0.67px;stroke:#ffd663;"/><path d="M412.582,256.849l48.47,49.65" style="fill:none;stroke-width:0.67px;stroke:#ffd663;"/><path d="M415.19,254.302l48.468,49.65" style="fill:none;stroke-width:0.67px;stroke:#ffd663;"/><path d="M417.798,251.756l48.471,49.652" style="fill:none;stroke-width:0.67px;stroke:#ffd663;"/><path d="M420.408,249.211l48.466,49.65" style="fill:none;stroke-width:0.67px;stroke:#ffd663;"/><path d="M423.017,246.664l48.468,49.652" style="fill:none;stroke-width:0.67px;stroke:#ffd663;"/><path d="M425.623,244.118l48.47,49.651" style="fill:none;stroke-width:0.67px;stroke:#ffd663;"/><path d="M428.232,241.57l48.468,49.652" style="fill:none;stroke-width:0.67px;stroke:#ffd663;"/><path d="M430.841,239.025l48.468,49.652" style="fill:none;stroke-width:0.67px;stroke:#ffd663;"/><path d="M433.449,236.479l48.468,49.652" style="fill:none;stroke-width:0.67px;stroke:#ffd663;"/><path d="M436.056,233.934l48.47,49.65" style="fill:none;stroke-width:0.67px;stroke:#ffd663;"/><path d="M438.665,231.387l48.468,49.653" style="fill:none;stroke-width:0.67px;stroke:#ffd663;"/><path d="M441.272,228.84l48.469,49.651" style="fill:none;stroke-width:0.67px;stroke:#ffd663;"/><path d="M443.882,226.295l48.468,49.651" style="fill:none;stroke-width:0.67px;stroke:#ffd663;"/><path d="M446.488,223.748l48.47,49.654" style="fill:none;stroke-width:0.67px;stroke:#ffd663;"/><path d="M449.097,221.202l48.469,49.653" style="fill:none;stroke-width:0.67px;stroke:#ffd663;"/><path d="M451.705,218.656l48.471,49.652" style="fill:none;stroke-width:0.67px;stroke:#ffd663;"/><path d="M454.314,216.11l48.469,49.653" style="fill:none;stroke-width:0.67px;stroke:#ffd663;"/></g><path d="M478.151,254.71l0,-48.296l-44.844,0l0,48.296" style="fill:#000;fill-rule:nonzero;stroke-width:1.57px;stroke:#ec1c24;"/><path d="M434.108,224.002c0,1.92 -1.631,3.479 -3.644,3.479c-2.012,0 -3.644,-1.559 -3.644,-3.479" style="fill:#000;fill-rule:nonzero;stroke-width:1.57px;stroke:#ec1c24;"/><path d="M455.977,224.002c0,1.92 -1.633,3.479 -3.647,3.479c-2.012,0 -3.644,-1.559 -3.644,-3.479" style="fill:#000;fill-rule:nonzero;stroke-width:1.57px;stroke:#ec1c24;"/><path d="M448.686,224.002c-0.001,1.92 -1.632,3.479 -3.645,3.479c-2.013,0 -3.644,-1.559 -3.644,-3.479" style="fill:#000;fill-rule:nonzero;stroke-width:1.57px;stroke:#ec1c24;"/><path d="M434.229,224.002c0,1.92 1.631,3.479 3.645,3.479c2.012,0 3.646,-1.559 3.646,-3.479" style="fill:#000;fill-rule:nonzero;stroke-width:1.57px;stroke:#ec1c24;"/><path d="M463.265,224.002c0,1.92 -1.631,3.479 -3.646,3.479c-2.012,0 -3.642,-1.559 -3.642,-3.479" style="fill:#000;fill-rule:nonzero;stroke-width:1.57px;stroke:#ec1c24;"/><path d="M470.556,224.002c0,1.92 -1.634,3.479 -3.646,3.479c-2.013,0 -3.645,-1.559 -3.645,-3.479" style="fill:#000;fill-rule:nonzero;stroke-width:1.57px;stroke:#ec1c24;"/><path d="M477.844,224.002c0,1.92 -1.633,3.479 -3.644,3.479c-2.013,0 -3.644,-1.559 -3.644,-3.479" style="fill:#000;fill-rule:nonzero;stroke-width:1.57px;stroke:#ec1c24;"/><path d="M485.131,224.002c0,1.92 -1.63,3.479 -3.645,3.479c-2.01,0 -3.642,-1.559 -3.642,-3.479" style="fill:#000;fill-rule:nonzero;stroke-width:1.57px;stroke:#ec1c24;"/><path d="M485.152,224.352l-6.628,-9.658l-45.097,0l-6.63,9.658l58.355,0Z" style="fill:#000;fill-rule:nonzero;stroke-width:1.57px;stroke:#ec1c24;"/><path d="M470.563,254.71l0,-24.839l-30.356,0l0,24.839" style="fill:#000;fill-rule:nonzero;stroke-width:1.57px;stroke:#ec1c24;"/><path d="M455.385,229.871l0,24.839" style="fill:#000;fill-rule:nonzero;stroke-width:1.57px;stroke:#ec1c24;"/><path d="M433.721,254.71l44.655,0l3.915,4.937l0,6.791l-54.503,0l0,-6.791l5.933,-4.937Z" style="fill:#000;fill-rule:nonzero;stroke-width:1.57px;stroke:#ec1c24;"/><path d="M481.601,260.918l-53.813,0" style="fill:#000;fill-rule:nonzero;stroke-width:1.57px;stroke:#ec1c24;"/><path d="M444.557,215.55l-3.037,7.8" style="fill:#000;fill-rule:nonzero;stroke-width:1.57px;stroke:#ec1c24;"/><path d="M450.357,215.13l-1.672,8.22" style="fill:#000;fill-rule:nonzero;stroke-width:1.57px;stroke:#ec1c24;"/><path d="M455.838,215.55l0.139,7.909" style="fill:#000;fill-rule:nonzero;stroke-width:1.57px;stroke:#ec1c24;"/><path d="M461.211,215.13l2.054,8.22" style="fill:#000;fill-rule:nonzero;stroke-width:1.57px;stroke:#ec1c24;"/><path d="M466.909,215.13l3.646,8.329" style="fill:#000;fill-rule:nonzero;stroke-width:1.57px;stroke:#ec1c24;"/><path d="M472.71,215.13l5.134,8.22" style="fill:#000;fill-rule:nonzero;stroke-width:1.57px;stroke:#ec1c24;"/><path d="M438.733,215.13l-4.625,8.22" style="fill:#000;fill-rule:nonzero;stroke-width:1.57px;stroke:#ec1c24;"/><clipPath id="_clip2"><path d="M366.114,365.714c-0.174,14.269 16.704,26.039 37.69,26.292c20.988,0.256 38.142,-11.107 38.312,-25.375c0.172,-14.267 -16.701,-26.038 -37.691,-26.29c-0.23,-0.003 -0.46,-0.005 -0.689,-0.005c-20.669,0.001 -37.452,11.269 -37.622,25.378Z"/></clipPath><g clip-path="url(#_clip2)"><path d="M359.396,364.989l48.469,49.651" style="fill:none;stroke-width:0.67px;stroke:#ffd663;"/><path d="M362.005,362.444l48.469,49.65" style="fill:none;stroke-width:0.67px;stroke:#ffd663;"/><path d="M364.612,359.898l48.465,49.649" style="fill:none;stroke-width:0.67px;stroke:#ffd663;"/><path d="M367.222,357.353l48.469,49.649" style="fill:none;stroke-width:0.67px;stroke:#ffd663;"/><path d="M369.829,354.808l48.467,49.648" style="fill:none;stroke-width:0.67px;stroke:#ffd663;"/><path d="M372.437,352.261l48.469,49.651" style="fill:none;stroke-width:0.67px;stroke:#ffd663;"/><path d="M375.044,349.715l48.469,49.651" style="fill:none;stroke-width:0.67px;stroke:#ffd663;"/><path d="M377.653,347.168l48.469,49.65" style="fill:none;stroke-width:0.67px;stroke:#ffd663;"/><path d="M380.263,344.622l48.467,49.651" style="fill:none;stroke-width:0.67px;stroke:#ffd663;"/><path d="M382.868,342.076l48.469,49.651" style="fill:none;stroke-width:0.67px;stroke:#ffd663;"/><path d="M385.478,339.531l48.467,49.65" style="fill:none;stroke-width:0.67px;stroke:#ffd663;"/><path d="M388.085,336.984l48.469,49.651" style="fill:none;stroke-width:0.67px;stroke:#ffd663;"/><path d="M390.694,334.439l48.467,49.649" style="fill:none;stroke-width:0.67px;stroke:#ffd663;"/><path d="M393.304,331.892l48.467,49.651" style="fill:none;stroke-width:0.67px;stroke:#ffd663;"/><path d="M395.909,329.346l48.467,49.652" style="fill:none;stroke-width:0.67px;stroke:#ffd663;"/><path d="M398.518,326.801l48.467,49.651" style="fill:none;stroke-width:0.67px;stroke:#ffd663;"/><path d="M401.126,324.253l48.469,49.651" style="fill:none;stroke-width:0.67px;stroke:#ffd663;"/><path d="M403.735,321.708l48.467,49.652" style="fill:none;stroke-width:0.67px;stroke:#ffd663;"/></g><path d="M427.573,360.307l0,-48.296l-44.844,0l0,48.296" style="fill:#000;fill-rule:nonzero;stroke-width:1.57px;stroke:#ec1c24;"/><path d="M383.53,329.601c0,1.919 -1.631,3.477 -3.645,3.477c-2.011,0 -3.642,-1.558 -3.642,-3.477" style="fill:#000;fill-rule:nonzero;stroke-width:1.57px;stroke:#ec1c24;"/><path d="M405.397,329.601c0,1.919 -1.633,3.477 -3.646,3.477c-2.012,0 -3.643,-1.558 -3.643,-3.477" style="fill:#000;fill-rule:nonzero;stroke-width:1.57px;stroke:#ec1c24;"/><path d="M398.108,329.601c0,1.919 -1.633,3.477 -3.645,3.477c-2.013,0 -3.646,-1.558 -3.646,-3.477" style="fill:#000;fill-rule:nonzero;stroke-width:1.57px;stroke:#ec1c24;"/><path d="M383.649,329.601c0,1.919 1.631,3.477 3.643,3.477c2.015,0 3.646,-1.558 3.646,-3.477" style="fill:#000;fill-rule:nonzero;stroke-width:1.57px;stroke:#ec1c24;"/><path d="M412.687,329.601c0,1.919 -1.633,3.477 -3.647,3.477c-2.014,0 -3.642,-1.558 -3.642,-3.477" style="fill:#000;fill-rule:nonzero;stroke-width:1.57px;stroke:#ec1c24;"/><path d="M419.976,329.601c0,1.919 -1.635,3.477 -3.646,3.477c-2.012,0 -3.643,-1.558 -3.643,-3.477" style="fill:#000;fill-rule:nonzero;stroke-width:1.57px;stroke:#ec1c24;"/><path d="M427.263,329.601c0,1.919 -1.631,3.477 -3.643,3.477c-2.013,0 -3.644,-1.558 -3.644,-3.477" style="fill:#000;fill-rule:nonzero;stroke-width:1.57px;stroke:#ec1c24;"/><path d="M434.552,329.601c0,1.919 -1.631,3.477 -3.645,3.477c-2.011,0 -3.644,-1.558 -3.644,-3.477" style="fill:#000;fill-rule:nonzero;stroke-width:1.57px;stroke:#ec1c24;"/><path d="M434.573,329.95l-6.629,-9.659l-45.094,0l-6.632,9.659l58.355,0Z" style="fill:#000;fill-rule:nonzero;stroke-width:1.57px;stroke:#ec1c24;"/><path d="M419.983,360.307l0,-24.839l-30.355,0l0,24.839" style="fill:#000;fill-rule:nonzero;stroke-width:1.57px;stroke:#ec1c24;"/><path d="M404.806,335.468l0,24.839" style="fill:#000;fill-rule:nonzero;stroke-width:1.57px;stroke:#ec1c24;"/><path d="M383.142,360.307l44.654,0l3.916,4.937l0,6.791l-54.502,0l0,-6.791l5.932,-4.937Z" style="fill:#000;fill-rule:nonzero;stroke-width:1.57px;stroke:#ec1c24;"/><path d="M431.02,366.515l-53.81,0" style="fill:#000;fill-rule:nonzero;stroke-width:1.57px;stroke:#ec1c24;"/><path d="M393.98,321.147l-3.041,7.799" style="fill:#000;fill-rule:nonzero;stroke-width:1.57px;stroke:#ec1c24;"/><path d="M399.78,320.728l-1.672,8.219" style="fill:#000;fill-rule:nonzero;stroke-width:1.57px;stroke:#ec1c24;"/><path d="M405.257,321.147l0.141,7.909" style="fill:#000;fill-rule:nonzero;stroke-width:1.57px;stroke:#ec1c24;"/><path d="M410.63,320.728l2.057,8.219" style="fill:#000;fill-rule:nonzero;stroke-width:1.57px;stroke:#ec1c24;"/><path d="M416.329,320.728l3.646,8.329" style="fill:#000;fill-rule:nonzero;stroke-width:1.57px;stroke:#ec1c24;"/><path d="M422.13,320.728l5.133,8.219" style="fill:#000;fill-rule:nonzero;stroke-width:1.57px;stroke:#ec1c24;"/><path d="M388.153,320.728l-4.623,8.219" style="fill:#000;fill-rule:nonzero;stroke-width:1.57px;stroke:#ec1c24;"/><clipPath id="_clip3"><path d="M467.272,365.714c-0.171,14.269 16.704,26.039 37.692,26.292c20.985,0.256 38.139,-11.107 38.31,-25.375c0.174,-14.267 -16.703,-26.038 -37.689,-26.29c-0.23,-0.003 -0.46,-0.005 -0.689,-0.005c-20.673,0.001 -37.456,11.269 -37.624,25.378Z"/></clipPath><g clip-path="url(#_clip3)"><path d="M460.554,364.989l48.471,49.651" style="fill:none;stroke-width:0.67px;stroke:#ffd663;"/><path d="M463.161,362.444l48.469,49.65" style="fill:none;stroke-width:0.67px;stroke:#ffd663;"/><path d="M465.771,359.898l48.467,49.649" style="fill:none;stroke-width:0.67px;stroke:#ffd663;"/><path d="M468.378,357.353l48.469,49.649" style="fill:none;stroke-width:0.67px;stroke:#ffd663;"/><path d="M470.987,354.808l48.467,49.648" style="fill:none;stroke-width:0.67px;stroke:#ffd663;"/><path d="M473.597,352.261l48.465,49.651" style="fill:none;stroke-width:0.67px;stroke:#ffd663;"/><path d="M476.202,349.715l48.469,49.651" style="fill:none;stroke-width:0.67px;stroke:#ffd663;"/><path d="M478.812,347.168l48.467,49.65" style="fill:none;stroke-width:0.67px;stroke:#ffd663;"/><path d="M481.419,344.622l48.469,49.651" style="fill:none;stroke-width:0.67px;stroke:#ffd663;"/><path d="M484.028,342.076l48.467,49.651" style="fill:none;stroke-width:0.67px;stroke:#ffd663;"/><path d="M486.636,339.531l48.469,49.65" style="fill:none;stroke-width:0.67px;stroke:#ffd663;"/><path d="M489.243,336.984l48.467,49.651" style="fill:none;stroke-width:0.67px;stroke:#ffd663;"/><path d="M491.851,334.439l48.469,49.649" style="fill:none;stroke-width:0.67px;stroke:#ffd663;"/><path d="M494.462,331.892l48.465,49.651" style="fill:none;stroke-width:0.67px;stroke:#ffd663;"/><path d="M497.067,329.346l48.469,49.652" style="fill:none;stroke-width:0.67px;stroke:#ffd663;"/><path d="M499.677,326.801l48.467,49.651" style="fill:none;stroke-width:0.67px;stroke:#ffd663;"/><path d="M502.282,324.253l48.473,49.651" style="fill:none;stroke-width:0.67px;stroke:#ffd663;"/><path d="M504.892,321.708l48.467,49.652" style="fill:none;stroke-width:0.67px;stroke:#ffd663;"/></g><path d="M528.729,360.307l0,-48.296l-44.842,0l0,48.296" style="fill:#000;fill-rule:nonzero;stroke-width:1.57px;stroke:#ec1c24;"/><path d="M484.689,329.601c-0.001,1.919 -1.632,3.477 -3.646,3.477c-2.013,0 -3.644,-1.558 -3.644,-3.477" style="fill:#000;fill-rule:nonzero;stroke-width:1.57px;stroke:#ec1c24;"/><path d="M506.556,329.601c0,1.919 -1.633,3.477 -3.646,3.477c-2.014,0 -3.645,-1.558 -3.645,-3.477" style="fill:#000;fill-rule:nonzero;stroke-width:1.57px;stroke:#ec1c24;"/><path d="M499.265,329.601c0,1.919 -1.631,3.477 -3.645,3.477c-2.011,0 -3.642,-1.558 -3.642,-3.477" style="fill:#000;fill-rule:nonzero;stroke-width:1.57px;stroke:#ec1c24;"/><path d="M484.808,329.601c0,1.919 1.633,3.477 3.645,3.477c2.011,0 3.646,-1.558 3.646,-3.477" style="fill:#000;fill-rule:nonzero;stroke-width:1.57px;stroke:#ec1c24;"/><path d="M513.845,329.601c0,1.919 -1.631,3.477 -3.646,3.477c-2.014,0 -3.643,-1.558 -3.643,-3.477" style="fill:#000;fill-rule:nonzero;stroke-width:1.57px;stroke:#ec1c24;"/><path d="M521.136,329.601c0,1.919 -1.635,3.477 -3.646,3.477c-2.014,0 -3.645,-1.558 -3.645,-3.477" style="fill:#000;fill-rule:nonzero;stroke-width:1.57px;stroke:#ec1c24;"/><path d="M528.423,329.601c0,1.919 -1.635,3.477 -3.645,3.477c-2.011,0 -3.642,-1.558 -3.642,-3.477" style="fill:#000;fill-rule:nonzero;stroke-width:1.57px;stroke:#ec1c24;"/><path d="M535.708,329.601c0,1.919 -1.629,3.477 -3.645,3.477c-2.009,0 -3.64,-1.558 -3.64,-3.477" style="fill:#000;fill-rule:nonzero;stroke-width:1.57px;stroke:#ec1c24;"/><path d="M535.729,329.95l-6.627,-9.659l-45.096,0l-6.629,9.659l58.352,0Z" style="fill:#000;fill-rule:nonzero;stroke-width:1.57px;stroke:#ec1c24;"/><path d="M521.142,360.307l0,-24.839l-30.355,0l0,24.839" style="fill:#000;fill-rule:nonzero;stroke-width:1.57px;stroke:#ec1c24;"/><path d="M505.962,335.468l0,24.839" style="fill:#000;fill-rule:nonzero;stroke-width:1.57px;stroke:#ec1c24;"/><path d="M484.3,360.307l44.656,0l3.914,4.937l0,6.791l-54.502,0l0,-6.791l5.932,-4.937Z" style="fill:#000;fill-rule:nonzero;stroke-width:1.57px;stroke:#ec1c24;"/><path d="M532.179,366.515l-53.811,0" style="fill:#000;fill-rule:nonzero;stroke-width:1.57px;stroke:#ec1c24;"/><path d="M495.136,321.147l-3.037,7.799" style="fill:#000;fill-rule:nonzero;stroke-width:1.57px;stroke:#ec1c24;"/><path d="M500.936,320.728l-1.672,8.219" style="fill:#000;fill-rule:nonzero;stroke-width:1.57px;stroke:#ec1c24;"/><path d="M506.417,321.147l0.139,7.909" style="fill:#000;fill-rule:nonzero;stroke-width:1.57px;stroke:#ec1c24;"/><path d="M511.79,320.728l2.055,8.219" style="fill:#000;fill-rule:nonzero;stroke-width:1.57px;stroke:#ec1c24;"/><path d="M517.489,320.728l3.646,8.329" style="fill:#000;fill-rule:nonzero;stroke-width:1.57px;stroke:#ec1c24;"/><path d="M523.29,320.728l5.133,8.219" style="fill:#000;fill-rule:nonzero;stroke-width:1.57px;stroke:#ec1c24;"/><path d="M489.314,320.728l-4.626,8.219" style="fill:#000;fill-rule:nonzero;stroke-width:1.57px;stroke:#ec1c24;"/><path id="SinalReceveir1" d="M424.167,59.325c0.275,0.272 0.719,0.272 0.994,-0.004c0.272,-0.273 0.272,-0.718 -0.002,-0.991c-1.647,-1.638 -4.317,-1.635 -5.955,0.01c-1.641,1.645 -1.635,4.317 0.009,5.956c0.274,0.271 0.72,0.272 0.991,-0.002c0.276,-0.273 0.272,-0.72 0,-0.993c-1.098,-1.093 -1.098,-2.873 -0.007,-3.97c1.094,-1.096 2.874,-1.1 3.97,-0.006" style="fill:#ffd663;fill-rule:nonzero;"/><path id="SinalReceveir2" d="M427.634,55.844c-3.015,-3.005 -7.911,-2.997 -10.917,0.019c-3.006,3.015 -2.997,7.912 0.019,10.918c0.275,0.273 0.718,0.273 0.993,-0.002c0.275,-0.274 0.271,-0.719 -0.003,-0.991c-2.466,-2.459 -2.472,-6.467 -0.015,-8.933c2.459,-2.467 6.467,-2.475 8.933,-0.015c0.274,0.272 0.72,0.273 0.993,-0.005c0.274,-0.273 0.272,-0.719 -0.003,-0.991" style="fill:#ffd663;fill-rule:nonzero;"/><path id="SinalReceveir3" d="M429.896,53.121c-4.394,-4.378 -11.527,-4.367 -15.902,0.026c-4.379,4.394 -4.368,11.526 0.027,15.905c0.401,0.398 1.046,0.397 1.446,-0.003c0.398,-0.399 0.394,-1.047 -0.006,-1.444c-3.592,-3.583 -3.6,-9.421 -0.02,-13.013c3.582,-3.593 9.42,-3.605 13.012,-0.021c0.398,0.396 1.049,0.397 1.447,-0.005c0.4,-0.398 0.395,-1.048 -0.004,-1.445" style="fill:#ffd663;fill-rule:nonzero;"/>
<svg x="675" y="335" id="heart_group" width="46" height="44" viewBox="0 0 46 44" version="1.1" xmlns="http://www.w3.org/2000/svg" xmlns:xlink="http://www.w3.org/1999/xlink" xml:space="preserve" style="fill-rule:evenodd;clip-rule:evenodd;stroke-linejoin:round;stroke-miterlimit:1.41421;">
<path id="Heart" d="M29.358,10.475c-2.766,0 -5.168,1.402 -6.359,3.447c-1.189,-2.045 -3.596,-3.447 -6.359,-3.447c-4.176,0 -6.359,3.598 -6.359,7.154c0,8.303 11.807,15.48 12.309,15.783c0.127,0.076 0.27,0.113 0.41,0.113c0.143,0 0.283,-0.037 0.408,-0.113c0.502,-0.303 12.311,-7.48 12.311,-15.783c-0.002,-3.556 -2.187,-7.154 -6.361,-7.154l0,0ZM22.999,31.791c-2.055,-1.324 -11.129,-7.557 -11.129,-14.162c0,-2.68 1.494,-5.564 4.77,-5.564c2.676,0 5.564,1.824 5.564,4.77c0,0.439 0.355,0.795 0.795,0.795c0.44,0 0.795,-0.355 0.795,-0.795c0,-2.945 2.889,-4.77 5.564,-4.77c3.277,0 4.77,2.885 4.77,5.564c-0.001,6.598 -9.077,12.836 -11.129,14.162l0,0Z" style="fill:#eb008b;fill-rule:nonzero;"/></svg>
<path id="Seta1" d="M66.121,137.686l4.236,3.437l4.096,-3.601" style="fill:none;stroke-width:1.75px;stroke:#1195ef;"/></g></svg>