<?xml version="1.0" encoding="UTF-8" standalone="no"?>
<svg
   xmlns:dc="http://purl.org/dc/elements/1.1/"
   xmlns:cc="http://creativecommons.org/ns#"
   xmlns:rdf="http://www.w3.org/1999/02/22-rdf-syntax-ns#"
   xmlns:svg="http://www.w3.org/2000/svg"
   xmlns="http://www.w3.org/2000/svg"
   xmlns:sodipodi="http://sodipodi.sourceforge.net/DTD/sodipodi-0.dtd"
   xmlns:inkscape="http://www.inkscape.org/namespaces/inkscape"
   height="18.100405"
   width="16.022367"
   id="svg3384"
   version="1.1"
   inkscape:version="0.91 r13725"
   sodipodi:docname="log.svg">
  <metadata
     id="metadata3392">
    <rdf:RDF>
      <cc:Work
         rdf:about="">
        <dc:format>image/svg+xml</dc:format>
        <dc:type
           rdf:resource="http://purl.org/dc/dcmitype/StillImage" />
        <dc:title></dc:title>
      </cc:Work>
    </rdf:RDF>
  </metadata>
  <path
     d="M 0,8.871088 Q 0,8.230028 0.404732,7.777522 0.809466,7.325009 1.376923,7.325009 l 5.883217,0 L 5.365829,5.185016 Q 4.965266,4.732502 4.965266,4.091449 q 0,-0.641055 0.400563,-1.102996 0.408897,-0.452507 0.980529,-0.452507 0.571629,0 0.972193,0.452507 l 4.222562,4.789069 q 0.408908,0.452506 0.408908,1.093566 0,0.641053 -0.408908,1.093562 l -4.13911,4.685368 q -0.40056,0.452506 -0.972192,0.452506 -0.571633,0 -0.972192,-0.452506 -0.400558,-0.452514 -0.400558,-1.093569 0,-0.641053 0.400558,-1.102995 l 1.802521,-2.026863 -5.883217,0 q -0.567457,0 -0.972191,-0.457225 Q 0,9.512141 0,8.871088 Z m 9.947219,7.673814 q 0,-0.641061 0.404731,-1.098279 0.404735,-0.457221 0.972191,-0.457221 l 1.22672,0 q 0.300416,0 0.513211,-0.235686 0.212798,-0.235682 0.212798,-0.575066 l 0,-10.27575 q 0,-0.329957 -0.212798,-0.565636 -0.212795,-0.235682 -0.513211,-0.235682 l -1.22672,0 q -0.567456,0 -0.972191,-0.457225 Q 9.947219,2.187135 9.947219,1.54608 q 0,-0.64106 0.404731,-1.093566 Q 10.756685,0 11.324141,0 l 1.22672,0 q 1.443678,0 2.457594,1.140706 1.013913,1.1407 1.013913,2.762194 l 0,10.27575 q 0,1.630923 -1.018085,2.776341 -1.018089,1.145413 -2.453422,1.145413 l -1.22672,0 q -0.567456,0 -0.972191,-0.457221 -0.404731,-0.457226 -0.404731,-1.098281 z"
     id="path3386"
     inkscape:connector-curvature="0" />
</svg>
