<?xml version="1.0" encoding="UTF-8" standalone="no"?>
<svg
   xmlns:dc="http://purl.org/dc/elements/1.1/"
   xmlns:cc="http://creativecommons.org/ns#"
   xmlns:rdf="http://www.w3.org/1999/02/22-rdf-syntax-ns#"
   xmlns:svg="http://www.w3.org/2000/svg"
   xmlns="http://www.w3.org/2000/svg"
   xmlns:sodipodi="http://sodipodi.sourceforge.net/DTD/sodipodi-0.dtd"
   xmlns:inkscape="http://www.inkscape.org/namespaces/inkscape"
   height="49.863232"
   width="43.814838"
   id="svg3384"
   version="1.1"
   inkscape:version="0.91 r13725"
   sodipodi:docname="log.svg">
  <metadata
     id="metadata3392">
    <rdf:RDF>
      <cc:Work
         rdf:about="">
        <dc:format>image/svg+xml</dc:format>
        <dc:type
           rdf:resource="http://purl.org/dc/dcmitype/StillImage" />
        <dc:title></dc:title>
      </cc:Work>
    </rdf:RDF>
  </metadata>
  <defs
     id="defs3390" />
  <sodipodi:namedview
     pagecolor="#ffffff"
     bordercolor="#666666"
     borderopacity="1"
     objecttolerance="10"
     gridtolerance="10"
     guidetolerance="10"
     inkscape:pageopacity="0"
     inkscape:pageshadow="2"
     inkscape:window-width="1139"
     inkscape:window-height="579"
     id="namedview3388"
     showgrid="false"
     units="px"
     fit-margin-top="0"
     fit-margin-left="0"
     fit-margin-right="0"
     fit-margin-bottom="0"
     inkscape:zoom="0.496"
     inkscape:cx="101.81451"
     inkscape:cy="-39.296521"
     inkscape:window-x="0"
     inkscape:window-y="0"
     inkscape:window-maximized="0"
     inkscape:current-layer="svg3384" />
  <path
     d="m 0,24.43819 q 0,-1.766 1.10678,-3.01257 1.10679,-1.24659 2.65856,-1.24659 l 16.08827,0 -5.18019,-5.89528 q -1.09538,-1.24659 -1.09538,-3.01257 0,-1.76599 1.09538,-3.03855 1.11817,-1.24657 2.68136,-1.24657 1.56318,0 2.65856,1.24657 l 11.54704,13.19299 q 1.1182,1.24657 1.1182,3.01257 0,1.76598 -1.1182,3.01256 L 20.24155,40.35806 q -1.09537,1.24657 -2.65856,1.24657 -1.56319,0 -2.65856,-1.24657 -1.09537,-1.24659 -1.09537,-3.01258 0,-1.76598 1.09537,-3.03854 l 4.92918,-5.58363 -16.08827,0 q -1.55177,0 -2.65856,-1.25957 Q 0,26.20417 0,24.43819 Z m 27.20171,21.13992 q 0,-1.766 1.10678,-3.02555 1.10679,-1.25956 2.65856,-1.25956 l 3.35459,0 q 0.82152,0 1.40343,-0.64927 0.58192,-0.64926 0.58192,-1.5842 l 0,-28.30777 q 0,-0.90897 -0.58192,-1.55822 -0.58191,-0.64926 -1.40343,-0.64926 l -3.35459,0 q -1.55177,0 -2.65856,-1.25957 -1.10678,-1.25956 -1.10678,-3.02555 0,-1.766 1.10678,-3.01257 Q 29.41528,0 30.96705,0 l 3.35459,0 q 3.94789,0 6.72055,3.14243 2.77265,3.14242 2.77265,7.60933 l 0,28.30777 q 0,4.49289 -2.78406,7.6483 -2.78407,3.1554 -6.70914,3.1554 l -3.35459,0 q -1.55177,0 -2.65856,-1.25956 -1.10678,-1.25957 -1.10678,-3.02556 z"
     id="path3386"
     inkscape:connector-curvature="0" />
</svg>
