<?xml version="1.0" encoding="UTF-8" standalone="no"?>
<svg
   xmlns:dc="http://purl.org/dc/elements/1.1/"
   xmlns:cc="http://creativecommons.org/ns#"
   xmlns:rdf="http://www.w3.org/1999/02/22-rdf-syntax-ns#"
   xmlns:svg="http://www.w3.org/2000/svg"
   xmlns="http://www.w3.org/2000/svg"
   xmlns:sodipodi="http://sodipodi.sourceforge.net/DTD/sodipodi-0.dtd"
   xmlns:inkscape="http://www.inkscape.org/namespaces/inkscape"
   height="10.34026"
   width="12.51017"
   id="svg3403"
   version="1.1"
   inkscape:version="0.91 r13725"
   sodipodi:docname="login2.svg">
  <metadata
     id="metadata3411">
    <rdf:RDF>
      <cc:Work
         rdf:about="">
        <dc:format>image/svg+xml</dc:format>
        <dc:type
           rdf:resource="http://purl.org/dc/dcmitype/StillImage" />
        <dc:title></dc:title>
      </cc:Work>
    </rdf:RDF>
  </metadata>
  <defs
     id="defs3409" />
  <sodipodi:namedview
     pagecolor="#ffffff"
     bordercolor="#666666"
     borderopacity="1"
     objecttolerance="10"
     gridtolerance="10"
     guidetolerance="10"
     inkscape:pageopacity="0"
     inkscape:pageshadow="2"
     inkscape:window-width="658"
     inkscape:window-height="480"
     id="namedview3407"
     showgrid="false"
     fit-margin-top="0"
     fit-margin-left="0"
     fit-margin-right="0"
     fit-margin-bottom="0"
     inkscape:zoom="1.03"
     inkscape:cx="34.503703"
     inkscape:cy="-20.47672"
     inkscape:window-x="0"
     inkscape:window-y="0"
     inkscape:window-maximized="0"
     inkscape:current-layer="svg3403" />
  <path
     d="m 9.64325,5.17016 q 0,0.21003 -0.15476,0.36352 L 5.05782,9.92827 q -0.15475,0.15348 -0.36652,0.15348 -0.21174,0 -0.3665,-0.15348 Q 4.17006,9.77478 4.17006,9.56474 l 0,-2.32654 -3.64879,0 Q 0.3095,7.2382 0.15475,7.0847 0,6.93121 0,6.72117 L 0,3.61911 Q 0,3.40908 0.15475,3.25559 0.3095,3.10211 0.52127,3.10211 l 3.64879,0 0,-2.32656 q 0,-0.21003 0.15474,-0.36351 0.15476,-0.15348 0.3665,-0.15348 0.21177,0 0.36652,0.15348 l 4.43067,4.39459 q 0.15476,0.15349 0.15476,0.36353 z m 2.86692,-2.84356 0,5.68711 q 0,0.96132 -0.68821,1.64394 -0.68823,0.68261 -1.65745,0.68261 l -2.60629,0 q -0.10595,0 -0.18324,-0.0767 -0.0774,-0.0767 -0.0774,-0.18178 0,-0.0323 -0.008,-0.16156 -0.008,-0.12924 -0.005,-0.21407 0.005,-0.0847 0.0244,-0.18982 0.0204,-0.10495 0.0814,-0.15752 0.0612,-0.0526 0.16698,-0.0526 l 2.60628,0 q 0.53756,0 0.92034,-0.37968 0.3828,-0.37968 0.3828,-0.91285 l 0,-5.68711 q 0,-0.53317 -0.3828,-0.91285 Q 10.7012,1.03405 10.16364,1.03405 l -2.54114,0 q 0,0 -0.0936,-0.008 -0.0936,-0.008 -0.0936,-0.0242 0,-0.0161 -0.0651,-0.0445 -0.0651,-0.0283 -0.0571,-0.0727 0.008,-0.0443 -0.0163,-0.10904 0,-0.0324 -0.008,-0.16157 Q 7.2808,0.48479 7.2838,0.39996 7.2888,0.31516 7.3082,0.21012 7.3287,0.10517 7.3896,0.0526 7.4507,0 7.55657,0 l 2.60629,0 q 0.96919,0 1.65744,0.68261 0.68822,0.68262 0.68822,1.64393 z"
     id="path3405"
     inkscape:connector-curvature="0" />
</svg>
